<?xml version="1.0" standalone="no"?>
<!DOCTYPE svg PUBLIC "-//W3C//DTD SVG 1.1//EN" "http://www.w3.org/Graphics/SVG/1.1/DTD/svg11.dtd" >
<svg xmlns="http://www.w3.org/2000/svg">
<metadata></metadata>
<defs>
<font id="fedra_sans_alt_pro_demidemi" horiz-adv-x="583" >
<font-face units-per-em="1000" ascent="780" descent="-220" />
<missing-glyph horiz-adv-x="249" />
<glyph unicode="ff" horiz-adv-x="693" d="M109 0v467h-80v79h80v43q0 190 222 190q92 0 185 -36q46 36 140 36q26 0 67.5 -7.5t59.5 -13.5l-20 -82q-56 12 -101 12q-104 0 -104 -99v-43h118v-79h-118v-467h-104v467h-240v-467h-105zM214 546h240v46q0 46 13 75q-76 21 -146 21q-107 0 -107 -99v-43z" />
<glyph unicode="fi" horiz-adv-x="639" d="M109 0v467h-80v79h80v33q0 110 53.5 154.5t143.5 44.5q21 0 69 -3t72 -3q47 0 92 5l16 -80q-51 -17 -125 -17q-21 0 -62.5 3t-62.5 3q-50 0 -71 -26t-21 -82v-32h346v-546h-105v467h-241v-467h-104z" />
<glyph unicode="fl" horiz-adv-x="639" d="M109 0v467h-80v79h80v31q0 105 54.5 152.5t142.5 47.5q19 0 67 -3.5t74 -3.5q30 -1 112 7v-777h-105v680q-27 -1 -75.5 2.5t-73.5 3.5q-50 0 -71 -26.5t-21 -79.5v-34h118v-79h-118v-467h-104z" />
<glyph unicode="ffi" horiz-adv-x="983" d="M109 0v467h-80v79h80v43q0 190 212 190q104 0 198 -37q52 37 131 37q21 0 69.5 -3t72.5 -3q48 0 91 5l16 -79q-50 -18 -124 -18q-21 0 -63 3.5t-63 3.5q-50 0 -70 -28t-20 -87v-27h344v-546h-105v467h-239v-467h-105v467h-240v-467h-105zM214 546h240v28q0 57 14 93 q-76 21 -147 21q-107 0 -107 -99v-43z" />
<glyph unicode="ffl" horiz-adv-x="975" d="M109 0v467h-80v79h80v43q0 190 222 190q88 0 187 -37q48 37 131 37q20 0 68.5 -4t73.5 -4q34 0 104 7v-778h-104v682q-25 -1 -71.5 2.5t-71.5 3.5q-50 0 -70.5 -28t-20.5 -85v-29h117v-79h-117v-467h-104v467h-239v-467h-105zM214 546h240v28q0 57 13 92q-74 22 -146 22 q-107 0 -107 -99v-43z" />
<glyph unicode="&#x105;j" horiz-adv-x="854" d="M496 -244q-75 0 -118 31.5t-43 85.5q0 75 89 131q-14 8 -26 24t-15 32q-1 -1 -12 -9t-16 -11l-17.5 -10.5t-21 -11.5t-23 -10t-27.5 -8.5t-29.5 -5t-33.5 -2.5q-79 0 -122 40t-43 116q0 48 20 82.5t54 51.5t68.5 24.5t74.5 7.5l119 2v61q0 54 -29 73t-99 19 q-46 0 -143 -25l-21 79q86 36 188 36q45 0 79.5 -6.5t64.5 -22.5t46 -47.5t16 -77.5v-286q0 -40 51 -43l-6 -78q-90 -56 -90 -105q0 -26 22.5 -38.5t54.5 -12.5q75 0 118.5 42t43.5 123v539h105v-540q0 -118 -76.5 -184t-202.5 -66zM224 75q16 0 34.5 4t38 11t31.5 12t29 13 l17 8v126l-116 -5q-61 -2 -89.5 -26t-28.5 -62q0 -81 84 -81zM669 662v109h105v-109h-105z" />
<glyph unicode="fh" horiz-adv-x="994" d="M109 0v468h-80v78h80v28q0 205 196 205q20 0 68.5 -4t73.5 -4q39 0 111 7v-290q1 1 13.5 9.5t16 11t16 10.5t19 11t19.5 9.5t23 9t23.5 6t27.5 5t28 1.5q48 0 81.5 -13t51.5 -31.5t28 -49t12.5 -55.5t2.5 -62v-350h-105v335q0 69 -20 101.5t-81 32.5q-51 0 -156 -59v-410 h-105v682q-26 -1 -75 2.5t-74 3.5q-50 0 -70.5 -28.5t-20.5 -86.5v-27h117v-78h-117v-468h-104z" />
<glyph unicode="fb" horiz-adv-x="980" d="M657 -10q-21 0 -41 1t-35 2t-31 3.5t-25 4t-22.5 5t-18 5t-17 5.5t-13.5 4v660q-26 -1 -75 2.5t-74 3.5q-50 0 -71 -26.5t-21 -79.5v-34h118v-79h-118v-467h-104v467h-80v79h80v31q0 105 54.5 152.5t142.5 47.5q19 0 67 -3.5t74 -3.5q30 -1 111 7v-251q58 31 140 31 q113 0 173.5 -65t60.5 -194q0 -83 -22.5 -144.5t-62 -96t-87 -51t-103.5 -16.5zM679 475q-61 0 -121 -27v-361q58 -12 102 -12q79 0 122 60t43 151q0 92 -31.5 140.5t-114.5 48.5z" />
<glyph unicode="fj" horiz-adv-x="637" d="M360 -224q-42 0 -80 14l19 85q19 -7 64 -7q50 0 70 29t20 90v481h-240v-468h-104v468h-80v78h80v28q0 205 196 205q19 0 67 -3t75 -3q56 0 91 4l15 -79q-46 -17 -124 -17q-23 0 -64 3t-61 3q-50 0 -70.5 -28.5t-20.5 -86.5v-26h345v-560q0 -117 -53 -163.5t-145 -46.5z " />
<glyph unicode="fk" horiz-adv-x="930" d="M109 0v468h-80v78h80v28q0 205 196 205q20 0 68.5 -4t73.5 -4q41 0 111 7v-778h-105v682q-26 -1 -75 2.5t-74 3.5q-50 0 -70.5 -28.5t-20.5 -86.5v-27h117v-78h-117v-468h-104zM780 0l-217 288l219 258h117l-223 -254l234 -292h-130z" />
<glyph unicode="ffj" horiz-adv-x="982" d="M708 -220q-40 0 -79 13l19 83q21 -7 59 -7q50 0 70 29.5t21 90.5v478h-239v-467h-105v467h-240v-467h-105v467h-80v79h80v43q0 190 212 190q104 0 198 -37q52 37 131 37q21 0 69.5 -3t72.5 -3q48 0 91 5l16 -79q-50 -18 -124 -18q-21 0 -63 3.5t-63 3.5q-50 0 -70 -28 t-20 -87v-27h344v-558q-1 -117 -53 -162.5t-142 -45.5zM214 546h240v28q0 57 14 93q-76 21 -147 21q-107 0 -107 -99v-43z" />
<glyph unicode="f&#xef;" horiz-adv-x="638" d="M109 0v467h-80v79h80v50q0 90 44 130.5t119 40.5q46 0 83 -13l-17 -81q-29 9 -59 9q-66 0 -66 -82v-54h115v-79h-115v-467h-104zM452 0v546h106v-546h-106zM387 660v95h88v-95h-88zM563 660v95h88v-95h-88z" />
<glyph unicode="f&#xec;" horiz-adv-x="638" d="M109 0v467h-80v79h80v50q0 171 161 171q52 0 91 -13l-17 -82q-28 10 -67 10q-64 0 -64 -82v-54h115v-79h-115v-467h-104zM530 600l-143 158l65 57l134 -167zM452 0v546h106v-546h-106z" />
<glyph unicode=" "  horiz-adv-x="249" />
<glyph unicode="&#x09;" horiz-adv-x="249" />
<glyph unicode="&#xa0;" horiz-adv-x="249" />
<glyph unicode="!" horiz-adv-x="301" d="M105 186l-6 155v366h104v-366l-6 -155h-92zM94 0v104h113v-104h-113z" />
<glyph unicode="&#x22;" horiz-adv-x="375" d="M61 515l-7 239h90l-7 -239h-76zM237 515l-6 238h90l-8 -238h-76z" />
<glyph unicode="#" horiz-adv-x="635" d="M128 0l8 137h-88v84h93l7 118h-100v85h106l7 140h98l-7 -140h153l7 140h98l-8 -140h84v-85h-89l-7 -118h96v-84h-101l-8 -137h-98l8 137h-153l-8 -137h-98zM239 221h153l7 118h-153z" />
<glyph unicode="$" horiz-adv-x="515" d="M213 -99v93q-102 3 -173 37l30 80q78 -28 143 -32v167q-70 27 -111 64t-41 100q0 58 42 92t110 45v102h81v-99q74 -1 151 -30l-25 -76q-73 21 -126 23v-150q33 -13 49.5 -20t45.5 -23.5t44 -31t27 -38t12 -49.5q0 -72 -49.5 -110.5t-128.5 -47.5v-96h-81zM362 150 q0 37 -68 66v-133q68 13 68 67zM169 410q0 -33 44 -57v108q-44 -12 -44 -51z" />
<glyph unicode="%" horiz-adv-x="812" d="M206 377q-72 0 -117 40t-45 123q0 81 48 127.5t117 46.5q73 0 118.5 -39.5t45.5 -127.5q0 -79 -48 -124.5t-119 -45.5zM206 451q35 0 57 25.5t22 70.5q0 94 -76 94q-33 0 -54 -25t-21 -76q0 -89 72 -89zM599 -9q-71 0 -116 39.5t-45 122.5q0 81 47.5 128t116.5 47 q73 0 119 -39.5t46 -127.5q0 -79 -48 -124.5t-120 -45.5zM599 65q36 0 57.5 25t21.5 71q0 93 -76 93q-32 0 -53.5 -25t-21.5 -76q0 -88 72 -88zM151 52l-56 59l548 531l56 -58z" />
<glyph unicode="&#x26;" horiz-adv-x="704" d="M570 362l67 -47q-55 -110 -120 -187q91 -51 171 -59l-15 -79q-105 5 -222 74q-95 -76 -208 -76q-89 0 -142.5 42t-53.5 127q0 61 33.5 106.5t92.5 87.5q-47 91 -47 168q0 82 48.5 139.5t137.5 57.5q81 0 126 -48.5t45 -113.5q0 -35 -14.5 -66t-43 -57t-56 -45.5 t-65.5 -43.5l-15 -9q64 -90 157 -159q75 77 124 188zM218 523q0 -59 32 -123q37 23 55.5 36t42.5 33.5t34.5 41t10.5 43.5q0 35 -24 58.5t-63 23.5q-41 0 -64.5 -29t-23.5 -84zM250 71q63 0 127 44q-95 73 -162 168q-72 -57 -72 -118q0 -47 31.5 -70.5t75.5 -23.5z" />
<glyph unicode="'" horiz-adv-x="202" d="M61 515l-7 239h95l-8 -239h-80z" />
<glyph unicode="(" horiz-adv-x="359" d="M322 -162l-53 -59q-226 185 -226 501q0 168 64.5 291.5t161.5 190.5l55 -56q-184 -161 -184 -425q0 -269 182 -443z" />
<glyph unicode=")" horiz-adv-x="358" d="M89 -221l-52 59q181 174 181 443q0 265 -183 425l55 56q97 -67 161.5 -190.5t64.5 -291.5q0 -316 -227 -501z" />
<glyph unicode="*" horiz-adv-x="432" d="M81 460l-40 71l114 41l20 -35zM156 595l-115 43l41 71l94 -79zM174 406l23 119h39l20 -119h-82zM196 643l-20 119h82l-21 -119h-41zM351 458l-94 78l21 36l114 -42zM277 596l-20 34l94 78l41 -71z" />
<glyph unicode="+" horiz-adv-x="579" d="M243 51v211h-210v83l210 -2v216h85l-3 -217l221 3v-83h-219l1 -211h-85z" />
<glyph unicode="," horiz-adv-x="238" d="M38 -127q27 60 27 150v83h109v-48q0 -108 -46 -185h-90z" />
<glyph unicode="-" horiz-adv-x="475" d="M88 243v87h298v-87h-298z" />
<glyph unicode="." horiz-adv-x="251" d="M65 0v114h121v-114h-121z" />
<glyph unicode="/" horiz-adv-x="436" d="M54 -62l233 829h94l-232 -829h-95z" />
<glyph unicode="0" horiz-adv-x="683" d="M339 -12q-136 0 -212.5 71t-76.5 211q0 139 79.5 214.5t217.5 75.5q135 0 210.5 -74.5t75.5 -206.5q0 -144 -79.5 -217.5t-214.5 -73.5zM341 77q82 0 133.5 52t51.5 148q0 90 -50 142.5t-132 52.5q-85 0 -135.5 -51.5t-50.5 -149.5q0 -93 51.5 -143.5t131.5 -50.5z" />
<glyph unicode="1" horiz-adv-x="350" d="M158 0v470h-142v82l248 7v-559h-106z" />
<glyph unicode="2" horiz-adv-x="502" d="M36 0v86q15 12 59 45t78.5 61t73 62.5t60.5 66.5t22 56q0 52 -28.5 73t-81.5 21q-71 0 -134 -33l-30 77q24 16 72 30.5t97 14.5q113 0 161 -50.5t48 -128.5q0 -43 -26 -87.5t-73 -85.5t-81 -66t-81 -55h288v-87h-424z" />
<glyph unicode="3" horiz-adv-x="484" d="M196 -168q-115 0 -185 29l23 85q82 -25 152 -25t108.5 23t38.5 87q0 113 -149 135q-6 1 -12.5 1.5t-14.5 1t-12 0.5v76q22 2 34 4q56 11 89.5 44t33.5 81q0 51 -34.5 74t-86.5 23q-59 0 -111 -21l-27 75q72 34 155 34q92 0 149 -45t57 -128q0 -65 -37 -109t-83 -59 q61 -20 107.5 -66.5t46.5 -116.5q0 -104 -67.5 -153.5t-174.5 -49.5z" />
<glyph unicode="4" horiz-adv-x="586" d="M340 -161v190h-315v78l257 439h163v-429h113v-88h-113v-190h-105zM126 117h214v370z" />
<glyph unicode="5" horiz-adv-x="527" d="M236 -170q-114 0 -181 23l25 89q78 -20 155 -20q65 0 104.5 33t39.5 90q0 135 -144 135q-59 0 -155 -10v376h375v-87h-275v-197q37 4 78 4q104 0 165 -56t61 -154q0 -107 -68.5 -166.5t-179.5 -59.5z" />
<glyph unicode="6" horiz-adv-x="592" d="M318 -13q-124 0 -186.5 73t-62.5 244q0 200 85.5 305t230.5 105q75 0 117 -17l-22 -83q-40 10 -95 10q-168 0 -202 -214q70 34 145 34q110 0 167.5 -56.5t57.5 -158.5q0 -114 -66 -178t-169 -64zM325 74q57 0 90.5 41t33.5 104q0 71 -35.5 105.5t-96.5 34.5 q-67 0 -143 -34v-27q0 -118 32.5 -171t118.5 -53z" />
<glyph unicode="7" horiz-adv-x="499" d="M166 -177l-93 33l298 596h-337v94h442v-80z" />
<glyph unicode="8" horiz-adv-x="580" d="M288 -12q-108 0 -173.5 48t-65.5 135q0 70 41 114t115 85q-61 39 -95 78t-34 94q0 83 60.5 129t161.5 46q97 0 153.5 -49.5t56.5 -117.5q0 -58 -37 -98.5t-104 -79.5q39 -22 62 -37t50 -38.5t40 -52t13 -62.5q0 -92 -66.5 -143t-177.5 -51zM294 70q60 0 96 29.5t36 86.5 q0 41 -37 74t-106 71q-61 -34 -96 -70t-35 -81q0 -52 39 -81t103 -29zM289 408q115 60 115 130q0 44 -26.5 71.5t-80.5 27.5q-59 0 -89 -27.5t-30 -72.5q0 -68 111 -129z" />
<glyph unicode="9" horiz-adv-x="593" d="M200 -166q-66 0 -112 17l23 84q41 -11 90 -11q103 0 149.5 54.5t59.5 154.5q-66 -32 -148 -32q-107 0 -164.5 56t-57.5 167t66.5 173.5t169.5 62.5q117 0 183 -81t66 -236q0 -215 -82 -312t-243 -97zM277 185q73 0 141 32v38q0 216 -149 216q-57 0 -90.5 -38.5 t-33.5 -99.5q0 -81 34.5 -114.5t97.5 -33.5z" />
<glyph unicode=":" horiz-adv-x="301" d="M90 0v114h121v-114h-121zM90 432v114h121v-114h-121z" />
<glyph unicode=";" horiz-adv-x="300" d="M65 -127q29 63 29 136v97h113v-62q0 -96 -50 -171h-92zM88 432v114h121v-114h-121z" />
<glyph unicode="&#x3c;" horiz-adv-x="505" d="M449 59l-409 190v109l409 194v-93l-332 -156l332 -151v-93z" />
<glyph unicode="=" horiz-adv-x="672" d="M95 151l-1 83h483l1 -83h-483zM95 372l-1 84h483l1 -84h-483z" />
<glyph unicode="&#x3e;" horiz-adv-x="505" d="M56 59v93l333 151l-333 156v93l409 -194v-109z" />
<glyph unicode="?" horiz-adv-x="391" d="M99 169q-25 47 -25 92q0 36 17.5 68.5t42 55.5t49 43.5t42 41.5t17.5 41q0 96 -192 112l20 89q54 -4 100.5 -15.5t88.5 -33.5t66.5 -59.5t24.5 -87.5q0 -42 -28.5 -81t-62.5 -64.5t-62.5 -56.5t-28.5 -58q0 -33 18 -72zM88 0v104h113v-104h-113z" />
<glyph unicode="@" horiz-adv-x="795" d="M374 -72q-153 0 -238 86t-85 251q0 115 33.5 203.5t93 142t134.5 80t163 26.5q129 0 202 -71.5t73 -218.5q0 -137 -67.5 -211t-162.5 -74q-39 0 -61.5 18.5t-22.5 47.5q-17 -22 -49 -39.5t-56 -17.5q-50 0 -76.5 29.5t-26.5 101.5q0 96 54.5 156.5t145.5 60.5 q60 0 117 -23l-25 -216q-6 -42 19 -42q45 0 85.5 51t40.5 157q0 217 -196 217q-68 0 -126 -20.5t-105 -63t-73.5 -115.5t-26.5 -171q0 -266 245 -266q77 0 158 18l12 -71q-78 -26 -179 -26zM353 229q37 0 81 41l20 158q-21 3 -26 3q-52 0 -80.5 -38.5t-28.5 -102.5 q0 -33 7.5 -47t26.5 -14z" />
<glyph unicode="A" horiz-adv-x="684" d="M-4 0l285 707h139l252 -707h-115l-86 247h-267l-97 -247h-111zM235 330h209l-99 305z" />
<glyph unicode="B" horiz-adv-x="649" d="M99 0v707h210q119 0 178.5 -48t59.5 -135q0 -52 -25.5 -91t-65.5 -55v-2q57 -12 99.5 -56t42.5 -114q0 -96 -62 -151t-197 -55h-240zM208 87h116q80 0 122.5 25t42.5 91q0 119 -179 119h-102v-235zM208 402h104q127 0 127 109q0 61 -37.5 86.5t-115.5 25.5h-78v-221z" />
<glyph unicode="C" horiz-adv-x="677" d="M428 -12q-178 0 -276 97.5t-98 263.5q0 169 98.5 268.5t271.5 99.5q124 0 210 -41l-31 -82q-96 31 -177 31q-115 1 -188.5 -65.5t-73.5 -200.5q0 -138 78 -207.5t203 -69.5q87 0 165 25l25 -84q-93 -35 -207 -35z" />
<glyph unicode="D" horiz-adv-x="763" d="M99 0v707h209q120 0 208 -36t140.5 -116t52.5 -199q0 -180 -103.5 -268t-291.5 -88h-215zM207 87h118q134 0 204 65.5t70 192.5q0 137 -77 206t-217 69h-98v-533z" />
<glyph unicode="E" horiz-adv-x="590" d="M99 0v707h416v-86h-308v-224h286v-84h-286v-226h331v-87h-439z" />
<glyph unicode="F" horiz-adv-x="581" d="M99 0v707h439v-86h-331v-243h309v-84h-309v-294h-108z" />
<glyph unicode="G" horiz-adv-x="710" d="M430 -11q-176 0 -276 95t-100 265q0 175 97 271.5t275 96.5q121 0 206 -40l-29 -83q-95 31 -177 31q-115 0 -188 -65.5t-73 -200.5q0 -139 78 -208t201 -69q52 0 94 11v255h107v-323q-100 -36 -215 -36z" />
<glyph unicode="H" horiz-adv-x="776" d="M99 0v707h108v-309h362v309h108v-707h-108v312h-362v-312h-108z" />
<glyph unicode="I" horiz-adv-x="306" d="M99 0v707h108v-707h-108z" />
<glyph unicode="J" horiz-adv-x="308" d="M-1 -190l-42 78q86 48 115.5 105.5t29.5 157.5v556h108v-554q0 -50 -4 -86.5t-17 -76.5t-35.5 -70.5t-61.5 -59t-93 -50.5z" />
<glyph unicode="K" horiz-adv-x="656" d="M510 0l-290 373v11l274 323h137l-291 -328l310 -379h-140zM99 0v707h108v-707h-108z" />
<glyph unicode="L" horiz-adv-x="522" d="M99 0v707h108v-618h307v-89h-415z" />
<glyph unicode="M" horiz-adv-x="957" d="M99 0v707h139l229 -628l259 628h131v-707h-107v413l4 126h-3l-217 -539h-140l-190 540h-4l7 -117v-423h-108z" />
<glyph unicode="N" horiz-adv-x="780" d="M99 0v707h132l344 -576h2l-4 85v491h108v-707h-137l-338 567h-3l4 -79v-488h-108z" />
<glyph unicode="O" horiz-adv-x="830" d="M406 -12q-168 0 -260 99.5t-92 267.5q0 166 100 264t268 98q171 0 262.5 -100.5t91.5 -263.5q0 -166 -98.5 -265.5t-271.5 -99.5zM409 76q128 0 193 76.5t65 201.5q0 122 -65.5 199t-185.5 77q-124 0 -189 -76t-65 -198q0 -121 63.5 -200.5t183.5 -79.5z" />
<glyph unicode="P" horiz-adv-x="616" d="M99 0v707h243q111 0 176.5 -60.5t65.5 -169.5q0 -103 -75.5 -170.5t-218.5 -67.5h-82v-239h-109zM208 621v-295h88q84 0 130 37t46 110q0 148 -152 148h-112z" />
<glyph unicode="Q" horiz-adv-x="846" d="M406 -12q-168 0 -260 99.5t-92 267.5q0 166 100 264t268 98q171 0 262.5 -100.5t91.5 -263.5q0 -149 -80 -246l103 -103l-57 -50l-102 101q-93 -67 -234 -67zM409 76q98 0 162 47l-110 110l59 51l103 -104q44 69 44 174q0 122 -65.5 199t-185.5 77q-124 0 -189 -76 t-65 -198q0 -121 63.5 -200.5t183.5 -79.5z" />
<glyph unicode="R" horiz-adv-x="708" d="M100 0v707h243q111 0 176.5 -54t65.5 -160q0 -138 -128 -193l221 -300h-135l-192 274q-21 -4 -60 -4h-83v-270h-108zM208 353h89q176 0 176 135q0 71 -36.5 102t-115.5 31h-113v-268z" />
<glyph unicode="S" horiz-adv-x="554" d="M251 -12q-121 0 -209 51l33 85q93 -44 176 -44q66 0 110 27t44 81q0 32 -19 56.5t-49.5 40.5t-67 31.5t-73 33.5t-67 40.5t-49.5 59.5t-19 84q0 86 65.5 134.5t158.5 48.5q110 0 187 -43l-32 -82q-75 35 -153 35q-53 0 -87 -24t-34 -68q0 -38 36 -67t87 -50.5t102 -47 t87 -70.5t36 -106q0 -100 -75.5 -153t-187.5 -53z" />
<glyph unicode="T" horiz-adv-x="599" d="M245 0v619h-236v88h580v-88h-236v-619h-108z" />
<glyph unicode="U" horiz-adv-x="768" d="M385 -12q-46 0 -86.5 7.5t-80 26.5t-67.5 49t-45 78t-17 109v449h109v-442q0 -99 51 -143t136 -44q189 0 189 210v419h106v-423q0 -83 -26.5 -143.5t-71 -92t-93.5 -46t-104 -14.5z" />
<glyph unicode="V" horiz-adv-x="681" d="M261 0l-251 707h116l210 -624l239 624h109l-278 -707h-145z" />
<glyph unicode="W" horiz-adv-x="1046" d="M1034 707l-221 -707h-150l-139 561l-157 -561h-152l-183 707h112l153 -641l181 641h104l159 -639l185 639h108z" />
<glyph unicode="X" horiz-adv-x="632" d="M7 0l250 370l-212 337h123l151 -252l163 252h118l-224 -334l236 -373h-125l-174 289l-185 -289h-121z" />
<glyph unicode="Y" horiz-adv-x="630" d="M259 0v256l-240 451h123l175 -358l187 358h118l-255 -449v-258h-108z" />
<glyph unicode="Z" horiz-adv-x="586" d="M39 0v84l360 532h-334v91h460v-77l-364 -539h385v-91h-507z" />
<glyph unicode="[" horiz-adv-x="322" d="M79 -220v974h205v-83h-104v-808h104v-83h-205z" />
<glyph unicode="\" horiz-adv-x="436" d="M287 -62l-232 829h94l233 -829h-95z" />
<glyph unicode="]" horiz-adv-x="322" d="M38 -220v83h105v808h-105v83h205v-974h-205z" />
<glyph unicode="^" horiz-adv-x="532" d="M44 294l164 413h129l152 -413h-106l-112 336l-125 -336h-102z" />
<glyph unicode="_" horiz-adv-x="605" d="M49 -175v88h507v-88h-507z" />
<glyph unicode="`" horiz-adv-x="573" d="M375 613l-208 116l41 76l203 -128z" />
<glyph unicode="a" horiz-adv-x="564" d="M206 -9q-77 0 -122.5 41t-45.5 115q0 49 20 83.5t54 51.5t68.5 24.5t74.5 7.5l119 2v59q0 54 -27.5 74.5t-90.5 20.5q-77 0 -153 -26l-22 79q90 37 192 37q203 0 203 -157v-285q0 -40 57 -42l-4 -80q-14 -2 -25 -2q-47 0 -80.5 16t-40.5 50q-90 -69 -177 -69zM233 74 q65 0 141 49v126l-116 -5q-56 -2 -87 -25t-31 -65q0 -40 25.5 -60t67.5 -20z" />
<glyph unicode="b" horiz-adv-x="601" d="M277 -10q-107 0 -202 30v734h104v-224q80 28 139 28q113 0 173.5 -65.5t60.5 -194.5q0 -83 -22.5 -144.5t-62 -96t-87 -51t-103.5 -16.5zM300 477q-48 0 -121 -25v-365q55 -12 101 -12q79 0 122.5 60t43.5 151q0 92 -31.5 141.5t-114.5 49.5z" />
<glyph unicode="c" horiz-adv-x="507" d="M330 -12q-147 0 -215 67t-68 206q0 146 72 222.5t200 76.5q88 0 152 -35l-29 -79q-68 26 -120 26q-168 0 -168 -207q0 -96 42 -142.5t145 -46.5q47 0 112 15l16 -82q-74 -21 -139 -21z" />
<glyph unicode="d" horiz-adv-x="599" d="M274 -10q-31 0 -60 7t-60 25.5t-54 48t-38 79t-15 113.5q0 149 76 223t202 74q42 0 90 -12v206h105v-754h-105v49q-31 -28 -62.5 -43.5t-78.5 -15.5zM291 78q60 0 124 49v334q-39 15 -91 15q-91 0 -131.5 -57.5t-40.5 -149.5q0 -97 38.5 -144t100.5 -47z" />
<glyph unicode="e" horiz-adv-x="558" d="M316 -12q-131 0 -199.5 62.5t-68.5 212.5q0 153 68 225t179 72q112 0 164.5 -69t52.5 -206v-37h-359q1 -99 48.5 -136t130.5 -37q69 0 150 24l18 -81q-80 -30 -184 -30zM156 321h248q0 160 -115 160q-56 0 -92 -41t-41 -119z" />
<glyph unicode="f" horiz-adv-x="348" d="M109 0v467h-80v79h80v32q0 101 51.5 145t136.5 44q49 0 88 -13l-17 -81q-32 8 -68 8q-45 0 -66 -25t-21 -78v-32h117v-79h-117v-467h-104z" />
<glyph unicode="g" horiz-adv-x="592" d="M264 194q-51 0 -92 14q-19 -28 -19 -48q0 -17 11.5 -28t29.5 -11h118q107 0 159.5 -38.5t52.5 -107.5q0 -86 -73 -145.5t-203 -59.5q-103 0 -159 39.5t-56 106.5q0 83 75 137q-37 25 -37 74q0 57 51 105q-66 46 -66 135q0 82 56 137t157 55q81 0 132 -35l161 6v-80h-94 q15 -41 15 -79q0 -80 -61.5 -128.5t-157.5 -48.5zM313 34h-130q-15 0 -22 1q-45 -41 -45 -90q0 -43 36 -68t106 -25q79 0 127 32.5t48 78.5q0 32 -29 51.5t-91 19.5zM267 263q54 0 86 30.5t32 80.5t-30.5 82t-85.5 32q-53 0 -84.5 -31.5t-31.5 -83.5t31 -81t83 -29z" />
<glyph unicode="h" horiz-adv-x="618" d="M79 0v754h105v-269q100 74 189 74q46 0 79 -13t50.5 -31.5t27 -49.5t11.5 -55.5t2 -61.5v-348h-102v333q0 72 -19.5 103t-77.5 31q-68 0 -160 -56v-411h-105z" />
<glyph unicode="i" horiz-adv-x="264" d="M79 0v546h106v-546h-106zM79 662v109h105v-109h-105z" />
<glyph unicode="j" horiz-adv-x="264" d="M-10 -224q-46 0 -88 16l19 83q32 -10 67 -10q51 0 71 30.5t20 92.5v558h105v-559q0 -61 -15 -104t-43 -65.5t-60.5 -32t-75.5 -9.5zM79 662v109h105v-109h-105z" />
<glyph unicode="k" horiz-adv-x="555" d="M404 0l-217 288l219 258h117l-223 -254l234 -292h-130zM79 0v754h104v-754h-104z" />
<glyph unicode="l" horiz-adv-x="263" d="M79 0v754h105v-754h-105z" />
<glyph unicode="m" horiz-adv-x="951" d="M79 0v546h105v-62q96 75 181 75q55 0 93 -22.5t53 -58.5q103 81 196 81q47 0 80 -14t50.5 -33t26.5 -50.5t11 -54.5t2 -58v-349h-105v334q0 68 -19.5 101t-77.5 33q-67 0 -150 -56q5 -33 5 -62v-350h-104v334q0 68 -19 101t-74 33q-73 0 -149 -58v-410h-105z" />
<glyph unicode="n" horiz-adv-x="618" d="M79 0v546h105v-60q50 37 93 55.5t101 18.5q44 0 76 -13t49 -32t26.5 -49.5t12 -55.5t2.5 -61v-349h-103v334q0 72 -19.5 103.5t-77.5 31.5q-75 0 -160 -57v-412h-105z" />
<glyph unicode="o" horiz-adv-x="608" d="M299 -12q-119 0 -185.5 73.5t-66.5 205.5q0 138 71.5 215.5t191.5 77.5q124 0 187.5 -74.5t63.5 -210.5q0 -140 -72 -213.5t-190 -73.5zM306 73q149 0 149 198q0 205 -150 205q-43 0 -74.5 -17.5t-48 -48t-23.5 -64.5t-7 -75q0 -88 36 -143t118 -55z" />
<glyph unicode="p" horiz-adv-x="605" d="M79 -220v766h104v-43q80 56 157 56q100 0 158.5 -69.5t58.5 -202.5q0 -81 -22.5 -140.5t-62.5 -93t-88 -49t-106 -15.5q-31 0 -95 8v-217h-104zM276 73q90 0 132.5 56t42.5 153q0 83 -33.5 135.5t-106.5 52.5q-9 0 -18 -1t-18 -3t-16 -3.5t-16 -5t-13.5 -5t-13.5 -6 l-12 -6t-11.5 -6.5t-9.5 -5v-346q65 -10 93 -10z" />
<glyph unicode="q" horiz-adv-x="596" d="M415 -220v241q-57 -31 -126 -31q-34 0 -65.5 6.5t-64.5 25t-57 48t-39.5 79.5t-15.5 115q0 151 77 223.5t211 72.5q95 0 185 -31v-749h-105zM299 78q64 0 116 27v355q-36 15 -92 15q-172 0 -172 -205q0 -99 39.5 -145.5t108.5 -46.5z" />
<glyph unicode="r" horiz-adv-x="406" d="M79 0v546h105v-73q22 34 61.5 59.5t89.5 25.5q38 0 67 -9l-15 -88q-31 7 -67 7q-43 0 -79 -22.5t-57 -53.5v-392h-105z" />
<glyph unicode="s" horiz-adv-x="464" d="M201 -12q-86 0 -161 24l15 84q91 -22 151 -22q58 0 89 19t31 52q0 28 -28.5 48.5t-68.5 35t-80.5 32.5t-69 53.5t-28.5 86.5q0 76 57 117.5t143 41.5q81 0 149 -28l-21 -79q-63 22 -127 22q-49 0 -73.5 -18t-24.5 -48t28 -50.5t68 -35t80.5 -33t68.5 -54t28 -86.5 q0 -58 -36.5 -96.5t-84.5 -52t-105 -13.5z" />
<glyph unicode="t" horiz-adv-x="423" d="M277 -12q-86 0 -130.5 38t-44.5 131v306h-80v83h80v112h103v-112h171v-83h-170v-301q0 -48 20.5 -66t66.5 -18q50 0 100 16l14 -85q-58 -21 -130 -21z" />
<glyph unicode="u" horiz-adv-x="616" d="M238 -12q-43 0 -74.5 13t-48 32.5t-26 50t-12 56t-2.5 60.5v346h104v-330q0 -71 17.5 -103t77.5 -32q77 0 160 56v409h103v-546h-103v62q-34 -24 -53.5 -36t-59.5 -25t-83 -13z" />
<glyph unicode="v" horiz-adv-x="540" d="M198 0l-185 546h113l108 -352l33 -114l37 116l121 350h109l-202 -546h-134z" />
<glyph unicode="w" horiz-adv-x="887" d="M181 0l-161 546h110l120 -466l134 466h130l116 -466l140 466h106l-181 -546h-135l-96 370l-18 79l-20 -79l-109 -370h-136z" />
<glyph unicode="x" horiz-adv-x="539" d="M17 0l193 279l-181 267h121l120 -198l120 198h118l-180 -265l195 -281h-126l-128 210l-129 -210h-123z" />
<glyph unicode="y" horiz-adv-x="536" d="M161 -220l74 220h-44l-179 546h113l111 -371l28 -95l31 94l127 372h106l-267 -766h-100z" />
<glyph unicode="z" horiz-adv-x="508" d="M36 0v80l303 378h-279v88h401v-76l-304 -383h308v-87h-429z" />
<glyph unicode="{" horiz-adv-x="348" d="M287 -221q-93 0 -144.5 31.5t-51.5 112.5q0 9 2 29l21 196q3 29 -19 55t-61 26v88q39 0 61 25.5t19 55.5l-21 201q-2 23 -1 33q5 139 195 139h32v-88h-32q-52 0 -75 -23t-18 -69l20 -179q13 -109 -76 -137v-2q88 -34 76 -136l-20 -180q-9 -90 93 -90h32v-88h-32z" />
<glyph unicode="|" horiz-adv-x="254" d="M79 -220v974h96v-974h-96z" />
<glyph unicode="}" horiz-adv-x="348" d="M62 -221h-33v88h32q51 0 75 23t19 67l-21 180q-12 102 76 136v2q-88 29 -76 137l21 179q5 46 -18.5 69t-75.5 23h-32v88h33q190 0 195 -139q0 -9 -2 -33l-21 -201q-3 -30 19 -55.5t62 -25.5v-88q-40 0 -62 -26t-19 -55l21 -196q2 -20 2 -29q0 -81 -51.5 -112.5 t-143.5 -31.5z" />
<glyph unicode="~" horiz-adv-x="577" d="M390 271q-52 0 -114 30t-93 30q-45 0 -85 -31l-49 69q67 67 140 67q52 0 109 -31t93 -31q46 0 87 33l51 -62q-25 -33 -62.5 -53.5t-76.5 -20.5z" />
<glyph unicode="&#xa1;" horiz-adv-x="272" d="M84 -162v366l6 156h92l6 -156v-366h-104zM80 441v104h113v-104h-113z" />
<glyph unicode="&#xa2;" horiz-adv-x="488" d="M241 -50v81q-114 15 -160 73t-46 174q0 98 53 160t153 76v82h96v-79q62 -5 104 -31l-29 -74q-43 16 -75 19v-318q36 1 92 11l15 -80q-57 -14 -107 -17v-77h-96zM142 275q0 -69 21.5 -105.5t77.5 -49.5v306q-99 -27 -99 -151z" />
<glyph unicode="&#xa3;" horiz-adv-x="491" d="M56 0v81q35 16 55.5 55t20.5 76h-89v83h92q0 21 -1.5 43t-1.5 35q0 51 15 87t38 56.5t61 32.5t73.5 16t85.5 5l5 -87q-42 -4 -62.5 -6.5t-46.5 -10t-37.5 -18.5t-19 -30.5t-6.5 -48.5q1 -17 1 -34v-40h169v-83h-177q-4 -82 -59 -126h277v-86h-393z" />
<glyph unicode="&#xa4;" horiz-adv-x="543" d="M99 134l-46 45l66 65q-38 47 -38 108q0 65 37 108l-65 65l45 44l69 -69q51 28 104 28q61 0 104 -27l68 69l46 -46l-65 -64q37 -42 37 -108t-38 -109l65 -64l-44 -46l-69 69q-50 -25 -104 -25q-58 0 -102 26zM271 255q49 0 73 27t24 70t-24.5 70.5t-72.5 27.5 q-47 0 -72.5 -28t-25.5 -70q0 -41 26 -69t72 -28z" />
<glyph unicode="&#xa5;" horiz-adv-x="641" d="M584 546l-124 -217h125v-86h-176l-31 -55l-13 -45h220v-86h-220v-57h-101v57h-208v87h208l-12 42l-30 57h-166v86h117l-116 217h114l147 -293l155 293h111z" />
<glyph unicode="&#xa6;" horiz-adv-x="295" d="M99 -220v362h96v-362h-96zM99 392v361h96v-361h-96z" />
<glyph unicode="&#xa7;" horiz-adv-x="677" d="M182 -76q-68 0 -118 39l33 81q48 -35 85 -35q25 0 36 25.5t11 54.5q0 25 -14 118l-10 52q-10 64 -10 99q0 121 79 191.5t202 70.5q92 0 153 -48q-39 -70 -44 -75q-19 15 -50.5 27t-61.5 12q-47 0 -47 -65q0 -44 8 -75l14 -55q19 -82 19 -160q0 -110 -82 -183.5 t-203 -73.5zM302 21q73 58 73 149q0 40 -11 101l-17 80q-9 44 -9 93q0 42 11 78q-61 -41 -61 -145q-1 -43 8 -90l16 -81q9 -39 9 -94q0 -34 -19 -91z" />
<glyph unicode="&#xa8;" horiz-adv-x="415" d="M149 661h-100v110h100v-110zM373 661h-101v110h101v-110z" />
<glyph unicode="&#xa9;" horiz-adv-x="807" d="M426 73q-98 0 -153 57t-55 146q0 95 53.5 151t152.5 56q75 0 122 -28l-23 -57q-49 19 -98 19q-58 0 -96 -34t-38 -102q0 -69 40.5 -104t104.5 -35q47 0 93 15l20 -60q-58 -24 -123 -24zM395 -89q-162 0 -253.5 99.5t-91.5 264.5q0 166 100 263t264 97q165 0 254 -100.5 t89 -261.5q0 -165 -97 -263.5t-265 -98.5zM398 -30q141 0 215.5 84.5t74.5 219.5q0 133 -75.5 217.5t-207.5 84.5q-137 0 -211.5 -83.5t-74.5 -216.5q0 -130 73 -218t206 -88z" />
<glyph unicode="&#xaa;" horiz-adv-x="425" d="M168 387q-99 0 -99 93q0 94 127 94l64 1v33q0 27 -14 35.5t-53 8.5q-18 0 -86 -14l-16 54q57 22 116 22q57 0 90 -18.5t33 -71.5v-159q0 -18 29 -20l-3 -56q-79 -5 -90 35q-48 -37 -98 -37zM178 445q11 0 28 5.5t34.5 13t19.5 8.5v54l-60 -2q-62 -2 -62 -39q0 -40 40 -40 zM64 295v59h302v-59h-302z" />
<glyph unicode="&#xab;" horiz-adv-x="467" d="M156 49l-113 223l112 222l72 -28l-88 -194l87 -190zM345 49l-112 223l113 222l71 -28l-89 -194l88 -190z" />
<glyph unicode="&#xac;" horiz-adv-x="621" d="M456 104v158h-393v84h484v-242h-91z" />
<glyph unicode="&#xae;" horiz-adv-x="553" d="M512 532q0 -105 -66 -164t-167 -59q-42 0 -82 11.5t-76 36.5t-58 70t-22 105q0 106 67 166t170 60q44 0 84.5 -12.5t74.5 -38t54.5 -71t20.5 -104.5zM464 532q0 89 -54.5 135.5t-130.5 46.5q-82 0 -135.5 -44.5t-53.5 -133.5q0 -45 14.5 -79.5t35.5 -53.5t49 -31 t50.5 -15.5t44.5 -3.5q79 0 129.5 47t50.5 132zM402 450l-6 -36q-48 0 -75 26q-21 19 -49 71q-3 -1 -18 -1h-14v-91h-54v247h94q42 0 66 -19.5t24 -58.5q0 -47 -44 -68q23 -36 34 -47t42 -23zM318 587q0 22 -9 32t-34 10h-36v-84h31q48 0 48 42z" />
<glyph unicode="&#xaf;" horiz-adv-x="545" d="M126 662v83h285v-83h-285z" />
<glyph unicode="&#xb0;" horiz-adv-x="401" d="M198 403q-75 0 -115.5 41t-40.5 117q0 70 45 113t114 43q73 0 116 -41.5t43 -114.5q0 -72 -45 -115t-117 -43zM200 472q77 0 77 89q0 42 -20.5 65t-56.5 23t-56 -23t-20 -65q0 -44 20.5 -66.5t55.5 -22.5z" />
<glyph unicode="&#xb1;" horiz-adv-x="545" d="M229 123v177l-176 -1v84l176 -1v177h87l-2 -179l179 3v-84l-178 1l1 -177h-87zM53 0v85h440v-85h-440z" />
<glyph unicode="&#xb2;" horiz-adv-x="306" d="M14 415v58q49 36 70.5 52t53.5 44.5t45 51t13 44.5q0 24 -16.5 37.5t-40.5 13.5q-50 0 -83 -30q-3 6 -16 26.5t-16 26.5q50 47 127 47q56 0 91.5 -31t35.5 -82q0 -57 -44.5 -101.5t-119.5 -89.5h169v-67h-269z" />
<glyph unicode="&#xb3;" horiz-adv-x="302" d="M134 410q-58 0 -111 16l15 62q52 -13 88 -13q74 0 74 51q0 31 -24 44t-77 15v43q84 7 84 58q-1 18 -15.5 28.5t-36.5 10.5q-36 0 -72 -17l-20 54q47 25 103 25q55 0 88.5 -24t33.5 -69q0 -26 -14.5 -48t-40.5 -33q35 -9 54.5 -33.5t19.5 -57.5q0 -58 -42.5 -85 t-106.5 -27z" />
<glyph unicode="&#xb4;" horiz-adv-x="573" d="M207 613l-34 64l203 126l40 -74z" />
<glyph unicode="&#xb5;" horiz-adv-x="641" d="M76 -220v766h104v-338q0 -66 18 -96.5t78 -30.5q15 0 31.5 3.5t29.5 7.5t29 12l24 12t21.5 12t15.5 9v409h104v-425q0 -28 16 -37.5t52 -7.5l-3 -81q-24 -3 -48 -3q-103 0 -116 73q-31 -23 -49.5 -35.5t-58 -27.5t-78.5 -15q-44 0 -66 19v-226h-104z" />
<glyph unicode="&#xb6;" horiz-adv-x="602" d="M329 -223q-50 0 -86 15l19 89q34 -9 68 -9q51 0 71 28t20 89v718h105v-719q0 -211 -197 -211zM247 257q-103 0 -158 58t-55 170q0 120 63 170.5t177 51.5h68v-450h-95z" />
<glyph unicode="&#xb7;" horiz-adv-x="246" d="M65 310v114h121v-114h-121z" />
<glyph unicode="&#xb8;" horiz-adv-x="458" d="M194 -253l-35 62q64 38 64 75q0 19 -20 65h91q21 -39 21 -71q1 -80 -121 -131z" />
<glyph unicode="&#xb9;" horiz-adv-x="249" d="M105 415v300h-84v65q51 0 167 4v-369h-83z" />
<glyph unicode="&#xba;" horiz-adv-x="434" d="M214 384q-72 0 -111.5 43t-39.5 120q0 79 42 124.5t113 45.5q154 0 154 -167q0 -80 -44 -123t-114 -43zM218 444q78 0 78 106t-79 106t-79 -107q0 -105 80 -105zM66 295v59h302v-59h-302z" />
<glyph unicode="&#xbb;" horiz-adv-x="466" d="M121 49l-70 33l87 190l-89 194l72 28l113 -222zM311 49l-70 33l86 190l-88 194l72 28l112 -222z" />
<glyph unicode="&#xbc;" horiz-adv-x="780" d="M602 1v85h-165v66l123 215h119v-220h58v-61h-58v-85h-77zM497 147h105v176zM132 415v300h-84v65q51 0 167 4v-369h-83zM106 72l-44 46l531 538l43 -45z" />
<glyph unicode="&#xbd;" horiz-adv-x="776" d="M443 0v58q49 36 70.5 52t53.5 44.5t45 51t13 44.5q0 24 -16.5 37.5t-40.5 13.5q-50 0 -83 -30q-3 6 -16 26.5t-16 26.5q50 47 127 47q56 0 91.5 -31t35.5 -82q0 -57 -44.5 -101.5t-119.5 -89.5h169v-67h-269zM129 415v300h-84v65q51 0 167 4v-369h-83zM98 72l-44 46 l531 538l43 -45z" />
<glyph unicode="&#xbe;" horiz-adv-x="783" d="M605 1v85h-165v66l123 215h119v-220h58v-61h-58v-85h-77zM156 410q-58 0 -111 16l15 62q52 -13 88 -13q74 0 74 51q0 31 -24 44t-77 15v43q84 7 84 58q-1 18 -15.5 28.5t-36.5 10.5q-36 0 -72 -17l-20 54q47 25 103 25q55 0 88.5 -24t33.5 -69q0 -26 -14.5 -48t-40.5 -33 q35 -9 54.5 -33.5t19.5 -57.5q0 -58 -42.5 -85t-106.5 -27zM122 72l-44 46l531 538l43 -45zM500 147h105v176z" />
<glyph unicode="&#xbf;" horiz-adv-x="379" d="M321 -164q-43 3 -80 10.5t-75 22t-64.5 35.5t-43 54t-16.5 74t28.5 80t63 64t63 56t28.5 58q0 29 -19 71l87 16q25 -54 25 -91t-17.5 -69t-42 -55t-49 -43.5t-42 -42t-17.5 -41.5q0 -93 191 -111zM192 442v104h113v-104h-113z" />
<glyph unicode="&#xc0;" horiz-adv-x="684" d="M419 746l-239 60l23 87l236 -76zM-4 0l285 707h139l252 -707h-115l-86 247h-267l-97 -247h-111zM235 330h209l-99 305z" />
<glyph unicode="&#xc1;" horiz-adv-x="684" d="M-4 0l285 707h139l252 -707h-115l-86 247h-267l-97 -247h-111zM235 330h209l-99 305zM269 746l-19 70l234 79l23 -86z" />
<glyph unicode="&#xc2;" horiz-adv-x="684" d="M-4 0l285 707h139l252 -707h-115l-86 247h-267l-97 -247h-111zM235 330h209l-99 305zM217 748l-36 69l167 82l163 -81l-37 -70l-127 58z" />
<glyph unicode="&#xc3;" horiz-adv-x="684" d="M-4 0l285 707h139l252 -707h-115l-86 247h-267l-97 -247h-111zM235 330h209l-99 305zM411 754q-23 0 -63.5 19t-58.5 19q-37 0 -69 -26l-40 54q51 56 112 56q30 0 68 -18.5t53 -18.5q36 0 71 26l37 -53q-47 -58 -110 -58z" />
<glyph unicode="&#xc4;" horiz-adv-x="684" d="M-4 0l285 707h139l252 -707h-115l-86 247h-267l-97 -247h-111zM235 330h209l-99 305zM293 759h-100v110h100v-110zM501 759h-101v110h101v-110z" />
<glyph unicode="&#xc5;" horiz-adv-x="684" d="M-4 0l285 707h139l252 -707h-115l-86 247h-267l-97 -247h-111zM235 330h209l-99 305zM352 744q-46 0 -78 23t-32 72q0 47 31.5 73.5t75.5 26.5q42 0 75.5 -24t33.5 -74q0 -46 -30.5 -71.5t-75.5 -25.5zM350 789q52 0 54 51q0 23 -15.5 37.5t-38.5 14.5q-55 0 -55 -50 q0 -24 15.5 -38.5t39.5 -14.5z" />
<glyph unicode="&#xc6;" horiz-adv-x="932" d="M-17 0l363 707h510v-86h-308v-224h286v-84h-286v-226h332v-87h-439v292h-192l-144 -292h-122zM287 375h154v246h-33z" />
<glyph unicode="&#xc7;" horiz-adv-x="677" d="M428 -12q-178 0 -276 97.5t-98 263.5q0 169 98.5 268.5t271.5 99.5q124 0 210 -41l-31 -82q-96 31 -177 31q-115 1 -188.5 -65.5t-73.5 -200.5q0 -138 78 -207.5t203 -69.5q87 0 165 25l25 -84q-93 -35 -207 -35zM356 -253l-35 62q64 38 64 75q0 19 -20 65h91 q21 -39 21 -71q1 -80 -121 -131z" />
<glyph unicode="&#xc8;" horiz-adv-x="590" d="M399 746l-239 60l23 87l236 -76zM99 0v707h416v-86h-308v-224h286v-84h-286v-226h331v-87h-439z" />
<glyph unicode="&#xc9;" horiz-adv-x="590" d="M238 746l-19 70l234 79l23 -86zM99 0v707h416v-86h-308v-224h286v-84h-286v-226h331v-87h-439z" />
<glyph unicode="&#xca;" horiz-adv-x="590" d="M99 0v707h416v-86h-308v-224h286v-84h-286v-226h331v-87h-439zM183 748l-36 69l167 82l163 -81l-37 -70l-127 58z" />
<glyph unicode="&#xcb;" horiz-adv-x="590" d="M259 759h-100v110h100v-110zM467 759h-101v110h101v-110zM99 0v707h416v-86h-308v-224h286v-84h-286v-226h331v-87h-439z" />
<glyph unicode="&#xcc;" horiz-adv-x="306" d="M212 746l-239 60l23 87l236 -76zM99 0v707h108v-707h-108z" />
<glyph unicode="&#xcd;" horiz-adv-x="306" d="M99 0v707h108v-707h-108zM97 746l-19 70l234 79l23 -86z" />
<glyph unicode="&#xce;" horiz-adv-x="306" d="M99 0v707h108v-707h-108zM25 748l-36 69l167 82l163 -81l-37 -70l-127 58z" />
<glyph unicode="&#xcf;" horiz-adv-x="306" d="M99 0v707h108v-707h-108zM101 759h-100v110h100v-110zM309 759h-101v110h101v-110z" />
<glyph unicode="&#xd0;" horiz-adv-x="791" d="M49 314v74h77v319h209q120 0 208 -36t140.5 -116t52.5 -199q0 -180 -103.5 -268t-291.5 -88h-215v314h-77zM234 87h118q134 0 204 65.5t70 192.5q0 137 -77 206t-217 69h-98v-232h157v-74h-157v-227z" />
<glyph unicode="&#xd1;" horiz-adv-x="780" d="M458 754q-23 0 -63.5 19t-58.5 19q-36 0 -69 -26l-40 54q51 56 112 56q29 0 68 -18.5t53 -18.5q36 0 71 26l37 -53q-47 -58 -110 -58zM99 0v707h132l344 -576h2l-4 85v491h108v-707h-137l-338 567h-3l4 -79v-488h-108z" />
<glyph unicode="&#xd2;" horiz-adv-x="830" d="M502 746l-239 60l23 87l236 -76zM406 -12q-168 0 -260 99.5t-92 267.5q0 166 100 264t268 98q171 0 262.5 -100.5t91.5 -263.5q0 -166 -98.5 -265.5t-271.5 -99.5zM409 76q128 0 193 76.5t65 201.5q0 122 -65.5 199t-185.5 77q-124 0 -189 -76t-65 -198 q0 -121 63.5 -200.5t183.5 -79.5z" />
<glyph unicode="&#xd3;" horiz-adv-x="830" d="M325 746l-19 70l234 79l23 -86zM406 -12q-168 0 -260 99.5t-92 267.5q0 166 100 264t268 98q171 0 262.5 -100.5t91.5 -263.5q0 -166 -98.5 -265.5t-271.5 -99.5zM409 76q128 0 193 76.5t65 201.5q0 122 -65.5 199t-185.5 77q-124 0 -189 -76t-65 -198 q0 -121 63.5 -200.5t183.5 -79.5z" />
<glyph unicode="&#xd4;" horiz-adv-x="830" d="M287 748l-36 69l167 82l163 -81l-37 -70l-127 58zM406 -12q-168 0 -260 99.5t-92 267.5q0 166 100 264t268 98q171 0 262.5 -100.5t91.5 -263.5q0 -166 -98.5 -265.5t-271.5 -99.5zM409 76q128 0 193 76.5t65 201.5q0 122 -65.5 199t-185.5 77q-124 0 -189 -76t-65 -198 q0 -121 63.5 -200.5t183.5 -79.5z" />
<glyph unicode="&#xd5;" horiz-adv-x="830" d="M481 754q-23 0 -63.5 19t-58.5 19q-37 0 -69 -26l-40 54q51 56 112 56q30 0 68 -18.5t53 -18.5q36 0 71 26l37 -53q-47 -58 -110 -58zM406 -12q-168 0 -260 99.5t-92 267.5q0 166 100 264t268 98q171 0 262.5 -100.5t91.5 -263.5q0 -166 -98.5 -265.5t-271.5 -99.5z M409 76q128 0 193 76.5t65 201.5q0 122 -65.5 199t-185.5 77q-124 0 -189 -76t-65 -198q0 -121 63.5 -200.5t183.5 -79.5z" />
<glyph unicode="&#xd6;" horiz-adv-x="830" d="M357 759h-100v110h100v-110zM565 759h-101v110h101v-110zM406 -12q-168 0 -260 99.5t-92 267.5q0 166 100 264t268 98q171 0 262.5 -100.5t91.5 -263.5q0 -166 -98.5 -265.5t-271.5 -99.5zM409 76q128 0 193 76.5t65 201.5q0 122 -65.5 199t-185.5 77q-124 0 -189 -76 t-65 -198q0 -121 63.5 -200.5t183.5 -79.5z" />
<glyph unicode="&#xd7;" horiz-adv-x="555" d="M449 75l-174 174l-166 -169l-61 61l168 167l-167 166l58 60l167 -169l170 171l61 -60l-174 -170l175 -172z" />
<glyph unicode="&#xd8;" horiz-adv-x="860" d="M95 -34l-48 48l93 96q-72 94 -72 245q0 166 100 264t268 98q136 0 226 -68l91 94l50 -46l-92 -95q79 -97 79 -249q0 -166 -98.5 -265.5t-271.5 -99.5q-142 0 -232 74zM423 76q128 0 193 76.5t65 201.5q0 101 -45 171l-377 -390q64 -59 164 -59zM176 356q0 -97 40 -167 l375 387q-64 54 -161 54q-124 0 -189 -76t-65 -198z" />
<glyph unicode="&#xd9;" horiz-adv-x="768" d="M462 746l-239 60l23 87l236 -76zM385 -12q-46 0 -86.5 7.5t-80 26.5t-67.5 49t-45 78t-17 109v449h109v-442q0 -99 51 -143t136 -44q189 0 189 210v419h106v-423q0 -83 -26.5 -143.5t-71 -92t-93.5 -46t-104 -14.5z" />
<glyph unicode="&#xda;" horiz-adv-x="768" d="M315 746l-19 70l234 79l23 -86zM385 -12q-46 0 -86.5 7.5t-80 26.5t-67.5 49t-45 78t-17 109v449h109v-442q0 -99 51 -143t136 -44q189 0 189 210v419h106v-423q0 -83 -26.5 -143.5t-71 -92t-93.5 -46t-104 -14.5z" />
<glyph unicode="&#xdb;" horiz-adv-x="768" d="M385 -12q-46 0 -86.5 7.5t-80 26.5t-67.5 49t-45 78t-17 109v449h109v-442q0 -99 51 -143t136 -44q189 0 189 210v419h106v-423q0 -83 -26.5 -143.5t-71 -92t-93.5 -46t-104 -14.5zM260 748l-36 69l167 82l163 -81l-37 -70l-127 58z" />
<glyph unicode="&#xdc;" horiz-adv-x="768" d="M334 759h-100v110h100v-110zM542 759h-101v110h101v-110zM385 -12q-46 0 -86.5 7.5t-80 26.5t-67.5 49t-45 78t-17 109v449h109v-442q0 -99 51 -143t136 -44q189 0 189 210v419h106v-423q0 -83 -26.5 -143.5t-71 -92t-93.5 -46t-104 -14.5z" />
<glyph unicode="&#xdd;" horiz-adv-x="630" d="M259 0v256l-240 451h123l175 -358l187 358h118l-255 -449v-258h-108zM249 746l-19 70l234 79l23 -86z" />
<glyph unicode="&#xde;" horiz-adv-x="619" d="M99 0v707h109v-120h135q113 0 177.5 -58t64.5 -169q0 -103 -75.5 -167.5t-218.5 -64.5h-83v-128h-109zM208 500v-285h89q175 0 175 141q0 73 -36 108.5t-115 35.5h-113z" />
<glyph unicode="&#xdf;" horiz-adv-x="612" d="M79 0v553q0 214 214 214q29 0 59 -7t62 -23t52 -50t20 -81q0 -34 -17.5 -67.5t-38.5 -54.5t-38.5 -46.5t-17.5 -45.5q0 -28 22 -50.5t53 -39t62 -35.5t53 -50t22 -72q0 -42 -17 -74t-45 -48.5t-58.5 -24.5t-63.5 -8q-97 0 -154 21l16 83q68 -18 117 -18q104 0 104 60 q0 27 -22 47t-53.5 36t-62.5 35t-53 53t-22 81q0 30 16 60t36 51t36 49t16 55q0 37 -25.5 57t-63.5 20q-59 0 -81.5 -32.5t-22.5 -95.5v-552h-104z" />
<glyph unicode="&#xe0;" horiz-adv-x="564" d="M206 -9q-77 0 -122.5 41t-45.5 115q0 49 20 83.5t54 51.5t68.5 24.5t74.5 7.5l119 2v59q0 54 -27.5 74.5t-90.5 20.5q-77 0 -153 -26l-22 79q90 37 192 37q203 0 203 -157v-285q0 -40 57 -42l-4 -80q-14 -2 -25 -2q-47 0 -80.5 16t-40.5 50q-90 -69 -177 -69zM233 74 q65 0 141 49v126l-116 -5q-56 -2 -87 -25t-31 -65q0 -40 25.5 -60t67.5 -20zM342 614l-208 116l41 76l203 -128z" />
<glyph unicode="&#xe1;" horiz-adv-x="564" d="M206 -9q-77 0 -122.5 41t-45.5 115q0 49 20 83.5t54 51.5t68.5 24.5t74.5 7.5l119 2v59q0 54 -27.5 74.5t-90.5 20.5q-77 0 -153 -26l-22 79q90 37 192 37q203 0 203 -157v-285q0 -40 57 -42l-4 -80q-14 -2 -25 -2q-47 0 -80.5 16t-40.5 50q-90 -69 -177 -69zM233 74 q65 0 141 49v126l-116 -5q-56 -2 -87 -25t-31 -65q0 -40 25.5 -60t67.5 -20zM212 613l-34 64l203 126l40 -74z" />
<glyph unicode="&#xe2;" horiz-adv-x="564" d="M393 622l-122 85l-129 -85l-45 59l176 118l165 -117zM206 -9q-77 0 -122.5 41t-45.5 115q0 49 20 83.5t54 51.5t68.5 24.5t74.5 7.5l119 2v59q0 54 -27.5 74.5t-90.5 20.5q-77 0 -153 -26l-22 79q90 37 192 37q203 0 203 -157v-285q0 -40 57 -42l-4 -80q-14 -2 -25 -2 q-47 0 -80.5 16t-40.5 50q-90 -69 -177 -69zM233 74q65 0 141 49v126l-116 -5q-56 -2 -87 -25t-31 -65q0 -40 25.5 -60t67.5 -20z" />
<glyph unicode="&#xe3;" horiz-adv-x="564" d="M206 -9q-77 0 -122.5 41t-45.5 115q0 49 20 83.5t54 51.5t68.5 24.5t74.5 7.5l119 2v59q0 54 -27.5 74.5t-90.5 20.5q-77 0 -153 -26l-22 79q90 37 192 37q203 0 203 -157v-285q0 -40 57 -42l-4 -80q-14 -2 -25 -2q-47 0 -80.5 16t-40.5 50q-90 -69 -177 -69zM233 74 q65 0 141 49v126l-116 -5q-56 -2 -87 -25t-31 -65q0 -40 25.5 -60t67.5 -20zM333 641q-25 0 -65 19t-60 19q-37 0 -69 -26l-40 54q52 56 116 56q30 0 68 -18.5t55 -18.5q32 0 75 27l38 -53q-51 -59 -118 -59z" />
<glyph unicode="&#xe4;" horiz-adv-x="564" d="M215 661h-100v110h100v-110zM439 661h-101v110h101v-110zM206 -9q-77 0 -122.5 41t-45.5 115q0 49 20 83.5t54 51.5t68.5 24.5t74.5 7.5l119 2v59q0 54 -27.5 74.5t-90.5 20.5q-77 0 -153 -26l-22 79q90 37 192 37q203 0 203 -157v-285q0 -40 57 -42l-4 -80 q-14 -2 -25 -2q-47 0 -80.5 16t-40.5 50q-90 -69 -177 -69zM233 74q65 0 141 49v126l-116 -5q-56 -2 -87 -25t-31 -65q0 -40 25.5 -60t67.5 -20z" />
<glyph unicode="&#xe5;" horiz-adv-x="564" d="M206 -9q-77 0 -122.5 41t-45.5 115q0 49 20 83.5t54 51.5t68.5 24.5t74.5 7.5l119 2v59q0 54 -27.5 74.5t-90.5 20.5q-77 0 -153 -26l-22 79q90 37 192 37q203 0 203 -157v-285q0 -40 57 -42l-4 -80q-14 -2 -25 -2q-47 0 -80.5 16t-40.5 50q-90 -69 -177 -69zM233 74 q65 0 141 49v126l-116 -5q-56 -2 -87 -25t-31 -65q0 -40 25.5 -60t67.5 -20zM286 606q-51 0 -86.5 26t-35.5 80q0 53 35.5 82.5t84.5 29.5q46 0 84 -27t38 -83q0 -52 -34 -80t-86 -28zM285 656q58 0 60 57q0 26 -17.5 42t-43.5 16q-60 0 -60 -56q0 -27 16.5 -43t44.5 -16z " />
<glyph unicode="&#xe6;" horiz-adv-x="881" d="M641 -9q-163 0 -227 91q-115 -90 -211 -90q-79 0 -122 40t-43 116q0 158 217 163q106 3 119 3v66q0 56 -28 73t-100 17q-37 0 -143 -24l-21 77q86 36 188 36q137 0 179 -66q63 66 178 66q207 0 207 -266v-36l-358 -12q1 -53 14.5 -87.5t41 -51.5t58 -23t75.5 -6 q37 0 141 19l16 -80q-71 -25 -181 -25zM224 75q58 0 166 59q-14 43 -17 109l-114 -3q-120 -4 -120 -84q0 -81 85 -81zM479 319l247 12q1 69 -29 110t-82 41q-55 0 -93.5 -40t-42.5 -123z" />
<glyph unicode="&#xe7;" horiz-adv-x="507" d="M330 -12q-147 0 -215 67t-68 206q0 146 72 222.5t200 76.5q88 0 152 -35l-29 -79q-68 26 -120 26q-168 0 -168 -207q0 -96 42 -142.5t145 -46.5q47 0 112 15l16 -82q-74 -21 -139 -21zM249 -253l-35 62q64 38 64 75q0 19 -20 65h91q21 -39 21 -71q1 -80 -121 -131z" />
<glyph unicode="&#xe8;" horiz-adv-x="558" d="M316 -12q-131 0 -199.5 62.5t-68.5 212.5q0 153 68 225t179 72q112 0 164.5 -69t52.5 -206v-37h-359q1 -99 48.5 -136t130.5 -37q69 0 150 24l18 -81q-80 -30 -184 -30zM156 321h248q0 160 -115 160q-56 0 -92 -41t-41 -119zM354 614l-208 116l41 76l203 -128z" />
<glyph unicode="&#xe9;" horiz-adv-x="558" d="M225 613l-34 64l203 126l40 -74zM316 -12q-131 0 -199.5 62.5t-68.5 212.5q0 153 68 225t179 72q112 0 164.5 -69t52.5 -206v-37h-359q1 -99 48.5 -136t130.5 -37q69 0 150 24l18 -81q-80 -30 -184 -30zM156 321h248q0 160 -115 160q-56 0 -92 -41t-41 -119z" />
<glyph unicode="&#xea;" horiz-adv-x="558" d="M405 622l-122 85l-129 -85l-45 59l176 118l165 -117zM316 -12q-131 0 -199.5 62.5t-68.5 212.5q0 153 68 225t179 72q112 0 164.5 -69t52.5 -206v-37h-359q1 -99 48.5 -136t130.5 -37q69 0 150 24l18 -81q-80 -30 -184 -30zM156 321h248q0 160 -115 160q-56 0 -92 -41 t-41 -119z" />
<glyph unicode="&#xeb;" horiz-adv-x="558" d="M225 661h-100v110h100v-110zM449 661h-101v110h101v-110zM316 -12q-131 0 -199.5 62.5t-68.5 212.5q0 153 68 225t179 72q112 0 164.5 -69t52.5 -206v-37h-359q1 -99 48.5 -136t130.5 -37q69 0 150 24l18 -81q-80 -30 -184 -30zM156 321h248q0 160 -115 160 q-56 0 -92 -41t-41 -119z" />
<glyph unicode="&#xec;" horiz-adv-x="264" d="M79 0v546h106v-546h-106zM180 614l-208 116l41 76l203 -128z" />
<glyph unicode="&#xed;" horiz-adv-x="264" d="M72 613l-34 64l203 126l40 -74zM79 0v546h106v-546h-106z" />
<glyph unicode="&#xee;" horiz-adv-x="264" d="M256 622l-122 85l-129 -85l-45 59l176 118l165 -117zM79 0v546h106v-546h-106z" />
<glyph unicode="&#xef;" horiz-adv-x="264" d="M74 661h-100v110h100v-110zM298 661h-101v110h101v-110zM79 0v546h106v-546h-106z" />
<glyph unicode="&#xf0;" horiz-adv-x="621" d="M301 -10q-121 0 -187 70.5t-66 202.5q0 130 72 205.5t184 75.5q59 0 108 -30q-32 61 -93 114l-85 -63l-37 44l74 54q-28 19 -78 43l56 68q57 -25 97 -51l85 62l37 -43l-74 -54q167 -144 167 -409q0 -134 -68 -211.5t-192 -77.5zM307 75q149 0 149 192t-155 192 q-80 0 -114 -53.5t-34 -137.5q0 -193 154 -193z" />
<glyph unicode="&#xf1;" horiz-adv-x="618" d="M371 641q-25 0 -65 19t-60 19q-37 0 -69 -26l-40 54q52 56 116 56q30 0 68 -18.5t55 -18.5q32 0 75 27l38 -53q-51 -59 -118 -59zM79 0v546h105v-60q50 37 93 55.5t101 18.5q44 0 76 -13t49 -32t26.5 -49.5t12 -55.5t2.5 -61v-349h-103v334q0 72 -19.5 103.5t-77.5 31.5 q-75 0 -160 -57v-412h-105z" />
<glyph unicode="&#xf2;" horiz-adv-x="608" d="M376 614l-208 116l41 76l203 -128zM299 -12q-119 0 -185.5 73.5t-66.5 205.5q0 138 71.5 215.5t191.5 77.5q124 0 187.5 -74.5t63.5 -210.5q0 -140 -72 -213.5t-190 -73.5zM306 73q149 0 149 198q0 205 -150 205q-43 0 -74.5 -17.5t-48 -48t-23.5 -64.5t-7 -75 q0 -88 36 -143t118 -55z" />
<glyph unicode="&#xf3;" horiz-adv-x="608" d="M229 613l-34 64l203 126l40 -74zM299 -12q-119 0 -185.5 73.5t-66.5 205.5q0 138 71.5 215.5t191.5 77.5q124 0 187.5 -74.5t63.5 -210.5q0 -140 -72 -213.5t-190 -73.5zM306 73q149 0 149 198q0 205 -150 205q-43 0 -74.5 -17.5t-48 -48t-23.5 -64.5t-7 -75 q0 -88 36 -143t118 -55z" />
<glyph unicode="&#xf4;" horiz-adv-x="608" d="M425 622l-122 85l-129 -85l-45 59l176 118l165 -117zM299 -12q-119 0 -185.5 73.5t-66.5 205.5q0 138 71.5 215.5t191.5 77.5q124 0 187.5 -74.5t63.5 -210.5q0 -140 -72 -213.5t-190 -73.5zM306 73q149 0 149 198q0 205 -150 205q-43 0 -74.5 -17.5t-48 -48t-23.5 -64.5 t-7 -75q0 -88 36 -143t118 -55z" />
<glyph unicode="&#xf5;" horiz-adv-x="608" d="M299 -12q-119 0 -185.5 73.5t-66.5 205.5q0 138 71.5 215.5t191.5 77.5q124 0 187.5 -74.5t63.5 -210.5q0 -140 -72 -213.5t-190 -73.5zM306 73q149 0 149 198q0 205 -150 205q-43 0 -74.5 -17.5t-48 -48t-23.5 -64.5t-7 -75q0 -88 36 -143t118 -55zM360 641 q-25 0 -65 19t-60 19q-37 0 -69 -26l-40 54q52 56 116 56q30 0 68 -18.5t55 -18.5q32 0 75 27l38 -53q-51 -59 -118 -59z" />
<glyph unicode="&#xf6;" horiz-adv-x="608" d="M244 661h-100v110h100v-110zM468 661h-101v110h101v-110zM299 -12q-119 0 -185.5 73.5t-66.5 205.5q0 138 71.5 215.5t191.5 77.5q124 0 187.5 -74.5t63.5 -210.5q0 -140 -72 -213.5t-190 -73.5zM306 73q149 0 149 198q0 205 -150 205q-43 0 -74.5 -17.5t-48 -48 t-23.5 -64.5t-7 -75q0 -88 36 -143t118 -55z" />
<glyph unicode="&#xf7;" horiz-adv-x="638" d="M266 62v92h96v-92h-96zM62 262v83h513v-83h-513zM266 453v93h96v-93h-96z" />
<glyph unicode="&#xf8;" horiz-adv-x="630" d="M309 -12q-103 0 -167 55l-64 -71l-39 38l67 74q-49 70 -49 183q0 138 71.5 215.5t191.5 77.5q103 0 166 -54l60 66l39 -38l-62 -69q48 -72 48 -190q0 -140 -72 -213.5t-190 -73.5zM162 271q0 -63 17 -107l241 268q-37 44 -105 44q-43 0 -74.5 -17.5t-48 -48t-23.5 -64.5 t-7 -75zM316 73q149 0 149 198q0 68 -17 112l-241 -267q38 -43 109 -43z" />
<glyph unicode="&#xf9;" horiz-adv-x="616" d="M238 -12q-43 0 -74.5 13t-48 32.5t-26 50t-12 56t-2.5 60.5v346h104v-330q0 -71 17.5 -103t77.5 -32q77 0 160 56v409h103v-546h-103v62q-34 -24 -53.5 -36t-59.5 -25t-83 -13zM360 614l-208 116l41 76l203 -128z" />
<glyph unicode="&#xfa;" horiz-adv-x="616" d="M257 615l-34 64l203 126l40 -74zM238 -12q-43 0 -74.5 13t-48 32.5t-26 50t-12 56t-2.5 60.5v346h104v-330q0 -71 17.5 -103t77.5 -32q77 0 160 56v409h103v-546h-103v62q-34 -24 -53.5 -36t-59.5 -25t-83 -13z" />
<glyph unicode="&#xfb;" horiz-adv-x="616" d="M430 622l-122 85l-129 -85l-45 59l176 118l165 -117zM238 -12q-43 0 -74.5 13t-48 32.5t-26 50t-12 56t-2.5 60.5v346h104v-330q0 -71 17.5 -103t77.5 -32q77 0 160 56v409h103v-546h-103v62q-34 -24 -53.5 -36t-59.5 -25t-83 -13z" />
<glyph unicode="&#xfc;" horiz-adv-x="616" d="M247 661h-100v110h100v-110zM471 661h-101v110h101v-110zM238 -12q-43 0 -74.5 13t-48 32.5t-26 50t-12 56t-2.5 60.5v346h104v-330q0 -71 17.5 -103t77.5 -32q77 0 160 56v409h103v-546h-103v62q-34 -24 -53.5 -36t-59.5 -25t-83 -13z" />
<glyph unicode="&#xfd;" horiz-adv-x="536" d="M161 -220l74 220h-44l-179 546h113l111 -371l28 -95l31 94l127 372h106l-267 -766h-100zM218 613l-34 64l203 126l40 -74z" />
<glyph unicode="&#xfe;" horiz-adv-x="605" d="M79 -220v974h103v-251q72 54 147 54q110 0 169 -67t59 -198q0 -82 -22.5 -142.5t-62 -94.5t-86.5 -49.5t-104 -15.5q-42 0 -100 7v-217h-103zM285 73q79 0 122 56.5t43 146.5q0 91 -32.5 141.5t-114.5 50.5q-51 0 -121 -39v-346q73 -10 103 -10z" />
<glyph unicode="&#xff;" horiz-adv-x="536" d="M207 661h-100v110h100v-110zM431 661h-101v110h101v-110zM161 -220l74 220h-44l-179 546h113l111 -371l28 -95l31 94l127 372h106l-267 -766h-100z" />
<glyph unicode="&#x100;" horiz-adv-x="684" d="M-4 0l285 707h139l252 -707h-115l-86 247h-267l-97 -247h-111zM235 330h209l-99 305zM206 779v83h285v-83h-285z" />
<glyph unicode="&#x101;" horiz-adv-x="564" d="M206 -9q-77 0 -122.5 41t-45.5 115q0 49 20 83.5t54 51.5t68.5 24.5t74.5 7.5l119 2v59q0 54 -27.5 74.5t-90.5 20.5q-77 0 -153 -26l-22 79q90 37 192 37q203 0 203 -157v-285q0 -40 57 -42l-4 -80q-14 -2 -25 -2q-47 0 -80.5 16t-40.5 50q-90 -69 -177 -69zM233 74 q65 0 141 49v126l-116 -5q-56 -2 -87 -25t-31 -65q0 -40 25.5 -60t67.5 -20zM144 663v83h285v-83h-285z" />
<glyph unicode="&#x102;" horiz-adv-x="684" d="M-4 0l285 707h139l252 -707h-115l-86 247h-267l-97 -247h-111zM235 330h209l-99 305zM347 753q-60 0 -101.5 27t-63.5 65l56 49q51 -60 112 -60q65 0 110 60l53 -47q-58 -94 -166 -94z" />
<glyph unicode="&#x103;" horiz-adv-x="564" d="M206 -9q-77 0 -122.5 41t-45.5 115q0 49 20 83.5t54 51.5t68.5 24.5t74.5 7.5l119 2v59q0 54 -27.5 74.5t-90.5 20.5q-77 0 -153 -26l-22 79q90 37 192 37q203 0 203 -157v-285q0 -40 57 -42l-4 -80q-14 -2 -25 -2q-47 0 -80.5 16t-40.5 50q-90 -69 -177 -69zM233 74 q65 0 141 49v126l-116 -5q-56 -2 -87 -25t-31 -65q0 -40 25.5 -60t67.5 -20zM287 636q-60 0 -101.5 27t-63.5 65l56 49q53 -60 112 -60q65 0 110 60l53 -47q-58 -94 -166 -94z" />
<glyph unicode="&#x104;" horiz-adv-x="684" d="M693 -217q-38 -19 -94 -19q-134 0 -134 105q0 57 91 135l-85 244h-267l-97 -248h-111l285 707h139l251 -707q-105 -67 -105 -114q0 -40 54 -40q31 0 53 9zM444 330l-56 169l-43 136l-48 -137l-62 -168h209z" />
<glyph unicode="&#x105;" horiz-adv-x="561" d="M543 -217q-42 -21 -95 -21q-127 0 -127 107q0 64 103 135q-14 8 -26 24t-15 32q-2 -2 -14 -10.5t-18.5 -12.5t-20 -12.5t-26 -13t-28.5 -10t-34 -8t-38 -2.5q-77 0 -121.5 41t-44.5 116q0 48 20 82.5t54 51.5t68.5 24.5t74.5 8.5l119 1v62q0 54 -29 73t-99 19 q-42 0 -143 -26l-21 79q89 37 188 37q95 0 150.5 -33.5t55.5 -121.5v-286q0 -40 51 -43l-6 -78q-106 -74 -106 -115q0 -39 50 -39q32 0 57 11zM374 123v126l-116 -5q-118 -4 -118 -87q0 -82 88 -82q75 0 146 48z" />
<glyph unicode="&#x106;" horiz-adv-x="677" d="M428 -12q-178 0 -276 97.5t-98 263.5q0 169 98.5 268.5t271.5 99.5q124 0 210 -41l-31 -82q-96 31 -177 31q-115 1 -188.5 -65.5t-73.5 -200.5q0 -138 78 -207.5t203 -69.5q87 0 165 25l25 -84q-93 -35 -207 -35zM318 746l-19 70l234 79l23 -86z" />
<glyph unicode="&#x107;" horiz-adv-x="507" d="M223 613l-34 64l203 126l40 -74zM330 -12q-147 0 -215 67t-68 206q0 146 72 222.5t200 76.5q88 0 152 -35l-29 -79q-68 26 -120 26q-168 0 -168 -207q0 -96 42 -142.5t145 -46.5q47 0 112 15l16 -82q-74 -21 -139 -21z" />
<glyph unicode="&#x108;" horiz-adv-x="677" d="M428 -12q-178 0 -276 97.5t-98 263.5q0 169 98.5 268.5t271.5 99.5q124 0 210 -41l-31 -82q-96 31 -177 31q-115 1 -188.5 -65.5t-73.5 -200.5q0 -138 78 -207.5t203 -69.5q87 0 165 25l25 -84q-93 -35 -207 -35zM298 748l-36 69l167 82l163 -81l-37 -70l-127 58z" />
<glyph unicode="&#x109;" horiz-adv-x="507" d="M428 622l-122 85l-129 -85l-45 59l176 118l165 -117zM330 -12q-147 0 -215 67t-68 206q0 146 72 222.5t200 76.5q88 0 152 -35l-29 -79q-68 26 -120 26q-168 0 -168 -207q0 -96 42 -142.5t145 -46.5q47 0 112 15l16 -82q-74 -21 -139 -21z" />
<glyph unicode="&#x10a;" horiz-adv-x="677" d="M365 778v109h105v-109h-105zM428 -12q-178 0 -276 97.5t-98 263.5q0 169 98.5 268.5t271.5 99.5q124 0 210 -41l-31 -82q-96 31 -177 31q-115 1 -188.5 -65.5t-73.5 -200.5q0 -138 78 -207.5t203 -69.5q87 0 165 25l25 -84q-93 -35 -207 -35z" />
<glyph unicode="&#x10b;" horiz-adv-x="507" d="M330 -12q-147 0 -215 67t-68 206q0 146 72 222.5t200 76.5q88 0 152 -35l-29 -79q-68 26 -120 26q-168 0 -168 -207q0 -96 42 -142.5t145 -46.5q47 0 112 15l16 -82q-74 -21 -139 -21zM260 662v109h105v-109h-105z" />
<glyph unicode="&#x10c;" horiz-adv-x="677" d="M588 825l-170 -81l-165 81l36 70l130 -58l131 58zM428 -12q-178 0 -276 97.5t-98 263.5q0 169 98.5 268.5t271.5 99.5q124 0 210 -41l-31 -82q-96 31 -177 31q-115 1 -188.5 -65.5t-73.5 -200.5q0 -138 78 -207.5t203 -69.5q87 0 165 25l25 -84q-93 -35 -207 -35z" />
<glyph unicode="&#x10d;" horiz-adv-x="507" d="M294 617l-171 117l42 60l130 -87l130 87l45 -60zM330 -12q-147 0 -215 67t-68 206q0 146 72 222.5t200 76.5q88 0 152 -35l-29 -79q-68 26 -120 26q-168 0 -168 -207q0 -96 42 -142.5t145 -46.5q47 0 112 15l16 -82q-74 -21 -139 -21z" />
<glyph unicode="&#x10e;" horiz-adv-x="763" d="M501 825l-170 -81l-165 81l36 70l130 -58l131 58zM99 0v707h209q120 0 208 -36t140.5 -116t52.5 -199q0 -180 -103.5 -268t-291.5 -88h-215zM207 87h118q134 0 204 65.5t70 192.5q0 137 -77 206t-217 69h-98v-533z" />
<glyph unicode="&#x10f;" horiz-adv-x="655" d="M685 754l-41 -208h-75l21 208h95zM274 -10q-31 0 -60 7t-60 25.5t-54 48t-38 79t-15 113.5q0 149 76 223t202 74q42 0 90 -12v206h105v-754h-105v49q-31 -28 -62.5 -43.5t-78.5 -15.5zM291 78q60 0 124 49v334q-39 15 -91 15q-91 0 -131.5 -57.5t-40.5 -149.5 q0 -97 38.5 -144t100.5 -47z" />
<glyph unicode="&#x110;" horiz-adv-x="791" d="M49 314v74h77v319h209q120 0 208 -36t140.5 -116t52.5 -199q0 -180 -103.5 -268t-291.5 -88h-215v314h-77zM234 87h118q134 0 204 65.5t70 192.5q0 137 -77 206t-217 69h-98v-232h157v-74h-157v-227z" />
<glyph unicode="&#x111;" horiz-adv-x="599" d="M283 619v59h132v76h105v-76h70v-59h-70v-619h-105v49q-62 -58 -134 -58q-44 0 -80.5 11t-73.5 39.5t-58.5 88t-21.5 144.5q0 137 76.5 211.5t194.5 74.5q54 0 97 -12v71h-132zM295 79q46 0 120 48v334q-49 15 -97 15q-85 0 -125.5 -58t-40.5 -147q0 -99 38.5 -145.5 t104.5 -46.5z" />
<glyph unicode="&#x112;" horiz-adv-x="590" d="M164 779v83h285v-83h-285zM99 0v707h416v-86h-308v-224h286v-84h-286v-226h331v-87h-439z" />
<glyph unicode="&#x113;" horiz-adv-x="558" d="M148 663v83h285v-83h-285zM316 -12q-131 0 -199.5 62.5t-68.5 212.5q0 153 68 225t179 72q112 0 164.5 -69t52.5 -206v-37h-359q1 -99 48.5 -136t130.5 -37q69 0 150 24l18 -81q-80 -30 -184 -30zM156 321h248q0 160 -115 160q-56 0 -92 -41t-41 -119z" />
<glyph unicode="&#x114;" horiz-adv-x="590" d="M306 753q-60 0 -101.5 27t-63.5 65l56 49q51 -60 112 -60q65 0 110 60l53 -47q-58 -94 -166 -94zM99 0v707h416v-86h-308v-224h286v-84h-286v-226h331v-87h-439z" />
<glyph unicode="&#x115;" horiz-adv-x="558" d="M316 -12q-131 0 -199.5 62.5t-68.5 212.5q0 153 68 225t179 72q112 0 164.5 -69t52.5 -206v-37h-359q1 -99 48.5 -136t130.5 -37q69 0 150 24l18 -81q-80 -30 -184 -30zM156 321h248q0 160 -115 160q-56 0 -92 -41t-41 -119zM294 636q-60 0 -101.5 27t-63.5 65l56 49 q53 -60 112 -60q65 0 110 60l53 -47q-58 -94 -166 -94z" />
<glyph unicode="&#x116;" horiz-adv-x="590" d="M263 778v109h105v-109h-105zM99 0v707h416v-86h-308v-224h286v-84h-286v-226h331v-87h-439z" />
<glyph unicode="&#x117;" horiz-adv-x="558" d="M316 -12q-131 0 -199.5 62.5t-68.5 212.5q0 153 68 225t179 72q112 0 164.5 -69t52.5 -206v-37h-359q1 -99 48.5 -136t130.5 -37q69 0 150 24l18 -81q-80 -30 -184 -30zM156 321h248q0 160 -115 160q-56 0 -92 -41t-41 -119zM243 662v109h105v-109h-105z" />
<glyph unicode="&#x118;" horiz-adv-x="590" d="M552 -217q-46 -22 -91 -22q-61 0 -91.5 29.5t-30.5 73.5q0 41 27.5 77.5t65.5 58.5h-333v707h416v-86h-308v-224h286v-84h-286v-226h331v-87q-42 -23 -75.5 -54t-33.5 -59q0 -42 52 -42q24 0 51 10z" />
<glyph unicode="&#x119;" horiz-adv-x="559" d="M407 -236q-127 0 -127 107q0 59 75 122q-23 -3 -49 -3q-125 0 -191 64t-66 210q0 295 255 295q208 0 208 -274v-37h-358q1 -103 48.5 -137.5t139.5 -34.5q44 0 141 20l16 -82q-121 -73 -121 -126q0 -44 55 -44q29 0 51 11l21 -72q-38 -19 -98 -19zM156 321h248 q1 75 -27.5 118.5t-84.5 43.5q-57 0 -94 -42t-42 -120z" />
<glyph unicode="&#x11a;" horiz-adv-x="590" d="M471 825l-170 -81l-165 81l36 70l130 -58l131 58zM99 0v707h416v-86h-308v-224h286v-84h-286v-226h331v-87h-439z" />
<glyph unicode="&#x11b;" horiz-adv-x="558" d="M291 617l-171 117l42 60l130 -87l130 87l45 -60zM316 -12q-131 0 -199.5 62.5t-68.5 212.5q0 153 68 225t179 72q112 0 164.5 -69t52.5 -206v-37h-359q1 -99 48.5 -136t130.5 -37q69 0 150 24l18 -81q-80 -30 -184 -30zM156 321h248q0 160 -115 160q-56 0 -92 -41 t-41 -119z" />
<glyph unicode="&#x11c;" horiz-adv-x="710" d="M298 748l-36 69l167 82l163 -81l-37 -70l-127 58zM430 -11q-176 0 -276 95t-100 265q0 175 97 271.5t275 96.5q121 0 206 -40l-29 -83q-95 31 -177 31q-115 0 -188 -65.5t-73 -200.5q0 -139 78 -208t201 -69q52 0 94 11v255h107v-323q-100 -36 -215 -36z" />
<glyph unicode="&#x11d;" horiz-adv-x="592" d="M264 194q-51 0 -92 14q-19 -28 -19 -48q0 -17 11.5 -28t29.5 -11h118q107 0 159.5 -38.5t52.5 -107.5q0 -86 -73 -145.5t-203 -59.5q-103 0 -159 39.5t-56 106.5q0 83 75 137q-37 25 -37 74q0 57 51 105q-66 46 -66 135q0 82 56 137t157 55q81 0 132 -35l161 6v-80h-94 q15 -41 15 -79q0 -80 -61.5 -128.5t-157.5 -48.5zM313 34h-130q-15 0 -22 1q-45 -41 -45 -90q0 -43 36 -68t106 -25q79 0 127 32.5t48 78.5q0 32 -29 51.5t-91 19.5zM267 263q54 0 86 30.5t32 80.5t-30.5 82t-85.5 32q-53 0 -84.5 -31.5t-31.5 -83.5t31 -81t83 -29zM407 622 l-122 85l-129 -85l-45 59l176 118l165 -117z" />
<glyph unicode="&#x11e;" horiz-adv-x="710" d="M413 753q-60 0 -101.5 27t-63.5 65l56 49q51 -60 112 -60q65 0 110 60l53 -47q-58 -94 -166 -94zM430 -11q-176 0 -276 95t-100 265q0 175 97 271.5t275 96.5q121 0 206 -40l-29 -83q-95 31 -177 31q-115 0 -188 -65.5t-73 -200.5q0 -139 78 -208t201 -69q52 0 94 11v255 h107v-323q-100 -36 -215 -36z" />
<glyph unicode="&#x11f;" horiz-adv-x="592" d="M264 194q-51 0 -92 14q-19 -28 -19 -48q0 -17 11.5 -28t29.5 -11h118q107 0 159.5 -38.5t52.5 -107.5q0 -86 -73 -145.5t-203 -59.5q-103 0 -159 39.5t-56 106.5q0 83 75 137q-37 25 -37 74q0 57 51 105q-66 46 -66 135q0 82 56 137t157 55q81 0 132 -35l161 6v-80h-94 q15 -41 15 -79q0 -80 -61.5 -128.5t-157.5 -48.5zM313 34h-130q-15 0 -22 1q-45 -41 -45 -90q0 -43 36 -68t106 -25q79 0 127 32.5t48 78.5q0 32 -29 51.5t-91 19.5zM267 263q54 0 86 30.5t32 80.5t-30.5 82t-85.5 32q-53 0 -84.5 -31.5t-31.5 -83.5t31 -81t83 -29zM273 636 q-60 0 -101.5 27t-63.5 65l56 49q53 -60 112 -60q65 0 110 60l53 -47q-58 -94 -166 -94z" />
<glyph unicode="&#x120;" horiz-adv-x="710" d="M375 778v109h105v-109h-105zM430 -11q-176 0 -276 95t-100 265q0 175 97 271.5t275 96.5q121 0 206 -40l-29 -83q-95 31 -177 31q-115 0 -188 -65.5t-73 -200.5q0 -139 78 -208t201 -69q52 0 94 11v255h107v-323q-100 -36 -215 -36z" />
<glyph unicode="&#x121;" horiz-adv-x="592" d="M264 194q-51 0 -92 14q-19 -28 -19 -48q0 -17 11.5 -28t29.5 -11h118q107 0 159.5 -38.5t52.5 -107.5q0 -86 -73 -145.5t-203 -59.5q-103 0 -159 39.5t-56 106.5q0 83 75 137q-37 25 -37 74q0 57 51 105q-66 46 -66 135q0 82 56 137t157 55q81 0 132 -35l161 6v-80h-94 q15 -41 15 -79q0 -80 -61.5 -128.5t-157.5 -48.5zM313 34h-130q-15 0 -22 1q-45 -41 -45 -90q0 -43 36 -68t106 -25q79 0 127 32.5t48 78.5q0 32 -29 51.5t-91 19.5zM267 263q54 0 86 30.5t32 80.5t-30.5 82t-85.5 32q-53 0 -84.5 -31.5t-31.5 -83.5t31 -81t83 -29zM217 662 v109h105v-109h-105z" />
<glyph unicode="&#x122;" horiz-adv-x="710" d="M478 -58l-41 -208h-76l21 208h96zM430 -11q-176 0 -276 95t-100 265q0 175 97 271.5t275 96.5q121 0 206 -40l-29 -83q-95 31 -177 31q-115 0 -188 -65.5t-73 -200.5q0 -139 78 -208t201 -69q52 0 94 11v255h107v-323q-100 -36 -215 -36z" />
<glyph unicode="&#x123;" horiz-adv-x="592" d="M264 194q-51 0 -92 14q-19 -28 -19 -48q0 -17 11.5 -28t29.5 -11h118q107 0 159.5 -38.5t52.5 -107.5q0 -86 -73 -145.5t-203 -59.5q-103 0 -159 39.5t-56 106.5q0 83 75 137q-37 25 -37 74q0 57 51 105q-66 46 -66 135q0 82 56 137t157 55q81 0 132 -35l161 6v-80h-94 q15 -41 15 -79q0 -80 -61.5 -128.5t-157.5 -48.5zM313 34h-130q-15 0 -22 1q-45 -41 -45 -90q0 -43 36 -68t106 -25q79 0 127 32.5t48 78.5q0 32 -29 51.5t-91 19.5zM267 263q54 0 86 30.5t32 80.5t-30.5 82t-85.5 32q-53 0 -84.5 -31.5t-31.5 -83.5t31 -81t83 -29zM225 606 l44 199h83l-25 -199h-102z" />
<glyph unicode="&#x124;" horiz-adv-x="776" d="M99 0v707h108v-309h362v309h108v-707h-108v312h-362v-312h-108zM255 748l-36 69l167 82l163 -81l-37 -70l-127 58z" />
<glyph unicode="&#x125;" horiz-adv-x="617" d="M79 0v754h105v-269q100 74 189 74q46 0 79 -13t50.5 -31.5t27 -49.5t11.5 -55.5t2 -61.5v-348h-102v333q0 72 -19.5 103t-77.5 31q-68 0 -160 -56v-411h-105zM4 758l-36 69l167 82l163 -81l-37 -70l-127 58z" />
<glyph unicode="&#x126;" horiz-adv-x="814" d="M41 514v61h77v132h108v-132h362v132h108v-132h77v-61h-77v-514h-108v312h-362v-312h-108v514h-77zM226 398h362v116h-362v-116z" />
<glyph unicode="&#x127;" horiz-adv-x="617" d="M79 0v619h-66v59h66v76h105v-76h136v-59h-136v-133q99 74 187 74q47 0 80.5 -13t51 -31t27 -49t11.5 -55.5t2 -61.5v-350h-102v335q0 73 -19.5 103.5t-81.5 30.5q-58 0 -156 -57v-412h-105z" />
<glyph unicode="&#x128;" horiz-adv-x="306" d="M99 0v707h108v-707h-108zM216 754q-23 0 -63.5 19t-58.5 19q-36 0 -69 -26l-40 54q51 56 112 56q29 0 68 -18.5t53 -18.5q36 0 71 26l37 -53q-47 -58 -110 -58z" />
<glyph unicode="&#x129;" horiz-adv-x="264" d="M79 0v546h106v-546h-106zM190 641q-25 0 -65 19t-60 19q-37 0 -69 -26l-40 54q52 56 116 56q30 0 68 -18.5t55 -18.5q32 0 75 27l38 -53q-51 -59 -118 -59z" />
<glyph unicode="&#x12a;" horiz-adv-x="306" d="M99 0v707h108v-707h-108zM8 779v83h285v-83h-285z" />
<glyph unicode="&#x12b;" horiz-adv-x="264" d="M79 0v546h106v-546h-106zM-10 663v83h285v-83h-285z" />
<glyph unicode="&#x12c;" horiz-adv-x="306" d="M99 0v707h108v-707h-108zM151 753q-60 0 -101.5 27t-63.5 65l56 49q51 -60 112 -60q65 0 110 60l53 -47q-58 -94 -166 -94z" />
<glyph unicode="&#x12d;" horiz-adv-x="264" d="M79 0v546h106v-546h-106zM135 636q-60 0 -101.5 27t-63.5 65l56 49q53 -60 112 -60q65 0 110 60l53 -47q-58 -94 -166 -94z" />
<glyph unicode="&#x12e;" horiz-adv-x="306" d="M234 -217q-42 -21 -94 -21q-129 0 -129 113q0 60 88 125v707h108v-707q-100 -61 -100 -110q0 -23 14.5 -34.5t35.5 -11.5q29 0 56 11z" />
<glyph unicode="&#x12f;" horiz-adv-x="264" d="M117 -238q-130 0 -130 113q0 62 92 128v543h105v-546q-106 -64 -106 -117q0 -41 53 -41q31 0 59 13l21 -72q-42 -21 -94 -21zM79 662v109h105v-109h-105z" />
<glyph unicode="&#x130;" horiz-adv-x="306" d="M97 778v109h105v-109h-105zM99 0v707h108v-707h-108z" />
<glyph unicode="&#x131;" horiz-adv-x="264" d="M79 0v546h106v-546h-106z" />
<glyph unicode="&#x132;" horiz-adv-x="603" d="M99 0v707h108v-707h-108zM294 -190l-42 78q86 48 115.5 105.5t29.5 157.5v556h108v-554q0 -50 -4 -86.5t-17 -76.5t-35.5 -70.5t-61.5 -59t-93 -50.5z" />
<glyph unicode="&#x133;" horiz-adv-x="543" d="M269 -224q-46 0 -88 16l19 83q32 -10 67 -10q51 0 71 30.5t20 92.5v558h105v-559q0 -61 -15 -104t-43 -65.5t-60.5 -32t-75.5 -9.5zM79 0v546h106v-546h-106zM80 662v109h105v-109h-105zM360 662v109h105v-109h-105z" />
<glyph unicode="&#x134;" horiz-adv-x="308" d="M-1 -190l-42 78q86 48 115.5 105.5t29.5 157.5v556h108v-554q0 -50 -4 -86.5t-17 -76.5t-35.5 -70.5t-61.5 -59t-93 -50.5zM27 748l-36 69l167 82l163 -81l-37 -70l-127 58z" />
<glyph unicode="&#x135;" horiz-adv-x="264" d="M252 622l-122 85l-129 -85l-45 59l176 118l165 -117zM-10 -224q-46 0 -88 16l19 83q32 -10 67 -10q51 0 71 30.5t20 92.5v558h105v-559q0 -61 -15 -104t-43 -65.5t-60.5 -32t-75.5 -9.5z" />
<glyph unicode="&#x136;" horiz-adv-x="656" d="M393 -58l-41 -208h-76l21 208h96zM510 0l-290 373v11l274 323h137l-291 -328l310 -379h-140zM99 0v707h108v-707h-108z" />
<glyph unicode="&#x137;" horiz-adv-x="555" d="M346 -58l-41 -208h-76l21 208h96zM404 0l-217 288l219 258h117l-223 -254l234 -292h-130zM79 0v754h104v-754h-104z" />
<glyph unicode="&#x138;" horiz-adv-x="555" d="M546 0h-125l-226 283l207 263h116l-216 -255zM78 0v546h104v-546h-104z" />
<glyph unicode="&#x139;" horiz-adv-x="522" d="M106 746l-19 70l234 79l23 -86zM99 0v707h108v-618h307v-89h-415z" />
<glyph unicode="&#x13a;" horiz-adv-x="263" d="M87 787l-19 70l234 79l23 -86zM79 0v754h105v-754h-105z" />
<glyph unicode="&#x13b;" horiz-adv-x="522" d="M355 -58l-41 -208h-76l21 208h96zM99 0v707h108v-618h307v-89h-415z" />
<glyph unicode="&#x13c;" horiz-adv-x="263" d="M181 -58l-41 -208h-76l21 208h96zM79 0v754h105v-754h-105z" />
<glyph unicode="&#x13d;" horiz-adv-x="522" d="M411 771l-41 -208h-76l21 208h96zM99 0v707h108v-618h307v-89h-415z" />
<glyph unicode="&#x13e;" horiz-adv-x="321" d="M352 754l-41 -208h-75l21 208h95zM79 0v754h105v-754h-105z" />
<glyph unicode="&#x13f;" horiz-adv-x="522" d="M350 321v114h121v-114h-121zM99 0v707h108v-618h307v-89h-415z" />
<glyph unicode="&#x140;" horiz-adv-x="388" d="M251 310v114h121v-114h-121zM79 0v754h105v-754h-105z" />
<glyph unicode="&#x141;" horiz-adv-x="544" d="M48 252l-1 77l74 43v335h108v-273l123 72v-78l-123 -71v-268h307v-89h-415v294z" />
<glyph unicode="&#x142;" horiz-adv-x="328" d="M107 0v321l-83 -48v79l83 47v355h105v-294l89 51v-78l-89 -52v-381h-105z" />
<glyph unicode="&#x143;" horiz-adv-x="780" d="M311 746l-19 70l234 79l23 -86zM99 0v707h132l344 -576h2l-4 85v491h108v-707h-137l-338 567h-3l4 -79v-488h-108z" />
<glyph unicode="&#x144;" horiz-adv-x="618" d="M253 613l-34 64l203 126l40 -74zM79 0v546h105v-60q50 37 93 55.5t101 18.5q44 0 76 -13t49 -32t26.5 -49.5t12 -55.5t2.5 -61v-349h-103v334q0 72 -19.5 103.5t-77.5 31.5q-75 0 -160 -57v-412h-105z" />
<glyph unicode="&#x145;" horiz-adv-x="780" d="M443 -58l-41 -208h-76l21 208h96zM99 0v707h132l344 -576h2l-4 85v491h108v-707h-137l-338 567h-3l4 -79v-488h-108z" />
<glyph unicode="&#x146;" horiz-adv-x="618" d="M369 -58l-41 -208h-76l21 208h96zM79 0v546h105v-60q50 37 93 55.5t101 18.5q44 0 76 -13t49 -32t26.5 -49.5t12 -55.5t2.5 -61v-349h-103v334q0 72 -19.5 103.5t-77.5 31.5q-75 0 -160 -57v-412h-105z" />
<glyph unicode="&#x147;" horiz-adv-x="780" d="M555 825l-170 -81l-165 81l36 70l130 -58l131 58zM99 0v707h132l344 -576h2l-4 85v491h108v-707h-137l-338 567h-3l4 -79v-488h-108z" />
<glyph unicode="&#x148;" horiz-adv-x="618" d="M306 617l-171 117l42 60l130 -87l130 87l45 -60zM79 0v546h105v-60q50 37 93 55.5t101 18.5q44 0 76 -13t49 -32t26.5 -49.5t12 -55.5t2.5 -61v-349h-103v334q0 72 -19.5 103.5t-77.5 31.5q-75 0 -160 -57v-412h-105z" />
<glyph unicode="&#x149;" horiz-adv-x="662" d="M-27 534q29 58 29 126v95h98v-57q0 -94 -47 -164h-80zM122 0v546h105v-60q50 37 93 55.5t101 18.5q44 0 76 -13t49 -32t26.5 -49.5t12 -55.5t2.5 -61v-349h-103v334q0 72 -19.5 103.5t-77.5 31.5q-75 0 -160 -57v-412h-105z" />
<glyph unicode="&#x14a;" horiz-adv-x="781" d="M488 -220q-43 0 -88 15l19 83q27 -9 67 -9q92 0 92 111v20h-46l-329 583l4 -79v-504h-108v707h141l337 -593l-4 86v507h109v-719q-1 -117 -52.5 -162.5t-141.5 -45.5z" />
<glyph unicode="&#x14b;" horiz-adv-x="618" d="M544 -11q0 -117 -52 -163t-142 -46q-44 0 -87 15l18 83q31 -9 68 -9q51 0 71.5 30t20.5 91v344q0 73 -19.5 103.5t-81.5 30.5q-69 0 -156 -56v-412h-105v546h105v-60q99 74 187 74q47 0 80.5 -13t51 -31t27.5 -48.5t12 -55.5t2 -62v-361z" />
<glyph unicode="&#x14c;" horiz-adv-x="830" d="M273 779v83h285v-83h-285zM406 -12q-168 0 -260 99.5t-92 267.5q0 166 100 264t268 98q171 0 262.5 -100.5t91.5 -263.5q0 -166 -98.5 -265.5t-271.5 -99.5zM409 76q128 0 193 76.5t65 201.5q0 122 -65.5 199t-185.5 77q-124 0 -189 -76t-65 -198q0 -121 63.5 -200.5 t183.5 -79.5z" />
<glyph unicode="&#x14d;" horiz-adv-x="608" d="M158 663v83h285v-83h-285zM299 -12q-119 0 -185.5 73.5t-66.5 205.5q0 138 71.5 215.5t191.5 77.5q124 0 187.5 -74.5t63.5 -210.5q0 -140 -72 -213.5t-190 -73.5zM306 73q149 0 149 198q0 205 -150 205q-43 0 -74.5 -17.5t-48 -48t-23.5 -64.5t-7 -75q0 -88 36 -143 t118 -55z" />
<glyph unicode="&#x14e;" horiz-adv-x="830" d="M415 753q-60 0 -101.5 27t-63.5 65l56 49q51 -60 112 -60q65 0 110 60l53 -47q-58 -94 -166 -94zM406 -12q-168 0 -260 99.5t-92 267.5q0 166 100 264t268 98q171 0 262.5 -100.5t91.5 -263.5q0 -166 -98.5 -265.5t-271.5 -99.5zM409 76q128 0 193 76.5t65 201.5 q0 122 -65.5 199t-185.5 77q-124 0 -189 -76t-65 -198q0 -121 63.5 -200.5t183.5 -79.5z" />
<glyph unicode="&#x14f;" horiz-adv-x="608" d="M299 -12q-119 0 -185.5 73.5t-66.5 205.5q0 138 71.5 215.5t191.5 77.5q124 0 187.5 -74.5t63.5 -210.5q0 -140 -72 -213.5t-190 -73.5zM306 73q149 0 149 198q0 205 -150 205q-43 0 -74.5 -17.5t-48 -48t-23.5 -64.5t-7 -75q0 -88 36 -143t118 -55zM303 636 q-60 0 -101.5 27t-63.5 65l56 49q53 -60 112 -60q65 0 110 60l53 -47q-58 -94 -166 -94z" />
<glyph unicode="&#x150;" horiz-adv-x="830" d="M406 -12q-168 0 -260 99.5t-92 267.5q0 166 100 264t268 98q171 0 262.5 -100.5t91.5 -263.5q0 -166 -98.5 -265.5t-271.5 -99.5zM409 76q128 0 193 76.5t65 201.5q0 122 -65.5 199t-185.5 77q-124 0 -189 -76t-65 -198q0 -121 63.5 -200.5t183.5 -79.5zM461 869 l-200 -131l-44 62l190 143zM716 798l-233 -57l-20 73l228 72z" />
<glyph unicode="&#x151;" horiz-adv-x="608" d="M158 608l-45 57l185 153l55 -70zM383 610l-36 63l204 128l44 -76zM299 -12q-119 0 -185.5 73.5t-66.5 205.5q0 138 71.5 215.5t191.5 77.5q124 0 187.5 -74.5t63.5 -210.5q0 -140 -72 -213.5t-190 -73.5zM306 73q149 0 149 198q0 205 -150 205q-43 0 -74.5 -17.5t-48 -48 t-23.5 -64.5t-7 -75q0 -88 36 -143t118 -55z" />
<glyph unicode="&#x152;" horiz-adv-x="1101" d="M407 -12q-168 0 -260.5 99.5t-92.5 267.5q0 170 100.5 266.5t271.5 96.5q105 0 183 -48v37h416v-86h-307v-224h285v-84h-285v-226h331v-87h-440v44q-88 -56 -202 -56zM410 77q133 0 199 87v378q-65 86 -192 86q-124 0 -188.5 -75.5t-64.5 -196.5q0 -120 63.5 -199.5 t182.5 -79.5z" />
<glyph unicode="&#x153;" horiz-adv-x="964" d="M300 -12q-120 0 -186.5 73.5t-66.5 205.5q0 138 71.5 215.5t188.5 77.5q142 0 200 -100q62 100 202 100q209 0 209 -275v-37h-359q1 -101 47 -137t138 -36q63 0 144 22l17 -83q-68 -25 -182 -25q-162 0 -221 97q-67 -98 -202 -98zM306 73q149 0 149 200q0 203 -151 203 q-43 0 -74 -17.5t-47 -48t-23.5 -64.5t-7.5 -74q0 -199 154 -199zM561 321h248q0 75 -29 119t-84 44q-57 0 -93 -42t-42 -121z" />
<glyph unicode="&#x154;" horiz-adv-x="708" d="M235 746l-19 70l234 79l23 -86zM100 0v707h243q111 0 176.5 -54t65.5 -160q0 -138 -128 -193l221 -300h-135l-192 274q-21 -4 -60 -4h-83v-270h-108zM208 353h89q176 0 176 135q0 71 -36.5 102t-115.5 31h-113v-268z" />
<glyph unicode="&#x155;" horiz-adv-x="406" d="M175 613l-34 64l203 126l40 -74zM79 0v546h105v-73q22 34 61.5 59.5t89.5 25.5q38 0 67 -9l-15 -88q-31 7 -67 7q-43 0 -79 -22.5t-57 -53.5v-392h-105z" />
<glyph unicode="&#x156;" horiz-adv-x="708" d="M427 -58l-41 -208h-76l21 208h96zM100 0v707h243q111 0 176.5 -54t65.5 -160q0 -138 -128 -193l221 -300h-135l-192 274q-21 -4 -60 -4h-83v-270h-108zM208 353h89q176 0 176 135q0 71 -36.5 102t-115.5 31h-113v-268z" />
<glyph unicode="&#x157;" horiz-adv-x="406" d="M183 -58l-41 -208h-76l21 208h96zM79 0v546h105v-73q22 34 61.5 59.5t89.5 25.5q38 0 67 -9l-15 -88q-31 7 -67 7q-43 0 -79 -22.5t-57 -53.5v-392h-105z" />
<glyph unicode="&#x158;" horiz-adv-x="708" d="M472 825l-170 -81l-165 81l36 70l130 -58l131 58zM100 0v707h243q111 0 176.5 -54t65.5 -160q0 -138 -128 -193l221 -300h-135l-192 274q-21 -4 -60 -4h-83v-270h-108zM208 353h89q176 0 176 135q0 71 -36.5 102t-115.5 31h-113v-268z" />
<glyph unicode="&#x159;" horiz-adv-x="406" d="M221 617l-171 117l42 60l130 -87l130 87l45 -60zM79 0v546h105v-73q22 34 61.5 59.5t89.5 25.5q38 0 67 -9l-15 -88q-31 7 -67 7q-43 0 -79 -22.5t-57 -53.5v-392h-105z" />
<glyph unicode="&#x15a;" horiz-adv-x="554" d="M251 -12q-121 0 -209 51l33 85q93 -44 176 -44q66 0 110 27t44 81q0 32 -19 56.5t-49.5 40.5t-67 31.5t-73 33.5t-67 40.5t-49.5 59.5t-19 84q0 86 65.5 134.5t158.5 48.5q110 0 187 -43l-32 -82q-75 35 -153 35q-53 0 -87 -24t-34 -68q0 -38 36 -67t87 -50.5t102 -47 t87 -70.5t36 -106q0 -100 -75.5 -153t-187.5 -53zM199 746l-19 70l234 79l23 -86z" />
<glyph unicode="&#x15b;" horiz-adv-x="464" d="M165 613l-34 64l203 126l40 -74zM201 -12q-86 0 -161 24l15 84q91 -22 151 -22q58 0 89 19t31 52q0 28 -28.5 48.5t-68.5 35t-80.5 32.5t-69 53.5t-28.5 86.5q0 76 57 117.5t143 41.5q81 0 149 -28l-21 -79q-63 22 -127 22q-49 0 -73.5 -18t-24.5 -48t28 -50.5t68 -35 t80.5 -33t68.5 -54t28 -86.5q0 -58 -36.5 -96.5t-84.5 -52t-105 -13.5z" />
<glyph unicode="&#x15c;" horiz-adv-x="554" d="M251 -12q-121 0 -209 51l33 85q93 -44 176 -44q66 0 110 27t44 81q0 32 -19 56.5t-49.5 40.5t-67 31.5t-73 33.5t-67 40.5t-49.5 59.5t-19 84q0 86 65.5 134.5t158.5 48.5q110 0 187 -43l-32 -82q-75 35 -153 35q-53 0 -87 -24t-34 -68q0 -38 36 -67t87 -50.5t102 -47 t87 -70.5t36 -106q0 -100 -75.5 -153t-187.5 -53zM163 748l-36 69l167 82l163 -81l-37 -70l-127 58z" />
<glyph unicode="&#x15d;" horiz-adv-x="464" d="M353 622l-122 85l-129 -85l-45 59l176 118l165 -117zM201 -12q-86 0 -161 24l15 84q91 -22 151 -22q58 0 89 19t31 52q0 28 -28.5 48.5t-68.5 35t-80.5 32.5t-69 53.5t-28.5 86.5q0 76 57 117.5t143 41.5q81 0 149 -28l-21 -79q-63 22 -127 22q-49 0 -73.5 -18t-24.5 -48 t28 -50.5t68 -35t80.5 -33t68.5 -54t28 -86.5q0 -58 -36.5 -96.5t-84.5 -52t-105 -13.5z" />
<glyph unicode="&#x15e;" horiz-adv-x="554" d="M251 -12q-121 0 -209 51l33 85q93 -44 176 -44q66 0 110 27t44 81q0 32 -19 56.5t-49.5 40.5t-67 31.5t-73 33.5t-67 40.5t-49.5 59.5t-19 84q0 86 65.5 134.5t158.5 48.5q110 0 187 -43l-32 -82q-75 35 -153 35q-53 0 -87 -24t-34 -68q0 -38 36 -67t87 -50.5t102 -47 t87 -70.5t36 -106q0 -100 -75.5 -153t-187.5 -53zM214 -253l-35 62q64 38 64 75q0 19 -20 65h91q21 -39 21 -71q1 -80 -121 -131z" />
<glyph unicode="&#x15f;" horiz-adv-x="464" d="M201 -12q-86 0 -161 24l15 84q91 -22 151 -22q58 0 89 19t31 52q0 28 -28.5 48.5t-68.5 35t-80.5 32.5t-69 53.5t-28.5 86.5q0 76 57 117.5t143 41.5q81 0 149 -28l-21 -79q-63 22 -127 22q-49 0 -73.5 -18t-24.5 -48t28 -50.5t68 -35t80.5 -33t68.5 -54t28 -86.5 q0 -58 -36.5 -96.5t-84.5 -52t-105 -13.5zM189 -253l-35 62q64 38 64 75q0 19 -20 65h91q21 -39 21 -71q1 -80 -121 -131z" />
<glyph unicode="&#x160;" horiz-adv-x="554" d="M444 825l-170 -81l-165 81l36 70l130 -58l131 58zM251 -12q-121 0 -209 51l33 85q93 -44 176 -44q66 0 110 27t44 81q0 32 -19 56.5t-49.5 40.5t-67 31.5t-73 33.5t-67 40.5t-49.5 59.5t-19 84q0 86 65.5 134.5t158.5 48.5q110 0 187 -43l-32 -82q-75 35 -153 35 q-53 0 -87 -24t-34 -68q0 -38 36 -67t87 -50.5t102 -47t87 -70.5t36 -106q0 -100 -75.5 -153t-187.5 -53z" />
<glyph unicode="&#x161;" horiz-adv-x="464" d="M231 617l-171 117l42 60l130 -87l130 87l45 -60zM201 -12q-86 0 -161 24l15 84q91 -22 151 -22q58 0 89 19t31 52q0 28 -28.5 48.5t-68.5 35t-80.5 32.5t-69 53.5t-28.5 86.5q0 76 57 117.5t143 41.5q81 0 149 -28l-21 -79q-63 22 -127 22q-49 0 -73.5 -18t-24.5 -48 t28 -50.5t68 -35t80.5 -33t68.5 -54t28 -86.5q0 -58 -36.5 -96.5t-84.5 -52t-105 -13.5z" />
<glyph unicode="&#x162;" horiz-adv-x="599" d="M351 -58l-41 -208h-76l21 208h96zM245 0v619h-236v88h580v-88h-236v-619h-108z" />
<glyph unicode="&#x163;" horiz-adv-x="423" d="M312 -58l-41 -208h-76l21 208h96zM277 -12q-86 0 -130.5 38t-44.5 131v306h-80v83h80v112h103v-112h171v-83h-170v-301q0 -48 20.5 -66t66.5 -18q50 0 100 16l14 -85q-58 -21 -130 -21z" />
<glyph unicode="&#x164;" horiz-adv-x="599" d="M464 825l-170 -81l-165 81l36 70l130 -58l131 58zM245 0v619h-236v88h580v-88h-236v-619h-108z" />
<glyph unicode="&#x165;" horiz-adv-x="423" d="M392 811l-41 -208h-75l21 208h95zM277 -12q-86 0 -130.5 38t-44.5 131v306h-80v83h80v112h103v-112h171v-83h-170v-301q0 -48 20.5 -66t66.5 -18q50 0 100 16l14 -85q-58 -21 -130 -21z" />
<glyph unicode="&#x166;" horiz-adv-x="599" d="M101 330v64h144v225h-236v88h580v-88h-236v-225h145v-64h-145v-330h-108v330h-144z" />
<glyph unicode="&#x167;" horiz-adv-x="423" d="M33 284v59h69v120h-80v83h80v112h103v-112h171v-83h-170v-120h131v-59h-131v-122q0 -48 20.5 -66t66.5 -18q50 0 100 16l14 -85q-58 -21 -130 -21q-86 0 -130.5 38t-44.5 131v127h-69z" />
<glyph unicode="&#x168;" horiz-adv-x="768" d="M440 754q-23 0 -63.5 19t-58.5 19q-36 0 -69 -26l-40 54q51 56 112 56q29 0 68 -18.5t53 -18.5q36 0 71 26l37 -53q-47 -58 -110 -58zM385 -12q-46 0 -86.5 7.5t-80 26.5t-67.5 49t-45 78t-17 109v449h109v-442q0 -99 51 -143t136 -44q189 0 189 210v419h106v-423 q0 -83 -26.5 -143.5t-71 -92t-93.5 -46t-104 -14.5z" />
<glyph unicode="&#x169;" horiz-adv-x="616" d="M238 -12q-43 0 -74.5 13t-48 32.5t-26 50t-12 56t-2.5 60.5v346h104v-330q0 -71 17.5 -103t77.5 -32q77 0 160 56v409h103v-546h-103v62q-34 -24 -53.5 -36t-59.5 -25t-83 -13zM363 641q-25 0 -65 19t-60 19q-36 0 -69 -26l-40 54q52 56 116 56q30 0 68 -18.5t55 -18.5 q32 0 75 27l38 -53q-51 -59 -118 -59z" />
<glyph unicode="&#x16a;" horiz-adv-x="768" d="M239 779v83h285v-83h-285zM385 -12q-46 0 -86.5 7.5t-80 26.5t-67.5 49t-45 78t-17 109v449h109v-442q0 -99 51 -143t136 -44q189 0 189 210v419h106v-423q0 -83 -26.5 -143.5t-71 -92t-93.5 -46t-104 -14.5z" />
<glyph unicode="&#x16b;" horiz-adv-x="616" d="M167 663v83h285v-83h-285zM238 -12q-43 0 -74.5 13t-48 32.5t-26 50t-12 56t-2.5 60.5v346h104v-330q0 -71 17.5 -103t77.5 -32q77 0 160 56v409h103v-546h-103v62q-34 -24 -53.5 -36t-59.5 -25t-83 -13z" />
<glyph unicode="&#x16c;" horiz-adv-x="768" d="M384 753q-60 0 -101.5 27t-63.5 65l56 49q51 -60 112 -60q65 0 110 60l53 -47q-58 -94 -166 -94zM385 -12q-46 0 -86.5 7.5t-80 26.5t-67.5 49t-45 78t-17 109v449h109v-442q0 -99 51 -143t136 -44q189 0 189 210v419h106v-423q0 -83 -26.5 -143.5t-71 -92t-93.5 -46 t-104 -14.5z" />
<glyph unicode="&#x16d;" horiz-adv-x="616" d="M238 -12q-43 0 -74.5 13t-48 32.5t-26 50t-12 56t-2.5 60.5v346h104v-330q0 -71 17.5 -103t77.5 -32q77 0 160 56v409h103v-546h-103v62q-34 -24 -53.5 -36t-59.5 -25t-83 -13zM305 636q-60 0 -101.5 27t-63.5 65l56 49q53 -60 112 -60q65 0 110 60l53 -47 q-58 -94 -166 -94z" />
<glyph unicode="&#x16e;" horiz-adv-x="768" d="M387 709q-46 0 -78 23t-32 72q0 47 31.5 73.5t75.5 26.5q42 0 75.5 -24t33.5 -74q0 -46 -30.5 -71.5t-75.5 -25.5zM385 754q52 0 54 51q0 23 -15.5 37.5t-38.5 14.5q-55 0 -55 -50q0 -24 15.5 -38.5t39.5 -14.5zM385 -12q-46 0 -86.5 7.5t-80 26.5t-67.5 49t-45 78 t-17 109v449h109v-442q0 -99 51 -143t136 -44q189 0 189 210v419h106v-423q0 -83 -26.5 -143.5t-71 -92t-93.5 -46t-104 -14.5z" />
<glyph unicode="&#x16f;" horiz-adv-x="616" d="M308 606q-51 0 -86.5 26t-35.5 80q0 53 35.5 82.5t84.5 29.5q46 0 84 -27t38 -83q0 -52 -34 -80t-86 -28zM307 656q58 0 60 57q0 26 -17.5 42t-43.5 16q-60 0 -60 -56q0 -27 16.5 -43t44.5 -16zM238 -12q-43 0 -74.5 13t-48 32.5t-26 50t-12 56t-2.5 60.5v346h104v-330 q0 -71 17.5 -103t77.5 -32q77 0 160 56v409h103v-546h-103v62q-34 -24 -53.5 -36t-59.5 -25t-83 -13z" />
<glyph unicode="&#x170;" horiz-adv-x="768" d="M385 -12q-46 0 -86.5 7.5t-80 26.5t-67.5 49t-45 78t-17 109v449h109v-442q0 -99 51 -143t136 -44q189 0 189 210v419h106v-423q0 -83 -26.5 -143.5t-71 -92t-93.5 -46t-104 -14.5zM415 869l-200 -131l-44 62l190 143zM670 798l-233 -57l-20 73l228 72z" />
<glyph unicode="&#x171;" horiz-adv-x="616" d="M238 -12q-43 0 -74.5 13t-48 32.5t-26 50t-12 56t-2.5 60.5v346h104v-330q0 -71 17.5 -103t77.5 -32q77 0 160 56v409h103v-546h-103v62q-34 -24 -53.5 -36t-59.5 -25t-83 -13zM158 608l-45 57l185 153l55 -70zM383 610l-36 63l204 128l44 -76z" />
<glyph unicode="&#x172;" horiz-adv-x="768" d="M506 -216q-37 -23 -92 -23q-61 0 -95 31.5t-34 82.5q0 58 62 115q-113 9 -185.5 71.5t-72.5 196.5v449h109v-442q0 -99 51 -143t136 -44q189 0 189 210v419h106v-423q0 -129 -59 -198.5t-152 -88.5q-91 -54 -91 -108q0 -25 15 -38t39 -13q28 0 54 14z" />
<glyph unicode="&#x173;" horiz-adv-x="616" d="M543 -147l20 -70q-48 -21 -98 -21q-127 0 -127 106q0 65 96 135v59q-34 -23 -51 -33.5t-59 -26t-80 -15.5q-46 0 -78.5 13t-49.5 31.5t-26.5 49.5t-12 56t-2.5 62v347h104v-331q0 -71 18 -102.5t78 -31.5q59 0 159 56v409h103v-546q-107 -65 -107 -115q0 -43 53 -43 q29 0 60 11z" />
<glyph unicode="&#x174;" horiz-adv-x="1046" d="M397 748l-36 69l167 82l163 -81l-37 -70l-127 58zM1034 707l-221 -707h-150l-139 561l-157 -561h-152l-183 707h112l153 -641l181 641h104l159 -639l185 639h108z" />
<glyph unicode="&#x175;" horiz-adv-x="887" d="M570 622l-122 85l-129 -85l-45 59l176 118l165 -117zM181 0l-161 546h110l120 -466l134 466h130l116 -466l140 466h106l-181 -546h-135l-96 370l-18 79l-20 -79l-109 -370h-136z" />
<glyph unicode="&#x176;" horiz-adv-x="630" d="M259 0v256l-240 451h123l175 -358l187 358h118l-255 -449v-258h-108zM190 748l-36 69l167 82l163 -81l-37 -70l-127 58z" />
<glyph unicode="&#x177;" horiz-adv-x="536" d="M391 622l-122 85l-129 -85l-45 59l176 118l165 -117zM161 -220l74 220h-44l-179 546h113l111 -371l28 -95l31 94l127 372h106l-267 -766h-100z" />
<glyph unicode="&#x178;" horiz-adv-x="630" d="M259 0v256l-240 451h123l175 -358l187 358h118l-255 -449v-258h-108zM263 759h-100v110h100v-110zM471 759h-101v110h101v-110z" />
<glyph unicode="&#x179;" horiz-adv-x="586" d="M219 746l-19 70l234 79l23 -86zM39 0v84l360 532h-334v91h460v-77l-364 -539h385v-91h-507z" />
<glyph unicode="&#x17a;" horiz-adv-x="508" d="M189 613l-34 64l203 126l40 -74zM36 0v80l303 378h-279v88h401v-76l-304 -383h308v-87h-429z" />
<glyph unicode="&#x17b;" horiz-adv-x="586" d="M245 778v109h105v-109h-105zM39 0v84l360 532h-334v91h460v-77l-364 -539h385v-91h-507z" />
<glyph unicode="&#x17c;" horiz-adv-x="508" d="M36 0v80l303 378h-279v88h401v-76l-304 -383h308v-87h-429zM214 662v109h105v-109h-105z" />
<glyph unicode="&#x17d;" horiz-adv-x="586" d="M459 825l-170 -81l-165 81l36 70l130 -58l131 58zM39 0v84l360 532h-334v91h460v-77l-364 -539h385v-91h-507z" />
<glyph unicode="&#x17e;" horiz-adv-x="508" d="M249 617l-171 117l42 60l130 -87l130 87l45 -60zM36 0v80l303 378h-279v88h401v-76l-304 -383h308v-87h-429z" />
<glyph unicode="&#x18e;" horiz-adv-x="579" d="M480 707v-707h-417v87h309v226h-277v84h277v224h-308v86h416z" />
<glyph unicode="&#x18f;" horiz-adv-x="773" d="M374 -12q-160 0 -241 92t-86 254v61h560q-9 106 -70.5 170.5t-169.5 64.5q-125 0 -245 -64l-38 75q130 76 298 76q165 0 250.5 -100.5t85.5 -263.5q0 -169 -88 -267t-256 -98zM377 76q116 0 169 63.5t61 176.5h-450q20 -240 220 -240z" />
<glyph unicode="&#x192;" horiz-adv-x="531" d="M53 -33l-3 86q6 0 24.5 1.5t25 2t22 2.5t22.5 4.5t19.5 6.5t18 10t14 14t12 18.5t6.5 24.5t3 31l1 75h-104v87h105l1 52q1 113 68.5 157t186.5 44l7 -90q-83 -7 -108 -18q-50 -22 -51 -96l-1 -49h114v-87h-115l-1 -78q-1 -108 -69 -153t-198 -45z" />
<glyph unicode="&#x1a0;" horiz-adv-x="850" d="M406 -12q-168 0 -260 99.5t-92 267.5q0 166 100 264t268 98q124 0 208 -56q56 29 56 98q0 27 -9 58h93q12 -29 12 -70q0 -98 -83 -148q77 -97 77 -246q0 -166 -98.5 -265.5t-271.5 -99.5zM409 76q128 0 193 76.5t65 201.5q0 122 -65.5 199t-185.5 77q-124 0 -189 -76 t-65 -198q0 -121 63.5 -200.5t183.5 -79.5z" />
<glyph unicode="&#x1a1;" horiz-adv-x="625" d="M299 -12q-119 0 -185.5 73.5t-66.5 205.5q0 138 71.5 215.5t191.5 77.5q82 0 139 -34q50 14 50 73q0 18 -9 49h94q11 -26 11 -59q0 -41 -21.5 -75.5t-57.5 -53.5q45 -70 45 -185q0 -140 -72 -213.5t-190 -73.5zM306 73q149 0 149 198q0 205 -150 205q-43 0 -74.5 -17.5 t-48 -48t-23.5 -64.5t-7 -75q0 -88 36 -143t118 -55z" />
<glyph unicode="&#x1af;" horiz-adv-x="802" d="M385 -12q-46 0 -86.5 7.5t-80 26.5t-67.5 49t-45 78t-17 109v449h109v-442q0 -99 51 -143t136 -44q189 0 189 210v419h55q37 4 52 22.5t15 52.5q0 22 -9 53h91q11 -26 11 -65q0 -54 -29.5 -91t-79.5 -49v-346q0 -83 -26.5 -143.5t-71 -92t-93.5 -46t-104 -14.5z" />
<glyph unicode="&#x1b0;" horiz-adv-x="643" d="M238 -12q-43 0 -74.5 13t-48 32.5t-26 50t-12 56t-2.5 60.5v346h104v-330q0 -71 17.5 -103t77.5 -32q77 0 160 56v409h61q34 5 46.5 21.5t12.5 47.5q0 18 -9 49h92q11 -26 11 -59q0 -52 -31 -88.5t-80 -48.5v-468h-103v62q-34 -24 -53.5 -36t-59.5 -25t-83 -13z" />
<glyph unicode="&#x1c4;" horiz-adv-x="1335" d="M1212 825l-170 -81l-165 81l36 70l130 -58l131 58zM787 0v84l360 532h-334v91h460v-77l-364 -539h385v-91h-507zM99 0v707h209q120 0 208 -36t140.5 -116t52.5 -199q0 -180 -103.5 -268t-291.5 -88h-215zM207 87h118q134 0 204 65.5t70 192.5q0 137 -77 206t-217 69h-98 v-533z" />
<glyph unicode="&#x1c5;" horiz-adv-x="1270" d="M1025 616l-171 117l42 60l130 -87l130 87l45 -60zM797 0v80l303 378h-279v88h401v-76l-304 -383h308v-87h-429zM99 0v707h209q120 0 208 -36t140.5 -116t52.5 -199q0 -180 -103.5 -268t-291.5 -88h-215zM207 87h118q134 0 204 65.5t70 192.5q0 137 -77 206t-217 69h-98 v-533z" />
<glyph unicode="&#x1c6;" horiz-adv-x="1117" d="M872 617l-171 117l42 60l130 -87l130 87l45 -60zM644 0v80l303 378h-279v88h401v-76l-304 -383h308v-87h-429zM274 -10q-31 0 -60 7t-60 25.5t-54 48t-38 79t-15 113.5q0 149 76 223t202 74q42 0 90 -12v206h105v-754h-105v49q-31 -28 -62.5 -43.5t-78.5 -15.5zM291 78 q60 0 124 49v334q-39 15 -91 15q-91 0 -131.5 -57.5t-40.5 -149.5q0 -97 38.5 -144t100.5 -47z" />
<glyph unicode="&#x1c7;" horiz-adv-x="830" d="M520 -190l-42 78q86 48 115.5 105.5t29.5 157.5v556h108v-554q0 -50 -4 -86.5t-17 -76.5t-35.5 -70.5t-61.5 -59t-93 -50.5zM99 0v707h108v-618h307v-89h-415z" />
<glyph unicode="&#x1c8;" horiz-adv-x="793" d="M519 -224q-46 0 -88 16l19 83q32 -10 67 -10q51 0 71 30.5t20 92.5v558h105v-559q0 -61 -15 -104t-43 -65.5t-60.5 -32t-75.5 -9.5zM99 0v707h108v-618h307v-89h-415zM607 662v109h105v-109h-105z" />
<glyph unicode="&#x1c9;" horiz-adv-x="546" d="M272 -224q-46 0 -88 16l19 83q32 -10 67 -10q51 0 71 30.5t20 92.5v558h105v-559q0 -61 -15 -104t-43 -65.5t-60.5 -32t-75.5 -9.5zM79 0v754h105v-754h-105zM361 662v109h105v-109h-105z" />
<glyph unicode="&#x1ca;" horiz-adv-x="1091" d="M782 -190l-42 78q86 48 115.5 105.5t29.5 157.5v556h108v-554q0 -50 -4 -86.5t-17 -76.5t-35.5 -70.5t-61.5 -59t-93 -50.5zM99 0v707h132l344 -576h2l-4 85v491h108v-707h-137l-338 567h-3l4 -79v-488h-108z" />
<glyph unicode="&#x1cb;" horiz-adv-x="1054" d="M780 -224q-46 0 -88 16l19 83q32 -10 67 -10q51 0 71 30.5t20 92.5v558h105v-559q0 -61 -15 -104t-43 -65.5t-60.5 -32t-75.5 -9.5zM868 662v109h105v-109h-105zM99 0v707h132l344 -576h2l-4 85v491h108v-707h-137l-338 567h-3l4 -79v-488h-108z" />
<glyph unicode="&#x1cc;" horiz-adv-x="902" d="M628 -224q-46 0 -88 16l19 83q32 -10 67 -10q51 0 71 30.5t20 92.5v558h105v-559q0 -61 -15 -104t-43 -65.5t-60.5 -32t-75.5 -9.5zM717 662v109h105v-109h-105zM79 0v546h105v-60q50 37 93 55.5t101 18.5q44 0 76 -13t49 -32t26.5 -49.5t12 -55.5t2.5 -61v-349h-103v334 q0 72 -19.5 103.5t-77.5 31.5q-75 0 -160 -57v-412h-105z" />
<glyph unicode="&#x1cd;" horiz-adv-x="684" d="M-4 0l285 707h139l252 -707h-115l-86 247h-267l-97 -247h-111zM235 330h209l-99 305zM514 825l-170 -81l-165 81l36 70l130 -58l131 58z" />
<glyph unicode="&#x1ce;" horiz-adv-x="564" d="M206 -9q-77 0 -122.5 41t-45.5 115q0 49 20 83.5t54 51.5t68.5 24.5t74.5 7.5l119 2v59q0 54 -27.5 74.5t-90.5 20.5q-77 0 -153 -26l-22 79q90 37 192 37q203 0 203 -157v-285q0 -40 57 -42l-4 -80q-14 -2 -25 -2q-47 0 -80.5 16t-40.5 50q-90 -69 -177 -69zM233 74 q65 0 141 49v126l-116 -5q-56 -2 -87 -25t-31 -65q0 -40 25.5 -60t67.5 -20zM278 616l-171 117l42 60l130 -87l130 87l45 -60z" />
<glyph unicode="&#x1cf;" horiz-adv-x="306" d="M99 0v707h108v-707h-108zM319 825l-170 -81l-165 81l36 70l130 -58l131 58z" />
<glyph unicode="&#x1d0;" horiz-adv-x="264" d="M131 616l-171 117l42 60l130 -87l130 87l45 -60zM79 0v546h106v-546h-106z" />
<glyph unicode="&#x1d1;" horiz-adv-x="830" d="M586 825l-170 -81l-165 81l36 70l130 -58l131 58zM406 -12q-168 0 -260 99.5t-92 267.5q0 166 100 264t268 98q171 0 262.5 -100.5t91.5 -263.5q0 -166 -98.5 -265.5t-271.5 -99.5zM409 76q128 0 193 76.5t65 201.5q0 122 -65.5 199t-185.5 77q-124 0 -189 -76t-65 -198 q0 -121 63.5 -200.5t183.5 -79.5z" />
<glyph unicode="&#x1d2;" horiz-adv-x="608" d="M301 616l-171 117l42 60l130 -87l130 87l45 -60zM299 -12q-119 0 -185.5 73.5t-66.5 205.5q0 138 71.5 215.5t191.5 77.5q124 0 187.5 -74.5t63.5 -210.5q0 -140 -72 -213.5t-190 -73.5zM306 73q149 0 149 198q0 205 -150 205q-43 0 -74.5 -17.5t-48 -48t-23.5 -64.5 t-7 -75q0 -88 36 -143t118 -55z" />
<glyph unicode="&#x1d3;" horiz-adv-x="768" d="M552 825l-170 -81l-165 81l36 70l130 -58l131 58zM385 -12q-46 0 -86.5 7.5t-80 26.5t-67.5 49t-45 78t-17 109v449h109v-442q0 -99 51 -143t136 -44q189 0 189 210v419h106v-423q0 -83 -26.5 -143.5t-71 -92t-93.5 -46t-104 -14.5z" />
<glyph unicode="&#x1d4;" horiz-adv-x="616" d="M306 617l-171 117l42 60l130 -87l130 87l45 -60zM238 -12q-43 0 -74.5 13t-48 32.5t-26 50t-12 56t-2.5 60.5v346h104v-330q0 -71 17.5 -103t77.5 -32q77 0 160 56v409h103v-546h-103v62q-34 -24 -53.5 -36t-59.5 -25t-83 -13z" />
<glyph unicode="&#x1d5;" horiz-adv-x="768" d="M334 744h-100v110h100v-110zM542 744h-101v110h101v-110zM385 -12q-46 0 -86.5 7.5t-80 26.5t-67.5 49t-45 78t-17 109v449h109v-442q0 -99 51 -143t136 -44q189 0 189 210v419h106v-423q0 -83 -26.5 -143.5t-71 -92t-93.5 -46t-104 -14.5zM229 895v83h307v-83h-307z" />
<glyph unicode="&#x1d6;" horiz-adv-x="616" d="M247 631h-100v110h100v-110zM471 631h-101v110h101v-110zM153 796v83h307v-83h-307zM238 -12q-43 0 -74.5 13t-48 32.5t-26 50t-12 56t-2.5 60.5v346h104v-330q0 -71 17.5 -103t77.5 -32q77 0 160 56v409h103v-546h-103v62q-34 -24 -53.5 -36t-59.5 -25t-83 -13z" />
<glyph unicode="&#x1d7;" horiz-adv-x="768" d="M334 744h-100v110h100v-110zM542 744h-101v110h101v-110zM342 867l-19 70l234 79l23 -86zM385 -12q-46 0 -86.5 7.5t-80 26.5t-67.5 49t-45 78t-17 109v449h109v-442q0 -99 51 -143t136 -44q189 0 189 210v419h106v-423q0 -83 -26.5 -143.5t-71 -92t-93.5 -46t-104 -14.5 z" />
<glyph unicode="&#x1d8;" horiz-adv-x="616" d="M247 631h-100v110h100v-110zM471 631h-101v110h101v-110zM287 755l-34 64l203 126l40 -74zM238 -12q-43 0 -74.5 13t-48 32.5t-26 50t-12 56t-2.5 60.5v346h104v-330q0 -71 17.5 -103t77.5 -32q77 0 160 56v409h103v-546h-103v62q-34 -24 -53.5 -36t-59.5 -25t-83 -13z " />
<glyph unicode="&#x1d9;" horiz-adv-x="768" d="M334 744h-100v110h100v-110zM542 744h-101v110h101v-110zM385 -12q-46 0 -86.5 7.5t-80 26.5t-67.5 49t-45 78t-17 109v449h109v-442q0 -99 51 -143t136 -44q189 0 189 210v419h106v-423q0 -83 -26.5 -143.5t-71 -92t-93.5 -46t-104 -14.5zM553 947l-170 -81l-165 81 l36 70l130 -58l131 58z" />
<glyph unicode="&#x1da;" horiz-adv-x="616" d="M247 631h-100v110h100v-110zM471 631h-101v110h101v-110zM238 -12q-43 0 -74.5 13t-48 32.5t-26 50t-12 56t-2.5 60.5v346h104v-330q0 -71 17.5 -103t77.5 -32q77 0 160 56v409h103v-546h-103v62q-34 -24 -53.5 -36t-59.5 -25t-83 -13zM303 753l-167 107l42 60l126 -76 l128 78l45 -60z" />
<glyph unicode="&#x1db;" horiz-adv-x="768" d="M415 867l-239 60l23 87l236 -76zM334 744h-100v110h100v-110zM542 744h-101v110h101v-110zM385 -12q-46 0 -86.5 7.5t-80 26.5t-67.5 49t-45 78t-17 109v449h109v-442q0 -99 51 -143t136 -44q189 0 189 210v419h106v-423q0 -83 -26.5 -143.5t-71 -92t-93.5 -46 t-104 -14.5z" />
<glyph unicode="&#x1dc;" horiz-adv-x="616" d="M247 631h-100v110h100v-110zM471 631h-101v110h101v-110zM238 -12q-43 0 -74.5 13t-48 32.5t-26 50t-12 56t-2.5 60.5v346h104v-330q0 -71 17.5 -103t77.5 -32q77 0 160 56v409h103v-546h-103v62q-34 -24 -53.5 -36t-59.5 -25t-83 -13zM334 745l-208 116l41 76l203 -128z " />
<glyph unicode="&#x1dd;" horiz-adv-x="558" d="M240 560q132 0 200.5 -62.5t68.5 -213.5q0 -296 -254 -296q-209 0 -209 274v38h358q-1 103 -48.5 138t-139.5 35q-54 0 -141 -23l-17 81q82 29 182 29zM402 227h-248q-1 -75 28 -119t85 -44q57 0 93.5 42t41.5 121z" />
<glyph unicode="&#x1e2;" horiz-adv-x="932" d="M438 779v83h285v-83h-285zM-17 0l363 707h510v-86h-308v-224h286v-84h-286v-226h332v-87h-439v292h-192l-144 -292h-122zM287 375h154v246h-33z" />
<glyph unicode="&#x1e3;" horiz-adv-x="881" d="M297 663v83h285v-83h-285zM641 -9q-163 0 -227 91q-115 -90 -211 -90q-79 0 -122 40t-43 116q0 158 217 163q106 3 119 3v66q0 56 -28 73t-100 17q-37 0 -143 -24l-21 77q86 36 188 36q137 0 179 -66q63 66 178 66q207 0 207 -266v-36l-358 -12q1 -53 14.5 -87.5 t41 -51.5t58 -23t75.5 -6q37 0 141 19l16 -80q-71 -25 -181 -25zM224 75q58 0 166 59q-14 43 -17 109l-114 -3q-120 -4 -120 -84q0 -81 85 -81zM479 319l247 12q1 69 -29 110t-82 41q-55 0 -93.5 -40t-42.5 -123z" />
<glyph unicode="&#x1e6;" horiz-adv-x="710" d="M572 825l-170 -81l-165 81l36 70l130 -58l131 58zM430 -11q-176 0 -276 95t-100 265q0 175 97 271.5t275 96.5q121 0 206 -40l-29 -83q-95 31 -177 31q-115 0 -188 -65.5t-73 -200.5q0 -139 78 -208t201 -69q52 0 94 11v255h107v-323q-100 -36 -215 -36z" />
<glyph unicode="&#x1e7;" horiz-adv-x="592" d="M264 194q-51 0 -92 14q-19 -28 -19 -48q0 -17 11.5 -28t29.5 -11h118q107 0 159.5 -38.5t52.5 -107.5q0 -86 -73 -145.5t-203 -59.5q-103 0 -159 39.5t-56 106.5q0 83 75 137q-37 25 -37 74q0 57 51 105q-66 46 -66 135q0 82 56 137t157 55q81 0 132 -35l161 6v-80h-94 q15 -41 15 -79q0 -80 -61.5 -128.5t-157.5 -48.5zM313 34h-130q-15 0 -22 1q-45 -41 -45 -90q0 -43 36 -68t106 -25q79 0 127 32.5t48 78.5q0 32 -29 51.5t-91 19.5zM267 263q54 0 86 30.5t32 80.5t-30.5 82t-85.5 32q-53 0 -84.5 -31.5t-31.5 -83.5t31 -81t83 -29zM268 616 l-171 117l42 60l130 -87l130 87l45 -60z" />
<glyph unicode="&#x1e8;" horiz-adv-x="656" d="M510 0l-290 373v11l274 323h137l-291 -328l310 -379h-140zM99 0v707h108v-707h-108zM509 825l-170 -81l-165 81l36 70l130 -58l131 58z" />
<glyph unicode="&#x1e9;" horiz-adv-x="555" d="M404 0l-217 288l219 258h117l-223 -254l234 -292h-130zM79 0v754h104v-754h-104zM472 825l-170 -81l-165 81l36 70l130 -58l131 58z" />
<glyph unicode="&#x1ea;" horiz-adv-x="830" d="M526 -216q-37 -23 -92 -23q-61 0 -95 31.5t-34 82.5q0 58 62 115q-150 11 -231.5 109t-81.5 256q0 166 100 264t268 98q171 0 262.5 -100.5t91.5 -263.5q0 -147 -76.5 -242t-215.5 -117q-86 -52 -86 -105q0 -25 15 -38t39 -13q28 0 54 14zM409 76q128 0 193 76.5 t65 201.5q0 122 -65.5 199t-185.5 77q-124 0 -189 -76t-65 -198q0 -121 63.5 -200.5t183.5 -79.5z" />
<glyph unicode="&#x1eb;" horiz-adv-x="608" d="M422 -216q-37 -23 -92 -23q-61 0 -95 31.5t-34 82.5q0 58 62 115q-102 11 -159 83t-57 194q0 138 71.5 215.5t191.5 77.5q124 0 187.5 -74.5t63.5 -210.5q0 -110 -45 -179t-123 -94q-99 -57 -99 -113q0 -25 15 -38t39 -13q28 0 54 14zM306 73q149 0 149 198 q0 205 -150 205q-43 0 -74.5 -17.5t-48 -48t-23.5 -64.5t-7 -75q0 -88 36 -143t118 -55z" />
<glyph unicode="&#x1ec;" horiz-adv-x="830" d="M526 -216q-37 -23 -92 -23q-61 0 -95 31.5t-34 82.5q0 58 62 115q-150 11 -231.5 109t-81.5 256q0 166 100 264t268 98q171 0 262.5 -100.5t91.5 -263.5q0 -147 -76.5 -242t-215.5 -117q-86 -52 -86 -105q0 -25 15 -38t39 -13q28 0 54 14zM409 76q128 0 193 76.5 t65 201.5q0 122 -65.5 199t-185.5 77q-124 0 -189 -76t-65 -198q0 -121 63.5 -200.5t183.5 -79.5zM267 779v83h285v-83h-285z" />
<glyph unicode="&#x1ed;" horiz-adv-x="608" d="M422 -216q-37 -23 -92 -23q-61 0 -95 31.5t-34 82.5q0 58 62 115q-102 11 -159 83t-57 194q0 138 71.5 215.5t191.5 77.5q124 0 187.5 -74.5t63.5 -210.5q0 -110 -45 -179t-123 -94q-99 -57 -99 -113q0 -25 15 -38t39 -13q28 0 54 14zM306 73q149 0 149 198 q0 205 -150 205q-43 0 -74.5 -17.5t-48 -48t-23.5 -64.5t-7 -75q0 -88 36 -143t118 -55zM159 662v83h285v-83h-285z" />
<glyph unicode="&#x1ee;" horiz-adv-x="546" d="M428 825l-170 -81l-165 81l36 70l130 -58l131 58zM162 399l191 217h-301v91h421v-77l-204 -229q95 -12 159 -63t64 -132q0 -104 -74 -161t-180 -57q-69 0 -121.5 13t-75.5 28l25 85q78 -37 165 -37q67 0 110 30t43 95q0 59 -50 90.5t-121 34.5q-13 1 -37 1z" />
<glyph unicode="&#x1ef;" horiz-adv-x="484" d="M122 168v77l194 213h-284v88h401v-76l-210 -231q92 -14 155.5 -67t63.5 -134q0 -59 -32 -108.5t-85 -81.5t-117 -51.5t-131 -24.5l-17 82q121 15 198 60t77 119q0 43 -34.5 74t-80 44.5t-98.5 16.5zM228 616l-171 117l42 60l130 -87l130 87l45 -60z" />
<glyph unicode="&#x1f1;" horiz-adv-x="1335" d="M787 0v84l360 532h-334v91h460v-77l-364 -539h385v-91h-507zM99 0v707h209q120 0 208 -36t140.5 -116t52.5 -199q0 -180 -103.5 -268t-291.5 -88h-215zM207 87h118q134 0 204 65.5t70 192.5q0 137 -77 206t-217 69h-98v-533z" />
<glyph unicode="&#x1f2;" horiz-adv-x="1270" d="M797 0v80l303 378h-279v88h401v-76l-304 -383h308v-87h-429zM99 0v707h209q120 0 208 -36t140.5 -116t52.5 -199q0 -180 -103.5 -268t-291.5 -88h-215zM207 87h118q134 0 204 65.5t70 192.5q0 137 -77 206t-217 69h-98v-533z" />
<glyph unicode="&#x1f3;" horiz-adv-x="1117" d="M644 0v80l303 378h-279v88h401v-76l-304 -383h308v-87h-429zM274 -10q-31 0 -60 7t-60 25.5t-54 48t-38 79t-15 113.5q0 149 76 223t202 74q42 0 90 -12v206h105v-754h-105v49q-31 -28 -62.5 -43.5t-78.5 -15.5zM291 78q60 0 124 49v334q-39 15 -91 15 q-91 0 -131.5 -57.5t-40.5 -149.5q0 -97 38.5 -144t100.5 -47z" />
<glyph unicode="&#x1f4;" horiz-adv-x="710" d="M327 746l-19 70l234 79l23 -86zM430 -11q-176 0 -276 95t-100 265q0 175 97 271.5t275 96.5q121 0 206 -40l-29 -83q-95 31 -177 31q-115 0 -188 -65.5t-73 -200.5q0 -139 78 -208t201 -69q52 0 94 11v255h107v-323q-100 -36 -215 -36z" />
<glyph unicode="&#x1f5;" horiz-adv-x="592" d="M264 194q-51 0 -92 14q-19 -28 -19 -48q0 -17 11.5 -28t29.5 -11h118q107 0 159.5 -38.5t52.5 -107.5q0 -86 -73 -145.5t-203 -59.5q-103 0 -159 39.5t-56 106.5q0 83 75 137q-37 25 -37 74q0 57 51 105q-66 46 -66 135q0 82 56 137t157 55q81 0 132 -35l161 6v-80h-94 q15 -41 15 -79q0 -80 -61.5 -128.5t-157.5 -48.5zM313 34h-130q-15 0 -22 1q-45 -41 -45 -90q0 -43 36 -68t106 -25q79 0 127 32.5t48 78.5q0 32 -29 51.5t-91 19.5zM267 263q54 0 86 30.5t32 80.5t-30.5 82t-85.5 32q-53 0 -84.5 -31.5t-31.5 -83.5t31 -81t83 -29zM253 613 l-34 64l203 126l40 -74z" />
<glyph unicode="&#x1f8;" horiz-adv-x="780" d="M487 746l-239 60l23 87l236 -76zM99 0v707h132l344 -576h2l-4 85v491h108v-707h-137l-338 567h-3l4 -79v-488h-108z" />
<glyph unicode="&#x1f9;" horiz-adv-x="618" d="M374 613l-208 116l41 76l203 -128zM79 0v546h105v-60q50 37 93 55.5t101 18.5q44 0 76 -13t49 -32t26.5 -49.5t12 -55.5t2.5 -61v-349h-103v334q0 72 -19.5 103.5t-77.5 31.5q-75 0 -160 -57v-412h-105z" />
<glyph unicode="&#x1fa;" horiz-adv-x="684" d="M-4 0l285 707h139l252 -707h-115l-86 247h-267l-97 -247h-111zM235 330h209l-99 305zM246 914l-19 70l234 79l23 -86zM353 723q-46 0 -78 23t-32 72q0 47 31.5 73.5t75.5 26.5q42 0 75.5 -24t33.5 -74q0 -46 -30.5 -71.5t-75.5 -25.5zM351 768q52 0 54 51 q0 23 -15.5 37.5t-38.5 14.5q-55 0 -55 -50q0 -24 15.5 -38.5t39.5 -14.5z" />
<glyph unicode="&#x1fb;" horiz-adv-x="564" d="M206 -9q-77 0 -122.5 41t-45.5 115q0 49 20 83.5t54 51.5t68.5 24.5t74.5 7.5l119 2v59q0 54 -27.5 74.5t-90.5 20.5q-77 0 -153 -26l-22 79q90 37 192 37q203 0 203 -157v-285q0 -40 57 -42l-4 -80q-14 -2 -25 -2q-47 0 -80.5 16t-40.5 50q-90 -69 -177 -69zM233 74 q65 0 141 49v126l-116 -5q-56 -2 -87 -25t-31 -65q0 -40 25.5 -60t67.5 -20zM187 812l-19 70l234 79l23 -86zM287 597q-48 0 -82 25t-34 76q0 50 33.5 77.5t80.5 27.5q44 0 79.5 -24.5t35.5 -78.5q0 -49 -32.5 -76t-80.5 -27zM286 645q26 0 40.5 14.5t16.5 39.5 q0 24 -16.5 39t-41.5 15q-27 0 -42 -13.5t-15 -38.5t16 -40.5t42 -15.5z" />
<glyph unicode="&#x1fc;" horiz-adv-x="932" d="M491 746l-19 70l234 79l23 -86zM-17 0l363 707h510v-86h-308v-224h286v-84h-286v-226h332v-87h-439v292h-192l-144 -292h-122zM287 375h154v246h-33z" />
<glyph unicode="&#x1fd;" horiz-adv-x="881" d="M379 613l-34 64l203 126l40 -74zM641 -9q-163 0 -227 91q-115 -90 -211 -90q-79 0 -122 40t-43 116q0 158 217 163q106 3 119 3v66q0 56 -28 73t-100 17q-37 0 -143 -24l-21 77q86 36 188 36q137 0 179 -66q63 66 178 66q207 0 207 -266v-36l-358 -12q1 -53 14.5 -87.5 t41 -51.5t58 -23t75.5 -6q37 0 141 19l16 -80q-71 -25 -181 -25zM224 75q58 0 166 59q-14 43 -17 109l-114 -3q-120 -4 -120 -84q0 -81 85 -81zM479 319l247 12q1 69 -29 110t-82 41q-55 0 -93.5 -40t-42.5 -123z" />
<glyph unicode="&#x1fe;" horiz-adv-x="859" d="M95 -34l-48 48l93 96q-72 94 -72 245q0 166 100 264t268 98q136 0 226 -68l91 94l50 -46l-92 -95q79 -97 79 -249q0 -166 -98.5 -265.5t-271.5 -99.5q-142 0 -232 74zM423 76q128 0 193 76.5t65 201.5q0 101 -45 171l-377 -390q64 -59 164 -59zM176 356q0 -97 40 -167 l375 387q-64 54 -161 54q-124 0 -189 -76t-65 -198zM348 746l-19 70l234 79l23 -86z" />
<glyph unicode="&#x1ff;" horiz-adv-x="630" d="M309 -12q-103 0 -167 55l-64 -71l-39 38l67 74q-49 70 -49 183q0 138 71.5 215.5t191.5 77.5q103 0 166 -54l60 66l39 -38l-62 -69q48 -72 48 -190q0 -140 -72 -213.5t-190 -73.5zM162 271q0 -63 17 -107l241 268q-37 44 -105 44q-43 0 -74.5 -17.5t-48 -48t-23.5 -64.5 t-7 -75zM316 73q149 0 149 198q0 68 -17 112l-241 -267q38 -43 109 -43zM247 613l-34 64l203 126l40 -74z" />
<glyph unicode="&#x218;" horiz-adv-x="554" d="M318 -58l-41 -208h-76l21 208h96zM251 -12q-121 0 -209 51l33 85q93 -44 176 -44q66 0 110 27t44 81q0 32 -19 56.5t-49.5 40.5t-67 31.5t-73 33.5t-67 40.5t-49.5 59.5t-19 84q0 86 65.5 134.5t158.5 48.5q110 0 187 -43l-32 -82q-75 35 -153 35q-53 0 -87 -24t-34 -68 q0 -38 36 -67t87 -50.5t102 -47t87 -70.5t36 -106q0 -100 -75.5 -153t-187.5 -53z" />
<glyph unicode="&#x219;" horiz-adv-x="464" d="M287 -58l-41 -208h-76l21 208h96zM201 -12q-86 0 -161 24l15 84q91 -22 151 -22q58 0 89 19t31 52q0 28 -28.5 48.5t-68.5 35t-80.5 32.5t-69 53.5t-28.5 86.5q0 76 57 117.5t143 41.5q81 0 149 -28l-21 -79q-63 22 -127 22q-49 0 -73.5 -18t-24.5 -48t28 -50.5t68 -35 t80.5 -33t68.5 -54t28 -86.5q0 -58 -36.5 -96.5t-84.5 -52t-105 -13.5z" />
<glyph unicode="&#x21a;" horiz-adv-x="599" d="M351 -58l-41 -208h-76l21 208h96zM245 0v619h-236v88h580v-88h-236v-619h-108z" />
<glyph unicode="&#x21b;" horiz-adv-x="423" d="M316 -58l-41 -208h-76l21 208h96zM277 -12q-86 0 -130.5 38t-44.5 131v306h-80v83h80v112h103v-112h171v-83h-170v-301q0 -48 20.5 -66t66.5 -18q50 0 100 16l14 -85q-58 -21 -130 -21z" />
<glyph unicode="&#x21c;" horiz-adv-x="546" d="M162 399l191 217h-301v91h421v-77l-204 -229q95 -12 159 -63t64 -132q0 -104 -74 -161t-180 -57q-69 0 -121.5 13t-75.5 28l25 85q78 -37 165 -37q67 0 110 30t43 95q0 59 -50 90.5t-121 34.5q-13 1 -37 1z" />
<glyph unicode="&#x21d;" horiz-adv-x="484" d="M122 168v77l194 213h-284v88h401v-76l-210 -231q92 -14 155.5 -67t63.5 -134q0 -59 -32 -108.5t-85 -81.5t-117 -51.5t-131 -24.5l-17 82q121 15 198 60t77 119q0 43 -34.5 74t-80 44.5t-98.5 16.5z" />
<glyph unicode="&#x21e;" horiz-adv-x="776" d="M99 0v707h108v-309h362v309h108v-707h-108v312h-362v-312h-108zM555 825l-170 -81l-165 81l36 70l130 -58l131 58z" />
<glyph unicode="&#x21f;" horiz-adv-x="617" d="M79 0v754h105v-269q100 74 189 74q46 0 79 -13t50.5 -31.5t27 -49.5t11.5 -55.5t2 -61.5v-348h-102v333q0 72 -19.5 103t-77.5 31q-68 0 -160 -56v-411h-105zM498 825l-170 -81l-165 81l36 70l130 -58l131 58z" />
<glyph unicode="&#x226;" horiz-adv-x="684" d="M-4 0l285 707h139l252 -707h-115l-86 247h-267l-97 -247h-111zM235 330h209l-99 305zM292 778v109h105v-109h-105z" />
<glyph unicode="&#x227;" horiz-adv-x="564" d="M206 -9q-77 0 -122.5 41t-45.5 115q0 49 20 83.5t54 51.5t68.5 24.5t74.5 7.5l119 2v59q0 54 -27.5 74.5t-90.5 20.5q-77 0 -153 -26l-22 79q90 37 192 37q203 0 203 -157v-285q0 -40 57 -42l-4 -80q-14 -2 -25 -2q-47 0 -80.5 16t-40.5 50q-90 -69 -177 -69zM233 74 q65 0 141 49v126l-116 -5q-56 -2 -87 -25t-31 -65q0 -40 25.5 -60t67.5 -20zM234 662v109h105v-109h-105z" />
<glyph unicode="&#x228;" horiz-adv-x="590" d="M99 0v707h416v-86h-308v-224h286v-84h-286v-226h331v-87h-439zM268 -253l-35 62q64 38 64 75q0 19 -20 65h91q21 -39 21 -71q1 -80 -121 -131z" />
<glyph unicode="&#x229;" horiz-adv-x="558" d="M316 -12q-131 0 -199.5 62.5t-68.5 212.5q0 153 68 225t179 72q112 0 164.5 -69t52.5 -206v-37h-359q1 -99 48.5 -136t130.5 -37q69 0 150 24l18 -81q-80 -30 -184 -30zM156 321h248q0 160 -115 160q-56 0 -92 -41t-41 -119zM242 -253l-35 62q64 38 64 75q0 19 -20 65h91 q21 -39 21 -71q1 -80 -121 -131z" />
<glyph unicode="&#x22e;" horiz-adv-x="830" d="M359 778v109h105v-109h-105zM406 -12q-168 0 -260 99.5t-92 267.5q0 166 100 264t268 98q171 0 262.5 -100.5t91.5 -263.5q0 -166 -98.5 -265.5t-271.5 -99.5zM409 76q128 0 193 76.5t65 201.5q0 122 -65.5 199t-185.5 77q-124 0 -189 -76t-65 -198q0 -121 63.5 -200.5 t183.5 -79.5z" />
<glyph unicode="&#x22f;" horiz-adv-x="608" d="M299 -12q-119 0 -185.5 73.5t-66.5 205.5q0 138 71.5 215.5t191.5 77.5q124 0 187.5 -74.5t63.5 -210.5q0 -140 -72 -213.5t-190 -73.5zM306 73q149 0 149 198q0 205 -150 205q-43 0 -74.5 -17.5t-48 -48t-23.5 -64.5t-7 -75q0 -88 36 -143t118 -55zM250 662v109h105 v-109h-105z" />
<glyph unicode="&#x232;" horiz-adv-x="630" d="M259 0v256l-240 451h123l175 -358l187 358h118l-255 -449v-258h-108zM174 779v83h285v-83h-285z" />
<glyph unicode="&#x233;" horiz-adv-x="536" d="M161 -220l74 220h-44l-179 546h113l111 -371l28 -95l31 94l127 372h106l-267 -766h-100zM125 663v83h285v-83h-285z" />
<glyph unicode="&#x237;" horiz-adv-x="264" d="M-10 -224q-46 0 -88 16l19 83q32 -10 67 -10q51 0 71 30.5t20 92.5v558h105v-559q0 -61 -15 -104t-43 -65.5t-60.5 -32t-75.5 -9.5z" />
<glyph unicode="&#x259;" horiz-adv-x="558" d="M240 560q132 0 200.5 -62.5t68.5 -213.5q0 -296 -254 -296q-209 0 -209 274v38h358q-1 103 -48.5 138t-139.5 35q-54 0 -141 -23l-17 81q82 29 182 29zM402 227h-248q-1 -75 28 -119t85 -44q57 0 93.5 42t41.5 121z" />
<glyph unicode="&#x2bc;" horiz-adv-x="654" d="M-41 534q29 58 29 126v95h98v-57q0 -94 -47 -164h-80z" />
<glyph unicode="&#x2c6;" horiz-adv-x="545" d="M370 622l-122 85l-129 -85l-45 59l176 118l165 -117z" />
<glyph unicode="&#x2c7;" horiz-adv-x="545" d="M269 616l-171 117l42 60l130 -87l130 87l45 -60z" />
<glyph unicode="&#x2d8;" horiz-adv-x="505" d="M270 635q-60 0 -101.5 27t-63.5 65l56 49q53 -60 112 -60q65 0 110 60l53 -47q-58 -94 -166 -94z" />
<glyph unicode="&#x2d9;" horiz-adv-x="282" d="M88 662v109h105v-109h-105z" />
<glyph unicode="&#x2da;" horiz-adv-x="541" d="M272 606q-51 0 -86.5 26t-35.5 80q0 53 35.5 82.5t84.5 29.5q46 0 84 -27t38 -83q0 -52 -34 -80t-86 -28zM271 656q58 0 60 57q0 26 -17.5 42t-43.5 16q-60 0 -60 -56q0 -27 16.5 -43t44.5 -16z" />
<glyph unicode="&#x2db;" horiz-adv-x="570" d="M497 -216q-37 -23 -92 -23q-61 0 -95 31.5t-34 82.5q0 56 52.5 105.5t124.5 80.5l36 -48q-120 -61 -120 -124q0 -25 15 -38t39 -13q28 0 54 14z" />
<glyph unicode="&#x2dc;" horiz-adv-x="545" d="M329 641q-25 0 -65 19t-60 19q-36 0 -69 -26l-40 54q52 56 116 56q30 0 68 -18.5t55 -18.5q32 0 75 27l38 -53q-51 -59 -118 -59z" />
<glyph unicode="&#x2dd;" horiz-adv-x="594" d="M101 608l-45 57l185 153l55 -70zM326 610l-36 63l204 128l44 -76z" />
<glyph unicode="&#x300;" horiz-adv-x="0" d="M-245 613l-208 116l41 76l203 -127z" />
<glyph unicode="&#x301;" horiz-adv-x="0" d="M-373 613l-35 66l202 126l42 -76z" />
<glyph unicode="&#x302;" horiz-adv-x="0" d="M-174 628l-128 79l-131 -80l-45 61l177 111l169 -110z" />
<glyph unicode="&#x303;" horiz-adv-x="0" d="M-245 641q-25 0 -64.5 19t-60.5 19q-37 0 -69 -26l-40 54q52 56 116 56q30 0 68 -18.5t55 -18.5q31 0 76 27l37 -53q-51 -59 -118 -59z" />
<glyph unicode="&#x304;" horiz-adv-x="0" d="M-460 662v83h307v-83h-307z" />
<glyph unicode="&#x306;" horiz-adv-x="0" d="M-305 631q-111 0 -174 95l55 51q56 -62 121 -62q63 0 118 62l53 -50q-66 -96 -173 -96z" />
<glyph unicode="&#x307;" horiz-adv-x="0" d="M-364 661v109h105v-109h-105z" />
<glyph unicode="&#x308;" horiz-adv-x="0" d="M-465 662v109h105v-109h-105zM-254 662v109h105v-109h-105z" />
<glyph unicode="&#x309;" horiz-adv-x="0" d="M-223 754q0 -47 -28 -80.5t-63 -48.5l-48 52q57 25 57 71q0 37 -41 37q-22 0 -43 -8l-5 68q27 12 67 12q44 0 74 -28q30 -27 30 -75z" />
<glyph unicode="&#x30a;" horiz-adv-x="0" d="M-305 611q-48 0 -82 25t-34 76q0 50 33.5 77.5t80.5 27.5q44 0 79.5 -24.5t35.5 -78.5q0 -49 -32.5 -76t-80.5 -27zM-306 659q26 0 40.5 14.5t16.5 39.5q0 24 -16.5 39t-41.5 15q-27 0 -42 -13.5t-15 -38.5t16 -40.5t42 -15.5z" />
<glyph unicode="&#x30b;" horiz-adv-x="0" d="M-457 608l-45 57l185 153l55 -70zM-233 610l-35 63l204 128l44 -76z" />
<glyph unicode="&#x30c;" horiz-adv-x="0" d="M-312 608l-167 107l42 60l126 -76l128 78l45 -60z" />
<glyph unicode="&#x310;" horiz-adv-x="0" d="M-301 634q-59 0 -103.5 29t-66.5 69l57 49q54 -63 116 -63q65 0 118 64l54 -47q-23 -39 -68.5 -70t-106.5 -31zM-349 772v109h105v-109h-105z" />
<glyph unicode="&#x323;" horiz-adv-x="0" d="M-352 -208v109h105v-109h-105z" />
<glyph unicode="&#x324;" horiz-adv-x="0" d="M-467 -208v109h105v-109h-105zM-247 -208v109h105v-109h-105z" />
<glyph unicode="&#x325;" horiz-adv-x="0" d="M-297 -259q-49 0 -82.5 24.5t-33.5 76.5q0 50 33.5 78t80.5 28q44 0 79.5 -25t35.5 -79q0 -49 -32.5 -76t-80.5 -27zM-298 -211q26 0 40.5 14.5t15.5 39.5q0 24 -16.5 39.5t-40.5 15.5q-57 0 -57 -53q0 -25 16 -40.5t42 -15.5z" />
<glyph unicode="&#x327;" horiz-adv-x="0" d="M-346 -253l-35 62q64 38 64 75q0 19 -20 65h91q21 -39 21 -71q1 -80 -121 -131z" />
<glyph unicode="&#x328;" horiz-adv-x="0" d="M-281 -240q-127 0 -127 120q0 30 19.5 60.5t50.5 55t55.5 40t50.5 28.5l40 -52q-38 -21 -80 -59t-42 -71q0 -40 54 -40q31 0 53 8l21 -71q-38 -19 -95 -19z" />
<glyph unicode="&#x32e;" horiz-adv-x="0" d="M-303 -218q-111 0 -174 94l55 51q58 -62 120 -62q64 0 119 62l53 -50q-65 -95 -173 -95z" />
<glyph unicode="&#x331;" horiz-adv-x="0" d="M-446 -207v84h285v-84h-285z" />
<glyph unicode="&#x374;" horiz-adv-x="204" d="M32 534q29 58 29 115v106h105v-57q0 -94 -47 -164h-87z" />
<glyph unicode="&#x375;" horiz-adv-x="238" d="M70 -122q27 62 27 115v107h106v-58q0 -92 -47 -164h-86z" />
<glyph unicode="&#x37e;" horiz-adv-x="725" d="M422 435h-121v111h121v-111zM420 44q0 -96 -50 -171h-92q29 63 29 120v113h113v-62z" />
<glyph unicode="&#x384;" horiz-adv-x="482" d="M344 629l74 158h103l-91 -158h-86z" />
<glyph unicode="&#x385;" horiz-adv-x="497" d="M182 623l55 158h101l-79 -158h-77zM48 622v109h105v-109h-105zM331 622v109h105v-109h-105z" />
<glyph unicode="&#x386;" horiz-adv-x="676" d="M-7 0l285 707h139l252 -707h-115l-86 247h-267l-97 -247h-111zM232 330h209l-99 305zM1 548l63 159h103l-80 -159h-86z" />
<glyph unicode="&#x387;" horiz-adv-x="246" d="M65 310v114h121v-114h-121z" />
<glyph unicode="&#x388;" horiz-adv-x="589" d="M-124 548l63 159h103l-80 -159h-86zM99 0v707h416v-86h-308v-224h286v-84h-286v-226h331v-87h-439z" />
<glyph unicode="&#x389;" horiz-adv-x="776" d="M99 0v707h108v-309h362v309h108v-707h-108v312h-362v-312h-108zM-124 548l63 159h103l-80 -159h-86z" />
<glyph unicode="&#x38a;" horiz-adv-x="306" d="M99 0v707h108v-707h-108zM-123 548l63 159h103l-80 -159h-86z" />
<glyph unicode="&#x38c;" horiz-adv-x="829" d="M-93 548l63 159h103l-80 -159h-86zM406 -12q-168 0 -260 99.5t-92 267.5q0 166 100 264t268 98q171 0 262.5 -100.5t91.5 -263.5q0 -166 -98.5 -265.5t-271.5 -99.5zM409 76q128 0 193 76.5t65 201.5q0 122 -65.5 199t-185.5 77q-124 0 -189 -76t-65 -198 q0 -121 63.5 -200.5t183.5 -79.5z" />
<glyph unicode="&#x38e;" horiz-adv-x="635" d="M261 0v256l-240 451h123l175 -358l187 358h118l-255 -449v-258h-108zM-179 548l63 159h103l-80 -159h-86z" />
<glyph unicode="&#x38f;" horiz-adv-x="855" d="M-82 548l63 159h103l-80 -159h-86zM51 0v92h182q-70 36 -115 107.5t-45 177.5q0 153 97.5 246.5t262.5 93.5q169 0 259 -96t90 -240q0 -195 -164 -289h185v-92h-300v89q84 64 126 130t42 155q0 110 -64 181.5t-183 71.5q-117 0 -179 -70.5t-62 -185.5q0 -35 5 -65 t19.5 -57.5t24 -44t36.5 -42.5t37 -35t44 -38v-89h-298z" />
<glyph unicode="&#x390;" horiz-adv-x="279" d="M69 623l55 158h101l-79 -158h-77zM-65 622v109h105v-109h-105zM218 622v109h105v-109h-105zM184 -11q-51 0 -80 30.5t-29 92.5v434h105v-412q0 -56 51 -58q5 0 23 2l5 -80q-31 -9 -75 -9z" />
<glyph unicode="&#x391;" horiz-adv-x="676" d="M-7 0l285 707h139l252 -707h-115l-86 247h-267l-97 -247h-111zM232 330h209l-99 305z" />
<glyph unicode="&#x392;" horiz-adv-x="648" d="M99 0v707h210q119 0 178.5 -48t59.5 -135q0 -52 -25.5 -91t-65.5 -55v-2q57 -12 99.5 -56t42.5 -114q0 -96 -62 -151t-197 -55h-240zM208 87h116q80 0 122.5 25t42.5 91q0 119 -179 119h-102v-235zM208 402h104q127 0 127 109q0 61 -37.5 86.5t-115.5 25.5h-78v-221z" />
<glyph unicode="&#x393;" horiz-adv-x="524" d="M99 0v707h425v-86h-317v-621h-108z" />
<glyph unicode="&#x394;" horiz-adv-x="698" d="M139 91h408l-146 401l-47 143l-55 -147zM-8 0l294 707h143l265 -707h-702z" />
<glyph unicode="&#x395;" horiz-adv-x="589" d="M99 0v707h416v-86h-308v-224h286v-84h-286v-226h331v-87h-439z" />
<glyph unicode="&#x396;" horiz-adv-x="582" d="M38 0v84l360 532h-334v91h460v-77l-364 -539h385v-91h-507z" />
<glyph unicode="&#x397;" horiz-adv-x="776" d="M99 0v707h108v-309h362v309h108v-707h-108v312h-362v-312h-108z" />
<glyph unicode="&#x398;" horiz-adv-x="829" d="M264 304l-20 64q44 32 108 32q30 0 70.5 -8t57.5 -8q48 0 85 16l19 -64q-42 -30 -109 -30q-28 0 -69 8t-59 8q-49 0 -83 -18zM406 -12q-168 0 -260 99.5t-92 267.5q0 166 100 264t268 98q171 0 262.5 -100.5t91.5 -263.5q0 -166 -98.5 -265.5t-271.5 -99.5zM409 76 q128 0 193 76.5t65 201.5q0 122 -65.5 199t-185.5 77q-124 0 -189 -76t-65 -198q0 -121 63.5 -200.5t183.5 -79.5z" />
<glyph unicode="&#x399;" horiz-adv-x="306" d="M99 0v707h108v-707h-108z" />
<glyph unicode="&#x39a;" horiz-adv-x="653" d="M510 0l-290 373v11l274 323h137l-291 -328l310 -379h-140zM99 0v707h108v-707h-108z" />
<glyph unicode="&#x39b;" horiz-adv-x="652" d="M-3 0l265 707h142l237 -707h-113l-154 479l-45 149l-51 -149l-174 -479h-107z" />
<glyph unicode="&#x39c;" horiz-adv-x="957" d="M99 0v707h139l229 -628l259 628h131v-707h-107v413l4 126h-3l-217 -539h-140l-190 540h-4l7 -117v-423h-108z" />
<glyph unicode="&#x39d;" horiz-adv-x="780" d="M99 0v707h132l344 -576h2l-4 85v491h108v-707h-137l-338 567h-3l4 -79v-488h-108z" />
<glyph unicode="&#x39e;" horiz-adv-x="599" d="M54 0v93h491v-93h-491zM86 310v91h427v-91h-427zM64 614v93h471v-93h-471z" />
<glyph unicode="&#x39f;" horiz-adv-x="829" d="M406 -12q-168 0 -260 99.5t-92 267.5q0 166 100 264t268 98q171 0 262.5 -100.5t91.5 -263.5q0 -166 -98.5 -265.5t-271.5 -99.5zM409 76q128 0 193 76.5t65 201.5q0 122 -65.5 199t-185.5 77q-124 0 -189 -76t-65 -198q0 -121 63.5 -200.5t183.5 -79.5z" />
<glyph unicode="&#x3a0;" horiz-adv-x="762" d="M99 0v707h564v-707h-108v618h-348v-618h-108z" />
<glyph unicode="&#x3a1;" horiz-adv-x="614" d="M99 0v707h243q111 0 176.5 -60.5t65.5 -169.5q0 -103 -75.5 -170.5t-218.5 -67.5h-82v-239h-109zM208 621v-295h88q84 0 130 37t46 110q0 148 -152 148h-112z" />
<glyph unicode="&#x3a3;" horiz-adv-x="591" d="M48 0v83l206 275l-201 258v91h487v-86h-369l199 -258l-203 -272h378v-91h-497z" />
<glyph unicode="&#x3a4;" horiz-adv-x="588" d="M240 0v619h-236v88h580v-88h-236v-619h-108z" />
<glyph unicode="&#x3a5;" horiz-adv-x="635" d="M261 0v256l-240 451h123l175 -358l187 358h118l-255 -449v-258h-108z" />
<glyph unicode="&#x3a6;" horiz-adv-x="813" d="M353 0v85q-143 0 -229.5 73.5t-86.5 214.5t86.5 214.5t229.5 73.5v76h106v-76q143 0 229.5 -73.5t86.5 -214.5t-86.5 -214.5t-229.5 -73.5v-85h-106zM459 167q98 0 153.5 54t55.5 152q0 99 -55.5 152.5t-153.5 53.5v-412zM353 167v412q-97 0 -153 -53.5t-56 -152.5 q0 -98 56 -152t153 -54z" />
<glyph unicode="&#x3a7;" horiz-adv-x="626" d="M4 0l250 370l-212 337h123l151 -252l163 252h118l-224 -334l236 -373h-125l-174 289l-185 -289h-121z" />
<glyph unicode="&#x3a8;" horiz-adv-x="767" d="M333 0v156q-279 21 -279 260v291h110v-289q0 -146 169 -171v460h108v-460q169 28 169 194v266h105v-265q0 -258 -274 -286v-156h-108z" />
<glyph unicode="&#x3a9;" horiz-adv-x="855" d="M51 0v92h182q-70 36 -115 107.5t-45 177.5q0 153 97.5 246.5t262.5 93.5q169 0 259 -96t90 -240q0 -195 -164 -289h185v-92h-300v89q84 64 126 130t42 155q0 110 -64 181.5t-183 71.5q-117 0 -179 -70.5t-62 -185.5q0 -35 5 -65t19.5 -57.5t24 -44t36.5 -42.5t37 -35 t44 -38v-89h-298z" />
<glyph unicode="&#x3aa;" horiz-adv-x="306" d="M99 0v707h108v-707h-108zM104 759h-100v110h100v-110zM312 759h-101v110h101v-110z" />
<glyph unicode="&#x3ab;" horiz-adv-x="635" d="M261 0v256l-240 451h123l175 -358l187 358h118l-255 -449v-258h-108zM266 759h-100v110h100v-110zM474 759h-101v110h101v-110z" />
<glyph unicode="&#x3ac;" horiz-adv-x="616" d="M270 629l74 158h103l-91 -158h-86zM251 -9q-26 0 -50 4.5t-53 21t-49.5 43.5t-35 76t-14.5 114q0 142 62.5 224t163.5 82q47 0 85 -19t56 -51v60h105v-423q0 -47 50 -47l-5 -81q-26 0 -46 3q-49 9 -72.5 35t-24.5 82q-24 -53 -70 -88.5t-102 -35.5zM265 80 q54 0 101.5 53.5t49.5 129.5v96q-18 48 -54 80t-77 32q-66 0 -98.5 -56.5t-32.5 -159.5q0 -86 29 -130.5t82 -44.5z" />
<glyph unicode="&#x3ad;" horiz-adv-x="518" d="M221 629l74 158h103l-91 -158h-86zM278 -11q-234 0 -234 159q0 50 29.5 89.5t85.5 56.5q-91 29 -91 119q0 61 58 104t166 43q111 0 187 -38l-29 -79q-88 33 -163 33q-56 0 -85.5 -20t-29.5 -55q0 -40 24 -56.5t57 -16.5h123v-79h-131q-34 0 -63.5 -20.5t-29.5 -66.5 q0 -39 35 -62.5t103 -23.5q87 0 165 34l32 -76q-95 -45 -209 -45z" />
<glyph unicode="&#x3ae;" horiz-adv-x="634" d="M296 629l74 158h103l-91 -158h-86zM457 -220v554q0 73 -20 103.5t-82 30.5q-66 0 -156 -56v-412h-104v434q0 39 -50 43l6 81q21 2 47 -2q87 -11 99 -72q96 75 189 75q47 0 80.5 -12.5t51.5 -31t28 -49t12 -55.5t2 -62v-569h-103z" />
<glyph unicode="&#x3af;" horiz-adv-x="279" d="M72 629l74 158h103l-91 -158h-86zM184 -11q-51 0 -80 30.5t-29 92.5v434h105v-412q0 -56 51 -58q5 0 23 2l5 -80q-31 -9 -75 -9z" />
<glyph unicode="&#x3b0;" horiz-adv-x="608" d="M235 623l55 158h101l-79 -158h-77zM101 622v109h105v-109h-105zM384 622v109h105v-109h-105zM309 -10q-100 0 -161.5 51t-61.5 157v218q-1 49 -51 53l10 86q75 -1 109.5 -34.5t34.5 -101.5l-1 -213q0 -69 34.5 -100t89.5 -31q137 0 137 220q0 125 -59 251h109 q52 -113 52 -253q0 -136 -66 -219.5t-176 -83.5z" />
<glyph unicode="&#x3b1;" horiz-adv-x="616" d="M251 -9q-26 0 -50 4.5t-53 21t-49.5 43.5t-35 76t-14.5 114q0 142 62.5 224t163.5 82q47 0 85 -19t56 -51v60h105v-423q0 -47 50 -47l-5 -81q-26 0 -46 3q-49 9 -72.5 35t-24.5 82q-24 -53 -70 -88.5t-102 -35.5zM265 80q54 0 101.5 53.5t49.5 129.5v96q-18 48 -54 80 t-77 32q-66 0 -98.5 -56.5t-32.5 -159.5q0 -86 29 -130.5t82 -44.5z" />
<glyph unicode="&#x3b2;" horiz-adv-x="605" d="M78 -220v745q0 107 63.5 174.5t170.5 67.5q96 0 156 -55.5t60 -136.5q0 -53 -36 -103.5t-90 -69.5q80 -20 120 -62t40 -120q0 -114 -68.5 -173t-180.5 -59q-73 0 -131 21v-229h-104zM311 74q145 0 145 141q0 129 -180 137v75q62 4 106 45t44 92t-34 84t-84 33 q-60 0 -93 -41t-33 -108v-434q80 -24 129 -24z" />
<glyph unicode="&#x3b3;" horiz-adv-x="523" d="M187 -220q-10 80 -10 152q0 44 3 89q-40 222 -179 525h116q30 -66 69.5 -181t64.5 -238q2 3 26.5 53.5t30 62.5t25 56t26.5 65.5t18.5 58t15.5 65.5t5 58h109q-3 -82 -41 -178t-104 -216.5t-81 -153.5q11 -80 11 -150q0 -35 -3 -68h-102z" />
<glyph unicode="&#x3b4;" horiz-adv-x="591" d="M295 -12q-116 0 -184.5 63t-68.5 191q0 87 47 150.5t122 96.5q-100 51 -100 138q0 66 61 103t143 37q103 0 197 -30l-19 -81q-75 23 -174 23q-106 0 -106 -57q0 -16 9 -29t28.5 -25t38 -21.5t50 -24.5t52.5 -26q163 -85 163 -250q0 -133 -73.5 -195.5t-185.5 -62.5z M301 73q76 0 112 48.5t36 126.5q0 44 -13.5 76.5t-44 57t-50 35.5t-60.5 30q-70 -28 -102 -82.5t-32 -116.5q0 -82 37.5 -128.5t116.5 -46.5z" />
<glyph unicode="&#x3b5;" horiz-adv-x="518" d="M278 -11q-234 0 -234 159q0 50 29.5 89.5t85.5 56.5q-91 29 -91 119q0 61 58 104t166 43q111 0 187 -38l-29 -79q-88 33 -163 33q-56 0 -85.5 -20t-29.5 -55q0 -40 24 -56.5t57 -16.5h123v-79h-131q-34 0 -63.5 -20.5t-29.5 -66.5q0 -39 35 -62.5t103 -23.5q87 0 165 34 l32 -76q-95 -45 -209 -45z" />
<glyph unicode="&#x3b6;" horiz-adv-x="465" d="M393 -204l-60 39q50 60 50 86q0 10 -4 18t-14 14t-19.5 10.5t-26.5 9t-29.5 7t-34.5 6.5t-35 7q-82 18 -129.5 59t-47.5 126q0 132 91 268t216 223h-265v85h397v-82q-129 -86 -230.5 -219.5t-101.5 -259.5q0 -61 32.5 -86t91.5 -36q10 -2 38.5 -7t41 -8t36 -9.5 t34.5 -14.5t24.5 -20t19 -29t5.5 -39q0 -65 -80 -148z" />
<glyph unicode="&#x3b7;" horiz-adv-x="634" d="M457 -220v554q0 73 -20 103.5t-82 30.5q-66 0 -156 -56v-412h-104v434q0 39 -50 43l6 81q21 2 47 -2q87 -11 99 -72q96 75 189 75q47 0 80.5 -12.5t51.5 -31t28 -49t12 -55.5t2 -62v-569h-103z" />
<glyph unicode="&#x3b8;" horiz-adv-x="601" d="M300 -12q-70 0 -118 27.5t-74 81t-37 119t-11 154.5q0 93 12.5 163.5t41 124.5t77 82t116.5 28q59 0 102 -20.5t68.5 -54.5t41 -87t20.5 -107t5 -125q0 -89 -12 -156.5t-39.5 -121t-76 -81t-116.5 -27.5zM164 425h277q-1 63 -6.5 105.5t-20 79.5t-42 55t-69.5 18 q-78 0 -107 -64.5t-32 -193.5zM305 74q78 0 106.5 67t29.5 208h-277q0 -143 29.5 -209t111.5 -66z" />
<glyph unicode="&#x3b9;" horiz-adv-x="279" d="M184 -11q-51 0 -80 30.5t-29 92.5v434h105v-412q0 -56 51 -58q5 0 23 2l5 -80q-31 -9 -75 -9z" />
<glyph unicode="&#x3ba;" horiz-adv-x="543" d="M545 0h-125l-226 283l207 263h116l-216 -255zM77 0v546h104v-546h-104z" />
<glyph unicode="&#x3bb;" horiz-adv-x="533" d="M511 -12q-70 4 -99.5 30.5t-47.5 89.5l-72 254l-27 92l-28 -94l-116 -360h-114l193 544h40l-10 41q-12 48 -33 72.5t-64 24.5q-52 0 -92 -17l-21 78q60 24 121 24q80 0 119 -37t64 -120l133 -464q12 -40 28.5 -55.5t37.5 -21.5z" />
<glyph unicode="&#x3bc;" horiz-adv-x="629" d="M78 -220v766h104v-338q0 -66 18 -96.5t78 -30.5q15 0 31.5 3.5t29.5 7.5t29 12l24 12t21.5 12t15.5 9v409h104v-425q0 -28 16 -37.5t52 -7.5l-3 -81q-24 -3 -48 -3q-103 0 -116 73q-31 -23 -49.5 -35.5t-58 -27.5t-78.5 -15q-44 0 -66 19v-226h-104z" />
<glyph unicode="&#x3bd;" horiz-adv-x="523" d="M183 0l-173 546h112l126 -449q137 239 137 381q0 26 -6 68h108q6 -30 6 -62q0 -83 -47.5 -197t-153.5 -287h-109z" />
<glyph unicode="&#x3be;" horiz-adv-x="483" d="M388 -203l-59 38q48 58 48 89q0 40 -101 61q-53 12 -85.5 23t-72.5 33.5t-60 59.5t-20 88q0 81 66.5 141t158.5 78q-70 12 -124.5 53t-54.5 108q0 92 71 145t195 53q58 0 120 -13l-13 -84q-60 11 -113 11q-159 0 -159 -114q0 -35 18.5 -59t53 -37t71.5 -19t86 -8v-80 q-48 -4 -91.5 -14t-86 -28t-68 -49.5t-25.5 -72.5q0 -31 12 -54t37 -37t46 -21.5t57 -16.5q6 -2 27.5 -7t28.5 -7t25.5 -7.5t25.5 -9.5t20.5 -11t19 -15t13 -18.5t10 -23.5t2.5 -28q0 -63 -79 -147z" />
<glyph unicode="&#x3bf;" horiz-adv-x="588" d="M290 -12q-113 0 -178.5 74t-65.5 205q0 137 70.5 215t180.5 78q120 0 181.5 -74.5t61.5 -212.5q0 -137 -70 -211t-180 -74zM296 73q138 0 138 200q0 40 -6.5 73.5t-21 64t-43.5 48t-69 17.5q-52 0 -85 -31.5t-45 -75t-12 -97.5q0 -89 34 -144t110 -55z" />
<glyph unicode="&#x3c0;" horiz-adv-x="646" d="M531 -11q-51 0 -80 30.5t-29 92.5v348h-215v-460h-104v460h-66v86h561v-86h-71v-326q0 -56 51 -58q7 0 23 2l5 -80q-30 -9 -75 -9z" />
<glyph unicode="&#x3c1;" horiz-adv-x="591" d="M66 -220v493q0 141 63 213.5t179 72.5q124 0 180 -74.5t56 -216.5q0 -139 -69 -208.5t-189 -69.5q-52 0 -116 22v-232h-104zM170 278v-181q64 -22 122 -22q83 0 114 50t31 143q0 33 -2.5 59t-11 55t-22 48t-38.5 31.5t-59 12.5q-41 0 -68.5 -16t-41 -45.5t-19 -61.5 t-5.5 -73z" />
<glyph unicode="&#x3c2;" horiz-adv-x="505" d="M376 -203l-59 39q47 64 47 88q0 19 -15.5 32.5t-33.5 19.5t-47 12q-38 9 -62 17t-58 28.5t-53 48.5t-33.5 78t-14.5 116q0 125 70.5 204.5t197.5 79.5q95 0 156 -33l-29 -80q-59 26 -126 26q-78 0 -120 -52.5t-42 -143.5q0 -57 11 -96t34.5 -60t43 -30t52.5 -18 q9 -2 38.5 -10t39.5 -11.5t31 -14t29 -21.5t15.5 -30t7.5 -43q0 -63 -80 -146z" />
<glyph unicode="&#x3c3;" horiz-adv-x="626" d="M295 -10q-120 0 -184 71t-64 202q0 132 71.5 211.5t204.5 79.5q85 0 287 -7v-89l-116 3q52 -66 52 -188q0 -132 -70.5 -207.5t-180.5 -75.5zM301 75q139 0 139 198q0 134 -67 191l-43 2q-178 0 -177 -195q0 -91 33 -143.5t115 -52.5z" />
<glyph unicode="&#x3c4;" horiz-adv-x="456" d="M297 -13q-67 0 -103.5 35.5t-36.5 123.5v314h-146v86h425v-86h-174v-302q0 -81 64 -81q37 0 71 12l16 -76q-48 -26 -116 -26z" />
<glyph unicode="&#x3c5;" horiz-adv-x="608" d="M309 -10q-100 0 -161.5 51t-61.5 157v218q-1 49 -51 53l10 86q75 -1 109.5 -34.5t34.5 -101.5l-1 -213q0 -69 34.5 -100t89.5 -31q137 0 137 220q0 125 -59 251h109q52 -113 52 -253q0 -136 -66 -219.5t-176 -83.5z" />
<glyph unicode="&#x3c6;" horiz-adv-x="749" d="M322 -220v210q-276 18 -276 277q0 131 72 205.5t204 86.5v112h103v-111q277 -15 277 -287q0 -133 -72 -203.5t-205 -79.5v-210h-103zM322 73v402q-170 -19 -170 -203q0 -178 170 -199zM425 73q96 9 133.5 60.5t37.5 139.5q0 185 -171 202v-402z" />
<glyph unicode="&#x3c7;" horiz-adv-x="505" d="M501 -225q-61 2 -91.5 27.5t-62.5 91.5l-92 198l-133 -312h-121l205 405l-112 224q-29 57 -83 68l20 84q46 -3 75.5 -19t44 -37t36.5 -66l78 -161l109 268h123l-183 -366l123 -250q19 -38 35.5 -53t40.5 -18z" />
<glyph unicode="&#x3c8;" horiz-adv-x="762" d="M334 -220v212q-121 11 -185.5 74.5t-64.5 179.5v169q0 51 -51 57l9 85q73 -3 108.5 -36t35.5 -100v-166q-1 -154 148 -172v588h104v-588q81 11 125 66t44 150q0 132 -54 247h109q47 -103 47 -245q0 -127 -73.5 -209.5t-197.5 -97.5v-214h-104z" />
<glyph unicode="&#x3c9;" horiz-adv-x="826" d="M251 -10q-94 0 -148.5 69.5t-54.5 177.5q0 91 27 163t107 146h118q-147 -125 -147 -298q0 -25 5 -51t17 -53.5t36 -45t56 -17.5q41 0 67.5 36t26.5 99v144h104v-141q0 -67 26 -102.5t68 -35.5q32 0 56 17.5t35.5 45t16.5 53.5t5 51q0 84 -39 162t-109 136h124 q130 -121 130 -304q0 -103 -59 -177.5t-156 -74.5q-48 0 -95 30t-57 80q-19 -54 -65 -82t-95 -28z" />
<glyph unicode="&#x3ca;" horiz-adv-x="279" d="M66 661h-100v110h100v-110zM290 661h-101v110h101v-110zM184 -11q-51 0 -80 30.5t-29 92.5v434h105v-412q0 -56 51 -58q5 0 23 2l5 -80q-31 -9 -75 -9z" />
<glyph unicode="&#x3cb;" horiz-adv-x="608" d="M230 661h-100v110h100v-110zM454 661h-101v110h101v-110zM309 -10q-100 0 -161.5 51t-61.5 157v218q-1 49 -51 53l10 86q75 -1 109.5 -34.5t34.5 -101.5l-1 -213q0 -69 34.5 -100t89.5 -31q137 0 137 220q0 125 -59 251h109q52 -113 52 -253q0 -136 -66 -219.5 t-176 -83.5z" />
<glyph unicode="&#x3cc;" horiz-adv-x="588" d="M248 629l74 158h103l-91 -158h-86zM290 -12q-113 0 -178.5 74t-65.5 205q0 137 70.5 215t180.5 78q120 0 181.5 -74.5t61.5 -212.5q0 -137 -70 -211t-180 -74zM296 73q138 0 138 200q0 40 -6.5 73.5t-21 64t-43.5 48t-69 17.5q-52 0 -85 -31.5t-45 -75t-12 -97.5 q0 -89 34 -144t110 -55z" />
<glyph unicode="&#x3cd;" horiz-adv-x="608" d="M240 629l74 158h103l-91 -158h-86zM309 -10q-100 0 -161.5 51t-61.5 157v218q-1 49 -51 53l10 86q75 -1 109.5 -34.5t34.5 -101.5l-1 -213q0 -69 34.5 -100t89.5 -31q137 0 137 220q0 125 -59 251h109q52 -113 52 -253q0 -136 -66 -219.5t-176 -83.5z" />
<glyph unicode="&#x3ce;" horiz-adv-x="826" d="M359 629l74 158h103l-91 -158h-86zM251 -10q-94 0 -148.5 69.5t-54.5 177.5q0 91 27 163t107 146h118q-147 -125 -147 -298q0 -25 5 -51t17 -53.5t36 -45t56 -17.5q41 0 67.5 36t26.5 99v144h104v-141q0 -67 26 -102.5t68 -35.5q32 0 56 17.5t35.5 45t16.5 53.5t5 51 q0 84 -39 162t-109 136h124q130 -121 130 -304q0 -103 -59 -177.5t-156 -74.5q-48 0 -95 30t-57 80q-19 -54 -65 -82t-95 -28z" />
<glyph unicode="&#x3d0;" horiz-adv-x="609" d="M308 -12q-245 0 -245 325v96q0 100 29.5 180t90 129t143.5 49q99 0 149 -47t50 -111q0 -99 -118 -164q75 -14 117.5 -69.5t42.5 -149.5q0 -103 -74 -170.5t-185 -67.5zM311 73q66 0 107 40t41 119q0 73 -36 115t-97 42q-67 0 -157 -47v-43q0 -226 142 -226zM169 409 q21 11 107 47q142 62 142 131q0 42 -29 68.5t-74 26.5q-67 0 -106.5 -63.5t-39.5 -179.5v-30z" />
<glyph unicode="&#x3d1;" horiz-adv-x="586" d="M288 -12q-179 0 -203 218q-3 28 -48 12l-14 60q55 25 92 25q56 0 63 -65q12 -164 114 -164q74 0 104.5 69t30.5 205q0 26 -1 34q-75 -31 -135 -31q-114 0 -168 52t-54 140q0 95 62 159.5t162 64.5q70 0 118 -28t73.5 -83t35.5 -122t10 -159q0 -181 -58.5 -284 t-183.5 -103zM290 428q62 0 134 26q-8 120 -39 174.5t-96 54.5q-60 0 -92.5 -39.5t-32.5 -100.5q0 -52 34.5 -83.5t91.5 -31.5z" />
<glyph unicode="&#x3d5;" horiz-adv-x="758" d="M327 -220v210q-275 18 -275 286q0 170 115 270h108q-49 -42 -83 -110t-34 -155q0 -90 38.5 -143.5t130.5 -64.5v295q0 85 49.5 139.5t136.5 53.5q104 0 150 -67t46 -203q0 -148 -71.5 -220t-207.5 -81v-210h-103zM430 73q98 9 135 62t37 157q0 183 -94 183 q-78 -1 -78 -108v-294z" />
<glyph unicode="&#x3d6;" horiz-adv-x="602" d="M79 0v546h444v-546h-104v460h-235v-460h-105z" />
<glyph unicode="&#x3d8;" horiz-adv-x="746" d="M322 -166v158q-271 45 -271 360q0 97 25.5 170t71 115.5t102 63t124.5 20.5q144 0 233 -92.5t89 -273.5q0 -311 -271 -361v-160h-103zM374 78q98 0 158.5 66t60.5 209q0 132 -55 207.5t-165 75.5t-165 -75.5t-55 -205.5q0 -143 61 -210t160 -67z" />
<glyph unicode="&#x3d9;" horiz-adv-x="600" d="M251 -199v227q-97 12 -153 81t-56 179q0 128 72 200t188 72q121 0 188.5 -70.5t67.5 -195.5q0 -111 -56 -179.5t-149 -84.5v-229h-102zM301 104q78 0 117.5 51.5t39.5 135.5q0 82 -38 134.5t-121 52.5t-120.5 -53.5t-37.5 -131.5q0 -84 38.5 -136.5t121.5 -52.5z" />
<glyph unicode="&#x3da;" horiz-adv-x="571" d="M539 662l-35 -82q-88 44 -181 44q-174 0 -174 -203q0 -64 18.5 -108t48.5 -65.5t66 -34.5t72 -22t66 -21.5t48.5 -39.5t18.5 -70q0 -40 -19.5 -74t-49 -57t-69.5 -41.5t-77 -28t-75 -15.5l-21 74q48 12 80.5 22t65.5 25.5t49.5 35.5t16.5 45q0 23 -19 37.5t-49.5 23.5 t-67 18t-73 28t-67 48t-49.5 83t-19 127q0 144 72 224t199 80q134 0 224 -53z" />
<glyph unicode="&#x3db;" horiz-adv-x="503" d="M475 512l-34 -81q-71 37 -149 37q-76 0 -111.5 -53t-35.5 -141q0 -153 126 -170q75 -9 113.5 -37.5t38.5 -89.5q0 -69 -66 -109t-179 -42v81q150 1 150 62q0 22 -19.5 32t-64.5 16q-198 20 -198 256q0 131 63.5 207t175.5 76q109 0 190 -44z" />
<glyph unicode="&#x3dc;" horiz-adv-x="579" d="M538 621h-331v-243h309v-84h-309v-294h-108v707h439v-86z" />
<glyph unicode="&#x3dd;" horiz-adv-x="440" d="M446 750l-19 -84q-44 11 -98 11t-80.5 -22.5t-26.5 -76.5v-204h117v-82h-117v-512h-104v512h-80v82h80v208q0 56 17 94t48.5 57.5t65.5 27t78 7.5q65 0 119 -18z" />
<glyph unicode="&#x3de;" horiz-adv-x="519" d="M332 -109l-112 -26l147 385h-354l180 458l113 14l-144 -378h350z" />
<glyph unicode="&#x3df;" horiz-adv-x="508" d="M312 -64l-114 -25l151 358h-345l192 422l115 13l-156 -342h341z" />
<glyph unicode="&#x3e0;" horiz-adv-x="752" d="M520 -68l-52 66q130 101 137 240q0 14 -2 30l-389 -253l-40 65l413 270q-18 50 -54 89q-136 -92 -442 -290l-42 65l412 267q-55 37 -138 37q-91 0 -183 -54l-40 69q101 71 237 71q156 0 256.5 -101.5t100.5 -242.5q0 -104 -51.5 -190.5t-122.5 -137.5z" />
<glyph unicode="&#x3e1;" horiz-adv-x="705" d="M482 -76l-52 64q130 97 137 234q0 23 -1 30l-382 -249l-42 66l407 266q-23 55 -52 87l-436 -287l-43 67l404 262q-61 33 -130 33q-87 0 -182 -53l-39 66q107 73 234 73q154 0 252 -99t98 -238q0 -106 -53 -189.5t-120 -132.5z" />
<glyph unicode="&#x400;" horiz-adv-x="590" d="M392 746l-239 60l23 87l236 -76zM99 0v707h416v-86h-308v-224h286v-84h-286v-226h331v-87h-439z" />
<glyph unicode="&#x401;" horiz-adv-x="590" d="M257 759h-100v110h100v-110zM465 759h-101v110h101v-110zM99 0v707h416v-86h-308v-224h286v-84h-286v-226h331v-87h-439z" />
<glyph unicode="&#x402;" horiz-adv-x="771" d="M501 -220l-59 73q16 13 29.5 25t44 48t51.5 72.5t38 93.5t17 117q0 69 -35 107t-99 38q-88 0 -164 -41v-313h-108v619h-205v88h569v-88h-256v-218q105 39 188 39q111 0 165 -61.5t54 -163.5q0 -241 -230 -435z" />
<glyph unicode="&#x403;" horiz-adv-x="545" d="M227 746l-19 70l234 79l23 -86zM99 0v707h439v-86h-331v-621h-108z" />
<glyph unicode="&#x404;" horiz-adv-x="678" d="M428 -10q-178 0 -276 97t-98 262q0 174 96 270.5t274 96.5q128 0 208 -37l-29 -83q-91 28 -177 28q-106 0 -177 -56t-82 -171h360v-83h-358q12 -116 87.5 -174t189.5 -58q86 0 165 22l25 -83q-81 -31 -208 -31z" />
<glyph unicode="&#x405;" horiz-adv-x="554" d="M251 -12q-121 0 -209 51l33 85q93 -44 176 -44q66 0 110 27t44 81q0 32 -19 56.5t-49.5 40.5t-67 31.5t-73 33.5t-67 40.5t-49.5 59.5t-19 84q0 86 65.5 134.5t158.5 48.5q110 0 187 -43l-32 -82q-75 35 -153 35q-53 0 -87 -24t-34 -68q0 -38 36 -67t87 -50.5t102 -47 t87 -70.5t36 -106q0 -100 -75.5 -153t-187.5 -53z" />
<glyph unicode="&#x406;" horiz-adv-x="306" d="M99 0v707h108v-707h-108z" />
<glyph unicode="&#x407;" horiz-adv-x="306" d="M99 0v707h108v-707h-108zM102 759h-100v110h100v-110zM310 759h-101v110h101v-110z" />
<glyph unicode="&#x408;" horiz-adv-x="308" d="M-1 -190l-42 78q86 48 115.5 105.5t29.5 157.5v556h108v-554q0 -50 -4 -86.5t-17 -76.5t-35.5 -70.5t-61.5 -59t-93 -50.5z" />
<glyph unicode="&#x409;" horiz-adv-x="1011" d="M48 -22l-46 96q101 45 131 105q48 99 68 528h402v-259h87q141 0 215.5 -58t74.5 -169q0 -101 -68.5 -161t-192.5 -60h-224v624h-200q-18 -225 -33 -334t-47 -172q-43 -84 -167 -140zM692 361h-89v-275h107q79 0 118.5 36.5t39.5 101.5q0 137 -176 137z" />
<glyph unicode="&#x40a;" horiz-adv-x="1043" d="M99 0v707h108v-289h325v289h108v-289h86q141 0 215 -54t74 -158q0 -93 -74 -149.5t-198 -56.5h-211v332h-325v-332h-108zM728 332h-88v-246h100q79 0 120.5 32.5t41.5 91.5q0 122 -174 122z" />
<glyph unicode="&#x40b;" horiz-adv-x="781" d="M216 0v619h-205v88h569v-88h-256v-218q103 42 183 42q224 0 224 -193v-250h-108v240q0 30 -9 51.5t-22.5 33.5t-34 18.5t-38 8.5t-39.5 2q-76 0 -156 -43v-311h-108z" />
<glyph unicode="&#x40c;" horiz-adv-x="656" d="M510 0l-290 373v11l274 323h137l-291 -328l310 -379h-140zM99 0v707h108v-707h-108zM261 754l-19 70l234 79l23 -86z" />
<glyph unicode="&#x40d;" horiz-adv-x="788" d="M477 746l-239 60l23 87l236 -76zM99 0v707h108v-460l-3 -103l63 104l313 459h108v-707h-108v460l4 103l-49 -79l-328 -484h-108z" />
<glyph unicode="&#x40e;" horiz-adv-x="596" d="M169 -9l-34 90q57 19 87 40.5t52 71.5l14 29h-41l-246 485h120l201 -407l156 407h119l-225 -516q-25 -55 -46.5 -90t-48.5 -56t-47 -30.5t-61 -23.5zM306 756q-115 0 -178 92l50 51q54 -59 128 -59t127 59l51 -51q-65 -92 -178 -92z" />
<glyph unicode="&#x40f;" horiz-adv-x="764" d="M329 -153v153h-230v707h108v-621h350v621h108v-707h-228v-153h-108z" />
<glyph unicode="&#x410;" horiz-adv-x="684" d="M-4 0l285 707h139l252 -707h-115l-86 247h-267l-97 -247h-111zM235 330h209l-99 305z" />
<glyph unicode="&#x411;" horiz-adv-x="638" d="M99 0v707h444v-86h-335v-186h94q292 0 292 -221q0 -100 -68.5 -157t-194.5 -57h-232zM303 348h-95v-262h113q80 0 120.5 34.5t40.5 96.5q0 131 -179 131z" />
<glyph unicode="&#x412;" horiz-adv-x="649" d="M99 0v707h210q119 0 178.5 -48t59.5 -135q0 -52 -25.5 -91t-65.5 -55v-2q57 -12 99.5 -56t42.5 -114q0 -96 -62 -151t-197 -55h-240zM208 87h116q80 0 122.5 25t42.5 91q0 119 -179 119h-102v-235zM208 402h104q127 0 127 109q0 61 -37.5 86.5t-115.5 25.5h-78v-221z" />
<glyph unicode="&#x413;" horiz-adv-x="545" d="M99 0v707h439v-86h-331v-621h-108z" />
<glyph unicode="&#x414;" horiz-adv-x="746" d="M12 -153v239h63q50 89 80 180q42 131 59 441h399v-621h95v-239h-103v153h-490v-153h-103zM194 86h311v538h-196q-20 -253 -51 -369q-20 -72 -64 -169z" />
<glyph unicode="&#x415;" horiz-adv-x="590" d="M99 0v707h416v-86h-308v-224h286v-84h-286v-226h331v-87h-439z" />
<glyph unicode="&#x416;" horiz-adv-x="950" d="M9 0l278 374l-254 333h132l244 -331v-12l-263 -364h-137zM803 0l-263 363v12l245 332h132l-254 -333l278 -374h-138zM421 0v707h108v-707h-108z" />
<glyph unicode="&#x417;" horiz-adv-x="565" d="M252 -8q-125 0 -221 49l36 84q88 -43 177 -43q70 0 113 28.5t43 90.5q0 114 -166 114h-80v83h80q63 0 100 31t37 85q0 53 -33 81t-94 28t-149 -33l-35 75q94 46 195 46q107 0 166.5 -49.5t59.5 -126.5q0 -117 -106 -172v-2q19 -5 38 -14t43.5 -27t39.5 -50t15 -73 q0 -38 -13.5 -72.5t-41.5 -65t-80.5 -49t-123.5 -18.5z" />
<glyph unicode="&#x418;" horiz-adv-x="788" d="M99 0v707h108v-460l-3 -103l63 104l313 459h108v-707h-108v460l4 103l-49 -79l-328 -484h-108z" />
<glyph unicode="&#x419;" horiz-adv-x="788" d="M396 756q-115 0 -178 92l50 51q54 -59 128 -59t127 59l51 -51q-65 -92 -178 -92zM99 0v707h108v-460l-3 -103l63 104l313 459h108v-707h-108v460l4 103l-49 -79l-328 -484h-108z" />
<glyph unicode="&#x41a;" horiz-adv-x="656" d="M510 0l-290 373v11l274 323h137l-291 -328l310 -379h-140zM99 0v707h108v-707h-108z" />
<glyph unicode="&#x41b;" horiz-adv-x="702" d="M48 -22l-46 96q101 45 131 105q48 99 68 528h402v-707h-108v624h-200q-27 -302 -42 -381t-38 -125q-43 -84 -167 -140z" />
<glyph unicode="&#x41c;" horiz-adv-x="957" d="M99 0v707h139l229 -628l259 628h131v-707h-107v413l4 126h-3l-217 -539h-140l-190 540h-4l7 -117v-423h-108z" />
<glyph unicode="&#x41d;" horiz-adv-x="776" d="M99 0v707h108v-309h362v309h108v-707h-108v312h-362v-312h-108z" />
<glyph unicode="&#x41e;" horiz-adv-x="830" d="M406 -12q-168 0 -260 99.5t-92 267.5q0 166 100 264t268 98q171 0 262.5 -100.5t91.5 -263.5q0 -166 -98.5 -265.5t-271.5 -99.5zM409 76q128 0 193 76.5t65 201.5q0 122 -65.5 199t-185.5 77q-124 0 -189 -76t-65 -198q0 -121 63.5 -200.5t183.5 -79.5z" />
<glyph unicode="&#x41f;" horiz-adv-x="766" d="M99 0v707h568v-707h-108v621h-352v-621h-108z" />
<glyph unicode="&#x420;" horiz-adv-x="616" d="M99 0v707h243q111 0 176.5 -60.5t65.5 -169.5q0 -103 -75.5 -170.5t-218.5 -67.5h-82v-239h-109zM208 621v-295h88q84 0 130 37t46 110q0 148 -152 148h-112z" />
<glyph unicode="&#x421;" horiz-adv-x="677" d="M428 -12q-178 0 -276 97.5t-98 263.5q0 169 98.5 268.5t271.5 99.5q124 0 210 -41l-31 -82q-96 31 -177 31q-115 1 -188.5 -65.5t-73.5 -200.5q0 -138 78 -207.5t203 -69.5q87 0 165 25l25 -84q-93 -35 -207 -35z" />
<glyph unicode="&#x422;" horiz-adv-x="599" d="M245 0v619h-236v88h580v-88h-236v-619h-108z" />
<glyph unicode="&#x423;" horiz-adv-x="596" d="M169 -9l-34 90q57 19 87 40.5t52 71.5l14 29h-41l-246 485h120l201 -407l156 407h119l-225 -516q-25 -55 -46.5 -90t-48.5 -56t-47 -30.5t-61 -23.5z" />
<glyph unicode="&#x424;" horiz-adv-x="815" d="M354 0v85q-142 0 -229 73.5t-87 214.5t87 214.5t229 73.5v76h107v-76q142 0 229 -73.5t87 -214.5t-87 -214.5t-229 -73.5v-85h-107zM461 167q97 0 152.5 54t55.5 152q0 99 -55.5 152.5t-152.5 53.5v-412zM354 167v412q-97 0 -152.5 -53.5t-55.5 -152.5q0 -98 55.5 -152 t152.5 -54z" />
<glyph unicode="&#x425;" horiz-adv-x="631" d="M7 0l250 370l-212 337h123l151 -252l163 252h118l-224 -334l236 -373h-125l-174 289l-185 -289h-121z" />
<glyph unicode="&#x426;" horiz-adv-x="793" d="M652 -153v153h-553v707h108v-621h344v621h108v-621h96v-239h-103z" />
<glyph unicode="&#x427;" horiz-adv-x="667" d="M459 0v311q-100 -39 -191 -39q-222 0 -222 191v244h108v-234q0 -37 13 -61.5t37 -35.5t46 -14.5t50 -3.5q80 0 159 44v305h108v-707h-108z" />
<glyph unicode="&#x428;" horiz-adv-x="1021" d="M99 0v707h108v-621h250v621h108v-621h249v621h108v-707h-823z" />
<glyph unicode="&#x429;" horiz-adv-x="1056" d="M914 -153v153h-815v707h108v-621h250v621h108v-621h249v621h108v-621h96v-239h-104z" />
<glyph unicode="&#x42a;" horiz-adv-x="726" d="M209 0v621h-198v86h307v-259h87q141 0 215 -58t74 -169q0 -101 -68.5 -161t-191.5 -60h-225zM407 361h-89v-275h106q79 0 118.5 36.5t39.5 101.5q0 137 -175 137z" />
<glyph unicode="&#x42b;" horiz-adv-x="889" d="M99 0v707h109v-259h87q141 0 215 -57t74 -168q0 -101 -68.5 -162t-191.5 -61h-225zM681 0v707h108v-707h-108zM297 361h-89v-275h106q79 0 118.5 37.5t39.5 102.5q0 135 -175 135z" />
<glyph unicode="&#x42c;" horiz-adv-x="616" d="M99 0v707h109v-259h87q141 0 215 -57t74 -168q0 -101 -68.5 -162t-191.5 -61h-225zM297 361h-89v-275h106q79 0 118.5 37.5t39.5 102.5q0 135 -175 135z" />
<glyph unicode="&#x42d;" horiz-adv-x="678" d="M250 -10q-127 0 -208 31l25 83q79 -22 165 -22q114 0 190 58t87 174h-358v83h359q-11 116 -82 171.5t-176 54.5q-89 0 -177 -27l-30 83q81 36 209 36q179 0 274.5 -94t95.5 -266q0 -166 -98.5 -265.5t-275.5 -99.5z" />
<glyph unicode="&#x42e;" horiz-adv-x="1110" d="M687 -12q-157 0 -248.5 87.5t-103.5 236.5h-128v-312h-108v707h108v-309h129q13 150 112 234.5t258 84.5q171 0 260.5 -99.5t89.5 -264.5q0 -169 -97.5 -267t-271.5 -98zM690 76q128 0 192.5 76.5t64.5 201.5q0 122 -65.5 199t-184.5 77q-125 0 -190 -76t-65 -198 q0 -121 64 -200.5t184 -79.5z" />
<glyph unicode="&#x42f;" horiz-adv-x="676" d="M161 0h-122l186 297q-63 19 -98.5 68.5t-35.5 117.5q0 105 67 164.5t175 59.5h243v-707h-109v270h-82q-28 0 -60 2zM379 352h88v269h-108q-76 0 -116 -35t-40 -102q0 -132 176 -132z" />
<glyph unicode="&#x430;" horiz-adv-x="564" d="M206 -9q-77 0 -122.5 41t-45.5 115q0 49 20 83.5t54 51.5t68.5 24.5t74.5 7.5l119 2v59q0 54 -27.5 74.5t-90.5 20.5q-77 0 -153 -26l-22 79q90 37 192 37q203 0 203 -157v-285q0 -40 57 -42l-4 -80q-14 -2 -25 -2q-47 0 -80.5 16t-40.5 50q-90 -69 -177 -69zM233 74 q65 0 141 49v126l-116 -5q-56 -2 -87 -25t-31 -65q0 -40 25.5 -60t67.5 -20z" />
<glyph unicode="&#x431;" horiz-adv-x="617" d="M304 -9q-242 0 -242 314q0 102 20.5 204.5t63.5 142.5q65 61 373 119l17 -94q-95 -16 -147 -26t-104.5 -25.5t-68.5 -30.5q-35 -33 -48 -140q90 49 186 49q214 0 214 -231q0 -140 -72.5 -211t-191.5 -71zM312 75q81 0 116 56t35 138q0 70 -33 112t-103 42t-162 -47 q-2 -36 -2 -62q0 -239 149 -239z" />
<glyph unicode="&#x432;" horiz-adv-x="558" d="M79 0v546h219q90 0 138 -37t48 -104q0 -42 -21.5 -73t-54.5 -44q42 -7 73 -40.5t31 -88.5q0 -73 -54.5 -116t-151.5 -43h-227zM184 79h98q123 0 123 81q0 46 -34 65t-102 19h-85v-165zM184 315h91q107 0 107 78q0 41 -29 57.5t-85 16.5h-84v-152z" />
<glyph unicode="&#x433;" horiz-adv-x="451" d="M79 0v546h360v-83h-255v-463h-105z" />
<glyph unicode="&#x434;" horiz-adv-x="639" d="M16 -147v229h57q45 72 69 171q22 92 30 293h354v-464h83v-229h-97v147h-399v-147h-97zM183 82h239v382h-159q-16 -183 -30 -246q-15 -65 -50 -136z" />
<glyph unicode="&#x435;" horiz-adv-x="558" d="M316 -12q-131 0 -199.5 62.5t-68.5 212.5q0 153 68 225t179 72q112 0 164.5 -69t52.5 -206v-37h-359q1 -99 48.5 -136t130.5 -37q69 0 150 24l18 -81q-80 -30 -184 -30zM156 321h248q0 160 -115 160q-56 0 -92 -41t-41 -119z" />
<glyph unicode="&#x436;" horiz-adv-x="791" d="M781 0h-117l-210 280l189 266h117l-199 -260zM125 0h-113l220 286l-199 260h117l190 -267zM344 0v546h105v-546h-105z" />
<glyph unicode="&#x437;" horiz-adv-x="471" d="M216 -9q-104 0 -188 42l31 80q78 -38 151 -38q46 0 75.5 22t29.5 63q0 80 -117 80h-67v79h65q51 0 75.5 24.5t24.5 57.5t-24 53t-68 20q-55 0 -129 -30l-26 77q78 38 172 38q89 0 134.5 -41t45.5 -100q0 -47 -23.5 -80.5t-61.5 -49.5q44 -11 77 -44.5t33 -90.5 q0 -65 -52.5 -113.5t-157.5 -48.5z" />
<glyph unicode="&#x438;" horiz-adv-x="645" d="M79 0v546h105v-334l-3 -73l47 74l233 333h105v-546h-105v332l3 75l-47 -76l-233 -331h-105z" />
<glyph unicode="&#x439;" horiz-adv-x="645" d="M323 640q-50 0 -93.5 24.5t-69.5 67.5l45 50q51 -60 118 -60t119 60l44 -50q-26 -43 -69 -67.5t-94 -24.5zM79 0v546h105v-334l-3 -73l47 74l233 333h105v-546h-105v332l3 75l-47 -76l-233 -331h-105z" />
<glyph unicode="&#x43a;" horiz-adv-x="555" d="M547 0h-125l-226 283l207 263h116l-216 -255zM79 0v546h104v-546h-104z" />
<glyph unicode="&#x43b;" horiz-adv-x="598" d="M38 -17l-31 88q77 29 105 80q45 84 55 395h351v-546h-104v464h-155q-22 -285 -70 -373q-45 -78 -151 -108z" />
<glyph unicode="&#x43c;" horiz-adv-x="763" d="M79 0v546h137l159 -466l175 466h133v-546h-99v306l4 107l-152 -413h-126l-137 415l5 -109v-306h-99z" />
<glyph unicode="&#x43d;" horiz-adv-x="625" d="M79 0v546h105v-231h257v231h105v-546h-105v232h-257v-232h-105z" />
<glyph unicode="&#x43e;" horiz-adv-x="608" d="M299 -12q-119 0 -185.5 73.5t-66.5 205.5q0 138 71.5 215.5t191.5 77.5q124 0 187.5 -74.5t63.5 -210.5q0 -140 -72 -213.5t-190 -73.5zM306 73q149 0 149 198q0 205 -150 205q-43 0 -74.5 -17.5t-48 -48t-23.5 -64.5t-7 -75q0 -88 36 -143t118 -55z" />
<glyph unicode="&#x43f;" horiz-adv-x="615" d="M79 0v546h457v-546h-105v464h-247v-464h-105z" />
<glyph unicode="&#x440;" horiz-adv-x="605" d="M79 -220v766h104v-43q80 56 157 56q100 0 158.5 -69.5t58.5 -202.5q0 -81 -22.5 -140.5t-62.5 -93t-88 -49t-106 -15.5q-31 0 -95 8v-217h-104zM276 73q90 0 132.5 56t42.5 153q0 83 -33.5 135.5t-106.5 52.5q-9 0 -18 -1t-18 -3t-16 -3.5t-16 -5t-13.5 -5t-13.5 -6 l-12 -6t-11.5 -6.5t-9.5 -5v-346q65 -10 93 -10z" />
<glyph unicode="&#x441;" horiz-adv-x="507" d="M330 -12q-147 0 -215 67t-68 206q0 146 72 222.5t200 76.5q88 0 152 -35l-29 -79q-68 26 -120 26q-168 0 -168 -207q0 -96 42 -142.5t145 -46.5q47 0 112 15l16 -82q-74 -21 -139 -21z" />
<glyph unicode="&#x442;" horiz-adv-x="495" d="M196 0v463h-182v83h467v-83h-181v-463h-104z" />
<glyph unicode="&#x443;" horiz-adv-x="536" d="M161 -220l74 220h-44l-179 546h113l111 -371l28 -95l31 94l127 372h106l-267 -766h-100z" />
<glyph unicode="&#x444;" horiz-adv-x="772" d="M334 -220v211q-134 0 -210.5 70.5t-76.5 210.5q0 141 78.5 213.5t208.5 72.5v196h103v-196q135 0 211 -71t76 -213q0 -141 -79 -211t-208 -72v-211h-103zM437 75q181 0 181 199q0 94 -44 146.5t-137 53.5v-399zM334 73v401q-93 0 -137.5 -53t-44.5 -147q0 -201 182 -201z " />
<glyph unicode="&#x445;" horiz-adv-x="526" d="M11 0l193 279l-181 267h121l120 -198l120 198h118l-180 -265l195 -281h-126l-128 210l-129 -210h-123z" />
<glyph unicode="&#x446;" horiz-adv-x="645" d="M518 -147v147h-439v546h105v-464h244v464h105v-464h82v-229h-97z" />
<glyph unicode="&#x447;" horiz-adv-x="558" d="M375 0v230q-90 -28 -158 -28q-98 0 -137.5 42t-39.5 131v171h104v-162q0 -51 22 -74.5t83 -23.5q56 0 126 26v234h104v-546h-104z" />
<glyph unicode="&#x448;" horiz-adv-x="859" d="M79 0v546h105v-464h193v464h105v-464h193v464h105v-546h-701z" />
<glyph unicode="&#x449;" horiz-adv-x="892" d="M765 -147v147h-686v546h105v-464h193v464h105v-464h193v464h105v-464h82v-229h-97z" />
<glyph unicode="&#x44a;" horiz-adv-x="632" d="M178 0v463h-163v83h267v-187h91q108 0 169 -46.5t61 -134.5q0 -77 -52 -127.5t-134 -50.5h-239zM366 277h-84v-194h104q52 0 81 25t29 71q0 98 -130 98z" />
<glyph unicode="&#x44b;" horiz-adv-x="759" d="M79 0v546h105v-187h91q108 0 166.5 -46.5t58.5 -134.5q0 -77 -50 -127.5t-132 -50.5h-239zM573 0v546h106v-546h-106zM267 277h-83v-194h103q51 0 78.5 25t27.5 71q0 98 -126 98z" />
<glyph unicode="&#x44c;" horiz-adv-x="533" d="M79 0v546h105v-187h91q108 0 168.5 -46.5t60.5 -134.5q0 -77 -51.5 -127.5t-134.5 -50.5h-239zM267 277h-83v-194h103q52 0 81 25t29 71q0 98 -130 98z" />
<glyph unicode="&#x44d;" horiz-adv-x="507" d="M197 -10q-90 0 -164 37l30 79q77 -33 132 -33q75 0 114 44.5t44 118.5h-218v82h218q-7 70 -43.5 113.5t-106.5 43.5q-56 0 -131 -29l-31 78q70 35 164 35q126 0 190.5 -71.5t64.5 -211.5q0 -135 -72 -210.5t-191 -75.5z" />
<glyph unicode="&#x44e;" horiz-adv-x="854" d="M546 -10q-112 0 -177.5 62.5t-74.5 179.5h-110v-232h-105v546h105v-231h111q13 116 82.5 180t175.5 64q126 0 189.5 -74t63.5 -212t-71.5 -210.5t-188.5 -72.5zM552 75q148 0 148 198q0 201 -150 201q-82 0 -117 -57.5t-35 -144.5q0 -197 154 -197z" />
<glyph unicode="&#x44f;" horiz-adv-x="565" d="M147 0h-121q2 2 76 104t76 106q-46 17 -73.5 57t-27.5 94q0 86 58 135.5t149 49.5h202v-546h-104v185h-65q-4 0 -21.5 0.5t-20.5 0.5zM306 264h76v199h-90q-52 0 -80.5 -26.5t-28.5 -75.5q0 -48 35 -72.5t88 -24.5z" />
<glyph unicode="&#x450;" horiz-adv-x="558" d="M316 -12q-131 0 -199.5 62.5t-68.5 212.5q0 153 68 225t179 72q112 0 164.5 -69t52.5 -206v-37h-359q1 -99 48.5 -136t130.5 -37q69 0 150 24l18 -81q-80 -30 -184 -30zM156 321h248q0 160 -115 160q-56 0 -92 -41t-41 -119zM335 614l-208 116l41 76l203 -128z" />
<glyph unicode="&#x451;" horiz-adv-x="558" d="M221 661h-100v110h100v-110zM445 661h-101v110h101v-110zM316 -12q-131 0 -199.5 62.5t-68.5 212.5q0 153 68 225t179 72q112 0 164.5 -69t52.5 -206v-37h-359q1 -99 48.5 -136t130.5 -37q69 0 150 24l18 -81q-80 -30 -184 -30zM156 321h248q0 160 -115 160 q-56 0 -92 -41t-41 -119z" />
<glyph unicode="&#x452;" horiz-adv-x="621" d="M365 -220l-67 66q69 66 113.5 162.5t44.5 219.5q0 164 -118 164q-14 0 -28.5 -2t-28.5 -6.5t-25 -8.5t-24 -10.5t-19 -10t-17 -10t-12 -7.5v-337h-105v568h-104v79h104v107h105v-107h187v-79h-187v-157q102 74 186 74q69 0 114 -36.5t62 -89.5t17 -120 q0 -148 -57.5 -266.5t-140.5 -192.5z" />
<glyph unicode="&#x453;" horiz-adv-x="451" d="M171 613l-34 64l203 126l40 -74zM79 0v546h360v-83h-255v-463h-105z" />
<glyph unicode="&#x454;" horiz-adv-x="507" d="M337 -10q-154 0 -222 67t-68 218q0 131 72.5 208t195.5 77q94 0 156 -33l-29 -80q-63 26 -126 26t-105.5 -39t-52.5 -112h218v-82h-220q5 -85 48 -124t141 -39q20 0 39 2t41 6t28 5l16 -82q-72 -18 -132 -18z" />
<glyph unicode="&#x455;" horiz-adv-x="464" d="M201 -12q-86 0 -161 24l15 84q91 -22 151 -22q58 0 89 19t31 52q0 28 -28.5 48.5t-68.5 35t-80.5 32.5t-69 53.5t-28.5 86.5q0 76 57 117.5t143 41.5q81 0 149 -28l-21 -79q-63 22 -127 22q-49 0 -73.5 -18t-24.5 -48t28 -50.5t68 -35t80.5 -33t68.5 -54t28 -86.5 q0 -58 -36.5 -96.5t-84.5 -52t-105 -13.5z" />
<glyph unicode="&#x456;" horiz-adv-x="264" d="M79 0v546h106v-546h-106zM79 662v109h105v-109h-105z" />
<glyph unicode="&#x457;" horiz-adv-x="264" d="M72 661h-100v110h100v-110zM296 661h-101v110h101v-110zM79 0v546h106v-546h-106z" />
<glyph unicode="&#x458;" horiz-adv-x="264" d="M-10 -224q-46 0 -88 16l19 83q32 -10 67 -10q51 0 71 30.5t20 92.5v558h105v-559q0 -61 -15 -104t-43 -65.5t-60.5 -32t-75.5 -9.5zM79 662v109h105v-109h-105z" />
<glyph unicode="&#x459;" horiz-adv-x="868" d="M37 -17l-31 87q78 29 106 81q45 84 55 395h351v-187h91q108 0 168.5 -46.5t60.5 -134.5q0 -77 -51.5 -127.5t-133.5 -50.5h-240v464h-155q-24 -283 -69 -369q-43 -82 -152 -112zM601 277h-83v-194h103q52 0 81.5 25t29.5 71q0 98 -131 98z" />
<glyph unicode="&#x45a;" horiz-adv-x="877" d="M79 0v546h105v-213h248v213h104v-213h90q106 0 165 -43t59 -125q0 -71 -50.5 -118t-130.5 -47h-237v250h-248v-250h-105zM616 250h-80v-167h99q49 0 77 21.5t28 61.5q0 84 -124 84z" />
<glyph unicode="&#x45b;" horiz-adv-x="611" d="M79 0v568h-104v79h104v107h105v-107h187v-79h-187v-157q99 74 187 74q47 0 80.5 -12.5t51 -31t27 -49t11.5 -55t2 -62.5v-275h-102v267q0 71 -19.5 98.5t-81.5 27.5q-60 0 -156 -56v-337h-105z" />
<glyph unicode="&#x45c;" horiz-adv-x="555" d="M209 613l-34 64l203 126l40 -74zM547 0h-125l-226 283l207 263h116l-216 -255zM79 0v546h104v-546h-104z" />
<glyph unicode="&#x45d;" horiz-adv-x="645" d="M79 0v546h105v-334l-3 -73l47 74l233 333h105v-546h-105v332l3 75l-47 -76l-233 -331h-105zM379 614l-208 116l41 76l203 -128z" />
<glyph unicode="&#x45e;" horiz-adv-x="536" d="M161 -220l74 220h-44l-179 546h113l111 -371l28 -95l31 94l127 372h106l-267 -766h-100zM268 645q-50 0 -93.5 24.5t-69.5 67.5l45 50q51 -60 118 -60t119 60l44 -50q-26 -43 -69 -67.5t-94 -24.5z" />
<glyph unicode="&#x45f;" horiz-adv-x="616" d="M259 -147v147h-180v546h105v-464h248v464h104v-546h-179v-147h-98z" />
<glyph unicode="&#x462;" horiz-adv-x="701" d="M185 0v523h-183v86h183v98h108v-98h215v-85h-215v-112h91q143 0 214.5 -50.5t71.5 -158.5q0 -97 -68 -150t-193 -53h-224zM382 326h-89v-240h106q82 0 120 29t38 91q0 68 -43.5 94t-131.5 26z" />
<glyph unicode="&#x463;" horiz-adv-x="614" d="M161 0v463h-164v83h164v161h104v-161h189v-83h-189v-117h91q109 0 169.5 -44t60.5 -131q0 -76 -51.5 -123.5t-134.5 -47.5h-239zM349 263h-84v-180h104q52 0 81 23t29 67q0 90 -130 90z" />
<glyph unicode="&#x472;" horiz-adv-x="830" d="M406 -12q-168 0 -260 99.5t-92 267.5q0 166 100 264t268 98q171 0 262.5 -100.5t91.5 -263.5q0 -166 -98.5 -265.5t-271.5 -99.5zM409 76q119 0 183 66.5t73 177.5h-502q10 -108 72.5 -176t173.5 -68zM416 630q-115 0 -179.5 -65.5t-73.5 -173.5h502q-9 107 -74 173 t-175 66z" />
<glyph unicode="&#x473;" horiz-adv-x="608" d="M299 -12q-119 0 -185.5 73.5t-66.5 205.5q0 138 71.5 215.5t191.5 77.5q124 0 187.5 -74.5t63.5 -210.5q0 -140 -72 -213.5t-190 -73.5zM306 73q137 0 148 166h-301q13 -166 153 -166zM305 476q-74 0 -109.5 -46.5t-42.5 -120.5h300q-14 167 -148 167z" />
<glyph unicode="&#x474;" horiz-adv-x="709" d="M256 0l-251 707h116l210 -624l171 446q58 154 137 204l77 -60q-69 -48 -116 -168l-199 -505h-145z" />
<glyph unicode="&#x475;" horiz-adv-x="570" d="M193 0l-183 546h113l108 -352l33 -114l37 116l59 173q51 146 132 199l76 -61q-72 -51 -118 -180l-120 -327h-137z" />
<glyph unicode="&#x48a;" horiz-adv-x="820" d="M99 0v707h108v-460l-3 -103l63 104l313 459h108v-621h121l-58 -261h-99l36 175h-108v460l4 103l-49 -79l-328 -484h-108zM405 756q-115 0 -178 92l50 51q54 -59 128 -59t127 59l51 -51q-65 -92 -178 -92z" />
<glyph unicode="&#x48b;" horiz-adv-x="677" d="M79 0v546h105v-334l-3 -73l47 74l233 333h105v-460h102l-57 -261h-100l36 175h-86v332l3 75l-47 -76l-233 -331h-105zM326 644q-50 0 -93.5 24.5t-69.5 67.5l45 50q51 -60 118 -60t119 60l44 -50q-26 -43 -69 -67.5t-94 -24.5z" />
<glyph unicode="&#x48c;" horiz-adv-x="648" d="M37 544v74h92v89h109v-89h117v-74h-117v-96h87q141 0 215 -57t74 -168q0 -101 -68.5 -162t-191.5 -61h-225v544h-92zM327 361h-89v-275h106q79 0 118.5 37.5t39.5 102.5q0 135 -175 135z" />
<glyph unicode="&#x48d;" horiz-adv-x="561" d="M106 0v421h-73v61h73v64h105v-64h131v-61h-131v-62h91q108 0 168.5 -46.5t60.5 -134.5q0 -77 -51.5 -127.5t-134.5 -50.5h-239zM294 277h-83v-194h103q52 0 81 25t29 71q0 98 -130 98z" />
<glyph unicode="&#x48e;" horiz-adv-x="627" d="M99 0v707h243q111 0 176.5 -60.5t65.5 -169.5q0 -111 -84 -177l54 -58l-51 -48l-66 70q-64 -25 -147 -25h-82v-239h-109zM327 381l54 48l54 -58q37 37 37 102q0 148 -152 148h-112v-295h88q41 0 74 9z" />
<glyph unicode="&#x48f;" horiz-adv-x="606" d="M79 -220v766h104v-43q80 56 157 56q100 0 158.5 -69.5t58.5 -202.5q0 -156 -86 -234l43 -46l-49 -49l-54 56q-59 -25 -133 -25q-31 0 -95 8v-217h-104zM306 126l54 49l45 -50q46 55 46 157q0 83 -33.5 135.5t-106.5 52.5q-9 0 -18 -1t-18 -3t-16 -3.5t-16 -5t-13.5 -5 t-13.5 -6l-12 -6t-11.5 -6.5t-9.5 -5v-346q65 -10 93 -10q42 0 69 11z" />
<glyph unicode="&#x490;" horiz-adv-x="540" d="M99 0v707h330v161h103v-247h-325v-621h-108z" />
<glyph unicode="&#x491;" horiz-adv-x="451" d="M79 0v546h261v114h98l1 -197h-256v-463h-104z" />
<glyph unicode="&#x492;" horiz-adv-x="578" d="M48 308v80h80v319h439v-86h-331v-233h173v-80h-173v-308h-108v308h-80z" />
<glyph unicode="&#x493;" horiz-adv-x="476" d="M35 225v79h64v242h360v-83h-255v-159h141v-79h-141v-225h-105v225h-64z" />
<glyph unicode="&#x494;" horiz-adv-x="655" d="M384 -220l-58 73q21 15 45.5 40t57.5 67.5t54.5 103.5t21.5 126q0 69 -35 107.5t-99 38.5q-85 0 -164 -42v-294h-108v707h405v-88h-297v-236q110 39 189 39q111 0 164.5 -62t53.5 -164q0 -125 -58 -222.5t-172 -193.5z" />
<glyph unicode="&#x495;" horiz-adv-x="568" d="M79 0v546h391v-83h-286v-156q74 49 149 49q101 0 147 -67t46 -172q0 -223 -192 -347l-55 65q75 59 107.5 118t32.5 154q0 156 -120 156q-59 0 -115 -35v-228h-105z" />
<glyph unicode="&#x496;" horiz-adv-x="986" d="M803 0l-263 363v12l245 332h132l-254 -333l214 -288h104v-239h-103v153h-75zM9 0l278 374l-254 333h132l244 -331v-12l-263 -364h-137zM421 0v707h108v-707h-108z" />
<glyph unicode="&#x497;" horiz-adv-x="837" d="M835 -153h-104v151q-43 3 -73.5 21.5t-72.5 74.5l-137 182v-276h-105v275l-212 -275h-116l220 286l-199 260h120l187 -263v263h105v-262l194 262h117l-199 -260l99 -129q37 -49 63.5 -61t89.5 -12h23v-237z" />
<glyph unicode="&#x498;" horiz-adv-x="565" d="M252 -8q-125 0 -221 49l36 84q88 -43 177 -43q70 0 113 28.5t43 90.5q0 114 -166 114h-80v83h80q63 0 100 31t37 85q0 53 -33 81t-94 28t-149 -33l-35 75q94 46 195 46q107 0 166.5 -49.5t59.5 -126.5q0 -117 -106 -172v-2q19 -5 38 -14t43.5 -27t39.5 -50t15 -73 q0 -38 -13.5 -72.5t-41.5 -65t-80.5 -49t-123.5 -18.5zM221 -253l-35 62q64 38 64 75q0 19 -20 65h91q21 -39 21 -71q1 -80 -121 -131z" />
<glyph unicode="&#x499;" horiz-adv-x="471" d="M216 -9q-104 0 -188 42l31 80q78 -38 151 -38q46 0 75.5 22t29.5 63q0 80 -117 80h-67v79h65q51 0 75.5 24.5t24.5 57.5t-24 53t-68 20q-55 0 -129 -30l-26 77q78 38 172 38q89 0 134.5 -41t45.5 -100q0 -47 -23.5 -80.5t-61.5 -49.5q44 -11 77 -44.5t33 -90.5 q0 -65 -52.5 -113.5t-157.5 -48.5zM179 -253l-35 62q64 38 64 75q0 19 -20 65h91q21 -39 21 -71q1 -80 -121 -131z" />
<glyph unicode="&#x49a;" horiz-adv-x="689" d="M510 0l-290 373v11l274 323h137l-291 -328l239 -293h107v-239h-104v153h-72zM99 0v707h108v-707h-108z" />
<glyph unicode="&#x49b;" d="M79 0v546h105v-546h-105zM578 -153h-104v155q-74 17 -135 92l-151 186l213 266h118l-218 -258l104 -120q38 -43 71.5 -64t82.5 -21h19v-236z" />
<glyph unicode="&#x49c;" horiz-adv-x="723" d="M237 273v191h59v-191h-59zM572 0l-264 373v11l252 323h137l-269 -328l283 -379h-139zM99 0v707h108v-707h-108z" />
<glyph unicode="&#x49d;" horiz-adv-x="587" d="M460 0l-177 280l174 266h105l-176 -259l188 -287h-114zM79 0v546h105v-546h-105zM214 188v187h59v-187h-59z" />
<glyph unicode="&#x49e;" horiz-adv-x="675" d="M529 0l-290 373v11l274 323h137l-291 -328l310 -379h-140zM118 0v552h-84v65h84v90h108v-90h108v-65h-108v-552h-108z" />
<glyph unicode="&#x49f;" horiz-adv-x="572" d="M96 0v418h-63v61h63v67h104v-67h73v-61h-73v-418h-104zM564 0h-125l-226 283l207 263h116l-216 -255z" />
<glyph unicode="&#x4a0;" horiz-adv-x="743" d="M186 0v619h-196v88h304v-707h-108zM597 0l-290 373v11l274 323h137l-291 -328l310 -379h-140z" />
<glyph unicode="&#x4a1;" horiz-adv-x="650" d="M174 463h-181v83h285v-546h-104v463zM639 0h-125l-226 283l207 263h116l-216 -255z" />
<glyph unicode="&#x4a2;" horiz-adv-x="807" d="M99 0v707h108v-309h362v309h108v-621h98v-239h-104v153h-102v312h-362v-312h-108z" />
<glyph unicode="&#x4a3;" horiz-adv-x="664" d="M79 0v546h105v-231h257v231h105v-460h104v-239h-104v153h-105v232h-257v-232h-105z" />
<glyph unicode="&#x4a4;" horiz-adv-x="862" d="M99 0v707h108v-309h362v309h302v-88h-194v-619h-108v312h-362v-312h-108z" />
<glyph unicode="&#x4a5;" horiz-adv-x="779" d="M441 0v232h-257v-232h-105v546h105v-231h257v231h359v-83h-254v-463h-105z" />
<glyph unicode="&#x4a6;" horiz-adv-x="1110" d="M843 -220l-58 73q17 12 34 27t45 47.5t48.5 68.5t36 89.5t15.5 110.5q0 69 -35 107t-99 38q-87 0 -163 -41v-300h-108v621h-352v-621h-108v707h568v-319q103 39 188 39q111 0 164.5 -62t53.5 -164q0 -125 -58.5 -225.5t-171.5 -195.5z" />
<glyph unicode="&#x4a7;" horiz-adv-x="911" d="M79 0v546h457v-228q71 51 143 51q54 0 93.5 -20t61.5 -55t32 -77t10 -91q0 -121 -53.5 -211t-138.5 -145l-55 65q74 58 107 121.5t33 159.5q0 160 -116 160q-62 0 -117 -34v-242h-105v464h-247v-464h-105z" />
<glyph unicode="&#x4a8;" horiz-adv-x="795" d="M672 -154q-84 0 -153.5 37.5t-114.5 104.5q-167 1 -258.5 100t-91.5 267q0 166 101.5 264t270.5 98q124 0 210 -41l-31 -82q-86 33 -184 33q-127 0 -193 -74.5t-66 -196.5q0 -107 51 -186t147 -97q-28 79 -28 168q0 105 58 171t164 66q93 0 149 -58.5t56 -143.5 q0 -108 -60 -180.5t-176 -96.5q67 -65 158 -65q42 0 108 15l16 -82q-60 -21 -133 -21zM432 240q0 -92 38 -168q97 12 144 62t47 123q0 68 -32.5 102.5t-80.5 34.5q-58 0 -87 -43.5t-29 -110.5z" />
<glyph unicode="&#x4a9;" horiz-adv-x="594" d="M257 174q0 102 43.5 149t108.5 47q66 0 104.5 -41t38.5 -113q0 -79 -43 -134.5t-113 -78.5q41 -38 101 -38q37 0 94 16l15 -72q-55 -20 -119 -20q-124 0 -185 99h-2q-120 0 -186.5 73.5t-66.5 205.5q0 138 71.5 215.5t188.5 77.5q94 0 156 -35l-30 -77q-64 29 -119 29 q-82 0 -122 -56.5t-40 -148.5q0 -79 27.5 -134t88.5 -68q-11 47 -11 104zM338 180q0 -62 16 -110q55 12 84 49.5t29 95.5q0 87 -62 87q-28 0 -47.5 -28.5t-19.5 -93.5z" />
<glyph unicode="&#x4aa;" horiz-adv-x="677" d="M428 -12q-178 0 -276 97.5t-98 263.5q0 169 98.5 268.5t271.5 99.5q124 0 210 -41l-31 -82q-96 31 -177 31q-115 1 -188.5 -65.5t-73.5 -200.5q0 -138 78 -207.5t203 -69.5q87 0 165 25l25 -84q-93 -35 -207 -35zM366 -253l-35 62q64 38 64 75q0 19 -20 65h91 q21 -39 21 -71q1 -80 -121 -131z" />
<glyph unicode="&#x4ab;" horiz-adv-x="507" d="M330 -12q-147 0 -215 67t-68 206q0 146 72 222.5t200 76.5q88 0 152 -35l-29 -79q-68 26 -120 26q-168 0 -168 -207q0 -96 42 -142.5t145 -46.5q47 0 112 15l16 -82q-74 -21 -139 -21zM245 -253l-35 62q64 38 64 75q0 19 -20 65h91q21 -39 21 -71q1 -80 -121 -131z" />
<glyph unicode="&#x4ac;" horiz-adv-x="608" d="M245 0v619h-236v88h580v-88h-236v-533h139v-239h-103v153h-144z" />
<glyph unicode="&#x4ad;" horiz-adv-x="505" d="M196 0v463h-182v83h467v-83h-181v-377h117v-239h-100v153h-121z" />
<glyph unicode="&#x4ae;" horiz-adv-x="588" d="M234 0v256l-240 451h123l175 -358l187 358h118l-255 -449v-258h-108z" />
<glyph unicode="&#x4af;" horiz-adv-x="534" d="M206 -220v219l-198 547h113l108 -325l33 -114l37 116l121 323h109l-218 -550v-216h-105z" />
<glyph unicode="&#x4b0;" horiz-adv-x="614" d="M98 213v85h127l-217 409h123l175 -358l187 358h118l-233 -409h127v-85h-149v-213h-108v213h-150z" />
<glyph unicode="&#x4b1;" horiz-adv-x="564" d="M70 0v83h122l-167 463h113l108 -325l33 -114l37 116l121 323h109l-184 -463h124v-83h-157l-1 -4v-216h-105v219l-1 1h-152z" />
<glyph unicode="&#x4b2;" horiz-adv-x="677" d="M7 0l250 370l-212 337h123l151 -252l163 252h118l-224 -334l181 -287h112v-239h-103v153h-79l-174 289l-185 -289h-121z" />
<glyph unicode="&#x4b3;" horiz-adv-x="567" d="M11 0l193 279l-181 267h121l120 -198l120 198h118l-180 -265l135 -195h108v-239h-104v153h-70l-128 210l-129 -210h-123z" />
<glyph unicode="&#x4b4;" horiz-adv-x="926" d="M785 -153v153h-552v619h-223v88h553v-88h-222v-533h344v621h108v-621h95v-239h-103z" />
<glyph unicode="&#x4b5;" horiz-adv-x="762" d="M634 -147v147h-438v463h-182v83h286v-464h245v464h104v-464h82v-229h-97z" />
<glyph unicode="&#x4b6;" horiz-adv-x="697" d="M459 0v311q-100 -39 -191 -39q-222 0 -222 191v244h108v-234q0 -37 13 -61.5t37 -35.5t46 -14.5t50 -3.5q80 0 159 44v305h108v-621h106v-239h-104v153h-110z" />
<glyph unicode="&#x4b7;" horiz-adv-x="594" d="M375 0v230q-90 -28 -158 -28q-98 0 -137.5 42t-39.5 131v171h104v-162q0 -51 22 -74.5t83 -23.5q56 0 126 26v234h104v-460h100v-239h-104v153h-100z" />
<glyph unicode="&#x4b8;" horiz-adv-x="667" d="M459 0v311q-61 -24 -131 -35v-69h-60v65q-222 0 -222 191v244h108v-234q0 -104 114 -114v68h60v-68q70 9 131 43v305h108v-707h-108z" />
<glyph unicode="&#x4b9;" horiz-adv-x="558" d="M375 0v230q-56 -17 -94 -23v-75h-59v70h-5q-98 0 -137.5 42t-39.5 131v171h104v-162q0 -45 16.5 -68.5t61.5 -28.5v65h59v-65q35 4 94 25v234h104v-546h-104z" />
<glyph unicode="&#x4ba;" horiz-adv-x="662" d="M99 0v707h108v-306q97 45 182 45q119 0 172 -53.5t53 -142.5v-250h-107v240q0 37 -13 61t-36.5 35t-45 14.5t-49.5 3.5q-76 0 -156 -43v-311h-108z" />
<glyph unicode="&#x4bb;" horiz-adv-x="618" d="M79 0v754h105v-269q100 74 189 74q46 0 79 -13t50.5 -31.5t27 -49.5t11.5 -55.5t2 -61.5v-348h-102v333q0 72 -19.5 103t-77.5 31q-68 0 -160 -56v-411h-105z" />
<glyph unicode="&#x4bc;" horiz-adv-x="918" d="M872 323h-560q8 -115 71.5 -181t168.5 -66q127 0 253 65l30 -76q-57 -33 -134.5 -55t-157.5 -22q-152 0 -242.5 89.5t-98.5 245.5q-175 4 -175 146q0 59 29 131h80q-25 -75 -25 -111q0 -45 20 -65t72 -21q15 143 104 228.5t236 85.5q80 0 143.5 -27t103 -74t60.5 -106 t22 -126v-61zM542 630q-108 0 -163.5 -56t-64.5 -171h448q-3 104 -58.5 165.5t-161.5 61.5z" />
<glyph unicode="&#x4bd;" horiz-adv-x="679" d="M437 -12q-128 0 -196.5 59.5t-71.5 202.5q-140 17 -140 144q0 53 29 130h80q-25 -73 -25 -111q0 -37 13 -57t46 -27q15 119 80.5 175t163.5 56q112 0 164.5 -69t52.5 -206v-37h-359q1 -99 48.5 -136t130.5 -37q69 0 150 24l18 -81q-80 -30 -184 -30zM277 321h248 q0 160 -115 160q-56 0 -92 -41t-41 -119z" />
<glyph unicode="&#x4be;" horiz-adv-x="918" d="M872 323h-560q8 -115 71.5 -181t168.5 -66q127 0 253 65l30 -76q-82 -48 -190 -67q-92 -55 -92 -109q0 -25 15 -38t39 -13q28 0 54 14l20 -68q-37 -23 -92 -23q-61 0 -95 31.5t-34 82.5q0 58 61 114q-143 6 -227 95t-92 239q-175 4 -175 146q0 59 29 131h80 q-25 -75 -25 -111q0 -45 20 -65t72 -21q15 143 104 228.5t236 85.5q80 0 143.5 -27t103 -74t60.5 -106t22 -126v-61zM542 630q-108 0 -163.5 -56t-64.5 -171h448q-3 104 -58.5 165.5t-161.5 61.5z" />
<glyph unicode="&#x4bf;" horiz-adv-x="679" d="M550 -216q-37 -23 -92 -23q-61 0 -95 31.5t-34 82.5q0 59 63 115q-106 9 -163.5 69.5t-59.5 190.5q-140 17 -140 144q0 53 29 130h80q-25 -73 -25 -111q0 -37 13 -57t46 -27q15 119 80.5 175t163.5 56q112 0 164.5 -69t52.5 -206v-37h-359q1 -99 48.5 -136t130.5 -37 q69 0 150 24l18 -81q-51 -18 -117 -26q-82 -53 -82 -103q0 -25 15 -38t39 -13q28 0 54 14zM277 321h248q0 160 -115 160q-56 0 -92 -41t-41 -119z" />
<glyph unicode="&#x4c0;" horiz-adv-x="306" d="M99 0v707h108v-707h-108z" />
<glyph unicode="&#x4c1;" horiz-adv-x="950" d="M9 0l278 374l-254 333h132l244 -331v-12l-263 -364h-137zM803 0l-263 363v12l245 332h132l-254 -333l278 -374h-138zM421 0v707h108v-707h-108zM472 756q-115 0 -178 92l50 51q54 -59 128 -59t127 59l51 -51q-65 -92 -178 -92z" />
<glyph unicode="&#x4c2;" horiz-adv-x="791" d="M781 0h-117l-210 280l189 266h117l-199 -260zM125 0h-113l220 286l-199 260h117l190 -267zM344 0v546h105v-546h-105zM390 645q-50 0 -93.5 24.5t-69.5 67.5l45 50q51 -60 118 -60t119 60l44 -50q-26 -43 -69 -67.5t-94 -24.5z" />
<glyph unicode="&#x4c3;" horiz-adv-x="665" d="M631 707l-281 -311q118 -14 186 -79.5t68 -165.5q0 -210 -228 -377l-56 68q176 150 176 301q0 82 -63 130.5t-192 52.5v84l253 297h137zM99 0v707h108v-707h-108z" />
<glyph unicode="&#x4c4;" d="M532 546l-205 -236q4 0 11 0.5t10 0.5q99 0 145.5 -63t46.5 -155q0 -109 -55.5 -190.5t-137.5 -132.5l-53 63q69 61 104.5 119.5t35.5 127.5q0 158 -159 158q-26 0 -59 -6v63l198 251h118zM79 0v546h105v-546h-105z" />
<glyph unicode="&#x4c5;" horiz-adv-x="742" d="M48 -22l-46 96q101 45 131 105q48 99 68 528h402v-621h128l-58 -261h-99l36 175h-115v624h-200q-27 -302 -42 -381t-38 -125q-43 -84 -167 -140z" />
<glyph unicode="&#x4c6;" horiz-adv-x="632" d="M38 -17l-31 88q77 29 105 80q45 84 55 395h351v-460h106l-57 -261h-100l36 175h-89v464h-155q-22 -285 -70 -373q-45 -78 -151 -108z" />
<glyph unicode="&#x4c7;" horiz-adv-x="775" d="M467 -204l-43 79q85 44 115 98.5t30 146.5v193h-362v-312h-108v707h108v-309h362v309h108l1 -587q0 -59 -7.5 -101t-28.5 -85.5t-64.5 -77.5t-110.5 -61z" />
<glyph unicode="&#x4c8;" horiz-adv-x="625" d="M79 0v546h105v-231h258v231h104v-443q0 -53 -5.5 -89.5t-22.5 -75.5t-53 -68.5t-92 -51.5l-44 77q65 35 89 77.5t24 117.5v142h-258v-232h-105z" />
<glyph unicode="&#x4c9;" horiz-adv-x="806" d="M99 0v707h108v-309h362v309h108v-621h115l-57 -261h-100l37 175h-103v312h-362v-312h-108z" />
<glyph unicode="&#x4ca;" horiz-adv-x="660" d="M79 0v546h105v-231h257v231h105v-460h107l-58 -261h-99l36 175h-91v232h-257v-232h-105z" />
<glyph unicode="&#x4cb;" horiz-adv-x="667" d="M453 0v-153h-104v239h110v225q-100 -39 -191 -39q-222 0 -222 191v244h108v-234q0 -37 13 -61.5t37 -35.5t46 -14.5t50 -3.5q80 0 159 44v305h108v-707h-114z" />
<glyph unicode="&#x4cc;" horiz-adv-x="558" d="M275 -153v239h100v144q-90 -28 -158 -28q-98 0 -137.5 42t-39.5 131v171h104v-162q0 -51 22 -74.5t83 -23.5q56 0 126 26v234h104v-546h-103v-153h-101z" />
<glyph unicode="&#x4cd;" horiz-adv-x="991" d="M99 0v707h139l229 -628l259 628h131v-621h121l-57 -261h-100l37 175h-108v413l4 126h-3l-217 -539h-140l-190 540h-4l7 -117v-423h-108z" />
<glyph unicode="&#x4ce;" horiz-adv-x="798" d="M79 0v546h137l159 -466l175 466h133v-460h108l-58 -261h-99l36 175h-86v306l4 107l-152 -413h-126l-137 415l5 -109v-306h-99z" />
<glyph unicode="&#x4cf;" horiz-adv-x="263" d="M79 0v754h105v-754h-105z" />
<glyph unicode="&#x4d0;" horiz-adv-x="684" d="M-4 0l285 707h139l252 -707h-115l-86 247h-267l-97 -247h-111zM235 330h209l-99 305zM348 756q-115 0 -178 92l50 51q54 -59 128 -59t127 59l51 -51q-65 -92 -178 -92z" />
<glyph unicode="&#x4d1;" horiz-adv-x="564" d="M206 -9q-77 0 -122.5 41t-45.5 115q0 49 20 83.5t54 51.5t68.5 24.5t74.5 7.5l119 2v59q0 54 -27.5 74.5t-90.5 20.5q-77 0 -153 -26l-22 79q90 37 192 37q203 0 203 -157v-285q0 -40 57 -42l-4 -80q-14 -2 -25 -2q-47 0 -80.5 16t-40.5 50q-90 -69 -177 -69zM233 74 q65 0 141 49v126l-116 -5q-56 -2 -87 -25t-31 -65q0 -40 25.5 -60t67.5 -20zM277 645q-50 0 -93.5 24.5t-69.5 67.5l45 50q51 -60 118 -60t119 60l44 -50q-26 -43 -69 -67.5t-94 -24.5z" />
<glyph unicode="&#x4d2;" horiz-adv-x="684" d="M-4 0l285 707h139l252 -707h-115l-86 247h-267l-97 -247h-111zM235 330h209l-99 305zM295 759h-100v110h100v-110zM503 759h-101v110h101v-110z" />
<glyph unicode="&#x4d3;" horiz-adv-x="564" d="M206 -9q-77 0 -122.5 41t-45.5 115q0 49 20 83.5t54 51.5t68.5 24.5t74.5 7.5l119 2v59q0 54 -27.5 74.5t-90.5 20.5q-77 0 -153 -26l-22 79q90 37 192 37q203 0 203 -157v-285q0 -40 57 -42l-4 -80q-14 -2 -25 -2q-47 0 -80.5 16t-40.5 50q-90 -69 -177 -69zM233 74 q65 0 141 49v126l-116 -5q-56 -2 -87 -25t-31 -65q0 -40 25.5 -60t67.5 -20zM218 661h-100v110h100v-110zM442 661h-101v110h101v-110z" />
<glyph unicode="&#x4d4;" horiz-adv-x="943" d="M-6 0l363 707h510v-86h-308v-224h286v-84h-286v-226h332v-87h-439v292h-192l-144 -292h-122zM298 375h154v246h-33z" />
<glyph unicode="&#x4d5;" horiz-adv-x="881" d="M641 -9q-163 0 -227 91q-115 -90 -211 -90q-79 0 -122 40t-43 116q0 158 217 163q106 3 119 3v66q0 56 -28 73t-100 17q-37 0 -143 -24l-21 77q86 36 188 36q137 0 179 -66q63 66 178 66q207 0 207 -266v-36l-358 -12q1 -53 14.5 -87.5t41 -51.5t58 -23t75.5 -6 q37 0 141 19l16 -80q-71 -25 -181 -25zM224 75q58 0 166 59q-14 43 -17 109l-114 -3q-120 -4 -120 -84q0 -81 85 -81zM479 319l247 12q1 69 -29 110t-82 41q-55 0 -93.5 -40t-42.5 -123z" />
<glyph unicode="&#x4d6;" horiz-adv-x="590" d="M99 0v707h416v-86h-308v-224h286v-84h-286v-226h331v-87h-439zM322 756q-115 0 -178 92l50 51q54 -59 128 -59t127 59l51 -51q-65 -92 -178 -92z" />
<glyph unicode="&#x4d7;" horiz-adv-x="558" d="M316 -12q-131 0 -199.5 62.5t-68.5 212.5q0 153 68 225t179 72q112 0 164.5 -69t52.5 -206v-37h-359q1 -99 48.5 -136t130.5 -37q69 0 150 24l18 -81q-80 -30 -184 -30zM156 321h248q0 160 -115 160q-56 0 -92 -41t-41 -119zM293 645q-50 0 -93.5 24.5t-69.5 67.5l45 50 q51 -60 118 -60t119 60l44 -50q-26 -43 -69 -67.5t-94 -24.5z" />
<glyph unicode="&#x4d8;" horiz-adv-x="773" d="M374 -12q-160 0 -241 92t-86 254v61h560q-9 106 -70.5 170.5t-169.5 64.5q-125 0 -245 -64l-38 75q130 76 298 76q165 0 250.5 -100.5t85.5 -263.5q0 -169 -88 -267t-256 -98zM377 76q116 0 169 63.5t61 176.5h-450q20 -240 220 -240z" />
<glyph unicode="&#x4d9;" horiz-adv-x="558" d="M240 560q132 0 200.5 -62.5t68.5 -213.5q0 -296 -254 -296q-209 0 -209 274v38h358q-1 103 -48.5 138t-139.5 35q-54 0 -141 -23l-17 81q82 29 182 29zM402 227h-248q-1 -75 28 -119t85 -44q57 0 93.5 42t41.5 121z" />
<glyph unicode="&#x4da;" horiz-adv-x="773" d="M314 759h-100v110h100v-110zM522 759h-101v110h101v-110zM374 -12q-160 0 -241 92t-86 254v61h560q-9 106 -70.5 170.5t-169.5 64.5q-125 0 -245 -64l-38 75q130 76 298 76q165 0 250.5 -100.5t85.5 -263.5q0 -169 -88 -267t-256 -98zM377 76q116 0 169 63.5t61 176.5 h-450q20 -240 220 -240z" />
<glyph unicode="&#x4db;" horiz-adv-x="558" d="M209 661h-100v110h100v-110zM433 661h-101v110h101v-110zM240 560q132 0 200.5 -62.5t68.5 -213.5q0 -296 -254 -296q-209 0 -209 274v38h358q-1 103 -48.5 138t-139.5 35q-54 0 -141 -23l-17 81q82 29 182 29zM402 227h-248q-1 -75 28 -119t85 -44q57 0 93.5 42 t41.5 121z" />
<glyph unicode="&#x4dc;" horiz-adv-x="950" d="M9 0l278 374l-254 333h132l244 -331v-12l-263 -364h-137zM803 0l-263 363v12l245 332h132l-254 -333l278 -374h-138zM421 0v707h108v-707h-108zM421 759h-100v110h100v-110zM629 759h-101v110h101v-110z" />
<glyph unicode="&#x4dd;" horiz-adv-x="791" d="M331 661h-100v110h100v-110zM555 661h-101v110h101v-110zM781 0h-117l-210 280l189 266h117l-199 -260zM125 0h-113l220 286l-199 260h117l190 -267zM344 0v546h105v-546h-105z" />
<glyph unicode="&#x4de;" horiz-adv-x="565" d="M252 -8q-125 0 -221 49l36 84q88 -43 177 -43q70 0 113 28.5t43 90.5q0 114 -166 114h-80v83h80q63 0 100 31t37 85q0 53 -33 81t-94 28t-149 -33l-35 75q94 46 195 46q107 0 166.5 -49.5t59.5 -126.5q0 -117 -106 -172v-2q19 -5 38 -14t43.5 -27t39.5 -50t15 -73 q0 -38 -13.5 -72.5t-41.5 -65t-80.5 -49t-123.5 -18.5zM204 759h-100v110h100v-110zM412 759h-101v110h101v-110z" />
<glyph unicode="&#x4df;" horiz-adv-x="471" d="M159 661h-100v110h100v-110zM383 661h-101v110h101v-110zM216 -9q-104 0 -188 42l31 80q78 -38 151 -38q46 0 75.5 22t29.5 63q0 80 -117 80h-67v79h65q51 0 75.5 24.5t24.5 57.5t-24 53t-68 20q-55 0 -129 -30l-26 77q78 38 172 38q89 0 134.5 -41t45.5 -100 q0 -47 -23.5 -80.5t-61.5 -49.5q44 -11 77 -44.5t33 -90.5q0 -65 -52.5 -113.5t-157.5 -48.5z" />
<glyph unicode="&#x4e0;" horiz-adv-x="546" d="M162 399l191 217h-301v91h421v-77l-204 -229q95 -12 159 -63t64 -132q0 -104 -74 -161t-180 -57q-69 0 -121.5 13t-75.5 28l25 85q78 -37 165 -37q67 0 110 30t43 95q0 59 -50 90.5t-121 34.5q-13 1 -37 1z" />
<glyph unicode="&#x4e1;" horiz-adv-x="472" d="M111 168v77l194 213h-284v88h401v-76l-210 -231q92 -14 155.5 -67t63.5 -134q0 -59 -32 -108.5t-85 -81.5t-117 -51.5t-131 -24.5l-17 82q121 15 198 60t77 119q0 43 -34.5 74t-80 44.5t-98.5 16.5z" />
<glyph unicode="&#x4e2;" horiz-adv-x="788" d="M264 779v83h285v-83h-285zM99 0v707h108v-460l-3 -103l63 104l313 459h108v-707h-108v460l4 103l-49 -79l-328 -484h-108z" />
<glyph unicode="&#x4e3;" horiz-adv-x="645" d="M79 0v546h105v-334l-3 -73l47 74l233 333h105v-546h-105v332l3 75l-47 -76l-233 -331h-105zM185 662v83h285v-83h-285z" />
<glyph unicode="&#x4e4;" horiz-adv-x="788" d="M344 759h-100v110h100v-110zM552 759h-101v110h101v-110zM99 0v707h108v-460l-3 -103l63 104l313 459h108v-707h-108v460l4 103l-49 -79l-328 -484h-108z" />
<glyph unicode="&#x4e5;" horiz-adv-x="645" d="M253 661h-100v110h100v-110zM477 661h-101v110h101v-110zM79 0v546h105v-334l-3 -73l47 74l233 333h105v-546h-105v332l3 75l-47 -76l-233 -331h-105z" />
<glyph unicode="&#x4e6;" horiz-adv-x="830" d="M353 759h-100v110h100v-110zM561 759h-101v110h101v-110zM406 -12q-168 0 -260 99.5t-92 267.5q0 166 100 264t268 98q171 0 262.5 -100.5t91.5 -263.5q0 -166 -98.5 -265.5t-271.5 -99.5zM409 76q128 0 193 76.5t65 201.5q0 122 -65.5 199t-185.5 77q-124 0 -189 -76 t-65 -198q0 -121 63.5 -200.5t183.5 -79.5z" />
<glyph unicode="&#x4e7;" horiz-adv-x="608" d="M239 661h-100v110h100v-110zM463 661h-101v110h101v-110zM299 -12q-119 0 -185.5 73.5t-66.5 205.5q0 138 71.5 215.5t191.5 77.5q124 0 187.5 -74.5t63.5 -210.5q0 -140 -72 -213.5t-190 -73.5zM306 73q149 0 149 198q0 205 -150 205q-43 0 -74.5 -17.5t-48 -48 t-23.5 -64.5t-7 -75q0 -88 36 -143t118 -55z" />
<glyph unicode="&#x4e8;" horiz-adv-x="830" d="M406 -12q-168 0 -260 99.5t-92 267.5q0 166 100 264t268 98q171 0 262.5 -100.5t91.5 -263.5q0 -166 -98.5 -265.5t-271.5 -99.5zM409 76q119 0 183 66.5t73 177.5h-502q10 -108 72.5 -176t173.5 -68zM416 630q-115 0 -179.5 -65.5t-73.5 -173.5h502q-9 107 -74 173 t-175 66z" />
<glyph unicode="&#x4e9;" horiz-adv-x="608" d="M299 -12q-119 0 -185.5 73.5t-66.5 205.5q0 138 71.5 215.5t191.5 77.5q124 0 187.5 -74.5t63.5 -210.5q0 -140 -72 -213.5t-190 -73.5zM306 73q137 0 148 166h-301q13 -166 153 -166zM305 476q-74 0 -109.5 -46.5t-42.5 -120.5h300q-14 167 -148 167z" />
<glyph unicode="&#x4ea;" horiz-adv-x="830" d="M406 -12q-168 0 -260 99.5t-92 267.5q0 166 100 264t268 98q171 0 262.5 -100.5t91.5 -263.5q0 -166 -98.5 -265.5t-271.5 -99.5zM409 76q119 0 183 66.5t73 177.5h-502q10 -108 72.5 -176t173.5 -68zM416 630q-115 0 -179.5 -65.5t-73.5 -173.5h502q-9 107 -74 173 t-175 66zM562 759h-101v110h101v-110zM354 759h-100v110h100v-110z" />
<glyph unicode="&#x4eb;" horiz-adv-x="608" d="M299 -12q-119 0 -185.5 73.5t-66.5 205.5q0 138 71.5 215.5t191.5 77.5q124 0 187.5 -74.5t63.5 -210.5q0 -140 -72 -213.5t-190 -73.5zM306 73q137 0 148 166h-301q13 -166 153 -166zM305 476q-74 0 -109.5 -46.5t-42.5 -120.5h300q-14 167 -148 167zM461 661h-101v110 h101v-110zM237 661h-100v110h100v-110z" />
<glyph unicode="&#x4ec;" horiz-adv-x="678" d="M238 759h-100v110h100v-110zM446 759h-101v110h101v-110zM250 -10q-127 0 -208 31l25 83q79 -22 165 -22q114 0 190 58t87 174h-358v83h359q-11 116 -82 171.5t-176 54.5q-89 0 -177 -27l-30 83q81 36 209 36q179 0 274.5 -94t95.5 -266q0 -166 -98.5 -265.5 t-275.5 -99.5z" />
<glyph unicode="&#x4ed;" horiz-adv-x="507" d="M158 661h-100v110h100v-110zM382 661h-101v110h101v-110zM197 -10q-90 0 -164 37l30 79q77 -33 132 -33q75 0 114 44.5t44 118.5h-218v82h218q-7 70 -43.5 113.5t-106.5 43.5q-56 0 -131 -29l-31 78q70 35 164 35q126 0 190.5 -71.5t64.5 -211.5q0 -135 -72 -210.5 t-191 -75.5z" />
<glyph unicode="&#x4ee;" horiz-adv-x="596" d="M166 779v83h285v-83h-285zM169 -9l-34 90q57 19 87 40.5t52 71.5l14 29h-41l-246 485h120l201 -407l156 407h119l-225 -516q-25 -55 -46.5 -90t-48.5 -56t-47 -30.5t-61 -23.5z" />
<glyph unicode="&#x4ef;" horiz-adv-x="536" d="M161 -220l74 220h-44l-179 546h113l111 -371l28 -95l31 94l127 372h106l-267 -766h-100zM129 662v83h285v-83h-285z" />
<glyph unicode="&#x4f0;" horiz-adv-x="596" d="M251 759h-100v110h100v-110zM459 759h-101v110h101v-110zM169 -9l-34 90q57 19 87 40.5t52 71.5l14 29h-41l-246 485h120l201 -407l156 407h119l-225 -516q-25 -55 -46.5 -90t-48.5 -56t-47 -30.5t-61 -23.5z" />
<glyph unicode="&#x4f1;" horiz-adv-x="536" d="M161 -220l74 220h-44l-179 546h113l111 -371l28 -95l31 94l127 372h106l-267 -766h-100zM213 661h-100v110h100v-110zM437 661h-101v110h101v-110z" />
<glyph unicode="&#x4f2;" horiz-adv-x="596" d="M169 -9l-34 90q57 19 87 40.5t52 71.5l14 29h-41l-246 485h120l201 -407l156 407h119l-225 -516q-25 -55 -46.5 -90t-48.5 -56t-47 -30.5t-61 -23.5zM329 869l-200 -131l-44 62l190 143zM584 798l-233 -57l-20 73l228 72z" />
<glyph unicode="&#x4f3;" horiz-adv-x="536" d="M161 -220l74 220h-44l-179 546h113l111 -371l28 -95l31 94l127 372h106l-267 -766h-100zM120 608l-45 57l185 153l55 -70zM345 610l-36 63l204 128l44 -76z" />
<glyph unicode="&#x4f4;" horiz-adv-x="667" d="M459 0v311q-100 -39 -191 -39q-222 0 -222 191v244h108v-234q0 -37 13 -61.5t37 -35.5t46 -14.5t50 -3.5q80 0 159 44v305h108v-707h-108zM260 759h-100v110h100v-110zM468 759h-101v110h101v-110z" />
<glyph unicode="&#x4f5;" horiz-adv-x="558" d="M198 661h-100v110h100v-110zM422 661h-101v110h101v-110zM375 0v230q-90 -28 -158 -28q-98 0 -137.5 42t-39.5 131v171h104v-162q0 -51 22 -74.5t83 -23.5q56 0 126 26v234h104v-546h-104z" />
<glyph unicode="&#x4f6;" horiz-adv-x="549" d="M99 0v707h439v-86h-331v-535h144v-239h-103v153h-149z" />
<glyph unicode="&#x4f7;" horiz-adv-x="455" d="M79 0v546h360v-83h-255v-377h117v-239h-101v153h-121z" />
<glyph unicode="&#x4f8;" horiz-adv-x="864" d="M99 0v707h109v-259h87q141 0 215 -57t74 -168q0 -101 -68.5 -162t-191.5 -61h-225zM656 0v707h108v-707h-108zM297 361h-89v-275h106q79 0 118.5 37.5t39.5 102.5q0 135 -175 135zM599 759h-101v110h101v-110zM391 759h-100v110h100v-110z" />
<glyph unicode="&#x4f9;" horiz-adv-x="764" d="M80 0v546h100v-185h102q114 0 167.5 -52t53.5 -130q0 -82 -51 -130.5t-148 -48.5h-224zM684 0h-100v546h100v-546zM273 281h-93v-199h107q113 0 113 100q0 47 -33 73t-94 26zM549 661h-101v110h101v-110zM325 661h-100v110h100v-110z" />
<glyph unicode="&#x1e02;" horiz-adv-x="649" d="M247 778v109h105v-109h-105zM99 0v707h210q119 0 178.5 -48t59.5 -135q0 -52 -25.5 -91t-65.5 -55v-2q57 -12 99.5 -56t42.5 -114q0 -96 -62 -151t-197 -55h-240zM208 87h116q80 0 122.5 25t42.5 91q0 119 -179 119h-102v-235zM208 402h104q127 0 127 109 q0 61 -37.5 86.5t-115.5 25.5h-78v-221z" />
<glyph unicode="&#x1e03;" horiz-adv-x="601" d="M277 -10q-107 0 -202 30v734h104v-224q80 28 139 28q113 0 173.5 -65.5t60.5 -194.5q0 -83 -22.5 -144.5t-62 -96t-87 -51t-103.5 -16.5zM300 477q-48 0 -121 -25v-365q55 -12 101 -12q79 0 122.5 60t43.5 151q0 92 -31.5 141.5t-114.5 49.5zM279 662v109h105v-109h-105z " />
<glyph unicode="&#x1e04;" horiz-adv-x="649" d="M261 -208v109h105v-109h-105zM99 0v707h210q119 0 178.5 -48t59.5 -135q0 -52 -25.5 -91t-65.5 -55v-2q57 -12 99.5 -56t42.5 -114q0 -96 -62 -151t-197 -55h-240zM208 87h116q80 0 122.5 25t42.5 91q0 119 -179 119h-102v-235zM208 402h104q127 0 127 109 q0 61 -37.5 86.5t-115.5 25.5h-78v-221z" />
<glyph unicode="&#x1e05;" horiz-adv-x="601" d="M231 -208v109h105v-109h-105zM277 -10q-107 0 -202 30v734h104v-224q80 28 139 28q113 0 173.5 -65.5t60.5 -194.5q0 -83 -22.5 -144.5t-62 -96t-87 -51t-103.5 -16.5zM300 477q-48 0 -121 -25v-365q55 -12 101 -12q79 0 122.5 60t43.5 151q0 92 -31.5 141.5t-114.5 49.5 z" />
<glyph unicode="&#x1e06;" horiz-adv-x="649" d="M99 0v707h210q119 0 178.5 -48t59.5 -135q0 -52 -25.5 -91t-65.5 -55v-2q57 -12 99.5 -56t42.5 -114q0 -96 -62 -151t-197 -55h-240zM208 87h116q80 0 122.5 25t42.5 91q0 119 -179 119h-102v-235zM208 402h104q127 0 127 109q0 61 -37.5 86.5t-115.5 25.5h-78v-221z M172 -207v84h285v-84h-285z" />
<glyph unicode="&#x1e07;" horiz-adv-x="601" d="M277 -10q-107 0 -202 30v734h104v-224q80 28 139 28q113 0 173.5 -65.5t60.5 -194.5q0 -83 -22.5 -144.5t-62 -96t-87 -51t-103.5 -16.5zM300 477q-48 0 -121 -25v-365q55 -12 101 -12q79 0 122.5 60t43.5 151q0 92 -31.5 141.5t-114.5 49.5zM138 -207v84h285v-84h-285z " />
<glyph unicode="&#x1e0a;" horiz-adv-x="763" d="M298 778v109h105v-109h-105zM99 0v707h209q120 0 208 -36t140.5 -116t52.5 -199q0 -180 -103.5 -268t-291.5 -88h-215zM207 87h118q134 0 204 65.5t70 192.5q0 137 -77 206t-217 69h-98v-533z" />
<glyph unicode="&#x1e0b;" horiz-adv-x="599" d="M274 -10q-31 0 -60 7t-60 25.5t-54 48t-38 79t-15 113.5q0 149 76 223t202 74q42 0 90 -12v206h105v-754h-105v49q-31 -28 -62.5 -43.5t-78.5 -15.5zM291 78q60 0 124 49v334q-39 15 -91 15q-91 0 -131.5 -57.5t-40.5 -149.5q0 -97 38.5 -144t100.5 -47zM219 662v109h105 v-109h-105z" />
<glyph unicode="&#x1e0c;" horiz-adv-x="763" d="M309 -208v109h105v-109h-105zM99 0v707h209q120 0 208 -36t140.5 -116t52.5 -199q0 -180 -103.5 -268t-291.5 -88h-215zM207 87h118q134 0 204 65.5t70 192.5q0 137 -77 206t-217 69h-98v-533z" />
<glyph unicode="&#x1e0d;" horiz-adv-x="599" d="M260 -208v109h105v-109h-105zM274 -10q-31 0 -60 7t-60 25.5t-54 48t-38 79t-15 113.5q0 149 76 223t202 74q42 0 90 -12v206h105v-754h-105v49q-31 -28 -62.5 -43.5t-78.5 -15.5zM291 78q60 0 124 49v334q-39 15 -91 15q-91 0 -131.5 -57.5t-40.5 -149.5 q0 -97 38.5 -144t100.5 -47z" />
<glyph unicode="&#x1e0e;" horiz-adv-x="763" d="M99 0v707h209q120 0 208 -36t140.5 -116t52.5 -199q0 -180 -103.5 -268t-291.5 -88h-215zM207 87h118q134 0 204 65.5t70 192.5q0 137 -77 206t-217 69h-98v-533zM211 -207v84h285v-84h-285z" />
<glyph unicode="&#x1e0f;" horiz-adv-x="599" d="M274 -10q-31 0 -60 7t-60 25.5t-54 48t-38 79t-15 113.5q0 149 76 223t202 74q42 0 90 -12v206h105v-754h-105v49q-31 -28 -62.5 -43.5t-78.5 -15.5zM291 78q60 0 124 49v334q-39 15 -91 15q-91 0 -131.5 -57.5t-40.5 -149.5q0 -97 38.5 -144t100.5 -47zM171 -207v84h285 v-84h-285z" />
<glyph unicode="&#x1e1e;" horiz-adv-x="581" d="M267 778v109h105v-109h-105zM99 0v707h439v-86h-331v-243h309v-84h-309v-294h-108z" />
<glyph unicode="&#x1e1f;" horiz-adv-x="348" d="M67 778v109h105v-109h-105zM109 0v467h-80v79h80v32q0 101 51.5 145t136.5 44q49 0 88 -13l-17 -81q-32 8 -68 8q-45 0 -66 -25t-21 -78v-32h117v-79h-117v-467h-104z" />
<glyph unicode="&#x1e20;" horiz-adv-x="710" d="M269 779v83h285v-83h-285zM430 -11q-176 0 -276 95t-100 265q0 175 97 271.5t275 96.5q121 0 206 -40l-29 -83q-95 31 -177 31q-115 0 -188 -65.5t-73 -200.5q0 -139 78 -208t201 -69q52 0 94 11v255h107v-323q-100 -36 -215 -36z" />
<glyph unicode="&#x1e21;" horiz-adv-x="592" d="M264 194q-51 0 -92 14q-19 -28 -19 -48q0 -17 11.5 -28t29.5 -11h118q107 0 159.5 -38.5t52.5 -107.5q0 -86 -73 -145.5t-203 -59.5q-103 0 -159 39.5t-56 106.5q0 83 75 137q-37 25 -37 74q0 57 51 105q-66 46 -66 135q0 82 56 137t157 55q81 0 132 -35l161 6v-80h-94 q15 -41 15 -79q0 -80 -61.5 -128.5t-157.5 -48.5zM313 34h-130q-15 0 -22 1q-45 -41 -45 -90q0 -43 36 -68t106 -25q79 0 127 32.5t48 78.5q0 32 -29 51.5t-91 19.5zM267 263q54 0 86 30.5t32 80.5t-30.5 82t-85.5 32q-53 0 -84.5 -31.5t-31.5 -83.5t31 -81t83 -29zM138 662 v83h285v-83h-285z" />
<glyph unicode="&#x1e22;" horiz-adv-x="776" d="M333 778v109h105v-109h-105zM99 0v707h108v-309h362v309h108v-707h-108v312h-362v-312h-108z" />
<glyph unicode="&#x1e23;" horiz-adv-x="617" d="M79 0v754h105v-269q100 74 189 74q46 0 79 -13t50.5 -31.5t27 -49.5t11.5 -55.5t2 -61.5v-348h-102v333q0 72 -19.5 103t-77.5 31q-68 0 -160 -56v-411h-105zM293 662v109h105v-109h-105z" />
<glyph unicode="&#x1e24;" horiz-adv-x="776" d="M99 0v707h108v-309h362v309h108v-707h-108v312h-362v-312h-108zM333 -208v109h105v-109h-105z" />
<glyph unicode="&#x1e25;" horiz-adv-x="617" d="M79 0v754h105v-269q100 74 189 74q46 0 79 -13t50.5 -31.5t27 -49.5t11.5 -55.5t2 -61.5v-348h-102v333q0 72 -19.5 103t-77.5 31q-68 0 -160 -56v-411h-105zM256 -208v109h105v-109h-105z" />
<glyph unicode="&#x1e2a;" horiz-adv-x="776" d="M99 0v707h108v-309h362v309h108v-707h-108v312h-362v-312h-108zM389 -218q-111 0 -174 94l55 51q58 -62 120 -62q64 0 119 62l53 -50q-65 -95 -173 -95z" />
<glyph unicode="&#x1e2b;" horiz-adv-x="617" d="M79 0v754h105v-269q100 74 189 74q46 0 79 -13t50.5 -31.5t27 -49.5t11.5 -55.5t2 -61.5v-348h-102v333q0 72 -19.5 103t-77.5 31q-68 0 -160 -56v-411h-105zM310 -218q-111 0 -174 94l55 51q58 -62 120 -62q64 0 119 62l53 -50q-65 -95 -173 -95z" />
<glyph unicode="&#x1e32;" horiz-adv-x="656" d="M288 -208v109h105v-109h-105zM510 0l-290 373v11l274 323h137l-291 -328l310 -379h-140zM99 0v707h108v-707h-108z" />
<glyph unicode="&#x1e33;" horiz-adv-x="555" d="M231 -208v109h105v-109h-105zM404 0l-217 288l219 258h117l-223 -254l234 -292h-130zM79 0v754h104v-754h-104z" />
<glyph unicode="&#x1e34;" horiz-adv-x="656" d="M510 0l-290 373v11l274 323h137l-291 -328l310 -379h-140zM99 0v707h108v-707h-108zM210 -207v84h285v-84h-285z" />
<glyph unicode="&#x1e35;" horiz-adv-x="555" d="M404 0l-217 288l219 258h117l-223 -254l234 -292h-130zM79 0v754h104v-754h-104zM148 -207v84h285v-84h-285z" />
<glyph unicode="&#x1e36;" horiz-adv-x="522" d="M247 -208v109h105v-109h-105zM99 0v707h108v-618h307v-89h-415z" />
<glyph unicode="&#x1e37;" horiz-adv-x="263" d="M77 -208v109h105v-109h-105zM79 0v754h105v-754h-105z" />
<glyph unicode="&#x1e38;" horiz-adv-x="522" d="M238 -208v109h105v-109h-105zM13 779v83h285v-83h-285zM99 0v707h108v-618h307v-89h-415z" />
<glyph unicode="&#x1e39;" horiz-adv-x="263" d="M76 -208v109h105v-109h-105zM-9 806v83h285v-83h-285zM79 0v754h105v-754h-105z" />
<glyph unicode="&#x1e3a;" horiz-adv-x="522" d="M99 0v707h108v-618h307v-89h-415zM161 -207v84h285v-84h-285z" />
<glyph unicode="&#x1e3b;" horiz-adv-x="263" d="M79 0v754h105v-754h-105zM-11 -207v84h285v-84h-285z" />
<glyph unicode="&#x1e3e;" horiz-adv-x="957" d="M401 746l-19 70l234 79l23 -86zM99 0v707h139l229 -628l259 628h131v-707h-107v413l4 126h-3l-217 -539h-140l-190 540h-4l7 -117v-423h-108z" />
<glyph unicode="&#x1e3f;" horiz-adv-x="951" d="M459 613l-34 64l203 126l40 -74zM79 0v546h105v-62q96 75 181 75q55 0 93 -22.5t53 -58.5q103 81 196 81q47 0 80 -14t50.5 -33t26.5 -50.5t11 -54.5t2 -58v-349h-105v334q0 68 -19.5 101t-77.5 33q-67 0 -150 -56q5 -33 5 -62v-350h-104v334q0 68 -19 101t-74 33 q-73 0 -149 -58v-410h-105z" />
<glyph unicode="&#x1e40;" horiz-adv-x="957" d="M422 778v109h105v-109h-105zM99 0v707h139l229 -628l259 628h131v-707h-107v413l4 126h-3l-217 -539h-140l-190 540h-4l7 -117v-423h-108z" />
<glyph unicode="&#x1e41;" horiz-adv-x="951" d="M79 0v546h105v-62q96 75 181 75q55 0 93 -22.5t53 -58.5q103 81 196 81q47 0 80 -14t50.5 -33t26.5 -50.5t11 -54.5t2 -58v-349h-105v334q0 68 -19.5 101t-77.5 33q-67 0 -150 -56q5 -33 5 -62v-350h-104v334q0 68 -19 101t-74 33q-73 0 -149 -58v-410h-105zM427 662v109 h105v-109h-105z" />
<glyph unicode="&#x1e42;" horiz-adv-x="957" d="M411 -208v109h105v-109h-105zM99 0v707h139l229 -628l259 628h131v-707h-107v413l4 126h-3l-217 -539h-140l-190 540h-4l7 -117v-423h-108z" />
<glyph unicode="&#x1e43;" horiz-adv-x="951" d="M420 -208v109h105v-109h-105zM79 0v546h105v-62q96 75 181 75q55 0 93 -22.5t53 -58.5q103 81 196 81q47 0 80 -14t50.5 -33t26.5 -50.5t11 -54.5t2 -58v-349h-105v334q0 68 -19.5 101t-77.5 33q-67 0 -150 -56q5 -33 5 -62v-350h-104v334q0 68 -19 101t-74 33 q-73 0 -149 -58v-410h-105z" />
<glyph unicode="&#x1e44;" horiz-adv-x="780" d="M342 803v109h105v-109h-105zM99 0v707h132l344 -576h2l-4 85v491h108v-707h-137l-338 567h-3l4 -79v-488h-108z" />
<glyph unicode="&#x1e45;" horiz-adv-x="618" d="M258 662v109h105v-109h-105zM79 0v546h105v-60q50 37 93 55.5t101 18.5q44 0 76 -13t49 -32t26.5 -49.5t12 -55.5t2.5 -61v-349h-103v334q0 72 -19.5 103.5t-77.5 31.5q-75 0 -160 -57v-412h-105z" />
<glyph unicode="&#x1e46;" horiz-adv-x="780" d="M338 -208v109h105v-109h-105zM99 0v707h132l344 -576h2l-4 85v491h108v-707h-137l-338 567h-3l4 -79v-488h-108z" />
<glyph unicode="&#x1e47;" horiz-adv-x="618" d="M261 -208v109h105v-109h-105zM79 0v546h105v-60q50 37 93 55.5t101 18.5q44 0 76 -13t49 -32t26.5 -49.5t12 -55.5t2.5 -61v-349h-103v334q0 72 -19.5 103.5t-77.5 31.5q-75 0 -160 -57v-412h-105z" />
<glyph unicode="&#x1e48;" horiz-adv-x="780" d="M247 -207v84h285v-84h-285zM99 0v707h132l344 -576h2l-4 85v491h108v-707h-137l-338 567h-3l4 -79v-488h-108z" />
<glyph unicode="&#x1e49;" horiz-adv-x="618" d="M166 -207v84h285v-84h-285zM79 0v546h105v-60q50 37 93 55.5t101 18.5q44 0 76 -13t49 -32t26.5 -49.5t12 -55.5t2.5 -61v-349h-103v334q0 72 -19.5 103.5t-77.5 31.5q-75 0 -160 -57v-412h-105z" />
<glyph unicode="&#x1e56;" horiz-adv-x="616" d="M99 0v707h243q111 0 176.5 -60.5t65.5 -169.5q0 -103 -75.5 -170.5t-218.5 -67.5h-82v-239h-109zM208 621v-295h88q84 0 130 37t46 110q0 148 -152 148h-112zM254 778v109h105v-109h-105z" />
<glyph unicode="&#x1e57;" horiz-adv-x="605" d="M79 -220v766h104v-43q80 56 157 56q100 0 158.5 -69.5t58.5 -202.5q0 -81 -22.5 -140.5t-62.5 -93t-88 -49t-106 -15.5q-31 0 -95 8v-217h-104zM276 73q90 0 132.5 56t42.5 153q0 83 -33.5 135.5t-106.5 52.5q-9 0 -18 -1t-18 -3t-16 -3.5t-16 -5t-13.5 -5t-13.5 -6 l-12 -6t-11.5 -6.5t-9.5 -5v-346q65 -10 93 -10zM252 662v109h105v-109h-105z" />
<glyph unicode="&#x1e58;" horiz-adv-x="708" d="M259 778v109h105v-109h-105zM100 0v707h243q111 0 176.5 -54t65.5 -160q0 -138 -128 -193l221 -300h-135l-192 274q-21 -4 -60 -4h-83v-270h-108zM208 353h89q176 0 176 135q0 71 -36.5 102t-115.5 31h-113v-268z" />
<glyph unicode="&#x1e59;" horiz-adv-x="406" d="M79 0v546h105v-73q22 34 61.5 59.5t89.5 25.5q38 0 67 -9l-15 -88q-31 7 -67 7q-43 0 -79 -22.5t-57 -53.5v-392h-105zM184 662v109h105v-109h-105z" />
<glyph unicode="&#x1e5a;" horiz-adv-x="708" d="M307 -208v109h105v-109h-105zM100 0v707h243q111 0 176.5 -54t65.5 -160q0 -138 -128 -193l221 -300h-135l-192 274q-21 -4 -60 -4h-83v-270h-108zM208 353h89q176 0 176 135q0 71 -36.5 102t-115.5 31h-113v-268z" />
<glyph unicode="&#x1e5b;" horiz-adv-x="406" d="M77 -208v109h105v-109h-105zM79 0v546h105v-73q22 34 61.5 59.5t89.5 25.5q38 0 67 -9l-15 -88q-31 7 -67 7q-43 0 -79 -22.5t-57 -53.5v-392h-105z" />
<glyph unicode="&#x1e5c;" horiz-adv-x="708" d="M300 -208v109h105v-109h-105zM168 779v83h285v-83h-285zM100 0v707h243q111 0 176.5 -54t65.5 -160q0 -138 -128 -193l221 -300h-135l-192 274q-21 -4 -60 -4h-83v-270h-108zM208 353h89q176 0 176 135q0 71 -36.5 102t-115.5 31h-113v-268z" />
<glyph unicode="&#x1e5d;" horiz-adv-x="406" d="M77 -208v109h105v-109h-105zM79 0v546h105v-73q22 34 61.5 59.5t89.5 25.5q38 0 67 -9l-15 -88q-31 7 -67 7q-43 0 -79 -22.5t-57 -53.5v-392h-105zM99 662v83h285v-83h-285z" />
<glyph unicode="&#x1e5e;" horiz-adv-x="708" d="M100 0v707h243q111 0 176.5 -54t65.5 -160q0 -138 -128 -193l221 -300h-135l-192 274q-21 -4 -60 -4h-83v-270h-108zM208 353h89q176 0 176 135q0 71 -36.5 102t-115.5 31h-113v-268zM224 -207v84h285v-84h-285z" />
<glyph unicode="&#x1e5f;" horiz-adv-x="406" d="M79 0v546h105v-73q22 34 61.5 59.5t89.5 25.5q38 0 67 -9l-15 -88q-31 7 -67 7q-43 0 -79 -22.5t-57 -53.5v-392h-105zM-12 -207v84h285v-84h-285z" />
<glyph unicode="&#x1e60;" horiz-adv-x="554" d="M230 778v109h105v-109h-105zM251 -12q-121 0 -209 51l33 85q93 -44 176 -44q66 0 110 27t44 81q0 32 -19 56.5t-49.5 40.5t-67 31.5t-73 33.5t-67 40.5t-49.5 59.5t-19 84q0 86 65.5 134.5t158.5 48.5q110 0 187 -43l-32 -82q-75 35 -153 35q-53 0 -87 -24t-34 -68 q0 -38 36 -67t87 -50.5t102 -47t87 -70.5t36 -106q0 -100 -75.5 -153t-187.5 -53z" />
<glyph unicode="&#x1e61;" horiz-adv-x="464" d="M201 -12q-86 0 -161 24l15 84q91 -22 151 -22q58 0 89 19t31 52q0 28 -28.5 48.5t-68.5 35t-80.5 32.5t-69 53.5t-28.5 86.5q0 76 57 117.5t143 41.5q81 0 149 -28l-21 -79q-63 22 -127 22q-49 0 -73.5 -18t-24.5 -48t28 -50.5t68 -35t80.5 -33t68.5 -54t28 -86.5 q0 -58 -36.5 -96.5t-84.5 -52t-105 -13.5zM178 662v109h105v-109h-105z" />
<glyph unicode="&#x1e62;" horiz-adv-x="554" d="M214 -208v109h105v-109h-105zM251 -12q-121 0 -209 51l33 85q93 -44 176 -44q66 0 110 27t44 81q0 32 -19 56.5t-49.5 40.5t-67 31.5t-73 33.5t-67 40.5t-49.5 59.5t-19 84q0 86 65.5 134.5t158.5 48.5q110 0 187 -43l-32 -82q-75 35 -153 35q-53 0 -87 -24t-34 -68 q0 -38 36 -67t87 -50.5t102 -47t87 -70.5t36 -106q0 -100 -75.5 -153t-187.5 -53z" />
<glyph unicode="&#x1e63;" horiz-adv-x="464" d="M174 -208v109h105v-109h-105zM201 -12q-86 0 -161 24l15 84q91 -22 151 -22q58 0 89 19t31 52q0 28 -28.5 48.5t-68.5 35t-80.5 32.5t-69 53.5t-28.5 86.5q0 76 57 117.5t143 41.5q81 0 149 -28l-21 -79q-63 22 -127 22q-49 0 -73.5 -18t-24.5 -48t28 -50.5t68 -35 t80.5 -33t68.5 -54t28 -86.5q0 -58 -36.5 -96.5t-84.5 -52t-105 -13.5z" />
<glyph unicode="&#x1e6a;" horiz-adv-x="599" d="M244 778v109h105v-109h-105zM245 0v619h-236v88h580v-88h-236v-619h-108z" />
<glyph unicode="&#x1e6b;" horiz-adv-x="423" d="M103 738v109h105v-109h-105zM277 -12q-86 0 -130.5 38t-44.5 131v306h-80v83h80v112h103v-112h171v-83h-170v-301q0 -48 20.5 -66t66.5 -18q50 0 100 16l14 -85q-58 -21 -130 -21z" />
<glyph unicode="&#x1e6c;" horiz-adv-x="599" d="M244 -208v109h105v-109h-105zM245 0v619h-236v88h580v-88h-236v-619h-108z" />
<glyph unicode="&#x1e6d;" horiz-adv-x="423" d="M183 -208v109h105v-109h-105zM277 -12q-86 0 -130.5 38t-44.5 131v306h-80v83h80v112h103v-112h171v-83h-170v-301q0 -48 20.5 -66t66.5 -18q50 0 100 16l14 -85q-58 -21 -130 -21z" />
<glyph unicode="&#x1e6e;" horiz-adv-x="599" d="M245 0v619h-236v88h580v-88h-236v-619h-108zM156 -207v84h285v-84h-285z" />
<glyph unicode="&#x1e6f;" horiz-adv-x="423" d="M277 -12q-86 0 -130.5 38t-44.5 131v306h-80v83h80v112h103v-112h171v-83h-170v-301q0 -48 20.5 -66t66.5 -18q50 0 100 16l14 -85q-58 -21 -130 -21zM95 -207v84h285v-84h-285z" />
<glyph unicode="&#x1e7c;" horiz-adv-x="681" d="M411 754q-23 0 -63.5 19t-58.5 19q-37 0 -69 -26l-40 54q51 56 112 56q30 0 68 -18.5t53 -18.5q36 0 71 26l37 -53q-47 -58 -110 -58zM261 0l-251 707h116l210 -624l239 624h109l-278 -707h-145z" />
<glyph unicode="&#x1e7d;" horiz-adv-x="540" d="M198 0l-185 546h113l108 -352l33 -114l37 116l121 350h109l-202 -546h-134zM332 641q-25 0 -65 19t-60 19q-37 0 -69 -26l-40 54q52 56 116 56q30 0 68 -18.5t55 -18.5q32 0 75 27l38 -53q-51 -59 -118 -59z" />
<glyph unicode="&#x1e7e;" horiz-adv-x="681" d="M280 -208v109h105v-109h-105zM261 0l-251 707h116l210 -624l239 624h109l-278 -707h-145z" />
<glyph unicode="&#x1e7f;" horiz-adv-x="540" d="M211 -208v109h105v-109h-105zM198 0l-185 546h113l108 -352l33 -114l37 116l121 350h109l-202 -546h-134z" />
<glyph unicode="&#x1e80;" horiz-adv-x="1046" d="M600 746l-239 60l23 87l236 -76zM1034 707l-221 -707h-150l-139 561l-157 -561h-152l-183 707h112l153 -641l181 641h104l159 -639l185 639h108z" />
<glyph unicode="&#x1e81;" horiz-adv-x="887" d="M520 614l-208 116l41 76l203 -128zM181 0l-161 546h110l120 -466l134 466h130l116 -466l140 466h106l-181 -546h-135l-96 370l-18 79l-20 -79l-109 -370h-136z" />
<glyph unicode="&#x1e82;" horiz-adv-x="1046" d="M431 746l-19 70l234 79l23 -86zM1034 707l-221 -707h-150l-139 561l-157 -561h-152l-183 707h112l153 -641l181 641h104l159 -639l185 639h108z" />
<glyph unicode="&#x1e83;" horiz-adv-x="887" d="M385 613l-34 64l203 126l40 -74zM181 0l-161 546h110l120 -466l134 466h130l116 -466l140 466h106l-181 -546h-135l-96 370l-18 79l-20 -79l-109 -370h-136z" />
<glyph unicode="&#x1e84;" horiz-adv-x="1046" d="M472 759h-100v110h100v-110zM680 759h-101v110h101v-110zM1034 707l-221 -707h-150l-139 561l-157 -561h-152l-183 707h112l153 -641l181 641h104l159 -639l185 639h108z" />
<glyph unicode="&#x1e85;" horiz-adv-x="887" d="M384 661h-100v110h100v-110zM608 661h-101v110h101v-110zM181 0l-161 546h110l120 -466l134 466h130l116 -466l140 466h106l-181 -546h-135l-96 370l-18 79l-20 -79l-109 -370h-136z" />
<glyph unicode="&#x1e86;" horiz-adv-x="1046" d="M482 778v109h105v-109h-105zM1034 707l-221 -707h-150l-139 561l-157 -561h-152l-183 707h112l153 -641l181 641h104l159 -639l185 639h108z" />
<glyph unicode="&#x1e87;" horiz-adv-x="887" d="M181 0l-161 546h110l120 -466l134 466h130l116 -466l140 466h106l-181 -546h-135l-96 370l-18 79l-20 -79l-109 -370h-136zM395 662v109h105v-109h-105z" />
<glyph unicode="&#x1e88;" horiz-adv-x="1046" d="M462 -208v109h105v-109h-105zM1034 707l-221 -707h-150l-139 561l-157 -561h-152l-183 707h112l153 -641l181 641h104l159 -639l185 639h108z" />
<glyph unicode="&#x1e89;" horiz-adv-x="887" d="M393 -208v109h105v-109h-105zM181 0l-161 546h110l120 -466l134 466h130l116 -466l140 466h106l-181 -546h-135l-96 370l-18 79l-20 -79l-109 -370h-136z" />
<glyph unicode="&#x1e8a;" horiz-adv-x="632" d="M266 778v109h105v-109h-105zM7 0l250 370l-212 337h123l151 -252l163 252h118l-224 -334l236 -373h-125l-174 289l-185 -289h-121z" />
<glyph unicode="&#x1e8b;" horiz-adv-x="539" d="M17 0l193 279l-181 267h121l120 -198l120 198h118l-180 -265l195 -281h-126l-128 210l-129 -210h-123zM217 662v109h105v-109h-105z" />
<glyph unicode="&#x1e8e;" horiz-adv-x="630" d="M259 0v256l-240 451h123l175 -358l187 358h118l-255 -449v-258h-108zM265 778v109h105v-109h-105z" />
<glyph unicode="&#x1e8f;" horiz-adv-x="536" d="M161 -220l74 220h-44l-179 546h113l111 -371l28 -95l31 94l127 372h106l-267 -766h-100zM217 662v109h105v-109h-105z" />
<glyph unicode="&#x1e92;" horiz-adv-x="586" d="M239 -208v109h105v-109h-105zM39 0v84l360 532h-334v91h460v-77l-364 -539h385v-91h-507z" />
<glyph unicode="&#x1e93;" horiz-adv-x="508" d="M196 -208v109h105v-109h-105zM36 0v80l303 378h-279v88h401v-76l-304 -383h308v-87h-429z" />
<glyph unicode="&#x1e94;" horiz-adv-x="586" d="M39 0v84l360 532h-334v91h460v-77l-364 -539h385v-91h-507zM150 -207v84h285v-84h-285z" />
<glyph unicode="&#x1e95;" horiz-adv-x="508" d="M36 0v80l303 378h-279v88h401v-76l-304 -383h308v-87h-429zM108 -207v84h285v-84h-285z" />
<glyph unicode="&#x1e96;" horiz-adv-x="617" d="M79 0v754h105v-269q100 74 189 74q46 0 79 -13t50.5 -31.5t27 -49.5t11.5 -55.5t2 -61.5v-348h-102v333q0 72 -19.5 103t-77.5 31q-68 0 -160 -56v-411h-105zM166 -207v84h285v-84h-285z" />
<glyph unicode="&#x1e97;" horiz-adv-x="423" d="M98 715h-100v110h100v-110zM322 715h-101v110h101v-110zM277 -12q-86 0 -130.5 38t-44.5 131v306h-80v83h80v112h103v-112h171v-83h-170v-301q0 -48 20.5 -66t66.5 -18q50 0 100 16l14 -85q-58 -21 -130 -21z" />
<glyph unicode="&#x1ea0;" horiz-adv-x="684" d="M-4 0l285 707h139l252 -707h-115l-86 247h-267l-97 -247h-111zM235 330h209l-99 305zM290 -208v109h105v-109h-105z" />
<glyph unicode="&#x1ea1;" horiz-adv-x="564" d="M206 -9q-77 0 -122.5 41t-45.5 115q0 49 20 83.5t54 51.5t68.5 24.5t74.5 7.5l119 2v59q0 54 -27.5 74.5t-90.5 20.5q-77 0 -153 -26l-22 79q90 37 192 37q203 0 203 -157v-285q0 -40 57 -42l-4 -80q-14 -2 -25 -2q-47 0 -80.5 16t-40.5 50q-90 -69 -177 -69zM233 74 q65 0 141 49v126l-116 -5q-56 -2 -87 -25t-31 -65q0 -40 25.5 -60t67.5 -20zM236 -208v109h105v-109h-105z" />
<glyph unicode="&#x1ea2;" horiz-adv-x="684" d="M-4 0l285 707h139l252 -707h-115l-86 247h-267l-97 -247h-111zM235 330h209l-99 305zM271 963q29 12 67 12q44 0 74 -28.5t30 -73.5t-29 -78.5t-67 -51.5l-43 46q59 32 59 76q0 18 -12.5 27.5t-31.5 9.5q-24 0 -41 -8z" />
<glyph unicode="&#x1ea3;" horiz-adv-x="564" d="M206 -9q-77 0 -122.5 41t-45.5 115q0 49 20 83.5t54 51.5t68.5 24.5t74.5 7.5l119 2v59q0 54 -27.5 74.5t-90.5 20.5q-77 0 -153 -26l-22 79q90 37 192 37q203 0 203 -157v-285q0 -40 57 -42l-4 -80q-14 -2 -25 -2q-47 0 -80.5 16t-40.5 50q-90 -69 -177 -69zM233 74 q65 0 141 49v126l-116 -5q-56 -2 -87 -25t-31 -65q0 -40 25.5 -60t67.5 -20zM370 756q0 -47 -29.5 -80t-65.5 -48l-43 47q18 8 36.5 27t18.5 46q0 20 -12.5 29t-28.5 9q-25 0 -42 -9l-6 68q29 12 67 12q44 0 74.5 -28t30.5 -73z" />
<glyph unicode="&#x1ea4;" horiz-adv-x="684" d="M-4 0l285 707h139l252 -707h-115l-86 247h-267l-97 -247h-111zM235 330h209l-99 305zM201 741l-33 68l180 78l174 -78l-33 -68l-142 56zM478 844l-50 51l138 131l61 -66z" />
<glyph unicode="&#x1ea5;" horiz-adv-x="564" d="M206 -9q-77 0 -122.5 41t-45.5 115q0 49 20 83.5t54 51.5t68.5 24.5t74.5 7.5l119 2v59q0 54 -27.5 74.5t-90.5 20.5q-77 0 -153 -26l-22 79q90 37 192 37q203 0 203 -157v-285q0 -40 57 -42l-4 -80q-14 -2 -25 -2q-47 0 -80.5 16t-40.5 50q-90 -69 -177 -69zM233 74 q65 0 141 49v126l-116 -5q-56 -2 -87 -25t-31 -65q0 -40 25.5 -60t67.5 -20zM401 734l-46 50l137 129l57 -64zM394 620l-124 87l-124 -85l-44 61l168 116l169 -118z" />
<glyph unicode="&#x1ea6;" horiz-adv-x="684" d="M-4 0l285 707h139l252 -707h-115l-86 247h-267l-97 -247h-111zM235 330h209l-99 305zM529 833l-166 121l56 71l158 -135zM197 741l-33 68l180 78l174 -78l-33 -68l-142 56z" />
<glyph unicode="&#x1ea7;" horiz-adv-x="564" d="M206 -9q-77 0 -122.5 41t-45.5 115q0 49 20 83.5t54 51.5t68.5 24.5t74.5 7.5l119 2v59q0 54 -27.5 74.5t-90.5 20.5q-77 0 -153 -26l-22 79q90 37 192 37q203 0 203 -157v-285q0 -40 57 -42l-4 -80q-14 -2 -25 -2q-47 0 -80.5 16t-40.5 50q-90 -69 -177 -69zM233 74 q65 0 141 49v126l-116 -5q-56 -2 -87 -25t-31 -65q0 -40 25.5 -60t67.5 -20zM524 749l-52 -49l-154 148l62 59zM444 681l-45 -61l-124 86l-124 -85l-44 61l168 116z" />
<glyph unicode="&#x1ea8;" horiz-adv-x="684" d="M-4 0l285 707h139l252 -707h-115l-86 247h-267l-97 -247h-111zM235 330h209l-99 305zM197 741l-32 68l179 78l174 -78l-33 -68l-141 56zM543 964q0 -41 -23.5 -70.5t-49.5 -42.5l-52 46q46 25 46 60q0 31 -37 31q-24 0 -44 -10l-13 64q34 17 72 17q43 0 71 -26 q30 -27 30 -69z" />
<glyph unicode="&#x1ea9;" horiz-adv-x="564" d="M206 -9q-77 0 -122.5 41t-45.5 115q0 49 20 83.5t54 51.5t68.5 24.5t74.5 7.5l119 2v59q0 54 -27.5 74.5t-90.5 20.5q-77 0 -153 -26l-22 79q90 37 192 37q203 0 203 -157v-285q0 -40 57 -42l-4 -80q-14 -2 -25 -2q-47 0 -80.5 16t-40.5 50q-90 -69 -177 -69zM233 74 q65 0 141 49v126l-116 -5q-56 -2 -87 -25t-31 -65q0 -40 25.5 -60t67.5 -20zM495 841q0 -39 -23 -68t-52 -45l-52 47q46 25 46 60q0 19 -12.5 28t-28.5 9t-43 -9l-6 66q34 14 67 14q45 0 75 -28q29 -27 29 -74zM409 611l-131 82l-131 -80l-44 61l175 112l172 -114z" />
<glyph unicode="&#x1eaa;" horiz-adv-x="684" d="M-4 0l285 707h139l252 -707h-115l-86 247h-267l-97 -247h-111zM235 330h209l-99 305zM201 742l-33 69l180 73l174 -73l-33 -69l-141 52zM411 900q-24 0 -63 17t-59 17q-39 0 -68 -24l-38 55q49 52 112 52q30 0 67.5 -17t54.5 -17q31 0 72 26l36 -55q-54 -54 -114 -54z " />
<glyph unicode="&#x1eab;" horiz-adv-x="564" d="M206 -9q-77 0 -122.5 41t-45.5 115q0 49 20 83.5t54 51.5t68.5 24.5t74.5 7.5l119 2v59q0 54 -27.5 74.5t-90.5 20.5q-77 0 -153 -26l-22 79q90 37 192 37q203 0 203 -157v-285q0 -40 57 -42l-4 -80q-14 -2 -25 -2q-47 0 -80.5 16t-40.5 50q-90 -69 -177 -69zM233 74 q65 0 141 49v126l-116 -5q-56 -2 -87 -25t-31 -65q0 -40 25.5 -60t67.5 -20zM344 796q-24 0 -63 16.5t-59 16.5q-37 0 -66 -24l-38 53q51 51 111 51q29 0 67 -16.5t54 -16.5q30 0 71 26l35 -53q-53 -53 -112 -53zM414 611l-132 82l-130 -81l-44 62l175 111l172 -113z" />
<glyph unicode="&#x1eac;" horiz-adv-x="684" d="M-4 0l285 707h139l252 -707h-115l-86 247h-267l-97 -247h-111zM235 330h209l-99 305zM289 -208v109h105v-109h-105zM218 748l-36 69l167 82l163 -81l-37 -70l-127 58z" />
<glyph unicode="&#x1ead;" horiz-adv-x="564" d="M206 -9q-77 0 -122.5 41t-45.5 115q0 49 20 83.5t54 51.5t68.5 24.5t74.5 7.5l119 2v59q0 54 -27.5 74.5t-90.5 20.5q-77 0 -153 -26l-22 79q90 37 192 37q203 0 203 -157v-285q0 -40 57 -42l-4 -80q-14 -2 -25 -2q-47 0 -80.5 16t-40.5 50q-90 -69 -177 -69zM233 74 q65 0 141 49v126l-116 -5q-56 -2 -87 -25t-31 -65q0 -40 25.5 -60t67.5 -20zM400 622l-122 85l-129 -85l-45 59l176 118l165 -117zM229 -208v109h105v-109h-105z" />
<glyph unicode="&#x1eae;" horiz-adv-x="684" d="M-4 0l285 707h139l252 -707h-115l-86 247h-267l-97 -247h-111zM235 330h209l-99 305zM345 752q-59 0 -101.5 27.5t-62.5 64.5l55 47q51 -60 113 -60q65 0 110 60l52 -45q-58 -94 -166 -94zM498 963l-171 -92l-42 61l165 105z" />
<glyph unicode="&#x1eaf;" horiz-adv-x="564" d="M206 -9q-77 0 -122.5 41t-45.5 115q0 49 20 83.5t54 51.5t68.5 24.5t74.5 7.5l119 2v59q0 54 -27.5 74.5t-90.5 20.5q-77 0 -153 -26l-22 79q90 37 192 37q203 0 203 -157v-285q0 -40 57 -42l-4 -80q-14 -2 -25 -2q-47 0 -80.5 16t-40.5 50q-90 -69 -177 -69zM233 74 q65 0 141 49v126l-116 -5q-56 -2 -87 -25t-31 -65q0 -40 25.5 -60t67.5 -20zM437 856l-160 -110l-41 55l152 126zM288 624q-59 0 -101.5 27.5t-62.5 65.5l55 49q53 -61 113 -61q64 0 109 60l53 -47q-58 -94 -166 -94z" />
<glyph unicode="&#x1eb0;" horiz-adv-x="684" d="M-4 0l285 707h139l252 -707h-115l-86 247h-267l-97 -247h-111zM235 330h209l-99 305zM347 751q-59 0 -101.5 27.5t-63.5 65.5l56 47q51 -61 112 -61q63 0 110 60l53 -45q-58 -94 -166 -94zM373 871l-167 99l50 74l160 -113z" />
<glyph unicode="&#x1eb1;" horiz-adv-x="564" d="M206 -9q-77 0 -122.5 41t-45.5 115q0 49 20 83.5t54 51.5t68.5 24.5t74.5 7.5l119 2v59q0 54 -27.5 74.5t-90.5 20.5q-77 0 -153 -26l-22 79q90 37 192 37q203 0 203 -157v-285q0 -40 57 -42l-4 -80q-14 -2 -25 -2q-47 0 -80.5 16t-40.5 50q-90 -69 -177 -69zM233 74 q65 0 141 49v126l-116 -5q-56 -2 -87 -25t-31 -65q0 -40 25.5 -60t67.5 -20zM288 736l-138 131l60 62l127 -143zM283 624q-59 0 -101.5 27t-63.5 65l56 49q51 -60 112 -60q65 0 110 60l53 -47q-58 -94 -166 -94z" />
<glyph unicode="&#x1eb2;" horiz-adv-x="684" d="M-4 0l285 707h139l252 -707h-115l-86 247h-267l-97 -247h-111zM235 330h209l-99 305zM433 980q0 -43 -25.5 -72.5t-56.5 -44.5l-47 47q48 30 48 64q0 15 -11.5 23.5t-29.5 8.5q-22 0 -43 -8l-5 67q30 13 68 13q46 0 75 -29q27 -27 27 -69zM340 751q-60 0 -102 27.5 t-63 65.5l55 47q53 -61 113 -61q63 0 110 60l52 -45q-22 -37 -63.5 -65.5t-101.5 -28.5z" />
<glyph unicode="&#x1eb3;" horiz-adv-x="564" d="M206 -9q-77 0 -122.5 41t-45.5 115q0 49 20 83.5t54 51.5t68.5 24.5t74.5 7.5l119 2v59q0 54 -27.5 74.5t-90.5 20.5q-77 0 -153 -26l-22 79q90 37 192 37q203 0 203 -157v-285q0 -40 57 -42l-4 -80q-14 -2 -25 -2q-47 0 -80.5 16t-40.5 50q-90 -69 -177 -69zM233 74 q65 0 141 49v126l-116 -5q-56 -2 -87 -25t-31 -65q0 -40 25.5 -60t67.5 -20zM373 850q0 -72 -77 -113q-4 4 -24.5 22.5t-25.5 24.5l6 4q5 3 7 4.5t7 6t8 7.5t7 7.5t6 9t3.5 10.5t1.5 12q0 34 -41 34q-22 0 -43 -7l-5 66q30 13 68 13q43 0 73 -28q29 -27 29 -73zM288 624 q-59 0 -101 27t-63 65l56 49q51 -60 112 -60q64 0 109 60l53 -47q-22 -37 -63.5 -65.5t-102.5 -28.5z" />
<glyph unicode="&#x1eb4;" horiz-adv-x="684" d="M-4 0l285 707h139l252 -707h-115l-86 247h-267l-97 -247h-111zM235 330h209l-99 305zM348 752q-59 0 -101 27t-63 65l55 47q51 -60 113 -60q65 0 110 60l52 -45q-22 -37 -63.5 -65.5t-102.5 -28.5zM407 908q-24 0 -63 17.5t-59 17.5q-39 0 -68 -24l-38 55q56 52 113 52 q29 0 67 -17t54 -17q28 0 73 25l36 -55q-1 -1 -5.5 -5t-6.5 -6t-7.5 -6.5t-9.5 -7.5t-10.5 -7.5t-12 -7t-13.5 -5.5t-15.5 -5t-16.5 -3t-18 -1z" />
<glyph unicode="&#x1eb5;" horiz-adv-x="564" d="M206 -9q-77 0 -122.5 41t-45.5 115q0 49 20 83.5t54 51.5t68.5 24.5t74.5 7.5l119 2v59q0 54 -27.5 74.5t-90.5 20.5q-77 0 -153 -26l-22 79q90 37 192 37q203 0 203 -157v-285q0 -40 57 -42l-4 -80q-14 -2 -25 -2q-47 0 -80.5 16t-40.5 50q-90 -69 -177 -69zM233 74 q65 0 141 49v126l-116 -5q-56 -2 -87 -25t-31 -65q0 -40 25.5 -60t67.5 -20zM348 781q-24 0 -63 16.5t-59 16.5q-37 0 -66 -24l-38 53l5 5q5 4 6.5 5.5t7 6t9 7t10 6.5t11.5 6.5t13 5.5t15 4.5t16 2.5t18 1q29 0 66.5 -16t54.5 -16q29 0 71 25l35 -53q-52 -52 -112 -52z M294 624q-59 0 -101.5 27.5t-62.5 64.5l55 49q53 -60 113 -60q64 0 109 60l53 -47q-58 -94 -166 -94z" />
<glyph unicode="&#x1eb6;" horiz-adv-x="684" d="M-4 0l285 707h139l252 -707h-115l-86 247h-267l-97 -247h-111zM235 330h209l-99 305zM289 -208v109h105v-109h-105zM345 752q-60 0 -101.5 27t-63.5 65l56 49q53 -60 112 -60q65 0 110 60l53 -47q-58 -94 -166 -94z" />
<glyph unicode="&#x1eb7;" horiz-adv-x="564" d="M206 -9q-77 0 -122.5 41t-45.5 115q0 49 20 83.5t54 51.5t68.5 24.5t74.5 7.5l119 2v59q0 54 -27.5 74.5t-90.5 20.5q-77 0 -153 -26l-22 79q90 37 192 37q203 0 203 -157v-285q0 -40 57 -42l-4 -80q-14 -2 -25 -2q-47 0 -80.5 16t-40.5 50q-90 -69 -177 -69zM233 74 q65 0 141 49v126l-116 -5q-56 -2 -87 -25t-31 -65q0 -40 25.5 -60t67.5 -20zM239 -208v109h105v-109h-105zM284 635q-60 0 -101.5 27t-63.5 65l56 49q53 -60 112 -60q65 0 110 60l53 -47q-58 -94 -166 -94z" />
<glyph unicode="&#x1eb8;" horiz-adv-x="590" d="M270 -208v109h105v-109h-105zM99 0v707h416v-86h-308v-224h286v-84h-286v-226h331v-87h-439z" />
<glyph unicode="&#x1eb9;" horiz-adv-x="558" d="M242 -208v109h105v-109h-105zM316 -12q-131 0 -199.5 62.5t-68.5 212.5q0 153 68 225t179 72q112 0 164.5 -69t52.5 -206v-37h-359q1 -99 48.5 -136t130.5 -37q69 0 150 24l18 -81q-80 -30 -184 -30zM156 321h248q0 160 -115 160q-56 0 -92 -41t-41 -119z" />
<glyph unicode="&#x1eba;" horiz-adv-x="590" d="M99 0v707h416v-86h-308v-224h286v-84h-286v-226h331v-87h-439zM234 963q29 12 67 12q44 0 74 -28.5t30 -73.5t-29 -78.5t-67 -51.5l-43 46q59 32 59 76q0 18 -12.5 27.5t-31.5 9.5q-24 0 -41 -8z" />
<glyph unicode="&#x1ebb;" horiz-adv-x="558" d="M316 -12q-131 0 -199.5 62.5t-68.5 212.5q0 153 68 225t179 72q112 0 164.5 -69t52.5 -206v-37h-359q1 -99 48.5 -136t130.5 -37q69 0 150 24l18 -81q-80 -30 -184 -30zM156 321h248q0 160 -115 160q-56 0 -92 -41t-41 -119zM380 756q0 -47 -29.5 -80t-65.5 -48l-43 47 q18 8 36.5 27t18.5 46q0 20 -12.5 29t-28.5 9q-25 0 -42 -9l-6 68q29 12 67 12q44 0 74.5 -28t30.5 -73z" />
</font>
</defs>
</svg>
