<?xml version="1.0" standalone="no"?>
<!DOCTYPE svg PUBLIC "-//W3C//DTD SVG 1.1//EN" "http://www.w3.org/Graphics/SVG/1.1/DTD/svg11.dtd" >
<svg xmlns="http://www.w3.org/2000/svg">
<metadata></metadata>
<defs>
<font id="fedra_sans_armbold_italic" horiz-adv-x="580" >
<font-face units-per-em="1000" ascent="780" descent="-220" />
<missing-glyph horiz-adv-x="235" />
<glyph unicode="fi" horiz-adv-x="656" d="M41 -220l69 654h-80l12 112h80l2 20q6 57 28 99t56 65t73 34t85 11q21 0 61.5 -3t62.5 -3q55 -1 138 7l12 -114q-76 -24 -164 -24q-19 0 -58 2.5t-68 2.5q-35 0 -52.5 -17t-22.5 -60l-2 -20h343l-57 -546h-152l46 434h-192l-69 -654h-151z" />
<glyph unicode="fl" horiz-adv-x="657" d="M41 -220l69 654h-80l12 112h80l2 20q6 57 28 99t56 65t73 34t85 11q22 0 62 -3t61 -3q66 -1 152 9l-83 -778h-151l67 638q-18 0 -56.5 2.5t-67.5 2.5q-35 0 -52.5 -17t-22.5 -60l-2 -20h116l-11 -112h-117l-69 -654h-151z" />
<glyph unicode="&#x574;&#x576;" horiz-adv-x="1239" d="M157 -14q-63 0 -89.5 24t-26.5 88q0 24 3 54l38 370h152l-37 -342q-1 -8 -1 -21q0 -27 19 -27q30 0 134 45l42 392q10 96 52 145t142 49q90 0 150 -31q-2 -30 -2 -39q0 -22 10.5 -31.5t41.5 -8.5l121 2l-51 -475q-1 -8 -1 -21q0 -27 19 -27q34 0 135 46l36 344h151 l-55 -522h-151l6 59q-108 -73 -180 -73q-63 0 -89.5 24t-26.5 88q0 25 3 55l42 409h-6q-103 0 -119 78h-11q-29 0 -45.5 -15.5t-18.5 -38.5l-62 -586h-151l6 58q-109 -72 -180 -72z" />
<glyph unicode="&#x574;&#x565;" horiz-adv-x="1207" d="M799 -14q-63 0 -89.5 24t-26.5 88q0 24 3 54l49 463q-65 25 -121 25q-29 0 -48 -17t-22 -37l-62 -586h-151l6 58q-109 -72 -180 -72q-63 0 -89.5 24t-26.5 88q0 24 3 54l38 370h152l-37 -342q-1 -8 -1 -21q0 -27 19 -27q30 0 134 45l42 392q10 93 63 143.5t169 50.5 q46 0 114.5 -15.5t113.5 -31.5l45 -16l-20 -177h301l-12 -122h-302l-24 -221q-1 -8 -1 -21q0 -27 19 -27q34 0 135 46l10 102h151l-29 -280h-151l6 59q-108 -73 -180 -73z" />
<glyph unicode="&#x574;&#x56b;" horiz-adv-x="1219" d="M157 -14q-63 0 -89.5 24t-26.5 88q0 24 3 54l38 370h152l-37 -342q-1 -8 -1 -21q0 -27 19 -27q30 0 134 45l42 392q10 93 63 143.5t169 50.5q113 0 272 -63l-25 -237q108 73 180 73q63 0 89.5 -24t26.5 -88q0 -24 -3 -54l-38 -370h-152l37 342q1 8 1 21q0 27 -19 27 q-34 0 -135 -46l-58 -564h-151l86 835q-63 25 -120 25q-29 0 -48 -17t-22 -37l-62 -586h-151l6 58q-109 -72 -180 -72z" />
<glyph unicode="&#x57e;&#x576;" horiz-adv-x="1231" d="M807 -14q-63 0 -89.5 24t-26.5 88q0 25 3 55l41 393h-196l-69 -644h149l-13 -122h-300l31 279q-108 -73 -180 -73q-63 0 -89.5 24t-26.5 88q0 24 3 54l38 370h152l-37 -342q-1 -8 -1 -21q0 -27 19 -27q34 0 135 46l38 368h-78q-61 0 -90.5 32.5t-29.5 87.5q0 31 7 60 l112 26q-6 -51 11.5 -75.5t65.5 -23.5h13l11 100h151l-11 -100l348 2l-51 -475q-1 -8 -1 -21q0 -27 19 -27q34 0 135 46l36 344h151l-55 -522h-151l6 59q-108 -73 -180 -73z" />
<glyph unicode="&#x574;&#x56d;" horiz-adv-x="1493" d="M157 -14q-63 0 -89.5 24t-26.5 88q0 24 3 54l38 370h152l-37 -342q-1 -8 -1 -21q0 -27 19 -27q30 0 134 45l42 392q10 93 63 143.5t169 50.5q50 0 101.5 -10.5t84.5 -21.5t85 -32l-19 -177h271l-37 -342q-1 -8 -1 -21q0 -27 19 -27q34 0 135 46l36 344h151l-55 -522h-151 l6 59q-108 -73 -180 -73q-63 0 -89.5 24t-26.5 88q0 24 3 54l25 249h-119l-66 -621h-151l89 835q-63 25 -120 25q-29 0 -48 -17t-22 -37l-62 -586h-151l6 58q-109 -72 -180 -72z" />
<glyph unicode="&#x531;&#x55b;" horiz-adv-x="805" d="M358 -13q-59 0 -109 12t-92.5 39t-67 76t-24.5 117q0 29 2 44l46 432h156l-44 -426q-2 -22 -2 -32q0 -69 36.5 -100.5t110.5 -31.5q82 0 127.5 44t55.5 142l42 404h152l-43 -407q-10 -93 -45 -155l127 -86l-81 -98l-127 91q-87 -65 -220 -65zM543 725l-65 84l215 181 l74 -97z" />
<glyph unicode="&#x535;&#x55b;" horiz-adv-x="745" d="M358 -13q-59 0 -109 12t-92.5 39t-67 76t-24.5 117q0 29 2 44l46 432h156l-17 -162h474l-13 -123h-474l-14 -141q-2 -22 -2 -32q0 -69 36.5 -100.5t110.5 -31.5q75 0 119 36t59 116l146 -30q-16 -70 -51 -121t-82.5 -78.5t-97 -40t-105.5 -12.5zM538 725l-65 84l215 181 l74 -97z" />
<glyph unicode="&#x537;&#x55b;" horiz-adv-x="592" d="M569 423h-321l-27 -289h122q81 0 125 -48.5t44 -121.5l-122 -55q-5 48 -37 69.5t-78 21.5h-225l74 707h152l-16 -161h323zM394 725l-65 84l215 181l74 -97z" />
<glyph unicode="&#x538;&#x55b;" horiz-adv-x="768" d="M428 720q59 0 109 -12t92.5 -39t67 -76t24.5 -117q0 -29 -2 -44l-2 -15l-158 -6l2 15q2 22 2 32q0 69 -36.5 100.5t-110.5 31.5q-82 0 -127.5 -44t-55.5 -142l-30 -282h517l-15 -122h-666l43 407q9 88 42.5 151.5t83.5 97t104.5 49t115.5 15.5zM543 725l-65 84l215 181 l74 -97z" />
<glyph unicode="&#x53b;&#x55b;" horiz-adv-x="736" d="M282 707l-23 -215q74 56 169 56q124 0 201.5 -56.5t77.5 -181.5q0 -21 -3 -45l-13 -130h-158l13 124q2 22 2 30q0 130 -143 130q-91 0 -160 -55l-38 -364h-158l75 707h158zM546 725l-65 84l215 181l74 -97z" />
<glyph unicode="&#x548;&#x55b;" horiz-adv-x="780" d="M428 720q59 0 109 -12t92.5 -39t67 -76t24.5 -117q0 -29 -2 -44l-46 -432h-156l44 426q2 22 2 32q0 69 -36.5 100.5t-110.5 31.5q-82 0 -127.5 -44t-55.5 -142l-42 -404h-152l43 407q9 88 42.5 151.5t83.5 97t104.5 49t115.5 15.5zM543 725l-65 84l215 181l74 -97z" />
<glyph unicode="&#x552;&#x55b;" horiz-adv-x="654" d="M124 707h158l-18 -169q49 17 97 17q62 0 100.5 -16.5t54 -44.5t21 -55.5t9 -61.5t10.5 -50q12 -30 39.5 -42.5t75.5 -12.5l-29 -127q-37 -7 -65 -7q-88 0 -129 53q-23 31 -32 78t-9.5 81t-19 59t-61.5 25q-41 0 -74 -9l-45 -425h-157zM471 725l-65 84l215 181l74 -97z " />
<glyph unicode="&#x555;&#x55b;" horiz-adv-x="821" d="M368 -12q-153 0 -241 80.5t-88 228.5q0 197 113 309t310 112q154 0 241 -78.5t87 -227.5q0 -200 -111.5 -312t-310.5 -112zM384 111q123 0 185 79t62 205q0 94 -48 147t-142 53q-120 0 -182.5 -78.5t-62.5 -202.5q0 -95 47.5 -149t140.5 -54zM619 725l-65 84l215 181 l74 -97z" />
<glyph unicode="&#x561;&#x55b;" horiz-adv-x="884" d="M157 -14q-63 0 -89.5 24t-26.5 88q0 24 3 54l38 370h152l-37 -342q-1 -8 -1 -21q0 -27 19 -27q33 0 134 46l36 344h152l-37 -342q-1 -8 -1 -21q0 -27 19 -27q34 0 135 46l36 344h151l-55 -522h-151l6 59q-108 -73 -180 -73q-54 0 -80.5 17t-33.5 60q-1 -1 -4 -2.5 t-4 -2.5q-115 -72 -181 -72zM656 725l-65 84l215 181l74 -97z" />
<glyph unicode="&#x565;&#x55b;" horiz-adv-x="565" d="M523 401h-302l-24 -221q-1 -8 -1 -21q0 -27 19 -27q34 0 135 46l10 102h151l-29 -280h-151l6 59q-108 -73 -180 -73q-63 0 -89.5 24t-26.5 88q0 24 3 54l63 601h152l-25 -230h301zM351 725l-65 84l215 181l74 -97z" />
<glyph unicode="&#x567;&#x55b;" horiz-adv-x="558" d="M543 401h-321l-27 -279h129q91 0 125 -33t29 -121l-138 -42q0 21 -1 31.5t-7 22t-20.5 16t-39.5 4.5h-240l79 754h149l-25 -232h321zM370 725l-65 84l215 181l74 -97z" />
<glyph unicode="&#x568;&#x55b;" horiz-adv-x="581" d="M10 -220l77 742h151l-6 -59q108 73 180 73q63 0 89.5 -24t26.5 -88q0 -24 -3 -54l-38 -370h-152l37 342q1 8 1 21q0 27 -19 27q-34 0 -135 -46l-46 -442h316l-13 -122h-466zM354 725l-65 84l215 181l74 -97z" />
<glyph unicode="&#x56b;&#x55b;" horiz-adv-x="581" d="M10 -220l101 973h151l-30 -290q108 73 180 73q63 0 89.5 -24t26.5 -88q0 -24 -3 -54l-38 -370h-152l37 342q1 8 1 21q0 27 -19 27q-34 0 -135 -46l-58 -564h-151zM354 725l-65 84l215 181l74 -97z" />
<glyph unicode="&#x578;&#x55b;" horiz-adv-x="582" d="M33 0l55 522h151l-6 -59q108 73 180 73q63 0 89.5 -24t26.5 -88q0 -24 -3 -54l-38 -370h-152l37 342q1 8 1 21q0 27 -19 27q-34 0 -135 -46l-36 -344h-151zM356 725l-65 84l215 181l74 -97z" />
<glyph unicode="&#x582;&#x55b;" horiz-adv-x="347" d="M33 0l55 522h151l-42 -400h151l-12 -122h-303zM204 725l-65 84l215 181l74 -97z" />
<glyph unicode="&#x585;&#x55b;" horiz-adv-x="562" d="M229 -12q-97 0 -151.5 56t-54.5 145q0 151 80.5 250t219.5 99q98 0 151.5 -61.5t53.5 -146.5q0 -42 -8 -85.5t-29.5 -90.5t-54 -83t-86 -59.5t-121.5 -23.5zM252 112q47 0 85 57t38 160q0 45 -21 67t-57 22q-46 0 -82.5 -62.5t-36.5 -161.5q0 -37 19 -59.5t55 -22.5z M365 725l-65 84l215 181l74 -97z" />
<glyph unicode="&#xfb14;&#x55b;" horiz-adv-x="1207" d="M799 -14q-63 0 -89.5 24t-26.5 88q0 24 3 54l49 463q-65 25 -121 25q-29 0 -48 -17t-22 -37l-62 -586h-151l6 58q-109 -72 -180 -72q-63 0 -89.5 24t-26.5 88q0 24 3 54l38 370h152l-37 -342q-1 -8 -1 -21q0 -27 19 -27q30 0 134 45l42 392q10 93 63 143.5t169 50.5 q46 0 114.5 -15.5t113.5 -31.5l45 -16l-20 -177h301l-12 -122h-302l-24 -221q-1 -8 -1 -21q0 -27 19 -27q34 0 135 46l10 102h151l-29 -280h-151l6 59q-108 -73 -180 -73zM992 725l-65 84l215 181l74 -97z" />
<glyph unicode="&#xfb15;&#x55b;" horiz-adv-x="1219" d="M157 -14q-63 0 -89.5 24t-26.5 88q0 24 3 54l38 370h152l-37 -342q-1 -8 -1 -21q0 -27 19 -27q30 0 134 45l42 392q10 93 63 143.5t169 50.5q113 0 272 -63l-25 -237q108 73 180 73q63 0 89.5 -24t26.5 -88q0 -24 -3 -54l-38 -370h-152l37 342q1 8 1 21q0 27 -19 27 q-34 0 -135 -46l-58 -564h-151l86 835q-63 25 -120 25q-29 0 -48 -17t-22 -37l-62 -586h-151l6 58q-109 -72 -180 -72zM992 725l-65 84l215 181l74 -97z" />
<glyph unicode="&#x531;&#x55c;" horiz-adv-x="805" d="M358 -13q-59 0 -109 12t-92.5 39t-67 76t-24.5 117q0 29 2 44l46 432h156l-44 -426q-2 -22 -2 -32q0 -69 36.5 -100.5t110.5 -31.5q82 0 127.5 44t55.5 142l42 404h152l-43 -407q-10 -93 -45 -155l127 -86l-81 -98l-127 91q-87 -65 -220 -65zM711 828q-18 -6 -33 -6 q-14 0 -35.5 4.5t-33.5 6.5t-35 -4q-28 -11 -54 -61l-64 37q30 100 102 127q21 8 44 8q11 0 49 -6t44 1q14 5 27 15.5t19 17.5t26 31l56 -41q-11 -38 -38.5 -75.5t-73.5 -54.5z" />
<glyph unicode="&#x535;&#x55c;" horiz-adv-x="745" d="M358 -13q-59 0 -109 12t-92.5 39t-67 76t-24.5 117q0 29 2 44l46 432h156l-17 -162h474l-13 -123h-474l-14 -141q-2 -22 -2 -32q0 -69 36.5 -100.5t110.5 -31.5q75 0 119 36t59 116l146 -30q-16 -70 -51 -121t-82.5 -78.5t-97 -40t-105.5 -12.5zM708 828q-18 -6 -33 -6 q-14 0 -35.5 4.5t-33.5 6.5t-35 -4q-28 -11 -54 -61l-64 37q30 100 102 127q21 8 44 8q11 0 49 -6t44 1q14 5 27 15.5t19 17.5t26 31l56 -41q-11 -38 -38.5 -75.5t-73.5 -54.5z" />
<glyph unicode="&#x537;&#x55c;" horiz-adv-x="592" d="M569 423h-321l-27 -289h122q81 0 125 -48.5t44 -121.5l-122 -55q-5 48 -37 69.5t-78 21.5h-225l74 707h152l-16 -161h323zM563 828q-18 -6 -33 -6q-14 0 -35.5 4.5t-33.5 6.5t-35 -4q-28 -11 -54 -61l-64 37q30 100 102 127q21 8 44 8q11 0 49 -6t44 1q14 5 27 15.5 t19 17.5t26 31l56 -41q-11 -38 -38.5 -75.5t-73.5 -54.5z" />
<glyph unicode="&#x538;&#x55c;" horiz-adv-x="768" d="M428 720q59 0 109 -12t92.5 -39t67 -76t24.5 -117q0 -29 -2 -44l-2 -15l-158 -6l2 15q2 22 2 32q0 69 -36.5 100.5t-110.5 31.5q-82 0 -127.5 -44t-55.5 -142l-30 -282h517l-15 -122h-666l43 407q9 88 42.5 151.5t83.5 97t104.5 49t115.5 15.5zM713 828q-18 -6 -33 -6 q-14 0 -35.5 4.5t-33.5 6.5t-35 -4q-28 -11 -54 -61l-64 37q30 100 102 127q21 8 44 8q11 0 49 -6t44 1q14 5 27 15.5t19 17.5t26 31l56 -41q-11 -38 -38.5 -75.5t-73.5 -54.5z" />
<glyph unicode="&#x53b;&#x55c;" horiz-adv-x="736" d="M282 707l-23 -215q74 56 169 56q124 0 201.5 -56.5t77.5 -181.5q0 -21 -3 -45l-13 -130h-158l13 124q2 22 2 30q0 130 -143 130q-91 0 -160 -55l-38 -364h-158l75 707h158zM714 828q-18 -6 -33 -6q-14 0 -35.5 4.5t-33.5 6.5t-35 -4q-28 -11 -54 -61l-64 37 q30 100 102 127q21 8 44 8q11 0 49 -6t44 1q14 5 27 15.5t19 17.5t26 31l56 -41q-11 -38 -38.5 -75.5t-73.5 -54.5z" />
<glyph unicode="&#x548;&#x55c;" horiz-adv-x="780" d="M428 720q59 0 109 -12t92.5 -39t67 -76t24.5 -117q0 -29 -2 -44l-46 -432h-156l44 426q2 22 2 32q0 69 -36.5 100.5t-110.5 31.5q-82 0 -127.5 -44t-55.5 -142l-42 -404h-152l43 407q9 88 42.5 151.5t83.5 97t104.5 49t115.5 15.5zM711 828q-18 -6 -33 -6 q-14 0 -35.5 4.5t-33.5 6.5t-35 -4q-28 -11 -54 -61l-64 37q30 100 102 127q21 8 44 8q11 0 49 -6t44 1q14 5 27 15.5t19 17.5t26 31l56 -41q-11 -38 -38.5 -75.5t-73.5 -54.5z" />
<glyph unicode="&#x552;&#x55c;" horiz-adv-x="654" d="M124 707h158l-18 -169q49 17 97 17q62 0 100.5 -16.5t54 -44.5t21 -55.5t9 -61.5t10.5 -50q12 -30 39.5 -42.5t75.5 -12.5l-29 -127q-37 -7 -65 -7q-88 0 -129 53q-23 31 -32 78t-9.5 81t-19 59t-61.5 25q-41 0 -74 -9l-45 -425h-157zM698 828q-18 -6 -33 -6 q-14 0 -35.5 4.5t-33.5 6.5t-35 -4q-28 -11 -54 -61l-64 37q30 100 102 127q21 8 44 8q11 0 49 -6t44 1q14 5 27 15.5t19 17.5t26 31l56 -41q-11 -38 -38.5 -75.5t-73.5 -54.5z" />
<glyph unicode="&#x555;&#x55c;" horiz-adv-x="821" d="M368 -12q-153 0 -241 80.5t-88 228.5q0 197 113 309t310 112q154 0 241 -78.5t87 -227.5q0 -200 -111.5 -312t-310.5 -112zM384 111q123 0 185 79t62 205q0 94 -48 147t-142 53q-120 0 -182.5 -78.5t-62.5 -202.5q0 -95 47.5 -149t140.5 -54zM789 828q-18 -6 -33 -6 q-14 0 -35.5 4.5t-33.5 6.5t-35 -4q-28 -11 -54 -61l-64 37q30 100 102 127q21 8 44 8q11 0 49 -6t44 1q14 5 27 15.5t19 17.5t26 31l56 -41q-11 -38 -38.5 -75.5t-73.5 -54.5z" />
<glyph unicode="&#x561;&#x55c;" horiz-adv-x="884" d="M157 -14q-63 0 -89.5 24t-26.5 88q0 24 3 54l38 370h152l-37 -342q-1 -8 -1 -21q0 -27 19 -27q33 0 134 46l36 344h152l-37 -342q-1 -8 -1 -21q0 -27 19 -27q34 0 135 46l36 344h151l-55 -522h-151l6 59q-108 -73 -180 -73q-54 0 -80.5 17t-33.5 60q-1 -1 -4 -2.5 t-4 -2.5q-115 -72 -181 -72zM823 828q-18 -6 -33 -6q-14 0 -35.5 4.5t-33.5 6.5t-35 -4q-28 -11 -54 -61l-64 37q30 100 102 127q21 8 44 8q11 0 49 -6t44 1q14 5 27 15.5t19 17.5t26 31l56 -41q-11 -38 -38.5 -75.5t-73.5 -54.5z" />
<glyph unicode="&#x565;&#x55c;" horiz-adv-x="565" d="M523 401h-302l-24 -221q-1 -8 -1 -21q0 -27 19 -27q34 0 135 46l10 102h151l-29 -280h-151l6 59q-108 -73 -180 -73q-63 0 -89.5 24t-26.5 88q0 24 3 54l63 601h152l-25 -230h301zM521 828q-18 -6 -33 -6q-14 0 -35.5 4.5t-33.5 6.5t-35 -4q-28 -11 -54 -61l-64 37 q30 100 102 127q21 8 44 8q11 0 49 -6t44 1q14 5 27 15.5t19 17.5t26 31l56 -41q-11 -38 -38.5 -75.5t-73.5 -54.5z" />
<glyph unicode="&#x567;&#x55c;" horiz-adv-x="558" d="M543 401h-321l-27 -279h129q91 0 125 -33t29 -121l-138 -42q0 21 -1 31.5t-7 22t-20.5 16t-39.5 4.5h-240l79 754h149l-25 -232h321zM541 828q-18 -6 -33 -6q-14 0 -35.5 4.5t-33.5 6.5t-35 -4q-28 -11 -54 -61l-64 37q30 100 102 127q21 8 44 8q11 0 49 -6t44 1 q14 5 27 15.5t19 17.5t26 31l56 -41q-11 -38 -38.5 -75.5t-73.5 -54.5z" />
<glyph unicode="&#x568;&#x55c;" horiz-adv-x="581" d="M10 -220l77 742h151l-6 -59q108 73 180 73q63 0 89.5 -24t26.5 -88q0 -24 -3 -54l-38 -370h-152l37 342q1 8 1 21q0 27 -19 27q-34 0 -135 -46l-46 -442h316l-13 -122h-466zM525 828q-18 -6 -33 -6q-14 0 -35.5 4.5t-33.5 6.5t-35 -4q-28 -11 -54 -61l-64 37 q30 100 102 127q21 8 44 8q11 0 49 -6t44 1q14 5 27 15.5t19 17.5t26 31l56 -41q-11 -38 -38.5 -75.5t-73.5 -54.5z" />
<glyph unicode="&#x56b;&#x55c;" horiz-adv-x="581" d="M10 -220l101 973h151l-30 -290q108 73 180 73q63 0 89.5 -24t26.5 -88q0 -24 -3 -54l-38 -370h-152l37 342q1 8 1 21q0 27 -19 27q-34 0 -135 -46l-58 -564h-151zM524 828q-18 -6 -33 -6q-14 0 -35.5 4.5t-33.5 6.5t-35 -4q-28 -11 -54 -61l-64 37q30 100 102 127 q21 8 44 8q11 0 49 -6t44 1q14 5 27 15.5t19 17.5t26 31l56 -41q-11 -38 -38.5 -75.5t-73.5 -54.5z" />
<glyph unicode="&#x578;&#x55c;" horiz-adv-x="582" d="M33 0l55 522h151l-6 -59q108 73 180 73q63 0 89.5 -24t26.5 -88q0 -24 -3 -54l-38 -370h-152l37 342q1 8 1 21q0 27 -19 27q-34 0 -135 -46l-36 -344h-151zM526 828q-18 -6 -33 -6q-14 0 -35.5 4.5t-33.5 6.5t-35 -4q-28 -11 -54 -61l-64 37q30 100 102 127q21 8 44 8 q11 0 49 -6t44 1q14 5 27 15.5t19 17.5t26 31l56 -41q-11 -38 -38.5 -75.5t-73.5 -54.5z" />
<glyph unicode="&#x582;&#x55c;" horiz-adv-x="347" d="M33 0l55 522h151l-42 -400h151l-12 -122h-303zM374 828q-18 -6 -33 -6q-14 0 -35.5 4.5t-33.5 6.5t-35 -4q-28 -11 -54 -61l-64 37q30 100 102 127q21 8 44 8q11 0 49 -6t44 1q14 5 27 15.5t19 17.5t26 31l56 -41q-11 -38 -38.5 -75.5t-73.5 -54.5z" />
<glyph unicode="&#x585;&#x55c;" horiz-adv-x="562" d="M229 -12q-97 0 -151.5 56t-54.5 145q0 151 80.5 250t219.5 99q98 0 151.5 -61.5t53.5 -146.5q0 -42 -8 -85.5t-29.5 -90.5t-54 -83t-86 -59.5t-121.5 -23.5zM252 112q47 0 85 57t38 160q0 45 -21 67t-57 22q-46 0 -82.5 -62.5t-36.5 -161.5q0 -37 19 -59.5t55 -22.5z M535 828q-18 -6 -33 -6q-14 0 -35.5 4.5t-33.5 6.5t-35 -4q-28 -11 -54 -61l-64 37q30 100 102 127q21 8 44 8q11 0 49 -6t44 1q14 5 27 15.5t19 17.5t26 31l56 -41q-11 -38 -38.5 -75.5t-73.5 -54.5z" />
<glyph unicode="&#xfb14;&#x55c;" horiz-adv-x="1207" d="M799 -14q-63 0 -89.5 24t-26.5 88q0 24 3 54l49 463q-65 25 -121 25q-29 0 -48 -17t-22 -37l-62 -586h-151l6 58q-109 -72 -180 -72q-63 0 -89.5 24t-26.5 88q0 24 3 54l38 370h152l-37 -342q-1 -8 -1 -21q0 -27 19 -27q30 0 134 45l42 392q10 93 63 143.5t169 50.5 q46 0 114.5 -15.5t113.5 -31.5l45 -16l-20 -177h301l-12 -122h-302l-24 -221q-1 -8 -1 -21q0 -27 19 -27q34 0 135 46l10 102h151l-29 -280h-151l6 59q-108 -73 -180 -73zM1163 828q-18 -6 -33 -6q-14 0 -35.5 4.5t-33.5 6.5t-35 -4q-28 -11 -54 -61l-64 37q30 100 102 127 q21 8 44 8q11 0 49 -6t44 1q14 5 27 15.5t19 17.5t26 31l56 -41q-11 -38 -38.5 -75.5t-73.5 -54.5z" />
<glyph unicode="&#xfb15;&#x55c;" horiz-adv-x="1219" d="M157 -14q-63 0 -89.5 24t-26.5 88q0 24 3 54l38 370h152l-37 -342q-1 -8 -1 -21q0 -27 19 -27q30 0 134 45l42 392q10 93 63 143.5t169 50.5q113 0 272 -63l-25 -237q108 73 180 73q63 0 89.5 -24t26.5 -88q0 -24 -3 -54l-38 -370h-152l37 342q1 8 1 21q0 27 -19 27 q-34 0 -135 -46l-58 -564h-151l86 835q-63 25 -120 25q-29 0 -48 -17t-22 -37l-62 -586h-151l6 58q-109 -72 -180 -72zM1163 828q-18 -6 -33 -6q-14 0 -35.5 4.5t-33.5 6.5t-35 -4q-28 -11 -54 -61l-64 37q30 100 102 127q21 8 44 8q11 0 49 -6t44 1q14 5 27 15.5t19 17.5 t26 31l56 -41q-11 -38 -38.5 -75.5t-73.5 -54.5z" />
<glyph unicode="&#x531;&#x55e;" horiz-adv-x="805" d="M358 -13q-59 0 -109 12t-92.5 39t-67 76t-24.5 117q0 29 2 44l46 432h156l-44 -426q-2 -22 -2 -32q0 -69 36.5 -100.5t110.5 -31.5q82 0 127.5 44t55.5 142l42 404h152l-43 -407q-10 -93 -45 -155l127 -86l-81 -98l-127 91q-87 -65 -220 -65zM690 865q-37 0 -60.5 -22.5 t-59.5 -78.5q-3 -5 -5.5 -8.5t-4.5 -7.5l-59 56q50 78 98.5 117t105.5 39q69 0 99.5 -32.5t25.5 -79.5q-5 -42 -41.5 -71t-90.5 -30l-4 52q35 4 38 30q2 16 -9 26t-33 10z" />
<glyph unicode="&#x535;&#x55e;" horiz-adv-x="745" d="M358 -13q-59 0 -109 12t-92.5 39t-67 76t-24.5 117q0 29 2 44l46 432h156l-17 -162h474l-13 -123h-474l-14 -141q-2 -22 -2 -32q0 -69 36.5 -100.5t110.5 -31.5q75 0 119 36t59 116l146 -30q-16 -70 -51 -121t-82.5 -78.5t-97 -40t-105.5 -12.5zM667 865 q-37 0 -60.5 -22.5t-59.5 -78.5q-3 -5 -5.5 -8.5t-4.5 -7.5l-59 56q50 78 98.5 117t105.5 39q69 0 99.5 -32.5t25.5 -79.5q-5 -42 -41.5 -71t-90.5 -30l-4 52q35 4 38 30q2 16 -9 26t-33 10z" />
<glyph unicode="&#x537;&#x55e;" horiz-adv-x="592" d="M569 423h-321l-27 -289h122q81 0 125 -48.5t44 -121.5l-122 -55q-5 48 -37 69.5t-78 21.5h-225l74 707h152l-16 -161h323zM565 865q-37 0 -60.5 -22.5t-59.5 -78.5q-3 -5 -5.5 -8.5t-4.5 -7.5l-59 56q50 78 98.5 117t105.5 39q69 0 99.5 -32.5t25.5 -79.5 q-5 -42 -41.5 -71t-90.5 -30l-4 52q35 4 38 30q2 16 -9 26t-33 10z" />
<glyph unicode="&#x538;&#x55e;" horiz-adv-x="768" d="M428 720q59 0 109 -12t92.5 -39t67 -76t24.5 -117q0 -29 -2 -44l-2 -15l-158 -6l2 15q2 22 2 32q0 69 -36.5 100.5t-110.5 31.5q-82 0 -127.5 -44t-55.5 -142l-30 -282h517l-15 -122h-666l43 407q9 88 42.5 151.5t83.5 97t104.5 49t115.5 15.5zM704 865 q-37 0 -60.5 -22.5t-59.5 -78.5q-3 -5 -5.5 -8.5t-4.5 -7.5l-59 56q50 78 98.5 117t105.5 39q69 0 99.5 -32.5t25.5 -79.5q-5 -42 -41.5 -71t-90.5 -30l-4 52q35 4 38 30q2 16 -9 26t-33 10z" />
<glyph unicode="&#x53b;&#x55e;" horiz-adv-x="736" d="M282 707l-23 -215q74 56 169 56q124 0 201.5 -56.5t77.5 -181.5q0 -21 -3 -45l-13 -130h-158l13 124q2 22 2 30q0 130 -143 130q-91 0 -160 -55l-38 -364h-158l75 707h158zM695 865q-37 0 -60.5 -22.5t-59.5 -78.5q-3 -5 -5.5 -8.5t-4.5 -7.5l-59 56q50 78 98.5 117 t105.5 39q69 0 99.5 -32.5t25.5 -79.5q-5 -42 -41.5 -71t-90.5 -30l-4 52q35 4 38 30q2 16 -9 26t-33 10z" />
<glyph unicode="&#x548;&#x55e;" horiz-adv-x="780" d="M428 720q59 0 109 -12t92.5 -39t67 -76t24.5 -117q0 -29 -2 -44l-46 -432h-156l44 426q2 22 2 32q0 69 -36.5 100.5t-110.5 31.5q-82 0 -127.5 -44t-55.5 -142l-42 -404h-152l43 407q9 88 42.5 151.5t83.5 97t104.5 49t115.5 15.5zM733 865q-37 0 -60.5 -22.5 t-59.5 -78.5q-3 -5 -5.5 -8.5t-4.5 -7.5l-59 56q50 78 98.5 117t105.5 39q69 0 99.5 -32.5t25.5 -79.5q-5 -42 -41.5 -71t-90.5 -30l-4 52q35 4 38 30q2 16 -9 26t-33 10z" />
<glyph unicode="&#x552;&#x55e;" horiz-adv-x="654" d="M124 707h158l-18 -169q49 17 97 17q62 0 100.5 -16.5t54 -44.5t21 -55.5t9 -61.5t10.5 -50q12 -30 39.5 -42.5t75.5 -12.5l-29 -127q-37 -7 -65 -7q-88 0 -129 53q-23 31 -32 78t-9.5 81t-19 59t-61.5 25q-41 0 -74 -9l-45 -425h-157zM609 865q-37 0 -60.5 -22.5 t-59.5 -78.5q-3 -5 -5.5 -8.5t-4.5 -7.5l-59 56q50 78 98.5 117t105.5 39q69 0 99.5 -32.5t25.5 -79.5q-5 -42 -41.5 -71t-90.5 -30l-4 52q35 4 38 30q2 16 -9 26t-33 10z" />
<glyph unicode="&#x555;&#x55e;" horiz-adv-x="821" d="M368 -12q-153 0 -241 80.5t-88 228.5q0 197 113 309t310 112q154 0 241 -78.5t87 -227.5q0 -200 -111.5 -312t-310.5 -112zM384 111q123 0 185 79t62 205q0 94 -48 147t-142 53q-120 0 -182.5 -78.5t-62.5 -202.5q0 -95 47.5 -149t140.5 -54zM781 865q-37 0 -60.5 -22.5 t-59.5 -78.5q-3 -5 -5.5 -8.5t-4.5 -7.5l-59 56q50 78 98.5 117t105.5 39q69 0 99.5 -32.5t25.5 -79.5q-5 -42 -41.5 -71t-90.5 -30l-4 52q35 4 38 30q2 16 -9 26t-33 10z" />
<glyph unicode="&#x561;&#x55e;" horiz-adv-x="884" d="M157 -14q-63 0 -89.5 24t-26.5 88q0 24 3 54l38 370h152l-37 -342q-1 -8 -1 -21q0 -27 19 -27q33 0 134 46l36 344h152l-37 -342q-1 -8 -1 -21q0 -27 19 -27q34 0 135 46l36 344h151l-55 -522h-151l6 59q-108 -73 -180 -73q-54 0 -80.5 17t-33.5 60q-1 -1 -4 -2.5 t-4 -2.5q-115 -72 -181 -72zM814 865q-37 0 -60.5 -22.5t-59.5 -78.5q-3 -5 -5.5 -8.5t-4.5 -7.5l-59 56q50 78 98.5 117t105.5 39q69 0 99.5 -32.5t25.5 -79.5q-5 -42 -41.5 -71t-90.5 -30l-4 52q35 4 38 30q2 16 -9 26t-33 10z" />
<glyph unicode="&#x565;&#x55e;" horiz-adv-x="565" d="M523 401h-302l-24 -221q-1 -8 -1 -21q0 -27 19 -27q34 0 135 46l10 102h151l-29 -280h-151l6 59q-108 -73 -180 -73q-63 0 -89.5 24t-26.5 88q0 24 3 54l63 601h152l-25 -230h301zM551 865q-37 0 -60.5 -22.5t-59.5 -78.5q-3 -5 -5.5 -8.5t-4.5 -7.5l-59 56 q50 78 98.5 117t105.5 39q69 0 99.5 -32.5t25.5 -79.5q-5 -42 -41.5 -71t-90.5 -30l-4 52q35 4 38 30q2 16 -9 26t-33 10z" />
<glyph unicode="&#x567;&#x55e;" horiz-adv-x="558" d="M543 401h-321l-27 -279h129q91 0 125 -33t29 -121l-138 -42q0 21 -1 31.5t-7 22t-20.5 16t-39.5 4.5h-240l79 754h149l-25 -232h321zM541 865q-37 0 -60.5 -22.5t-59.5 -78.5q-3 -5 -5.5 -8.5t-4.5 -7.5l-59 56q50 78 98.5 117t105.5 39q69 0 99.5 -32.5t25.5 -79.5 q-5 -42 -41.5 -71t-90.5 -30l-4 52q35 4 38 30q2 16 -9 26t-33 10z" />
<glyph unicode="&#x568;&#x55e;" horiz-adv-x="581" d="M10 -220l77 742h151l-6 -59q108 73 180 73q63 0 89.5 -24t26.5 -88q0 -24 -3 -54l-38 -370h-152l37 342q1 8 1 21q0 27 -19 27q-34 0 -135 -46l-46 -442h316l-13 -122h-466zM527 865q-37 0 -60.5 -22.5t-59.5 -78.5q-3 -5 -5.5 -8.5t-4.5 -7.5l-59 56q50 78 98.5 117 t105.5 39q69 0 99.5 -32.5t25.5 -79.5q-5 -42 -41.5 -71t-90.5 -30l-4 52q35 4 38 30q2 16 -9 26t-33 10z" />
<glyph unicode="&#x56b;&#x55e;" horiz-adv-x="581" d="M10 -220l101 973h151l-30 -290q108 73 180 73q63 0 89.5 -24t26.5 -88q0 -24 -3 -54l-38 -370h-152l37 342q1 8 1 21q0 27 -19 27q-34 0 -135 -46l-58 -564h-151zM535 865q-37 0 -60.5 -22.5t-59.5 -78.5q-3 -5 -5.5 -8.5t-4.5 -7.5l-59 56q50 78 98.5 117t105.5 39 q69 0 99.5 -32.5t25.5 -79.5q-5 -42 -41.5 -71t-90.5 -30l-4 52q35 4 38 30q2 16 -9 26t-33 10z" />
<glyph unicode="&#x578;&#x55e;" horiz-adv-x="582" d="M33 0l55 522h151l-6 -59q108 73 180 73q63 0 89.5 -24t26.5 -88q0 -24 -3 -54l-38 -370h-152l37 342q1 8 1 21q0 27 -19 27q-34 0 -135 -46l-36 -344h-151zM538 865q-37 0 -60.5 -22.5t-59.5 -78.5q-3 -5 -5.5 -8.5t-4.5 -7.5l-59 56q50 78 98.5 117t105.5 39 q69 0 99.5 -32.5t25.5 -79.5q-5 -42 -41.5 -71t-90.5 -30l-4 52q35 4 38 30q2 16 -9 26t-33 10z" />
<glyph unicode="&#x582;&#x55e;" horiz-adv-x="347" d="M33 0l55 522h151l-42 -400h151l-12 -122h-303zM355 865q-37 0 -60.5 -22.5t-59.5 -78.5q-3 -5 -5.5 -8.5t-4.5 -7.5l-59 56q50 78 98.5 117t105.5 39q69 0 99.5 -32.5t25.5 -79.5q-5 -42 -41.5 -71t-90.5 -30l-4 52q35 4 38 30q2 16 -9 26t-33 10z" />
<glyph unicode="&#x585;&#x55e;" horiz-adv-x="562" d="M229 -12q-97 0 -151.5 56t-54.5 145q0 151 80.5 250t219.5 99q98 0 151.5 -61.5t53.5 -146.5q0 -42 -8 -85.5t-29.5 -90.5t-54 -83t-86 -59.5t-121.5 -23.5zM252 112q47 0 85 57t38 160q0 45 -21 67t-57 22q-46 0 -82.5 -62.5t-36.5 -161.5q0 -37 19 -59.5t55 -22.5z M525 865q-37 0 -60.5 -22.5t-59.5 -78.5q-3 -5 -5.5 -8.5t-4.5 -7.5l-59 56q50 78 98.5 117t105.5 39q69 0 99.5 -32.5t25.5 -79.5q-5 -42 -41.5 -71t-90.5 -30l-4 52q35 4 38 30q2 16 -9 26t-33 10z" />
<glyph unicode="&#xfb14;&#x55e;" horiz-adv-x="1207" d="M799 -14q-63 0 -89.5 24t-26.5 88q0 24 3 54l49 463q-65 25 -121 25q-29 0 -48 -17t-22 -37l-62 -586h-151l6 58q-109 -72 -180 -72q-63 0 -89.5 24t-26.5 88q0 24 3 54l38 370h152l-37 -342q-1 -8 -1 -21q0 -27 19 -27q30 0 134 45l42 392q10 93 63 143.5t169 50.5 q46 0 114.5 -15.5t113.5 -31.5l45 -16l-20 -177h301l-12 -122h-302l-24 -221q-1 -8 -1 -21q0 -27 19 -27q34 0 135 46l10 102h151l-29 -280h-151l6 59q-108 -73 -180 -73zM1141 865q-37 0 -60.5 -22.5t-59.5 -78.5q-3 -5 -5.5 -8.5t-4.5 -7.5l-59 56q50 78 98.5 117 t105.5 39q69 0 99.5 -32.5t25.5 -79.5q-5 -42 -41.5 -71t-90.5 -30l-4 52q35 4 38 30q2 16 -9 26t-33 10z" />
<glyph unicode="&#xfb15;&#x55e;" horiz-adv-x="1219" d="M157 -14q-63 0 -89.5 24t-26.5 88q0 24 3 54l38 370h152l-37 -342q-1 -8 -1 -21q0 -27 19 -27q30 0 134 45l42 392q10 93 63 143.5t169 50.5q113 0 272 -63l-25 -237q108 73 180 73q63 0 89.5 -24t26.5 -88q0 -24 -3 -54l-38 -370h-152l37 342q1 8 1 21q0 27 -19 27 q-34 0 -135 -46l-58 -564h-151l86 835q-63 25 -120 25q-29 0 -48 -17t-22 -37l-62 -586h-151l6 58q-109 -72 -180 -72zM1193 865q-37 0 -60.5 -22.5t-59.5 -78.5q-3 -5 -5.5 -8.5t-4.5 -7.5l-59 56q50 78 98.5 117t105.5 39q69 0 99.5 -32.5t25.5 -79.5q-5 -42 -41.5 -71 t-90.5 -30l-4 52q35 4 38 30q2 16 -9 26t-33 10z" />
<glyph horiz-adv-x="0" />
<glyph unicode=" "  horiz-adv-x="235" />
<glyph unicode="&#x09;" horiz-adv-x="235" />
<glyph unicode="&#xa0;" horiz-adv-x="235" />
<glyph unicode="!" horiz-adv-x="307" d="M76 211l11 184l33 312h151l-33 -312l-29 -184h-133zM43 0l15 136h154l-15 -136h-154z" />
<glyph unicode="&#x22;" horiz-adv-x="420" d="M73 515l15 240h134l-36 -240h-113zM274 515l15 239h133l-35 -239h-113z" />
<glyph unicode="#" horiz-adv-x="679" d="M88 0l18 112h-85l12 117h94l15 95h-99l12 118h109l21 125h140l-21 -125h125l20 125h141l-21 -125h82l-12 -118h-91l-16 -95h97l-13 -117h-104l-18 -112h-141l18 112h-124l-18 -112h-141zM266 229h126l15 95h-124z" />
<glyph unicode="$" horiz-adv-x="541" d="M171 -99l11 92q-103 0 -174 33l46 113q98 -31 170 -31q21 0 41.5 2.5t43 14t22.5 31.5q0 21 -28 36t-67.5 27.5t-79 29.5t-67.5 51t-28 82q0 71 51 110.5t128 52.5l10 112h108l-13 -108q70 -1 150 -31l-44 -104q-80 22 -154 22q-79 0 -79 -37q0 -24 43 -45t94 -37.5 t94 -53t43 -87.5q0 -79 -59.5 -123t-145.5 -56l-7 -96h-109z" />
<glyph unicode="%" horiz-adv-x="865" d="M219 358q-74 0 -119 37t-45 110q0 88 58 148.5t146 60.5q76 0 122 -37t46 -111q0 -91 -58.5 -149.5t-149.5 -58.5zM230 462q35 0 52.5 27t17.5 65q0 56 -51 56q-35 0 -50.5 -29t-15.5 -67q0 -52 47 -52zM611 -11q-74 0 -119 36.5t-45 109.5q0 89 57.5 149t146.5 60 q76 0 121.5 -37t45.5 -111q0 -91 -58 -149t-149 -58zM622 94q35 0 52.5 27t17.5 63q0 57 -52 57q-35 0 -50.5 -29.5t-15.5 -67.5q0 -50 48 -50zM152 41l-71 82l629 531l71 -82z" />
<glyph unicode="&#x26;" horiz-adv-x="759" d="M692 -100q-187 1 -323 131q-69 -41 -145 -41q-211 0 -211 163q0 70 38.5 121t108.5 101q-17 62 -17 123q0 100 54.5 159t155.5 59q80 0 131.5 -37t51.5 -112q0 -27 -11 -52t-23.5 -42t-41.5 -39.5t-43.5 -32t-52 -31.5t-45.5 -27q31 -74 63.5 -126.5t78 -99t107.5 -70 t140 -23.5h10l-12 -123q-3 -1 -14 -1zM239 112q25 0 52 10q-49 65 -86 143q-46 -42 -46 -88q0 -65 80 -65zM281 448q6 4 28.5 15t34.5 18.5t28.5 19.5t24.5 24t8 25q0 24 -17 39t-48 15q-66 0 -66 -91q0 -30 7 -65zM459 121l10 121q49 30 114 30h136l-12 -123h-129 q-63 0 -119 -28z" />
<glyph unicode="'" horiz-adv-x="219" d="M73 515l15 240h134l-35 -240h-114z" />
<glyph unicode="(" horiz-adv-x="359" d="M218 -224q-92 67 -145.5 191t-53.5 246q0 164 83.5 323t222.5 234l83 -98q-106 -66 -171.5 -191t-65.5 -252q0 -96 41 -196.5t110 -159.5z" />
<glyph unicode=")" horiz-adv-x="359" d="M28 -224l-84 97q103 75 170 206t67 259q0 93 -41.5 188t-113.5 146l104 98q96 -58 150 -176t54 -241q0 -164 -85 -327.5t-221 -249.5z" />
<glyph unicode="*" horiz-adv-x="442" d="M102 449l-42 91l102 37l29 -62zM165 589l-95 40l61 91l77 -67zM174 404l26 101h78l2 -101h-106zM216 660l-1 101h105l-25 -101h-79zM366 444l-77 68l43 64l95 -40zM333 589l-29 62l90 66l40 -91z" />
<glyph unicode="+" horiz-adv-x="595" d="M205 45l22 199l-199 -2l13 126l199 -4l20 201h126l-28 -204l207 7l-13 -126l-203 2l-18 -199h-126z" />
<glyph unicode="," horiz-adv-x="280" d="M-23 -136q16 25 26.5 51t17 60.5t9 52.5t7 64.5t5.5 59.5h164q-1 -9 -4 -37t-4 -36.5t-4.5 -32t-6 -33t-8 -29t-11.5 -31.5t-14.5 -28.5t-19.5 -31t-25 -29.5h-132z" />
<glyph unicode="-" horiz-adv-x="399" d="M41 226l13 122h298l-13 -122h-298z" />
<glyph unicode="." horiz-adv-x="284" d="M25 0l16 149h169l-16 -149h-169z" />
<glyph unicode="/" horiz-adv-x="432" d="M-13 -62l319 831h147l-320 -831h-146z" />
<glyph unicode="0" horiz-adv-x="656" d="M289 -9q-121 0 -191 55.5t-70 170.5q0 159 88 248t246 89q117 0 187 -58.5t70 -170.5q0 -158 -87 -246t-243 -88zM307 115q78 0 118 54t40 136q0 124 -122 124q-79 0 -119.5 -52t-40.5 -135q0 -61 32 -94t92 -33z" />
<glyph unicode="1" horiz-adv-x="397" d="M133 0l45 427h-142l12 119l295 8l-59 -554h-151z" />
<glyph unicode="2" horiz-adv-x="491" d="M5 0l13 124q12 9 54.5 36.5t73.5 49.5t67 52t55.5 60t19.5 57q0 58 -78 58q-64 0 -116 -25l-32 111q72 38 169 38q208 0 208 -152q0 -91 -67 -163t-165 -124h232l-13 -122h-421z" />
<glyph unicode="3" horiz-adv-x="471" d="M122 -171q-90 0 -153 28l38 118q61 -18 119 -18q135 0 135 113q0 19 -6 33.5t-22 24t-25.5 14.5t-36.5 9t-33 4.5t-36 2.5l2 104q34 3 57 8t48.5 16t38.5 33t13 54q0 61 -77 61q-63 0 -122 -17l-31 109q69 34 174 34q86 0 147 -38t61 -118q0 -115 -113 -178 q115 -47 115 -154q0 -82 -41.5 -138.5t-105.5 -80.5t-146 -24z" />
<glyph unicode="4" horiz-adv-x="579" d="M257 -161l19 181h-283l10 101l253 425h225l-42 -405h100l-13 -121h-99l-20 -181h-150zM158 141h131l29 282z" />
<glyph unicode="5" horiz-adv-x="510" d="M171 -172q-100 0 -181 25l35 125q81 -21 158 -21q59 0 92.5 28.5t33.5 86.5q0 29 -30.5 52.5t-75.5 36t-89.5 19.5t-79.5 7l38 359h385l-13 -120h-239l-12 -119q114 -16 191.5 -71t77.5 -146q0 -121 -83.5 -191.5t-207.5 -70.5z" />
<glyph unicode="6" horiz-adv-x="570" d="M219 462l-9 -25q72 20 120 20q92 0 149 -50.5t57 -143.5q0 -128 -68 -202t-196 -74q-234 0 -234 258q0 75 12 141.5t40 127.5t70 104.5t106 69.5t144 26q73 0 120 -18l-42 -123q-47 15 -87 15q-131 0 -182 -126zM287 339q-31 0 -95 -16q-2 -52 -2 -88q-2 -63 23.5 -96 t77.5 -33q49 0 70.5 39.5t21.5 96.5q0 97 -96 97z" />
<glyph unicode="7" horiz-adv-x="493" d="M122 -187l-125 58l316 550h-281l13 125h455l-10 -102z" />
<glyph unicode="8" horiz-adv-x="578" d="M251 -10q-44 0 -82.5 8.5t-72.5 26t-54 50.5t-20 77q0 133 154 212q-93 67 -93 154q0 51 22 90.5t59.5 61.5t81.5 33t92 11q51 0 95.5 -13.5t77.5 -49.5t33 -89q0 -59 -39 -113t-95 -87q54 -34 85.5 -72t31.5 -89q0 -74 -43 -123.5t-102.5 -68.5t-130.5 -19zM270 110 q47 0 76.5 25t29.5 69q0 15 -14.5 32t-29.5 28t-39.5 27t-29.5 19q-89 -56 -89 -129q0 -36 27.5 -53.5t68.5 -17.5zM319 418q69 45 69 123q0 25 -21.5 40t-48.5 15q-86 0 -86 -78q0 -40 87 -100z" />
<glyph unicode="9" horiz-adv-x="558" d="M337 86q5 11 8 24q-69 -19 -119 -19q-92 0 -149 50.5t-57 143.5q0 128 68 202t196 74q234 0 234 -258q0 -75 -12 -141.5t-40 -127.5t-70 -104.5t-106 -69.5t-144 -26q-73 0 -120 18l42 123q47 -15 87 -15q131 0 182 126zM269 209q34 0 94 15q1 7 3 89q2 63 -23.5 96 t-77.5 33q-49 0 -70.5 -39.5t-21.5 -96.5q0 -97 96 -97z" />
<glyph unicode=":" horiz-adv-x="319" d="M42 0l16 149h169l-16 -149h-169zM84 397l16 149h169l-16 -149h-169z" />
<glyph unicode=";" horiz-adv-x="315" d="M-3 -136q16 25 26.5 51.5t16.5 60t9 53t6.5 63.5t5.5 60h162q0 -4 -3 -33t-3.5 -33.5t-4 -29t-5 -30.5t-6 -26.5t-9 -28.5t-11 -25t-14 -28t-18 -25.5t-22.5 -28.5h-130zM81 397l16 149h168l-15 -149h-169z" />
<glyph unicode="&#x3c;" horiz-adv-x="514" d="M430 47l-404 191l14 131l445 201l-15 -139l-298 -128l273 -117z" />
<glyph unicode="=" horiz-adv-x="574" d="M40 113l11 126h454l-11 -126h-454zM66 364l11 126h454l-11 -126h-454z" />
<glyph unicode="&#x3e;" horiz-adv-x="515" d="M29 47l15 139l297 117l-272 128l15 139l403 -201l-14 -131z" />
<glyph unicode="?" horiz-adv-x="393" d="M72 181q-11 31 -11 62q0 42 16.5 78t40 60.5t47 45t40 41.5t16.5 40q0 23 -15.5 38.5t-44.5 23t-46 10.5t-45 5l41 125q269 -18 269 -184q0 -46 -19 -83t-46.5 -61t-55 -45t-47 -46t-20.5 -53q0 -17 5 -37zM49 0l15 136h153l-14 -136h-154z" />
<glyph unicode="@" horiz-adv-x="816" d="M349 -74q-154 0 -234.5 62t-80.5 211q0 235 133 376.5t366 141.5q126 0 195 -61t69 -185q0 -136 -73.5 -233.5t-205.5 -97.5q-33 0 -62.5 13.5t-30.5 42.5q-16 -20 -43.5 -36.5t-50.5 -16.5q-55 0 -80 25.5t-25 81.5q0 103 65 173t167 70q73 0 136 -25l-39 -166 q-4 -24 -4 -29q0 -21 16 -21q32 0 57.5 40t36.5 86t11 81q0 78 -39.5 113t-118.5 35q-161 0 -256 -107t-95 -271q0 -188 207 -188q57 0 169 14l4 -102q-98 -27 -194 -27zM378 249q18 0 50 17l33 138q-2 1 -10 1q-44 0 -69 -40t-25 -86q0 -30 21 -30z" />
<glyph unicode="A" horiz-adv-x="702" d="M-48 0l351 707h198l163 -707h-159l-46 217h-247l-103 -217h-157zM268 331h166l-29 161l-17 121l-49 -121z" />
<glyph unicode="B" horiz-adv-x="662" d="M50 0l74 707h238q237 0 237 -165q0 -110 -90 -157l-1 -3q49 -15 79.5 -55t30.5 -92q0 -63 -24.5 -110t-68 -73.5t-95 -39t-112.5 -12.5h-268zM218 122h92q34 0 57.5 3.5t46.5 13.5t34.5 32t11.5 56q0 23 -10 39.5t-23.5 24.5t-36 12.5t-38 5.5t-38.5 1h-76zM249 417h67 q62 0 93 23.5t31 79.5q0 37 -34 53t-80 16h-59z" />
<glyph unicode="C" horiz-adv-x="646" d="M390 -10q-159 0 -254.5 77t-95.5 234q0 202 110 308t313 106q100 0 189 -35l-47 -114q-72 21 -157 21q-117 0 -183 -72t-66 -191q0 -101 60.5 -152.5t162.5 -51.5q95 0 161 18l25 -118q-95 -30 -218 -30z" />
<glyph unicode="D" horiz-adv-x="770" d="M50 0l74 707h242q78 0 143 -16.5t118 -51.5t82.5 -96t29.5 -143q0 -201 -118 -300.5t-323 -99.5h-248zM216 122h105q263 0 263 266q0 197 -234 197h-85z" />
<glyph unicode="E" horiz-adv-x="593" d="M50 0l74 707h452l-13 -121h-297l-18 -174h275l-12 -114h-275l-19 -177h321l-13 -121h-475z" />
<glyph unicode="F" horiz-adv-x="587" d="M50 0l74 707h470l-13 -121h-315l-20 -192h293l-12 -114h-293l-30 -280h-154z" />
<glyph unicode="G" horiz-adv-x="694" d="M387 -10q-158 0 -252.5 76t-94.5 231q0 205 112.5 311.5t317.5 106.5q110 0 200 -39l-53 -113q-83 24 -163 24q-121 0 -187.5 -70t-66.5 -193q0 -99 59.5 -151.5t159.5 -52.5q3 0 54 3l22 227h155l-32 -320q-108 -40 -231 -40z" />
<glyph unicode="H" horiz-adv-x="788" d="M50 0l74 707h154l-30 -293h313l31 293h155l-74 -707h-155l32 296h-314l-32 -296h-154z" />
<glyph unicode="I" horiz-adv-x="319" d="M50 0l74 707h154l-74 -707h-154z" />
<glyph unicode="J" horiz-adv-x="321" d="M-57 -196l-45 111q93 49 126.5 96t43.5 140l58 556h155l-58 -554q-6 -63 -18.5 -107t-41 -92.5t-83.5 -85.5t-137 -64z" />
<glyph unicode="K" horiz-adv-x="677" d="M278 707l-32 -305l284 305h189l-312 -330l243 -349l-150 -68l-259 391l-37 -351h-154l74 707h154z" />
<glyph unicode="L" horiz-adv-x="550" d="M50 0l74 707h154l-61 -584h307l-13 -123h-461z" />
<glyph unicode="M" horiz-adv-x="983" d="M-16 0l252 707h177l39 -580l241 580h175l39 -707h-149l-21 486l-203 -486h-205l-32 490l-162 -490h-151z" />
<glyph unicode="N" horiz-adv-x="785" d="M50 0l74 707h183l234 -513l49 513h154l-74 -707h-189l-227 500l-50 -500h-154z" />
<glyph unicode="O" horiz-adv-x="821" d="M368 -12q-153 0 -241 80.5t-88 228.5q0 197 113 309t310 112q154 0 241 -78.5t87 -227.5q0 -200 -111.5 -312t-310.5 -112zM384 111q123 0 185 79t62 205q0 94 -48 147t-142 53q-120 0 -182.5 -78.5t-62.5 -202.5q0 -95 47.5 -149t140.5 -54z" />
<glyph unicode="P" horiz-adv-x="635" d="M259 209h-32l-22 -209h-155l74 707h267q106 0 174 -55t68 -159q0 -76 -32.5 -133t-87.5 -88.5t-119 -47t-135 -15.5zM267 586l-27 -256l38 1q34 2 59.5 5.5t52.5 13t43.5 24.5t27.5 40.5t11 59.5q0 56 -30.5 84t-84.5 28h-90z" />
<glyph unicode="Q" horiz-adv-x="821" d="M368 -12q-153 0 -241 80.5t-88 228.5q0 197 113 309t310 112q154 0 241 -78.5t87 -227.5q0 -200 -111.5 -312t-310.5 -112zM384 111q123 0 185 79t62 205q0 94 -48 147t-142 53q-120 0 -182.5 -78.5t-62.5 -202.5q0 -95 47.5 -149t140.5 -54zM755 -184l-380 44l12 107 l380 -40z" />
<glyph unicode="R" horiz-adv-x="692" d="M529 -39l-195 306q-17 -2 -50 -2h-51l-28 -265h-155l74 707h265q105 0 173.5 -47t68.5 -144q0 -147 -136 -213l177 -270zM245 375h64q78 0 120 29t42 101q0 48 -30.5 64t-85.5 16h-88z" />
<glyph unicode="S" horiz-adv-x="570" d="M223 -13q-123 0 -227 51l54 117q106 -38 185 -38q55 0 97 19t42 66q0 30 -31.5 53t-76 42.5t-89 43t-76 66t-31.5 100.5q0 104 76.5 157.5t185.5 53.5q117 0 218 -47l-56 -110q-78 30 -163 30q-108 0 -108 -66q0 -26 32 -48.5t77.5 -43t90.5 -46t77 -68t32 -97.5 q0 -50 -18.5 -91t-48.5 -67t-70.5 -44t-83 -25.5t-88.5 -7.5z" />
<glyph unicode="T" horiz-adv-x="621" d="M199 0l61 585h-225l13 122h605l-13 -122h-225l-61 -585h-155z" />
<glyph unicode="U" horiz-adv-x="779" d="M358 -13q-59 0 -109 12t-92.5 39t-67 76t-24.5 117q0 29 2 44l46 432h156l-44 -426q-2 -22 -2 -32q0 -69 36.5 -100.5t110.5 -31.5q82 0 127.5 44t55.5 142l42 404h152l-43 -407q-9 -88 -42.5 -151.5t-83.5 -97t-104.5 -49t-115.5 -15.5z" />
<glyph unicode="V" horiz-adv-x="706" d="M211 0l-168 707h163l122 -580l278 580h157l-351 -707h-201z" />
<glyph unicode="W" horiz-adv-x="1058" d="M176 0l-119 707h163l82 -577l184 373l-50 204h162l117 -572l228 572h157l-301 -707h-196l-70 318l-157 -318h-200z" />
<glyph unicode="X" horiz-adv-x="653" d="M-43 0l290 364l-183 343h176l109 -227l168 227h173l-271 -340l196 -367h-177l-122 250l-184 -250h-175z" />
<glyph unicode="Y" horiz-adv-x="647" d="M211 0l25 235l-206 472h177l125 -342l207 342h173l-322 -467l-24 -240h-155z" />
<glyph unicode="Z" horiz-adv-x="605" d="M-3 0l11 106l383 472h-307l13 129h496l-10 -100l-387 -478h357l-13 -129h-543z" />
<glyph unicode="[" horiz-adv-x="351" d="M15 -220l102 974h251l-12 -125h-100l-77 -724h100l-13 -125h-251z" />
<glyph unicode="\" horiz-adv-x="434" d="M221 -62l-146 831h147l146 -831h-147z" />
<glyph unicode="]" horiz-adv-x="352" d="M-28 -220l13 125h100l77 724h-100l12 125h252l-102 -974h-252z" />
<glyph unicode="^" horiz-adv-x="501" d="M-8 294l213 413h169l115 -413h-144l-69 298l-142 -298h-142z" />
<glyph unicode="_" horiz-adv-x="500" d="M-52 -193l12 122h500l-13 -122h-499z" />
<glyph unicode="a" horiz-adv-x="553" d="M159 -12q-76 0 -108 45.5t-32 133.5q0 167 100.5 276.5t259.5 109.5q69 0 133 -11l-56 -542h-151l8 71q-86 -83 -154 -83zM202 121q39 0 123 66l24 240q-2 1 -9 1q-70 0 -120 -70.5t-50 -175.5q0 -61 32 -61z" />
<glyph unicode="b" horiz-adv-x="549" d="M214 -11q-78 0 -182 27l77 738h150l-24 -246q23 19 62 34.5t71 15.5q76 0 113 -42.5t37 -133.5q0 -54 -9.5 -107t-32.5 -105.5t-57 -92t-87 -64t-118 -24.5zM220 107q39 0 69 28.5t46.5 72.5t24.5 88t8 83q0 28 -11.5 41.5t-28.5 13.5q-33 0 -105 -36l-31 -289 q18 -2 28 -2z" />
<glyph unicode="c" horiz-adv-x="461" d="M195 -12q-91 0 -131 48.5t-40 151.5q0 157 80 265.5t220 108.5q47 0 87 -14.5t62 -33.5l-66 -102q-45 27 -82 27q-41 0 -71 -23.5t-45 -61t-22 -74.5t-7 -73q0 -90 37 -90q32 0 62 9t90 39l49 -103q-74 -45 -119 -59q-49 -15 -104 -15z" />
<glyph unicode="d" horiz-adv-x="556" d="M161 -12q-77 0 -108.5 46.5t-31.5 135.5q0 164 93 269t242 113h8l21 203h152l-79 -755h-151l8 71q-86 -83 -154 -83zM204 121q39 0 123 66l24 241h-10q-67 1 -117.5 -67.5t-50.5 -173.5q0 -66 31 -66z" />
<glyph unicode="e" horiz-adv-x="515" d="M189 -12q-165 0 -165 210q0 68 18 131.5t53.5 116t94.5 84t133 31.5q89 0 134.5 -42.5t45.5 -104.5q0 -69 -50 -109.5t-134 -66.5l-140 -44v-13q0 -37 10.5 -52.5t36.5 -15.5q57 0 164 59l52 -101q-127 -83 -253 -83zM192 309l124 46q43 16 43 52q0 16 -11.5 26t-27.5 10 q-45 0 -79 -35t-49 -99z" />
<glyph unicode="f" horiz-adv-x="383" d="M41 -220l68 654h-80l14 112h78l3 23q6 63 25 105t50.5 63.5t67 29.5t83.5 8q38 0 89.5 -10t85.5 -24l-41 -117q-81 19 -131 19q-38 0 -56 -17t-22 -56l-3 -24h121l-13 -112h-119l-70 -654h-150z" />
<glyph unicode="g" horiz-adv-x="554" d="M170 -228q-121 0 -204 35l37 119q84 -28 152 -28q74 0 109 19t42 80l8 73q-87 -82 -154 -82q-77 0 -108.5 45t-31.5 135q0 168 101.5 276.5t258.5 108.5q69 0 133 -11l-58 -565q-21 -205 -285 -205zM203 121q39 0 123 66l24 240q-3 1 -9 1q-68 0 -118.5 -69.5 t-50.5 -175.5q0 -62 31 -62z" />
<glyph unicode="h" d="M32 0l79 755h152l-28 -268q111 73 180 73q64 0 90 -24t26 -88q0 -24 -3 -54l-41 -394h-151l39 366q2 22 2 31q-1 17 -20 17q-29 0 -135 -46l-38 -368h-152z" />
<glyph unicode="i" horiz-adv-x="281" d="M175 614l-92 102l113 101l92 -101zM32 0l57 546h152l-58 -546h-151z" />
<glyph unicode="j" horiz-adv-x="281" d="M-50 -220q-65 0 -122 24l39 117q55 -13 84 -13q38 0 56.5 20t24.5 72l57 546h151l-57 -547q-7 -67 -27 -111.5t-52.5 -67.5t-68.5 -31.5t-85 -8.5zM164 614l-92 102l113 101l92 -101z" />
<glyph unicode="k" horiz-adv-x="544" d="M262 755l-46 -438l168 229h164l-194 -255l159 -289l-167 -4l-137 254l-26 -252h-151l79 755h151z" />
<glyph unicode="l" horiz-adv-x="281" d="M32 0l79 755h151l-79 -755h-151z" />
<glyph unicode="m" horiz-adv-x="863" d="M32 0l58 546h151l-6 -59q108 73 170 73q53 0 79 -16t34 -57q111 73 180 73q63 0 89.5 -24t26.5 -88q0 -24 -3 -54l-41 -394h-152l40 366q1 8 1 21q0 27 -19 27q-22 0 -125 -42l-38 -372h-152l40 366q1 8 1 21q0 27 -19 27q-12 0 -31.5 -6t-34.5 -12.5t-35.5 -16.5 t-23.5 -11l-39 -368h-151z" />
<glyph unicode="n" d="M32 0l58 546h151l-6 -59q108 73 180 73q63 0 89.5 -24t26.5 -88q0 -24 -3 -54l-41 -394h-152l40 366q1 8 1 21q0 27 -19 27q-34 0 -135 -46l-39 -368h-151z" />
<glyph unicode="o" horiz-adv-x="561" d="M230 -12q-98 0 -152 57.5t-54 153.5q0 158 80 258.5t220 100.5q99 0 152 -58.5t53 -149.5q0 -45 -8 -91t-29.5 -96t-54 -88t-86 -62.5t-121.5 -24.5zM253 112q46 0 84.5 63t38.5 174q0 51 -20 70t-58 19q-47 0 -83 -64.5t-36 -169.5q0 -43 19 -67.5t55 -24.5z" />
<glyph unicode="p" horiz-adv-x="550" d="M9 -220l80 766h151l-4 -40q24 19 62.5 34t70.5 15q76 0 113 -42.5t37 -134.5q0 -69 -16 -134t-50 -124t-95 -95t-142 -36q-23 0 -34 1l-22 -210h-151zM222 107q39 0 69 28t46 71.5t24 87t8 82.5q0 27 -11.5 41t-28.5 14q-35 0 -105 -36l-30 -286q18 -2 28 -2z" />
<glyph unicode="q" horiz-adv-x="555" d="M284 -220l31 290q-89 -82 -154 -82q-77 0 -108.5 45t-31.5 135q0 169 101 277t259 108q69 0 133 -11l-79 -762h-151zM204 121q39 0 123 66l24 240q-5 1 -9 1q-68 0 -118.5 -69.5t-50.5 -175.5q0 -62 31 -62z" />
<glyph unicode="r" horiz-adv-x="402" d="M31 0l59 546h150l-6 -55q90 65 147 65q21 0 36 -3l-27 -147q-26 5 -56 5q-38 0 -112 -52l-40 -359h-151z" />
<glyph unicode="s" horiz-adv-x="460" d="M177 -11q-106 0 -185 36l40 117q84 -28 157 -28q76 0 76 43q0 15 -21.5 31.5t-52.5 34.5t-61.5 39.5t-52 54.5t-21.5 73q0 89 57.5 129t149.5 40q47 0 99.5 -9t77.5 -22l-37 -112q-78 23 -132 23q-21 0 -34.5 -2t-24 -11.5t-10.5 -26.5q0 -20 33 -45t72.5 -48t72.5 -63 t33 -86q0 -168 -236 -168z" />
<glyph unicode="t" horiz-adv-x="432" d="M214 -12q-75 0 -106.5 28.5t-31.5 98.5q0 23 3 52l29 267h-80l13 112h82l11 112h150l-12 -112h139l-11 -112h-141l-30 -279q-2 -21 2.5 -28.5t18.5 -7.5q54 0 121 22l27 -111q-86 -42 -184 -42z" />
<glyph unicode="u" d="M168 -12q-68 0 -97 25.5t-29 97.5q0 23 3 55l40 380h152l-40 -373q-1 -5 -1 -15q0 -33 27 -33q41 0 126 46l40 375h151l-58 -546h-151l7 59q-93 -71 -170 -71z" />
<glyph unicode="v" horiz-adv-x="541" d="M120 0l-81 546h160l40 -400l102 208q36 75 36 149q0 22 -3 43h161q5 -18 5 -43q0 -78 -50 -174l-170 -329h-200z" />
<glyph unicode="w" horiz-adv-x="858" d="M112 0l-70 546h160l30 -400l142 278l-17 122h159l41 -400q12 21 37.5 73t44.5 93l19 42q37 74 37 149q0 24 -4 43h161q5 -23 5 -44q0 -77 -49 -173l-171 -329h-200l-36 245l-130 -245h-159z" />
<glyph unicode="x" horiz-adv-x="537" d="M-39 0l225 279l-131 267h162l69 -144l115 144h158l-211 -266l137 -280h-164l-74 156l-122 -156h-164z" />
<glyph unicode="y" horiz-adv-x="542" d="M47 -220l114 220h-41l-80 546h160l40 -400q12 21 37.5 73t44.5 93l20 42q36 75 36 149q0 22 -3 43h162q4 -19 4 -43q0 -78 -50 -174l-285 -549h-159z" />
<glyph unicode="z" horiz-adv-x="496" d="M-5 0l13 103l278 321h-223l16 122h403l-12 -101l-271 -323h238l-13 -122h-429z" />
<glyph unicode="{" horiz-adv-x="375" d="M242 -222q-203 0 -203 135q0 23 6 51l40 191q5 22 -11.5 40.5t-59.5 18.5l13 117q42 0 62.5 19t20.5 41v191q0 187 236 187h53l-14 -126h-45q-38 0 -58 -21t-20 -52l3 -175q1 -87 -76 -121v-2q55 -27 55 -84q0 -15 -5 -38l-39 -174q-2 -7 -2 -19q0 -52 64 -52h46 l-14 -127h-52z" />
<glyph unicode="|" horiz-adv-x="295" d="M15 -220l103 974h151l-102 -974h-152z" />
<glyph unicode="}" horiz-adv-x="375" d="M-32 -222l14 127h45q39 0 58.5 20.5t19.5 50.5l-3 174q-1 87 76 122v2q-54 26 -54 84q0 18 4 37l39 175q2 12 2 18q0 24 -16 39t-48 15h-46l14 127h52q203 0 203 -136q0 -23 -6 -51l-40 -191q-5 -22 11.5 -41t59.5 -19l-13 -117q-42 0 -62.5 -19t-20.5 -40v-191 q0 -100 -61.5 -143t-174.5 -43h-53z" />
<glyph unicode="~" horiz-adv-x="555" d="M360 248q-50 0 -105.5 30t-78.5 30q-41 0 -81 -33l-60 94q83 89 161 89q39 0 70.5 -15t57.5 -30.5t51 -15.5h8.5h10t10 1t13 3t13.5 5.5t17 9.5t19 14l62 -86q-27 -38 -77 -67t-91 -29z" />
<glyph unicode="&#xa1;" horiz-adv-x="305" d="M27 -161l32 312l29 184h133l-10 -184l-33 -312h-151zM86 410l14 136h154l-14 -136h-154z" />
<glyph unicode="&#xa2;" horiz-adv-x="519" d="M200 -59l12 88q-96 14 -140 56t-44 135q0 126 56.5 200t178.5 98l6 84h137l-11 -78q57 -6 102 -29l-51 -109q-57 17 -111 17q-151 0 -151 -162q0 -33 11.5 -54t34.5 -30t44.5 -11.5t55.5 -2.5q36 0 110 10l11 -113q-72 -16 -108 -17l-6 -82h-137z" />
<glyph unicode="&#xa3;" horiz-adv-x="510" d="M19 0l11 106q31 17 52.5 44t25.5 59h-79l12 114h84q1 15 1 45q1 48 14.5 84t39.5 59t54.5 37.5t69 21.5t73.5 9.5t77 2.5l-7 -124q-9 -1 -38 -2.5t-40.5 -3t-32.5 -7.5t-30.5 -15.5t-18 -27t-8.5 -42.5q0 -13 -4 -37h153l-12 -114h-168q-11 -54 -53 -88h258l-12 -121 h-422z" />
<glyph unicode="&#xa5;" horiz-adv-x="665" d="M14 31l13 121h210l3 21l-24 53h-179l12 121h112l-90 199h162l96 -250l155 250h159l-141 -199h120l-13 -121h-193l-34 -50l-4 -24h222l-13 -121h-219l-3 -31h-145l3 31h-209z" />
<glyph unicode="&#xa7;" horiz-adv-x="660" d="M106 -102q-78 0 -122 40l47 109q41 -33 80 -33q43 0 43 104q0 27 -6 81l-8 73q-4 27 -4 61q0 143 106 229t252 86q104 0 164 -59l-69 -93q-42 39 -97 39q-50 0 -50 -74q0 -30 6 -60l9 -58q11 -63 11 -127q0 -148 -105.5 -233t-256.5 -85zM264 21q36 27 55 73.5t19 96.5 q0 30 -5 68l-11 95q-3 22 -3 45q0 69 17 117l-2 2q-68 -49 -68 -170q0 -27 3 -54l11 -99q4 -38 4 -48q0 -65 -22 -124z" />
<glyph unicode="&#xa9;" horiz-adv-x="782" d="M378 64q-98 0 -148.5 58.5t-41.5 148.5q10 96 72 153.5t160 57.5q44 0 68 -5.5t62 -24.5l-36 -78q-36 16 -103 16q-50 0 -83.5 -28t-39.5 -86t24.5 -88t84.5 -30q46 0 99 15l17 -85q-4 -1 -17 -5t-16 -5t-14 -4t-15.5 -3.5t-14.5 -2.5t-17.5 -2.5t-18 -1t-22.5 -0.5z M340 -81q-148 0 -229 81t-81 222q0 174 110.5 290.5t293.5 116.5q151 0 230 -82t79 -221q0 -174 -110 -290.5t-293 -116.5zM352 -11q137 0 220.5 93t83.5 234q0 111 -62.5 177t-176.5 66q-133 0 -217 -91.5t-84 -232.5q0 -109 61 -177.5t175 -68.5z" />
<glyph unicode="&#xaa;" horiz-adv-x="409" d="M156 389q-79 0 -79 109q0 93 60.5 152t151.5 59q44 0 84 -7l-31 -307h-96l4 39q-47 -45 -94 -45zM189 466q23 0 68 35l14 134h-6q-37 -1 -64.5 -38.5t-27.5 -95.5q0 -35 16 -35zM52 285l8 74h304l-8 -74h-304z" />
<glyph unicode="&#xab;" horiz-adv-x="492" d="M124 45l-101 227l147 226l89 -39l-110 -187l70 -182zM333 45l-100 227l147 226l88 -39l-110 -187l70 -182z" />
<glyph unicode="&#xae;" horiz-adv-x="571" d="M309 302q-44 0 -85.5 12t-79.5 37.5t-61 72t-23 107.5q0 108 70.5 170.5t177.5 62.5q46 0 88.5 -13t78.5 -39.5t57.5 -73t21.5 -107.5q0 -107 -69.5 -168t-175.5 -61zM314 351q81 0 132.5 47.5t51.5 132.5q0 90 -55.5 137t-133.5 47q-84 0 -139 -45t-55 -135 q0 -45 15 -79.5t36.5 -53.5t50 -31.5t51.5 -16t46 -3.5zM431 404q-51 2 -80 26q-7 6 -13 14t-9.5 14t-10.5 21t-11 22h-29v-91h-71v258l105 1q46 0 74.5 -22t28.5 -63q0 -46 -41 -70q16 -29 30 -43q11 -11 35 -22zM277 539h31q40 0 40 45q0 21 -7.5 31t-29.5 10h-34v-86z " />
<glyph unicode="&#xb0;" horiz-adv-x="389" d="M202 402q-76 0 -114 41.5t-30 116.5q7 71 59 114t120 43q72 0 112.5 -42.5t33.5 -114.5q-8 -72 -59.5 -115t-121.5 -43zM214 504q42 0 48 56q5 54 -37 54q-43 0 -48 -54q-6 -56 37 -56z" />
<glyph unicode="&#xb1;" horiz-adv-x="530" d="M308 126h159l-11 -126h-444l11 126h159l19 158l-160 -2l12 126l160 -4l16 161h126l-23 -164l165 7l-12 -126l-162 2z" />
<glyph unicode="&#xb6;" horiz-adv-x="638" d="M284 -220q-49 0 -111 23l39 116q54 -8 87 -8q42 0 57.5 22.5t20.5 69.5l74 704h150l-74 -705q-11 -109 -73 -165.5t-170 -56.5zM220 234q-88 0 -131 50.5t-43 141.5q0 72 16 123t43 81.5t72 48t93 23t116 5.5h19l-50 -473h-135z" />
<glyph unicode="&#xb7;" horiz-adv-x="265" d="M128 281l-95 107l117 106l97 -106z" />
<glyph unicode="&#xba;" horiz-adv-x="425" d="M216 383q-65 0 -104 36t-39 101q0 87 50.5 142t133.5 55q69 0 107 -35t38 -103q0 -87 -50 -141.5t-136 -54.5zM229 462q72 0 72 112q0 64 -55 64q-40 0 -57 -33t-17 -78q0 -65 57 -65zM56 286l8 73h305l-9 -73h-304z" />
<glyph unicode="&#xbb;" horiz-adv-x="492" d="M103 45l-85 45l107 182l-71 187l97 39l100 -226zM313 45l-86 45l108 182l-71 187l97 39l99 -226z" />
<glyph unicode="&#xbf;" horiz-adv-x="392" d="M272 -164q-52 4 -92.5 12.5t-84 27t-68 55.5t-24.5 89q0 46 19 83t46.5 61t55 45t47 46t20.5 53q0 17 -5 37l125 19q11 -31 11 -62q0 -42 -16.5 -77.5t-40 -60t-47 -45.5t-40 -41.5t-16.5 -40.5q0 -66 151 -76zM166 409l15 137h153l-14 -137h-154z" />
<glyph unicode="&#xc0;" horiz-adv-x="702" d="M491 735l-266 64l35 121l258 -89zM-48 0l351 707h198l163 -707h-159l-46 217h-247l-103 -217h-157zM268 331h166l-29 161l-17 121l-49 -121z" />
<glyph unicode="&#xc3;" horiz-adv-x="702" d="M455 744q-25 0 -64.5 19t-54.5 19q-42 0 -79 -28l-54 75q69 71 140 71q30 0 72.5 -19t53.5 -19q37 0 89 26l45 -78q-66 -66 -148 -66zM-48 0l351 707h198l163 -707h-159l-46 217h-247l-103 -217h-157zM268 331h166l-29 161l-17 121l-49 -121z" />
<glyph unicode="&#xc4;" horiz-adv-x="702" d="M285 747l-78 89l97 88l78 -88zM523 747l-79 89l97 88l79 -88zM-48 0l351 707h198l163 -707h-159l-46 217h-247l-103 -217h-157zM268 331h166l-29 161l-17 121l-49 -121z" />
<glyph unicode="&#xc5;" horiz-adv-x="702" d="M404 732q-57 0 -94.5 25.5t-37.5 79.5q0 66 45 106.5t112 40.5q55 0 92.5 -29t37.5 -82q0 -66 -44 -103.5t-111 -37.5zM412 806q23 0 39 14t16 38q0 21 -13.5 33.5t-34.5 12.5q-26 0 -40.5 -13.5t-14.5 -38.5q0 -46 48 -46zM-48 0l351 707h198l163 -707h-159l-46 217 h-247l-103 -217h-157zM268 331h166l-29 161l-17 121l-49 -121z" />
<glyph unicode="&#xc6;" horiz-adv-x="976" d="M-46 0l447 707h558l-13 -121h-297l-18 -174h275l-12 -114h-275l-19 -177h320l-12 -121h-475l35 297h-168l-176 -297h-170zM366 411h116l20 175h-32z" />
<glyph unicode="&#xc7;" horiz-adv-x="646" d="M309 -275l-42 90q2 1 18 10t22.5 13.5t17.5 13t16 17t6 17.5q2 17 -7 63h119q17 -47 14 -78q-9 -84 -164 -146zM390 -10q-159 0 -254.5 77t-95.5 234q0 202 110 308t313 106q100 0 189 -35l-47 -114q-72 21 -157 21q-117 0 -183 -72t-66 -191q0 -101 60.5 -152.5 t162.5 -51.5q95 0 161 18l25 -118q-95 -30 -218 -30z" />
<glyph unicode="&#xc9;" horiz-adv-x="593" d="M274 737l-26 96l261 89l34 -121zM50 0l74 707h452l-13 -121h-297l-18 -174h275l-12 -114h-275l-19 -177h321l-13 -121h-475z" />
<glyph unicode="&#xd1;" horiz-adv-x="785" d="M508 744q-25 0 -64.5 19t-54.5 19q-42 0 -79 -28l-54 75q69 71 140 71q30 0 72.5 -19t53.5 -19q37 0 89 26l45 -78q-66 -66 -148 -66zM50 0l74 707h183l234 -513l49 513h154l-74 -707h-189l-227 500l-50 -500h-154z" />
<glyph unicode="&#xd5;" horiz-adv-x="821" d="M520 744q-25 0 -64.5 19t-54.5 19q-42 0 -79 -28l-54 75q69 71 140 71q30 0 72.5 -19t53.5 -19q37 0 89 26l45 -78q-66 -66 -148 -66zM368 -12q-153 0 -241 80.5t-88 228.5q0 197 113 309t310 112q154 0 241 -78.5t87 -227.5q0 -200 -111.5 -312t-310.5 -112zM384 111 q123 0 185 79t62 205q0 94 -48 147t-142 53q-120 0 -182.5 -78.5t-62.5 -202.5q0 -95 47.5 -149t140.5 -54z" />
<glyph unicode="&#xd6;" horiz-adv-x="821" d="M334 747l-78 89l97 88l78 -88zM572 747l-79 89l97 88l79 -88zM368 -12q-153 0 -241 80.5t-88 228.5q0 197 113 309t310 112q154 0 241 -78.5t87 -227.5q0 -200 -111.5 -312t-310.5 -112zM384 111q123 0 185 79t62 205q0 94 -48 147t-142 53q-120 0 -182.5 -78.5 t-62.5 -202.5q0 -95 47.5 -149t140.5 -54z" />
<glyph unicode="&#xd7;" horiz-adv-x="560" d="M410 60l-141 159l-168 -157l-81 90l173 154l-140 153l96 91l138 -159l171 157l81 -90l-180 -154l147 -153z" />
<glyph unicode="&#xd8;" horiz-adv-x="821" d="M73 -43l-59 66l83 79q-58 76 -58 195q0 198 113.5 309.5t310.5 111.5q134 0 218 -60l92 88l57 -67l-88 -84q48 -74 48 -183q0 -200 -111.5 -312t-310.5 -112q-126 0 -206 54zM214 213l357 342q-48 40 -130 40q-120 0 -182.5 -78.5t-62.5 -202.5q0 -58 18 -101zM384 111 q123 0 185.5 79t62.5 205q0 44 -13 83l-350 -335q44 -32 115 -32z" />
<glyph unicode="&#xdc;" horiz-adv-x="779" d="M343 747l-78 89l97 88l78 -88zM581 747l-79 89l97 88l79 -88zM358 -13q-59 0 -109 12t-92.5 39t-67 76t-24.5 117q0 29 2 44l46 432h156l-44 -426q-2 -22 -2 -32q0 -69 36.5 -100.5t110.5 -31.5q82 0 127.5 44t55.5 142l42 404h152l-43 -407q-9 -88 -42.5 -151.5 t-83.5 -97t-104.5 -49t-115.5 -15.5z" />
<glyph unicode="&#xdf;" horiz-adv-x="645" d="M9 -220l81 772q13 119 81 171t187 52q51 0 94.5 -15.5t75.5 -53.5t32 -94q0 -40 -20.5 -75.5t-45 -55.5t-45 -42.5t-20.5 -40.5q0 -16 19 -33t46 -34.5t54 -39t46 -55.5t19 -75q0 -47 -20 -82t-55 -54t-75 -28t-86 -9q-87 0 -158 27l29 116q86 -21 119 -21q41 0 69 10.5 t28 30.5t-18 38t-44 34t-52 35t-44 49t-18 68q0 33 20 66.5t43.5 56.5t43.5 51.5t20 51.5q0 25 -22 37.5t-50 12.5q-53 0 -75.5 -26.5t-26.5 -73.5l-81 -771h-151z" />
<glyph unicode="&#xe0;" horiz-adv-x="553" d="M461 589l-269 121l59 124l261 -140zM159 -12q-76 0 -108 45.5t-32 133.5q0 167 100.5 276.5t259.5 109.5q69 0 133 -11l-56 -542h-151l8 71q-86 -83 -154 -83zM202 121q39 0 123 66l24 240q-2 1 -9 1q-70 0 -120 -70.5t-50 -175.5q0 -61 32 -61z" />
<glyph unicode="&#xe1;" horiz-adv-x="553" d="M280 591l-42 104l276 140l49 -122zM159 -12q-76 0 -108 45.5t-32 133.5q0 167 100.5 276.5t259.5 109.5q69 0 133 -11l-56 -542h-151l8 71q-86 -83 -154 -83zM202 121q39 0 123 66l24 240q-2 1 -9 1q-70 0 -120 -70.5t-50 -175.5q0 -61 32 -61z" />
<glyph unicode="&#xe2;" horiz-adv-x="553" d="M211 597l-62 108l236 128l202 -127l-77 -109l-142 81zM159 -12q-76 0 -108 45.5t-32 133.5q0 167 100.5 276.5t259.5 109.5q69 0 133 -11l-56 -542h-151l8 71q-86 -83 -154 -83zM202 121q39 0 123 66l24 240q-2 1 -9 1q-70 0 -120 -70.5t-50 -175.5q0 -61 32 -61z" />
<glyph unicode="&#xe3;" horiz-adv-x="553" d="M440 628q-24 0 -67.5 21.5t-65.5 21.5q-48 0 -89 -31l-58 82q71 74 156 74q31 0 71.5 -19.5t61.5 -19.5q41 0 97 29l48 -85q-76 -73 -154 -73zM159 -12q-76 0 -108 45.5t-32 133.5q0 167 100.5 276.5t259.5 109.5q69 0 133 -11l-56 -542h-151l8 71q-86 -83 -154 -83z M202 121q39 0 123 66l24 240q-2 1 -9 1q-70 0 -120 -70.5t-50 -175.5q0 -61 32 -61z" />
<glyph unicode="&#xe4;" horiz-adv-x="553" d="M244 616l-83 94l102 93l83 -93zM473 616l-83 94l102 93l84 -93zM159 -12q-76 0 -108 45.5t-32 133.5q0 167 100.5 276.5t259.5 109.5q69 0 133 -11l-56 -542h-151l8 71q-86 -83 -154 -83zM202 121q39 0 123 66l24 240q-2 1 -9 1q-70 0 -120 -70.5t-50 -175.5 q0 -61 32 -61z" />
<glyph unicode="&#xe5;" horiz-adv-x="553" d="M355 590q-57 0 -94.5 25.5t-37.5 79.5q0 66 45 106.5t112 40.5q54 0 92 -29t38 -82q0 -66 -44 -103.5t-111 -37.5zM363 664q23 0 39 14t16 38q0 21 -13.5 33.5t-34.5 12.5q-26 0 -40.5 -13.5t-14.5 -38.5q0 -46 48 -46zM159 -12q-76 0 -108 45.5t-32 133.5 q0 167 100.5 276.5t259.5 109.5q69 0 133 -11l-56 -542h-151l8 71q-86 -83 -154 -83zM202 121q39 0 123 66l24 240q-2 1 -9 1q-70 0 -120 -70.5t-50 -175.5q0 -61 32 -61z" />
<glyph unicode="&#xe6;" horiz-adv-x="815" d="M159 -12q-76 0 -107.5 46.5t-31.5 135.5q0 170 102 278.5t261 108.5q55 0 106 -9l-4 -33q64 46 142 46q89 0 131.5 -40t42.5 -102q0 -37 -15 -66.5t-43 -50t-57 -34t-68 -25.5l-138 -44v-8q0 -40 11.5 -58.5t37.5 -18.5q56 0 165 57l52 -100q-127 -83 -253 -83 q-123 0 -148 111q-98 -111 -186 -111zM203 121q38 0 122 65l26 246h-11q-67 0 -117.5 -70t-50.5 -175q0 -66 31 -66zM494 313l121 47q43 18 43 52q0 13 -10 21.5t-25 8.5q-45 0 -80.5 -35.5t-48.5 -93.5z" />
<glyph unicode="&#xe7;" horiz-adv-x="461" d="M117 -275l-42 90q2 1 18 10t22.5 13.5t17.5 13t16 17t6 17.5q2 17 -7 63h119q17 -47 14 -78q-9 -84 -164 -146zM195 -12q-91 0 -131 48.5t-40 151.5q0 157 80 265.5t220 108.5q47 0 87 -14.5t62 -33.5l-66 -102q-45 27 -82 27q-41 0 -71 -23.5t-45 -61t-22 -74.5t-7 -73 q0 -90 37 -90q32 0 62 9t90 39l49 -103q-74 -45 -119 -59q-49 -15 -104 -15z" />
<glyph unicode="&#xe8;" horiz-adv-x="515" d="M366 589l-269 121l59 124l261 -140zM189 -12q-165 0 -165 210q0 68 18 131.5t53.5 116t94.5 84t133 31.5q89 0 134.5 -42.5t45.5 -104.5q0 -69 -50 -109.5t-134 -66.5l-140 -44v-13q0 -37 10.5 -52.5t36.5 -15.5q57 0 164 59l52 -101q-127 -83 -253 -83zM192 309l124 46 q43 16 43 52q0 16 -11.5 26t-27.5 10q-45 0 -79 -35t-49 -99z" />
<glyph unicode="&#xe9;" horiz-adv-x="515" d="M218 591l-42 104l276 140l49 -122zM189 -12q-165 0 -165 210q0 68 18 131.5t53.5 116t94.5 84t133 31.5q89 0 134.5 -42.5t45.5 -104.5q0 -69 -50 -109.5t-134 -66.5l-140 -44v-13q0 -37 10.5 -52.5t36.5 -15.5q57 0 164 59l52 -101q-127 -83 -253 -83zM192 309l124 46 q43 16 43 52q0 16 -11.5 26t-27.5 10q-45 0 -79 -35t-49 -99z" />
<glyph unicode="&#xea;" horiz-adv-x="515" d="M163 597l-62 108l236 128l202 -127l-77 -109l-142 81zM189 -12q-165 0 -165 210q0 68 18 131.5t53.5 116t94.5 84t133 31.5q89 0 134.5 -42.5t45.5 -104.5q0 -69 -50 -109.5t-134 -66.5l-140 -44v-13q0 -37 10.5 -52.5t36.5 -15.5q57 0 164 59l52 -101q-127 -83 -253 -83 zM192 309l124 46q43 16 43 52q0 16 -11.5 26t-27.5 10q-45 0 -79 -35t-49 -99z" />
<glyph unicode="&#xeb;" horiz-adv-x="515" d="M192 616l-83 94l102 93l83 -93zM421 616l-83 94l102 93l84 -93zM189 -12q-165 0 -165 210q0 68 18 131.5t53.5 116t94.5 84t133 31.5q89 0 134.5 -42.5t45.5 -104.5q0 -69 -50 -109.5t-134 -66.5l-140 -44v-13q0 -37 10.5 -52.5t36.5 -15.5q57 0 164 59l52 -101 q-127 -83 -253 -83zM192 309l124 46q43 16 43 52q0 16 -11.5 26t-27.5 10q-45 0 -79 -35t-49 -99z" />
<glyph unicode="&#xec;" horiz-adv-x="281" d="M254 589l-269 121l59 124l261 -140zM32 0l57 546h152l-58 -546h-151z" />
<glyph unicode="&#xed;" horiz-adv-x="281" d="M86 591l-42 104l276 140l49 -122zM32 0l57 546h152l-58 -546h-151z" />
<glyph unicode="&#xee;" horiz-adv-x="281" d="M24 597l-62 108l236 128l202 -127l-77 -109l-142 81zM32 0l57 546h152l-58 -546h-151z" />
<glyph unicode="&#xef;" horiz-adv-x="281" d="M54 616l-83 94l102 93l83 -93zM283 616l-83 94l102 93l84 -93zM32 0l57 546h152l-58 -546h-151z" />
<glyph unicode="&#xf1;" d="M402 628q-24 0 -67.5 21.5t-65.5 21.5q-48 0 -89 -31l-58 82q71 74 156 74q31 0 71.5 -19.5t61.5 -19.5q41 0 97 29l48 -85q-76 -73 -154 -73zM32 0l58 546h151l-6 -59q108 73 180 73q63 0 89.5 -24t26.5 -88q0 -24 -3 -54l-41 -394h-152l40 366q1 8 1 21q0 27 -19 27 q-34 0 -135 -46l-39 -368h-151z" />
<glyph unicode="&#xf2;" horiz-adv-x="561" d="M403 589l-269 121l59 124l261 -140zM230 -12q-98 0 -152 57.5t-54 153.5q0 158 80 258.5t220 100.5q99 0 152 -58.5t53 -149.5q0 -45 -8 -91t-29.5 -96t-54 -88t-86 -62.5t-121.5 -24.5zM253 112q46 0 84.5 63t38.5 174q0 51 -20 70t-58 19q-47 0 -83 -64.5t-36 -169.5 q0 -43 19 -67.5t55 -24.5z" />
<glyph unicode="&#xf3;" horiz-adv-x="561" d="M225 591l-42 104l276 140l49 -122zM230 -12q-98 0 -152 57.5t-54 153.5q0 158 80 258.5t220 100.5q99 0 152 -58.5t53 -149.5q0 -45 -8 -91t-29.5 -96t-54 -88t-86 -62.5t-121.5 -24.5zM253 112q46 0 84.5 63t38.5 174q0 51 -20 70t-58 19q-47 0 -83 -64.5t-36 -169.5 q0 -43 19 -67.5t55 -24.5z" />
<glyph unicode="&#xf4;" horiz-adv-x="561" d="M173 597l-62 108l236 128l202 -127l-77 -109l-142 81zM230 -12q-98 0 -152 57.5t-54 153.5q0 158 80 258.5t220 100.5q99 0 152 -58.5t53 -149.5q0 -45 -8 -91t-29.5 -96t-54 -88t-86 -62.5t-121.5 -24.5zM253 112q46 0 84.5 63t38.5 174q0 51 -20 70t-58 19 q-47 0 -83 -64.5t-36 -169.5q0 -43 19 -67.5t55 -24.5z" />
<glyph unicode="&#xf5;" horiz-adv-x="561" d="M398 628q-24 0 -67.5 21.5t-65.5 21.5q-48 0 -89 -31l-58 82q71 74 156 74q31 0 71.5 -19.5t61.5 -19.5q41 0 97 29l48 -85q-76 -73 -154 -73zM230 -12q-98 0 -152 57.5t-54 153.5q0 158 80 258.5t220 100.5q99 0 152 -58.5t53 -149.5q0 -45 -8 -91t-29.5 -96t-54 -88 t-86 -62.5t-121.5 -24.5zM253 112q46 0 84.5 63t38.5 174q0 51 -20 70t-58 19q-47 0 -83 -64.5t-36 -169.5q0 -43 19 -67.5t55 -24.5z" />
<glyph unicode="&#xf6;" horiz-adv-x="561" d="M209 616l-83 94l102 93l83 -93zM438 616l-83 94l102 93l84 -93zM230 -12q-98 0 -152 57.5t-54 153.5q0 158 80 258.5t220 100.5q99 0 152 -58.5t53 -149.5q0 -45 -8 -91t-29.5 -96t-54 -88t-86 -62.5t-121.5 -24.5zM253 112q46 0 84.5 63t38.5 174q0 51 -20 70t-58 19 q-47 0 -83 -64.5t-36 -169.5q0 -43 19 -67.5t55 -24.5z" />
<glyph unicode="&#xf8;" horiz-adv-x="561" d="M46 -30l-44 37l56 66q-34 53 -34 126q0 158 80 258.5t220 100.5q74 0 122 -34l50 58l43 -41l-50 -58q40 -55 40 -133q0 -46 -8 -92t-29.5 -95.5t-54 -87.5t-86 -62.5t-121.5 -24.5q-81 0 -132 42zM179 214l177 204q-19 20 -58 20q-43 0 -79 -57.5t-40 -153.5v-13z M253 112q44 0 81.5 58.5t40.5 160.5v20l-181 -210q18 -29 59 -29z" />
<glyph unicode="&#xf9;" d="M393 588l-269 121l59 124l261 -140zM168 -12q-68 0 -97 25.5t-29 97.5q0 23 3 55l40 380h152l-40 -373q-1 -5 -1 -15q0 -33 27 -33q41 0 126 46l40 375h151l-58 -546h-151l7 59q-93 -71 -170 -71z" />
<glyph unicode="&#xfa;" d="M224 590l-42 104l276 140l49 -122zM168 -12q-68 0 -97 25.5t-29 97.5q0 23 3 55l40 380h152l-40 -373q-1 -5 -1 -15q0 -33 27 -33q41 0 126 46l40 375h151l-58 -546h-151l7 59q-93 -71 -170 -71z" />
<glyph unicode="&#xfb;" d="M171 597l-62 108l236 128l202 -127l-77 -109l-142 81zM168 -12q-68 0 -97 25.5t-29 97.5q0 23 3 55l40 380h152l-40 -373q-1 -5 -1 -15q0 -33 27 -33q41 0 126 46l40 375h151l-58 -546h-151l7 59q-93 -71 -170 -71z" />
<glyph unicode="&#xfc;" d="M199 616l-83 94l102 93l83 -93zM428 616l-83 94l102 93l84 -93zM168 -12q-68 0 -97 25.5t-29 97.5q0 23 3 55l40 380h152l-40 -373q-1 -5 -1 -15q0 -33 27 -33q41 0 126 46l40 375h151l-58 -546h-151l7 59q-93 -71 -170 -71z" />
<glyph unicode="&#xff;" horiz-adv-x="542" d="M181 616l-83 94l102 93l83 -93zM410 616l-83 94l102 93l84 -93zM47 -220l114 220h-41l-80 546h160l40 -400q12 21 37.5 73t44.5 93l20 42q36 75 36 149q0 22 -3 43h162q4 -19 4 -43q0 -78 -50 -174l-285 -549h-159z" />
<glyph unicode="&#x152;" horiz-adv-x="1115" d="M368 -12q-154 0 -241.5 80.5t-87.5 228.5q0 198 113.5 309.5t310.5 111.5q110 0 180 -44l3 33h452l-13 -122h-297l-18 -173h275l-12 -114h-275l-19 -177h320l-12 -122l-475 1l3 33q-87 -45 -207 -45zM384 111q150 0 212 121l25 240q-35 123 -180 123q-120 0 -182.5 -78.5 t-62.5 -202.5q0 -95 47.5 -149t140.5 -54z" />
<glyph unicode="&#x153;" horiz-adv-x="845" d="M230 -12q-98 0 -152 58t-54 153q0 158 80 258.5t220 100.5q101 0 152 -66q72 69 182 69q88 0 130.5 -40t42.5 -102q0 -37 -15 -66.5t-43 -50t-57 -34t-68 -25.5l-138 -44v-10q1 -40 12 -57.5t37 -17.5q57 0 165 57l52 -100q-127 -83 -253 -83q-83 0 -122 59 q-69 -59 -171 -59zM253 112q46 0 84.5 63t38.5 174q0 51 -20 70t-58 19q-46 0 -82.5 -64t-36.5 -170q0 -43 19 -67.5t55 -24.5zM524 313l121 47q43 18 43 52q0 13 -10 21.5t-25 8.5q-45 0 -80.5 -35.5t-48.5 -93.5z" />
<glyph unicode="&#x178;" horiz-adv-x="647" d="M246 747l-78 89l97 88l78 -88zM484 747l-79 89l97 88l79 -88zM211 0l25 235l-206 472h177l125 -342l207 342h173l-322 -467l-24 -240h-155z" />
<glyph unicode="&#x192;" horiz-adv-x="473" d="M-20 -56l9 124q6 0 26.5 1.5t27.5 2t24.5 3t24.5 6t19.5 10t18 14.5t11 20.5t7.5 28.5l8 72h-104l13 122h104l6 58q8 76 49.5 123t102 65t146.5 18l-4 -129q-83 -6 -107 -18q-34 -18 -39 -62l-6 -55h117l-13 -122h-117l-8 -74q-11 -102 -83 -155t-233 -53z" />
<glyph unicode="&#x531;" horiz-adv-x="805" d="M358 -13q-59 0 -109 12t-92.5 39t-67 76t-24.5 117q0 29 2 44l46 432h156l-44 -426q-2 -22 -2 -32q0 -69 36.5 -100.5t110.5 -31.5q82 0 127.5 44t55.5 142l42 404h152l-43 -407q-10 -93 -45 -155l127 -86l-81 -98l-127 91q-87 -65 -220 -65z" />
<glyph unicode="&#x532;" horiz-adv-x="757" d="M428 720q59 0 109 -12t92.5 -39t67 -76t24.5 -117q0 -29 -2 -44l-2 -15l-158 -6l2 15q2 22 2 32q0 69 -36.5 100.5t-110.5 31.5q-82 0 -127.5 -44t-55.5 -142l-13 -118h500l-15 -122h-497l-17 -164h-152l43 407q9 88 42.5 151.5t83.5 97t104.5 49t115.5 15.5z" />
<glyph unicode="&#x533;" horiz-adv-x="741" d="M361 718q284 0 284 -258q0 -26 -3 -54l-11 -108h118l-14 -121h-117l-18 -177h-157l18 177h-143q-145 0 -216.5 58.5t-71.5 164.5q0 11 2 33q14 134 100.5 209.5t228.5 75.5zM191 450q-2 -24 -2 -34q0 -60 30 -89t99 -29h156l11 105q3 21 3 45q0 141 -141 142 q-71 1 -111 -43t-45 -97z" />
<glyph unicode="&#x534;" horiz-adv-x="760" d="M758 221h-117l-23 -221h-156l44 426q2 22 2 32q0 69 -36.5 100.5t-110.5 31.5q-82 0 -127.5 -44t-55.5 -142l-4 -29h-152l5 32q9 88 42.5 151.5t83.5 97t104.5 49t115.5 15.5q59 0 109 -12t92.5 -39t67 -76t24.5 -117q0 -29 -2 -44l-10 -89h119z" />
<glyph unicode="&#x535;" horiz-adv-x="745" d="M358 -13q-59 0 -109 12t-92.5 39t-67 76t-24.5 117q0 29 2 44l46 432h156l-17 -162h474l-13 -123h-474l-14 -141q-2 -22 -2 -32q0 -69 36.5 -100.5t110.5 -31.5q75 0 119 36t59 116l146 -30q-16 -70 -51 -121t-82.5 -78.5t-97 -40t-105.5 -12.5z" />
<glyph unicode="&#x536;" horiz-adv-x="755" d="M130 -51h-129l28 272h130l-9 -82h12q149 28 240 97q-36 -9 -71 -9q-115 0 -175 49.5t-60 137.5q0 9 2 29q12 120 99 197.5t220 77.5q129 0 197 -59t68 -159q0 -9 -2 -31q-15 -136 -93 -221t-211 -118l2 -5l156 12q86 7 139 -28t59 -105l-123 -56q-9 32 -29.5 48.5 t-40.5 20t-53 3.5h-349zM396 326q42 0 98 21q26 50 32 114q6 57 -26 97.5t-95 40.5q-64 0 -106.5 -45.5t-48.5 -98.5q-7 -64 31 -96.5t115 -32.5z" />
<glyph unicode="&#x537;" horiz-adv-x="592" d="M569 423h-321l-27 -289h122q81 0 125 -48.5t44 -121.5l-122 -55q-5 48 -37 69.5t-78 21.5h-225l74 707h152l-16 -161h323z" />
<glyph unicode="&#x538;" horiz-adv-x="768" d="M428 720q59 0 109 -12t92.5 -39t67 -76t24.5 -117q0 -29 -2 -44l-2 -15l-158 -6l2 15q2 22 2 32q0 69 -36.5 100.5t-110.5 31.5q-82 0 -127.5 -44t-55.5 -142l-30 -282h517l-15 -122h-666l43 407q9 88 42.5 151.5t83.5 97t104.5 49t115.5 15.5z" />
<glyph unicode="&#x539;" horiz-adv-x="949" d="M503 718q64 0 122.5 -13.5t112.5 -41.5t88.5 -80t39.5 -121q1 -5 1 -14h109l-12 -120h-107l-4 -42q-17 -157 -98 -228t-204 -71q-106 0 -167.5 49.5t-61.5 142.5q0 11 2 35q5 49 20.5 87.5t47.5 73.5t90.5 54t139.5 19h84q-17 142 -221 142q-111 0 -178 -55.5t-78 -151.5 l-44 -383h-151l42 393q8 72 35.5 128.5t68 93t94.5 60t110 33.5t119 10zM563 116q52 0 87.5 28.5t44.5 89.5l7 94h-92q-55 0 -92.5 -26.5t-46.5 -77.5q-9 -108 92 -108z" />
<glyph unicode="&#x53a;" horiz-adv-x="726" d="M266 -12q-118 0 -185.5 59t-67.5 166q0 146 87 227.5t241 81.5h125l19 185h156l-19 -185h124l-18 -127h-119l-9 -95q-14 -143 -97 -227.5t-237 -84.5zM170 233q0 -117 114 -117q70 0 110 46.5t50 146.5l9 86h-121q-30 0 -56.5 -8t-51.5 -25.5t-39.5 -50.5t-14.5 -78z" />
<glyph unicode="&#x53b;" horiz-adv-x="736" d="M282 707l-23 -215q74 56 169 56q124 0 201.5 -56.5t77.5 -181.5q0 -21 -3 -45l-13 -130h-158l13 124q2 22 2 30q0 130 -143 130q-91 0 -160 -55l-38 -364h-158l75 707h158z" />
<glyph unicode="&#x53c;" horiz-adv-x="544" d="M50 0l74 707h154l-61 -584h307l-13 -123h-461z" />
<glyph unicode="&#x53d;" horiz-adv-x="1070" d="M125 708h157l-18 -162h354l-30 -274q-2 -22 -2 -31q0 -113 125 -113q77 0 111 41t44 127l24 250h162l-30 -256q-32 -301 -329 -301q-52 0 -98 11t-86 34t-63.5 66t-23.5 100q0 18 3 39l18 188h-191l-48 -427h-157z" />
<glyph unicode="&#x53e;" horiz-adv-x="934" d="M726 553l-3 -3q82 -64 82 -168q0 -185 -103.5 -289.5t-288.5 -104.5q-141 0 -223 74.5t-82 211.5q0 180 125 277l-6 3q-42 -8 -71 -8q-65 0 -101 32t-55 95l121 85q27 -51 76 -72t137 -21h356q86 0 141.5 -9t86.5 -30t44.5 -43.5t26.5 -62.5l-119 -82q-27 65 -62.5 90 t-81.5 25zM653 368q0 90 -51 133.5t-133 43.5h-10q-91 0 -147.5 -71t-56.5 -181q0 -86 43.5 -135.5t128.5 -49.5q112 0 169 72.5t57 187.5z" />
<glyph unicode="&#x53f;" horiz-adv-x="717" d="M313 160q-119 0 -193 64.5t-74 182.5q0 27 2 42l28 258h157l-28 -264q-9 -79 31 -115.5t115 -36.5q97 0 162 51l22 204h152l-58 -546h-152l22 213q-85 -53 -186 -53z" />
<glyph unicode="&#x540;" horiz-adv-x="573" d="M531 0h-502l-24 75l283 380l-101 73q-49 36 -49 94q0 76 63 141l100 -59q-31 -40 -28 -71q3 -27 29 -42l168 -98l-262 -371h338z" />
<glyph unicode="&#x541;" horiz-adv-x="756" d="M408 720q136 0 208.5 -65t72.5 -181q0 -170 -102 -307q77 -46 148 -46l-33 -121q-108 0 -213 69q-113 -81 -256 -81q-111 0 -164 45t-45 128q8 76 66 122t162 46q62 0 114.5 -23.5t114.5 -66.5q50 90 50 212q0 76 -34.5 107.5t-102.5 31.5q-173 0 -191 -177l-150 11 q15 145 109.5 220.5t245.5 75.5zM243 97q85 0 149 45q-92 70 -152 70q-81 0 -86 -56q-2 -28 23 -43.5t66 -15.5z" />
<glyph unicode="&#x542;" horiz-adv-x="769" d="M758 0h-296l44 426q2 22 2 32q0 69 -36.5 100.5t-110.5 31.5q-82 0 -127.5 -44t-55.5 -142l-4 -29h-152l5 32q9 88 42.5 151.5t83.5 97t104.5 49t115.5 15.5q59 0 109 -12t92.5 -39t67 -76t24.5 -117q0 -29 -2 -44l-33 -310h142z" />
<glyph unicode="&#x543;" horiz-adv-x="722" d="M720 0h-164l-46 79q-53 -40 -125 -65.5t-143 -25.5q-104 0 -169.5 60t-55.5 161q19 176 224 324q-50 64 -135 114l128 70q52 -38 116 -114q116 63 279 115l53 -117q-148 -49 -258 -109q59 -89 92 -145zM272 119q89 0 184 53l-69 120q-46 81 -79 125q-117 -91 -128 -188 q-4 -45 19 -77.5t73 -32.5z" />
<glyph unicode="&#x544;" horiz-adv-x="824" d="M872 585h-138l-30 -285q-9 -88 -42.5 -151.5t-83.5 -97t-104.5 -49t-115.5 -15.5q-59 0 -109 12t-92.5 39t-67 76t-24.5 117q0 29 2 44l46 432h156l-44 -426q-2 -22 -2 -32q0 -69 36.5 -100.5t110.5 -31.5q82 0 127.5 44t55.5 142l42 404h292z" />
<glyph unicode="&#x545;" horiz-adv-x="712" d="M342 -12q-131 0 -210.5 39.5t-105.5 139.5l115 61q30 -67 79 -90t147 -23q57 0 100 30t47 74q5 46 -22.5 68.5t-94.5 22.5h-356l12 122h357q65 1 88 17.5t28 56.5q4 39 -28.5 64.5t-91.5 25.5q-79 0 -120.5 -21t-70.5 -63l-138 28q21 54 58 91.5t86 55t95.5 24.5t103.5 7 q122 0 188 -48t55 -154q-11 -94 -81 -138q97 -37 88 -137q-7 -68 -38 -119t-78 -79t-100 -41.5t-112 -13.5z" />
<glyph unicode="&#x546;" horiz-adv-x="766" d="M405 -13q-59 0 -109 12t-92.5 39t-67 76t-24.5 117q0 29 2 44l33 310h-144l14 122h299l-44 -426q-2 -22 -2 -32q0 -69 36.5 -100.5t110.5 -31.5q82 0 127.5 44t55.5 142l1 15h152l-2 -18q-9 -88 -42.5 -151.5t-83.5 -97t-104.5 -49t-115.5 -15.5z" />
<glyph unicode="&#x547;" horiz-adv-x="738" d="M699 478l-208 40q-47 1 -97 -12.5t-97 -41t-77 -75.5t-30 -109q0 -77 42 -120.5t113 -43.5q79 0 139.5 47t80.5 121l129 -30q-30 -133 -132 -199t-232 -66q-45 0 -84.5 7t-79.5 26t-68.5 49t-46.5 79.5t-18 114.5q0 219 248 294l-172 34l36 125l585 -122z" />
<glyph unicode="&#x548;" horiz-adv-x="780" d="M428 720q59 0 109 -12t92.5 -39t67 -76t24.5 -117q0 -29 -2 -44l-46 -432h-156l44 426q2 22 2 32q0 69 -36.5 100.5t-110.5 31.5q-82 0 -127.5 -44t-55.5 -142l-42 -404h-152l43 407q9 88 42.5 151.5t83.5 97t104.5 49t115.5 15.5z" />
<glyph unicode="&#x549;" horiz-adv-x="710" d="M548 -34l-539 193l59 120l219 -82q31 8 60 17.5t65.5 29t63 43.5t45 60.5t18.5 79.5q0 76 -41.5 120t-106.5 44q-82 0 -143 -50.5t-70 -143.5l-127 29q13 98 69 166t129 97t156 29q54 0 103 -14.5t91 -44t67 -81t25 -119.5q0 -218 -275 -310l187 -70z" />
<glyph unicode="&#x54a;" horiz-adv-x="881" d="M322 153l45 430q-80 -17 -128 -66t-55 -126l-10 -91h-152l10 93q9 88 51.5 154t105.5 101.5t130.5 52.5t138.5 17q74 0 137 -14.5t116 -46t83 -88t30 -132.5q0 -29 -2 -44l-41 -393h-158l41 390q7 75 -29.5 125t-111.5 67l-45 -429h-156z" />
<glyph unicode="&#x54b;" horiz-adv-x="750" d="M127 -45h-129l28 266h129l-9 -83h13q69 14 120 34q7 20 5 37q-2 23 -21.5 40.5t-46 31t-52.5 31.5t-44 53.5t-18 85.5q0 107 89 187t222 80q263 0 263 -226q0 -114 -84 -214.5t-223 -143.5l5 -10l156 12q86 7 139 -27.5t59 -104.5l-123 -56q-9 32 -29.5 48.5t-40.5 20 t-53 3.5h-348zM388 230h3q136 96 136 243q0 55 -33.5 91t-84.5 36q-66 0 -109.5 -41.5t-43.5 -93.5q0 -29 14.5 -52.5t35.5 -39.5t41.5 -31t34 -35.5t12.5 -45.5q0 -15 -6 -31z" />
<glyph unicode="&#x54c;" horiz-adv-x="816" d="M428 720q59 0 109 -12t92.5 -39t67 -76t24.5 -117q0 -29 -2 -44l-10 -89h120l-15 -122h-118l-23 -221h-156l44 426q2 22 2 32q0 69 -36.5 100.5t-110.5 31.5q-82 0 -127.5 -44t-55.5 -142l-42 -404h-152l43 407q9 88 42.5 151.5t83.5 97t104.5 49t115.5 15.5z" />
<glyph unicode="&#x54d;" horiz-adv-x="779" d="M358 -13q-59 0 -109 12t-92.5 39t-67 76t-24.5 117q0 29 2 44l46 432h156l-44 -426q-2 -22 -2 -32q0 -69 36.5 -100.5t110.5 -31.5q82 0 127.5 44t55.5 142l42 404h152l-43 -407q-9 -88 -42.5 -151.5t-83.5 -97t-104.5 -49t-115.5 -15.5z" />
<glyph unicode="&#x54e;" horiz-adv-x="780" d="M755 0h-292l22 211q-80 -51 -173 -51q-124 0 -201 62.5t-77 179.5q0 12 2 36l11 108h158l-11 -103q-16 -152 144 -152q50 0 95.5 19t67.5 53l37 344h152l-62 -585h142z" />
<glyph unicode="&#x54f;" horiz-adv-x="648" d="M372 718q81 0 149 -33.5t97 -91.5l-93 -72q-57 74 -166 74q-53 0 -91.5 -23t-38.5 -53q0 -29 22.5 -48.5t58.5 -30t78.5 -20.5t84.5 -24.5t75.5 -35.5t51.5 -60t12 -92q-10 -92 -104 -156t-223 -64q-215 0 -289 129l95 95q36 -50 91.5 -75t113.5 -25q66 0 107 25t45 63 q3 28 -12.5 47.5t-43 29.5t-62.5 20.5t-72 18t-72 23.5t-61 37t-39.5 57.5t-8.5 85.5q8 80 88 139.5t207 59.5z" />
<glyph unicode="&#x550;" horiz-adv-x="728" d="M428 720q59 0 109 -12t92.5 -39t67 -76t24.5 -117q0 -14 -2 -44l-6 -76h-158l6 70q2 22 2 32q0 69 -36.5 100.5t-110.5 31.5q-82 0 -127.5 -44t-55.5 -142l-42 -404h-152l43 407q9 88 42.5 151.5t83.5 97t104.5 49t115.5 15.5z" />
<glyph unicode="&#x551;" horiz-adv-x="686" d="M102 500q0 108 75 163.5t192 55.5q108 0 166.5 -43.5t58.5 -130.5t-66 -140q120 -39 120 -159q0 -69 -30 -120.5t-81.5 -80.5t-113 -43t-132.5 -14q-98 0 -167.5 32.5t-124.5 102.5l112 72q38 -47 77.5 -63.5t112.5 -16.5q100 0 147 33t47 87q0 82 -169 82 q-67 0 -115.5 -9t-84.5 -39l-83 85q42 36 100 52q-41 41 -41 94zM245 509q0 -79 94 -79h4q44 1 75.5 25t31.5 72q0 40 -26 61.5t-67 21.5q-44 0 -78 -26.5t-34 -74.5z" />
<glyph unicode="&#x552;" horiz-adv-x="654" d="M124 707h158l-18 -169q49 17 97 17q62 0 100.5 -16.5t54 -44.5t21 -55.5t9 -61.5t10.5 -50q12 -30 39.5 -42.5t75.5 -12.5l-29 -127q-37 -7 -65 -7q-88 0 -129 53q-23 31 -32 78t-9.5 81t-19 59t-61.5 25q-41 0 -74 -9l-45 -425h-157z" />
<glyph unicode="&#x553;" horiz-adv-x="810" d="M293 0l7 67q-133 13 -204.5 75.5t-71.5 164.5q0 301 336 335l7 65h158l-7 -64q276 -23 276 -229q0 -314 -337 -346l-7 -68h-157zM469 179q98 15 135 68.5t37 142.5q0 118 -135 140zM312 180l36 350q-97 -15 -133.5 -66t-36.5 -137q0 -120 134 -147z" />
<glyph unicode="&#x554;" horiz-adv-x="739" d="M671 84h-422l-9 -84h-152l9 84h-137l13 114h136l30 279q12 108 91 174.5t216 66.5q132 0 198.5 -56.5t66.5 -156.5q0 -67 -28 -115.5t-76 -74.5t-102.5 -37.5t-117.5 -11.5q-50 0 -118 11l-8 -79h423zM289 470l-9 -85q63 -10 115 -10q75 0 117 31t42 85q0 41 -30 75 t-91 33q-54 -1 -96 -36t-48 -93z" />
<glyph unicode="&#x555;" horiz-adv-x="821" d="M368 -12q-153 0 -241 80.5t-88 228.5q0 197 113 309t310 112q154 0 241 -78.5t87 -227.5q0 -200 -111.5 -312t-310.5 -112zM384 111q123 0 185 79t62 205q0 94 -48 147t-142 53q-120 0 -182.5 -78.5t-62.5 -202.5q0 -95 47.5 -149t140.5 -54z" />
<glyph unicode="&#x556;" horiz-adv-x="773" d="M507 690l-24 -225q6 0 16.5 0.5t15.5 0.5q112 0 173 -46t61 -159q0 -132 -106.5 -202.5t-289.5 -70.5q-210 0 -354 164l91 101q94 -103 199 -126l21 200q-20 -3 -39 -3q-81 0 -139 40t-58 111q0 82 41 139t99 80.5t124 23.5q95 0 169 -28zM590 266q-2 86 -119 85 l-24 -228q143 17 143 143zM216 498q0 -30 16.5 -42t49.5 -12q19 0 40 3l16 152q-7 1 -22 1q-37 0 -68.5 -29t-31.5 -73z" />
<glyph unicode="&#x559;" horiz-adv-x="239" d="M188 483h-100q-54 76 -45 172l11 98h131l-15 -136q-2 -14 -2 -33q0 -55 20 -101z" />
<glyph unicode="&#x55a;" horiz-adv-x="234" d="M53 483q38 59 46 134l15 136h131l-11 -98q-9 -95 -81 -172h-100z" />
<glyph unicode="&#x55b;" horiz-adv-x="0" d="M-287 725l-65 84l215 181l74 -97z" />
<glyph unicode="&#x55c;" horiz-adv-x="0" d="M-110 828q-18 -6 -33 -6q-14 0 -35.5 4.5t-33.5 6.5t-35 -4q-28 -11 -54 -61l-64 37q30 100 102 127q21 8 44 8q11 0 49 -6t44 1q14 5 27 15.5t19 17.5t26 31l56 -41q-11 -38 -38.5 -75.5t-73.5 -54.5z" />
<glyph unicode="&#x55d;" horiz-adv-x="249" d="M257 600l-96 -64l-146 208l112 76z" />
<glyph unicode="&#x55e;" horiz-adv-x="0" d="M-112 865q-37 0 -60.5 -22.5t-59.5 -78.5q-3 -5 -5.5 -8.5t-4.5 -7.5l-59 56q50 78 98.5 117t105.5 39q69 0 99.5 -32.5t25.5 -79.5q-5 -42 -41.5 -71t-90.5 -30l-4 52q35 4 38 30q2 16 -9 26t-33 10z" />
<glyph unicode="&#x55f;" horiz-adv-x="408" d="M383 532h-175q-50 0 -83 14.5t-45 38t-15 42t-1 38.5q16 136 207 136l-9 -85l-26 -2q-63 -5 -66 -44q-3 -22 11 -36.5t49 -14.5h163z" />
<glyph unicode="&#x561;" horiz-adv-x="884" d="M157 -14q-63 0 -89.5 24t-26.5 88q0 24 3 54l38 370h152l-37 -342q-1 -8 -1 -21q0 -27 19 -27q33 0 134 46l36 344h152l-37 -342q-1 -8 -1 -21q0 -27 19 -27q34 0 135 46l36 344h151l-55 -522h-151l6 59q-108 -73 -180 -73q-54 0 -80.5 17t-33.5 60q-1 -1 -4 -2.5 t-4 -2.5q-115 -72 -181 -72z" />
<glyph unicode="&#x562;" horiz-adv-x="571" d="M499 0h-316l-22 -220h-151l77 742h151l-6 -59q108 73 180 73q63 0 89.5 -24t26.5 -88q0 -24 -3 -54l-13 -131h-152l12 103q1 8 1 21q0 27 -19 27q-34 0 -135 -46l-23 -222h315z" />
<glyph unicode="&#x563;" horiz-adv-x="601" d="M283 -220l31 290q-89 -82 -154 -82q-77 0 -108.5 45t-31.5 135q0 167 100.5 267.5t259.5 100.5q69 0 133 -11l-43 -403h132l-13 -122h-132l-23 -220h-151zM203 121q39 0 123 66l24 223q-5 1 -9 1q-70 0 -119.5 -62t-49.5 -166q0 -62 31 -62z" />
<glyph unicode="&#x564;" horiz-adv-x="628" d="M33 0l55 522h151l-6 -57q118 71 179 71q63 0 89.5 -24t26.5 -88q0 -24 -3 -54l-27 -248h131l-12 -122h-132l-24 -220h-152l63 562q1 8 1 21q0 27 -19 27q-34 0 -134 -46l-36 -344h-151z" />
<glyph unicode="&#x565;" horiz-adv-x="565" d="M523 401h-302l-24 -221q-1 -8 -1 -21q0 -27 19 -27q34 0 135 46l10 102h151l-29 -280h-151l6 59q-108 -73 -180 -73q-63 0 -89.5 24t-26.5 88q0 24 3 54l63 601h152l-25 -230h301z" />
<glyph unicode="&#x566;" horiz-adv-x="556" d="M283 -220l31 290q-89 -82 -154 -82q-77 0 -108.5 45t-31.5 135q0 167 100.5 267.5t259.5 100.5q69 0 133 -11l-66 -623h154l-12 -122h-306zM203 121q39 0 123 66l24 223q-5 1 -9 1q-70 0 -119.5 -62t-49.5 -166q0 -62 31 -62z" />
<glyph unicode="&#x567;" horiz-adv-x="558" d="M543 401h-321l-27 -279h129q91 0 125 -33t29 -121l-138 -42q0 21 -1 31.5t-7 22t-20.5 16t-39.5 4.5h-240l79 754h149l-25 -232h321z" />
<glyph unicode="&#x568;" horiz-adv-x="581" d="M10 -220l77 742h151l-6 -59q108 73 180 73q63 0 89.5 -24t26.5 -88q0 -24 -3 -54l-38 -370h-152l37 342q1 8 1 21q0 27 -19 27q-34 0 -135 -46l-46 -442h316l-13 -122h-466z" />
<glyph unicode="&#x569;" horiz-adv-x="682" d="M443 538q100 0 141.5 -48t36.5 -166q0 -2 -0.5 -6t-0.5 -7h77l-12 -108h-81q-19 -75 -58.5 -126t-80.5 -70.5t-82 -19.5q-71 0 -105 32.5t-34 88.5q0 90 55 146.5t137 56.5h46v13q2 52 -15.5 70t-68.5 18q-40 0 -91.5 -22t-87.5 -48l-59 -562h-151l78 742h151l-5 -48 q133 64 210 64zM390 95q23 0 44 31.5t34 84.5h-30q-36 0 -59.5 -23t-23.5 -60q0 -13 9 -23t26 -10z" />
<glyph unicode="&#x56a;" horiz-adv-x="604" d="M535 522h110l-15 -121h-107l-3 -29q-6 -61 -14.5 -106.5t-29 -101t-50.5 -91.5t-81.5 -60.5t-119.5 -24.5q-97 0 -151.5 56t-54.5 145q0 41 10.5 84t35.5 88.5t62 80.5t96 57.5t131 22.5h29q17 159 26 231h151q-2 -19 -25 -231zM174 194q0 -37 18.5 -59.5t55.5 -22.5 q43 0 74 54.5t42 162.5l7 72h-30q-59 0 -98.5 -35t-54 -79.5t-14.5 -92.5z" />
<glyph unicode="&#x56b;" horiz-adv-x="581" d="M10 -220l101 973h151l-30 -290q108 73 180 73q63 0 89.5 -24t26.5 -88q0 -24 -3 -54l-38 -370h-152l37 342q1 8 1 21q0 27 -19 27q-34 0 -135 -46l-58 -564h-151z" />
<glyph unicode="&#x56c;" horiz-adv-x="312" d="M9 -220l79 742h151l-66 -620h152l-13 -122h-303z" />
<glyph unicode="&#x56d;" horiz-adv-x="856" d="M8 -220l104 973h151l-25 -231h271l-37 -342q-1 -8 -1 -21q0 -27 19 -27q34 0 135 46l36 344h151l-55 -522h-151l6 59q-108 -73 -180 -73q-63 0 -89.5 24t-26.5 88q0 24 3 54l25 249h-119l-66 -621h-151z" />
<glyph unicode="&#x56e;" horiz-adv-x="632" d="M153 602l105 178l112 -57l-50 -83q89 -50 140 -118h176l-14 -121h-106q8 -35 8 -71q0 -42 -8 -85.5t-29.5 -90.5t-54 -83t-86 -59.5t-121.5 -23.5q-97 0 -151.5 56t-54.5 145q0 88 23.5 152.5t64 99.5t86 52t97.5 19q-19 19 -43.5 36.5t-40.5 26t-34 17.5t-19 10z M174 194q0 -38 19 -60t55 -22q47 0 85 57t38 160q0 37 -11 72h-38q-148 0 -148 -207z" />
<glyph unicode="&#x56f;" d="M156 -14q-63 0 -89.5 24t-26.5 88q0 24 3 54l65 601h152l-64 -573q-1 -8 -1 -21q0 -27 19 -27q34 0 135 46l36 344h151l-78 -742h-151l29 279q-108 -73 -180 -73z" />
<glyph unicode="&#x570;" horiz-adv-x="582" d="M33 0l78 753h151l-29 -290q108 73 180 73q63 0 89.5 -24t26.5 -88q0 -24 -3 -54l-38 -370h-152l37 342q1 8 1 21q0 27 -19 27q-34 0 -135 -46l-36 -344h-151z" />
<glyph unicode="&#x571;" horiz-adv-x="612" d="M592 0h-152l-46 102q-145 -114 -250 -114q-145 0 -145 137q0 73 63.5 163t182.5 206l-16 12q-55 50 -48 120q7 58 60 112l44 39l84 -75l-27 -27q-14 -14 -17 -37q-2 -24 28 -54l74 -72l-52 -52zM200 121q57 0 153 73l-75 167q-65 -69 -94.5 -113t-29.5 -76q0 -51 46 -51z " />
<glyph unicode="&#x572;" d="M309 -220l63 562q1 8 1 21q0 27 -19 27q-34 0 -134 -46l-36 -344h-151l55 522h151l-6 -57q118 71 179 71q63 0 89.5 -24t26.5 -88q0 -24 -3 -54l-51 -467h156l-13 -123h-308z" />
<glyph unicode="&#x573;" horiz-adv-x="604" d="M572 0h-152l-11 97l-2 12q-142 -123 -232 -123q-77 0 -114 41.5t-37 115.5q0 12 2 36q10 112 85 259q-26 4 -40 5l42 115q31 -4 63 -12q26 36 54 69q126 148 268 149q22 1 57 -4l-24 -134q-19 4 -43 2q-40 -4 -75.5 -30t-79.5 -77q-8 -9 -22 -27q149 -83 211 -260 q19 -54 29 -112zM214 119q24 0 55.5 16.5t46.5 28.5t54 46q7 6 11 9q-15 38 -35 71q-42 64 -105 102q-54 -95 -62 -185q-4 -40 5.5 -64t29.5 -24z" />
<glyph unicode="&#x574;" d="M157 -14q-63 0 -89.5 24t-26.5 88q0 24 3 54l38 370h152l-37 -342q-1 -8 -1 -21q0 -27 19 -27q30 0 134 45l42 392q10 96 52 145t142 49q90 0 150 -31l-54 -108q-44 16 -73 16q-28 0 -44.5 -16.5t-19.5 -37.5l-62 -586h-151l6 58q-109 -72 -180 -72z" />
<glyph unicode="&#x575;" horiz-adv-x="302" d="M258 522l-54 -520q-23 -222 -229 -222q-64 0 -125 23l18 109q60 -11 90 -11q35 0 62.5 27t32.5 75l54 519h151z" />
<glyph unicode="&#x576;" horiz-adv-x="581" d="M156 -14q-63 0 -89.5 24t-26.5 88q0 25 3 55l42 409h-34q-121 0 -121 107q0 28 7 57l112 26q-6 -51 11.5 -75.5t65.5 -23.5l121 2l-51 -475q-1 -8 -1 -21q0 -27 19 -27q34 0 135 46l36 344h151l-55 -522h-151l6 59q-108 -73 -180 -73z" />
<glyph unicode="&#x577;" horiz-adv-x="485" d="M189 -101h239l-25 -119h-219q-112 0 -158 37t-38 117q3 29 18 58t30.5 47t47.5 51l113 117q96 101 101 145q3 27 -12.5 44t-54.5 17q-32 0 -66 -21t-88 -72l-64 89q127 128 266 128q90 0 131 -44t41 -115q0 -9 -2 -29q-11 -92 -108 -188l-119 -117q-72 -70 -75 -105 q-2 -19 7.5 -29.5t34.5 -10.5z" />
<glyph unicode="&#x578;" horiz-adv-x="582" d="M33 0l55 522h151l-6 -59q108 73 180 73q63 0 89.5 -24t26.5 -88q0 -24 -3 -54l-38 -370h-152l37 342q1 8 1 21q0 27 -19 27q-34 0 -135 -46l-36 -344h-151z" />
<glyph unicode="&#x579;" horiz-adv-x="433" d="M185 -101h189l-12 -119h-258q-62 0 -94 33t-32 96q0 73 135 235l77 92l-21 13q-40 25 -59.5 62.5t-14.5 77.5q7 59 60 112l53 54l84 -76l-33 -36q-15 -15 -17 -37q-3 -36 26 -63l99 -89l-196 -262q-29 -39 -29 -56q0 -37 43 -37z" />
<glyph unicode="&#x57a;" horiz-adv-x="884" d="M157 -14q-63 0 -89.5 24t-26.5 88q0 24 3 54l38 370h152l-37 -342q-1 -8 -1 -21q0 -27 19 -27q33 0 134 46l36 344h152l-37 -342q-1 -8 -1 -21q0 -27 19 -27q34 0 135 46l36 344h151l-78 -740h-151l29 277q-108 -73 -180 -73q-54 0 -80.5 17t-33.5 60l-8 -5 q-118 -72 -181 -72z" />
<glyph unicode="&#x57b;" horiz-adv-x="535" d="M105 131q-5 12 -25 42.5t-31 61.5t-11 70q1 95 70 163.5t180 68.5t171.5 -64.5t49.5 -158.5q-5 -44 -33.5 -89t-71.5 -83t-82.5 -65.5t-81.5 -50.5q-29 -15 -51 -32q-34 -26 -39 -57q-1 -7 1 -12.5t6.5 -9t10 -6.5t14 -5t15.5 -3t18.5 -1t18.5 -0.5t19.5 -0.5h18.5h184 l-28 -119h-278q-73 0 -114 37.5t-41 96.5t48 112q17 20 52 47q22 32 10 58zM301 218q50 46 55 94q5 51 -15.5 77t-58.5 26q-87 0 -98 -108q-2 -21 1.5 -40t10.5 -41t9 -28q8 -31 5 -47q61 40 91 67z" />
<glyph unicode="&#x57c;" horiz-adv-x="576" d="M271 0l12 107q86 129 95 235q4 49 -25 49q-28 0 -133 -47l-36 -344h-151l55 522h151l-6 -59q37 29 88.5 51t101.5 22q62 0 87.5 -27t25.5 -79q0 -27 -4 -51q-9 -63 -37.5 -134.5t-65.5 -122.5h81l-13 -122h-226z" />
<glyph unicode="&#x57d;" horiz-adv-x="581" d="M157 -14q-63 0 -89.5 24t-26.5 88q0 24 3 54l38 370h152l-37 -342q-1 -8 -1 -21q0 -27 19 -27q34 0 135 46l36 344h151l-55 -522h-151l6 59q-108 -73 -180 -73z" />
<glyph unicode="&#x57e;" horiz-adv-x="579" d="M157 -14q-63 0 -89.5 24t-26.5 88q0 24 3 54l38 370h152l-37 -342q-1 -8 -1 -21q0 -27 19 -27q34 0 135 46l60 575h151l-91 -851h149l-13 -122h-300l31 279q-108 -73 -180 -73z" />
<glyph unicode="&#x57f;" horiz-adv-x="879" d="M157 -14q-63 0 -89.5 24t-26.5 88q0 24 3 54l38 370h152l-37 -342q-1 -8 -1 -21q0 -27 19 -27q34 0 135 46l36 344h151l-6 -57q118 71 179 71q63 0 89.5 -24t26.5 -88q0 -24 -3 -54l-38 -370h-152l37 342q1 8 1 21q0 27 -19 27q-34 0 -134 -46l-36 -344h-151l6 59 q-108 -73 -180 -73z" />
<glyph unicode="&#x580;" horiz-adv-x="581" d="M10 -220l77 742h151l-6 -59q108 73 180 73q63 0 89.5 -24t26.5 -88q0 -24 -3 -54l-38 -370h-152l37 342q1 8 1 21q0 27 -19 27q-34 0 -135 -46l-58 -564h-151z" />
<glyph unicode="&#x581;" horiz-adv-x="556" d="M170 -228q-121 0 -204 35l37 119q84 -28 152 -28q74 0 109 19t42 80l8 73q-87 -82 -154 -82q-77 0 -108.5 45t-31.5 135q0 166 100.5 267t259.5 101q69 0 133 -11l-58 -548q-21 -205 -285 -205zM203 121q39 0 123 66l24 223q-3 1 -9 1q-70 0 -119.5 -62t-49.5 -166 q0 -62 31 -62z" />
<glyph unicode="&#x582;" horiz-adv-x="339" d="M33 0l55 522h151l-42 -400h151l-12 -122h-303z" />
<glyph unicode="&#x583;" horiz-adv-x="879" d="M157 -14q-63 0 -89.5 24t-26.5 88q0 24 3 54l38 370h152l-37 -342q-1 -8 -1 -21q0 -27 19 -27q34 0 135 46l61 575h151l-31 -288q114 71 179 71q63 0 89.5 -24t26.5 -88q0 -24 -3 -54l-38 -370h-152l37 342q1 8 1 21q0 27 -19 27q-35 0 -133 -45l-59 -565h-151l28 279 q-108 -73 -180 -73z" />
<glyph unicode="&#x584;" horiz-adv-x="552" d="M469 -165h-303l-5 -55h-151l5 55h-75l11 102h75l61 589h151l-4 -40q24 19 62.5 34t70.5 15q76 0 113 -42.5t37 -134.5q0 -54 -9.5 -103t-31.5 -95.5t-55.5 -80.5t-86 -54.5t-117.5 -20.5q-23 0 -34 1l-7 -68h304zM223 122q39 0 68.5 23t45 59.5t23 75t7.5 76.5 q0 27 -11.5 41t-28.5 14q-35 0 -105 -36l-27 -251q18 -2 28 -2z" />
<glyph unicode="&#x585;" horiz-adv-x="562" d="M229 -12q-97 0 -151.5 56t-54.5 145q0 151 80.5 250t219.5 99q98 0 151.5 -61.5t53.5 -146.5q0 -42 -8 -85.5t-29.5 -90.5t-54 -83t-86 -59.5t-121.5 -23.5zM252 112q47 0 85 57t38 160q0 45 -21 67t-57 22q-46 0 -82.5 -62.5t-36.5 -161.5q0 -37 19 -59.5t55 -22.5z" />
<glyph unicode="&#x586;" horiz-adv-x="708" d="M445 733l-23 -216q255 7 255 -202q0 -49 -18.5 -100t-55 -99t-98 -84t-139.5 -48l-21 -204h-148l21 201q-79 7 -130 31t-103 76l63 105q38 -32 54.5 -44.5t51 -26.5t77.5 -19l31 300q-41 1 -75.5 8.5t-66 23.5t-50 47.5t-18.5 74.5q0 58 22.5 100t60 64t78.5 32t86 10 q32 0 76 -9t70 -21zM528 305q0 112 -117 108l-32 -303q64 16 106.5 62.5t42.5 132.5zM170 567q0 -61 103 -61l16 156q-4 1 -13 1q-41 0 -73.5 -23.5t-32.5 -72.5z" />
<glyph unicode="&#x587;" horiz-adv-x="676" d="M633 0h-303l6 59q-108 -73 -180 -73q-63 0 -89.5 24t-26.5 88q0 24 3 54l63 601h152l-62 -573q-1 -8 -1 -21q0 -27 19 -27q34 0 135 46l34 345h151l-41 -401h152z" />
<glyph unicode="&#x589;" horiz-adv-x="318" d="M40 0l16 149h169l-16 -149h-169zM72 314l16 149h169l-16 -149h-169z" />
<glyph unicode="&#x58a;" horiz-adv-x="643" d="M63 230l10 102h500l-10 -102h-500z" />
<glyph unicode="&#x58d;" horiz-adv-x="639" d="M555 476q-24 6 -44 6q-33 0 -63 -11.5t-62.5 -48t-52.5 -94.5q88 97 169 97q35 0 61.5 -16.5t39.5 -37.5q16 -25 16 -56q0 -48 -38 -92q-11 40 -43 72t-90 32q-43 0 -96 -21q103 0 145 -39t42 -93q0 -24 -8 -48q-16 -40 -50 -63t-78 -24q33 48 33 100q0 84 -95 137 q50 -71 50 -131q0 -51 -30 -86t-64 -50q-23 -10 -48 -10q-55 0 -90 48q25 3 50 14t52 34t41.5 65.5t9.5 99.5q-30 -92 -76.5 -130t-95.5 -38q-35 0 -61 15q-53 27 -53 90q0 23 7 44q43 -45 102 -45q74 0 147 77q-72 -34 -124 -34q-59 0 -88.5 34.5t-33.5 72.5 q-5 40 16.5 75.5t63.5 55.5q-3 -13 -3 -30q0 -55 37 -97t127 -45q-117 57 -117 145q0 56 40 100q40 43 94 43q28 0 53 -12q-32 -20 -57.5 -57t-25.5 -84q0 -54 37 -109q-4 25 -4 53q0 52 17 90.5t43 57.5t49.5 27t44.5 8q41 0 69 -25t35 -66z" />
<glyph unicode="&#x58e;" horiz-adv-x="945" d="M503 0h-502l-24 75l283 380l-101 73q-57 42 -47 116q9 65 61 119l100 -59q-24 -32 -27 -58q-5 -34 28 -55l168 -98l-262 -371h338zM760 346l3 32q-57 -39 -99 -39q-34 0 -48.5 13t-14.5 48l23 233h83l-21 -199q0 -15 10 -15q14 0 74 25l23 216q6 52 29 79t78 27 q50 0 82 -17l-29 -60q-23 9 -40 9q-16 0 -25 -9t-10 -20l-34 -323h-84zM567 229l7 70h335l-7 -70h-335z" />
<glyph unicode="&#x58f;" horiz-adv-x="567" d="M249 -12l-19 3q-1 0 -28 6.5t-51 6.5q-51 0 -96 45.5t-37 114.5l14 130q7 68 57.5 111t121.5 61q-1 1 -1 3q-15 56 -95 60q39 35 104 35q21 0 42 -13q8 23 17 38q7 15 17 31.5t17 25.5l6 9q21 -33 30 -66l9 -38q19 13 44 13q65 0 96 -35q-80 -4 -107 -60l-1 -2 q66 -19 108 -61.5t35 -111.5l-14 -130q-8 -69 -62 -114.5t-105 -45.5q-24 0 -52 -6.5t-29 -6.5z" />
<glyph unicode="&#x2013;" horiz-adv-x="544" d="M44 231l11 113h440l-11 -113h-440z" />
<glyph unicode="&#x2014;" horiz-adv-x="914" d="M44 231l11 113h810l-11 -113h-810z" />
<glyph unicode="&#x2018;" horiz-adv-x="233" d="M66 497q6 56 9 78t12 60t25 65t42 56h103q-14 -22 -23.5 -46.5t-15.5 -55.5t-8.5 -49.5t-6 -57t-4.5 -50.5h-133z" />
<glyph unicode="&#x2019;" horiz-adv-x="233" d="M53 497q12 19 21 41.5t14 40.5t9.5 46t6 42.5t4 46.5t3.5 42h133q-6 -70 -11 -101.5t-23.5 -75.5t-52.5 -82h-104z" />
<glyph unicode="&#x201c;" horiz-adv-x="430" d="M66 497q6 71 11 102t23.5 75.5t52.5 81.5h104q-14 -22 -24 -46t-16 -56t-8.5 -49t-6 -58t-4.5 -50h-132zM263 497q6 56 9 78t12 60t25 65t42 56h103q-14 -22 -23.5 -46.5t-15.5 -55.5t-8.5 -49.5t-6 -57t-4.5 -50.5h-133z" />
<glyph unicode="&#x201d;" horiz-adv-x="431" d="M54 497q14 23 23.5 47.5t15.5 55t8.5 49.5t6 57t4.5 50h133q-6 -56 -9 -78t-12 -59.5t-25 -65t-42 -56.5h-103zM251 497q12 19 21 41.5t14 40.5t9.5 46t6 42.5t4 46.5t3.5 42h133q-6 -70 -11 -101.5t-23.5 -75.5t-52.5 -82h-104z" />
<glyph unicode="&#x2020;" horiz-adv-x="541" d="M159 0l59 471l-171 -8l15 136l167 -8l7 163h160l-26 -163l168 8l-14 -136l-169 8l-40 -471h-156z" />
<glyph unicode="&#x2021;" horiz-adv-x="559" d="M168 0l26 163l-170 -8l15 136l168 -8l20 188l-171 -8l15 136l167 -8l8 163h159l-26 -163l168 8l-14 -136l-168 8l-20 -188l170 8l-14 -136l-168 8l-8 -163h-157z" />
<glyph unicode="&#x2022;" horiz-adv-x="366" d="M174 208q-56 0 -94.5 37.5t-38.5 93.5q0 64 47 111t111 47q56 0 94.5 -38t38.5 -94q0 -63 -47.5 -110t-110.5 -47z" />
<glyph unicode="&#x2026;" horiz-adv-x="830" d="M26 0l14 137h155l-15 -137h-154zM305 0l14 137h155l-15 -137h-154zM585 0l14 137h155l-14 -137h-155z" />
<glyph unicode="&#x2039;" horiz-adv-x="282" d="M123 45l-100 227l147 226l88 -39l-110 -187l70 -182z" />
<glyph unicode="&#x203a;" horiz-adv-x="282" d="M103 45l-86 45l108 182l-71 187l97 39l99 -226z" />
<glyph unicode="&#x20ac;" horiz-adv-x="608" d="M357 -8q-51 0 -94.5 9t-82.5 29.5t-65.5 57.5t-35.5 88h-57l7 67h47v8q2 28 6 53h-46l7 68h58q71 180 312 180q97 0 178 -35l-50 -103q-72 21 -143 21q-96 0 -141 -63h200l-8 -68h-223q-7 -29 -6 -53l1 -8h222l-7 -67h-196q37 -67 144 -67q68 0 136 18l21 -106 q-84 -29 -184 -29z" />
<glyph unicode="&#x2122;" horiz-adv-x="850" d="M319 353l128 354h103l33 -249l109 249h106l3 -354h-92l2 191l-86 -191h-117l-27 198l-66 -198h-96zM146 353l28 266h-109l9 89h320l-10 -89h-109l-28 -266h-101z" />
<glyph unicode="&#x2212;" horiz-adv-x="556" d="M56 293l13 122h438l-13 -122h-438z" />
<glyph unicode="&#x221e;" horiz-adv-x="918" d="M206 178q-165 0 -165 142q0 94 55.5 149.5t149.5 55.5q21 0 43.5 -6t37.5 -11t40 -21t33.5 -22t37 -27.5t32.5 -24.5q9 5 43 27.5t51.5 32t47 24.5t55 21.5t50.5 6.5q76 0 121.5 -35t45.5 -108q0 -95 -56.5 -149.5t-151.5 -54.5q-30 0 -65 13.5t-51 23t-60.5 42 t-47.5 34.5q-11 -7 -43.5 -28.5t-50.5 -32t-46.5 -25t-54.5 -21t-51 -6.5zM223 290q24 0 53.5 11.5t45 20.5t46.5 29q-28 21 -42.5 30.5t-42 21.5t-50.5 12q-33 0 -55 -19t-22 -52q0 -54 67 -54zM692 290q33 0 55 18.5t22 51.5q0 28 -19 41.5t-48 13.5q-46 0 -149 -62 q4 -2 17 -11t19.5 -12.5t19 -11.5t21 -11.5t20 -8t22 -6.5t20.5 -2z" />
<glyph unicode="&#x2260;" horiz-adv-x="591" d="M7 11l85 102h-47l11 126h140l105 125h-229l11 126h322l78 93h103l-78 -93h39l-13 -126h-130l-105 -125h221l-13 -126h-312l-85 -102h-103z" />
<glyph unicode="&#x2264;" horiz-adv-x="550" d="M479 133l-2 -16l-13 -117h-453l14 133h408l-392 145l16 151l470 161l-15 -139l-285 -98l264 -97l-13 -123h1z" />
<glyph unicode="&#x2265;" horiz-adv-x="549" d="M31 117l15 139l286 97l-265 98l15 139l436 -161l-16 -151l-424 -145h408l-14 -133h-453z" />
<glyph unicode="&#xe000;" horiz-adv-x="545" d="M0 545h545v-545h-545v545z" />
<glyph unicode="&#xf8ff;" horiz-adv-x="1241" d="M1141 357h-10v-10h-11v10h-10v11h10v10h11v-10h10v-11zM1081 377h-11v11h11v-11zM1081 338h-11v10h11v-10zM1041 377h-11v11h11v-11zM1071 357h-10v-10h-11v10h-10v11h10v10h11v-10h10v-11zM1041 338h-11v10h11v-10zM1001 387h-10v-10h-11v11h10v10h11v-11zM1001 328h-11 v10h-10v10h11v-10h10v-10zM951 377h-11v10h-10v11h11v-10h10v-11zM981 357h-10v-10h-11v10h-10v11h10v10h11v-10h10v-11zM951 338h-10v-10h-11v10h10v10h11v-10zM911 338h-31v9h-10v31h10v10h21v-10h10v-21h-30v-9h30v-10zM900 368v9h-19v-9h19zM851 338h-31v9h-10v41h11 v-40h19v40h11v-50zM791 318h-11v20h-20v9h-10v31h10v10h31v-70zM780 348v29h-19v-29h19zM731 338h-31v9h-10v31h10v10h21v-10h10v-21h-30v-9h30v-10zM720 368v9h-19v-9h19zM671 338h-11v39h-19v-39h-11v70h11v-20h20v-10h10v-40zM611 338h-21v9h-10v30h-10v11h10v10h11v-10 h20v-11h-20v-29h20v-10zM551 347h-10v-9h-21v9h-10v31h10v10h21v-10h10v-31zM540 348v29h-19v-29h19zM491 347h-10v-9h-20v-20h-11v70h31v-10h10v-31zM480 348v29h-19v-29h19zM431 347h-10v-9h-10v-10h-10v-10h-11v11h10v18h-10v41h11v-40h19v40h11v-41zM371 338h-21v9h-10 v30h-10v11h10v10h11v-10h20v-11h-20v-29h20v-10zM311 387h-10v-10h-11v11h10v10h11v-11zM311 328h-11v10h-10v10h11v-10h10v-10zM261 377h-11v10h-10v11h11v-10h10v-11zM291 357h-10v-10h-11v10h-10v11h10v10h11v-10h10v-11zM261 338h-10v-10h-11v10h10v10h11v-10zM211 377 h-11v11h11v-11zM211 338h-11v10h11v-10zM171 377h-11v11h11v-11zM201 357h-10v-10h-11v10h-10v11h10v10h11v-10h10v-11zM171 338h-11v10h11v-10zM131 357h-10v-10h-11v10h-10v11h10v10h11v-10h10v-11z" />
<glyph horiz-adv-x="799" d="M748 124h-118l-13 -124h-156l13 124h-162l13 105h160l5 49h-161l13 105h158l5 43q2 22 2 32q0 69 -36.5 100.5t-110.5 31.5q-82 0 -127.5 -44t-55.5 -142l-4 -29h-152l5 32q9 88 42.5 151.5t83.5 97t104.5 49t115.5 15.5q59 0 109 -12t92.5 -39t67 -76t24.5 -117 q0 -29 -2 -44l-6 -49h119l-11 -105h-119l-5 -49h118z" />
<glyph horiz-adv-x="710" d="M548 -34l-539 193l59 120l219 -82q31 8 60 17.5t65.5 29t63 43.5t45 60.5t18.5 79.5q0 76 -41.5 120t-106.5 44q-82 0 -143 -50.5t-70 -143.5l-127 29q13 98 69 166t129 97t156 29q54 0 103 -14.5t91 -44t67 -81t25 -119.5q0 -218 -275 -310l187 -70zM631 725l-65 84 l215 181l74 -97z" />
<glyph horiz-adv-x="433" d="M185 -101h189l-12 -119h-258q-62 0 -94 33t-32 96q0 73 135 235l77 92l-21 13q-40 25 -59.5 62.5t-14.5 77.5q7 59 60 112l53 54l84 -76l-33 -36q-15 -15 -17 -37q-3 -36 26 -63l99 -89l-196 -262q-29 -39 -29 -56q0 -37 43 -37zM449 725l-65 84l215 181l74 -97z" />
</font>
</defs>
</svg>
