<?xml version="1.0" standalone="no"?>
<!DOCTYPE svg PUBLIC "-//W3C//DTD SVG 1.1//EN" "http://www.w3.org/Graphics/SVG/1.1/DTD/svg11.dtd" >
<svg xmlns="http://www.w3.org/2000/svg">
<metadata></metadata>
<defs>
<font id="fedra_sans_armbold" horiz-adv-x="654" >
<font-face units-per-em="1000" ascent="780" descent="-220" />
<missing-glyph horiz-adv-x="233" />
<glyph unicode="fi" horiz-adv-x="686" d="M101 -150v581h-80v115h80v26q0 110 64 160t164 50q24 0 62.5 -3t56.5 -3q85 0 152 8l26 -126q-78 -26 -173 -26q-18 0 -56.5 2.5t-69.5 2.5t-45 -13.5t-14 -51.5v-26h351v-546h-167v431h-185v-581h-166z" />
<glyph unicode="fl" horiz-adv-x="686" d="M101 -150v581h-80v115h80v26q0 110 64 160t164 50q24 0 62.5 -3t56.5 -3q71 -1 171 11v-787h-167v632q-18 0 -56 2.5t-69 2.5t-45 -13.5t-14 -51.5v-26h116v-115h-117v-581h-166z" />
<glyph unicode="&#x574;&#x576;" horiz-adv-x="1378" d="M1310 0h-167v56q-90 -68 -178 -68q-50 0 -84.5 11.5t-53.5 29t-29.5 48.5t-13 58.5t-2.5 71.5v355h-34q-94 0 -122 62q-12 -3 -20 -11q-17 -14 -17 -41v-572h-167v56q-90 -68 -178 -68q-50 0 -84.5 11.5t-53.5 29t-29.5 48.5t-13 58.5t-2.5 71.5v315h166v-301 q0 -55 15 -71.5t58 -16.5q66 0 122 27v415q0 194 192 194q62 0 131 -15q0 -46 21 -62.5t67 -16.5h115v-454q0 -51 15.5 -69.5t57.5 -18.5q66 0 122 27v362h167v-522z" />
<glyph unicode="&#x574;&#x565;" horiz-adv-x="1303" d="M907 -12q-50 0 -84.5 11.5t-53.5 29t-29.5 48.5t-13 58.5t-2.5 71.5v403q-45 16 -82 16q-28 0 -40.5 -16t-12.5 -38v-572h-167v56q-90 -68 -178 -68q-50 0 -84.5 11.5t-53.5 29t-29.5 48.5t-13 58.5t-2.5 71.5v315h166v-301q0 -55 15 -71.5t58 -16.5q66 0 122 27v415 q0 194 192 194q145 0 276 -39v-208h362v-134h-362v-167q0 -55 15 -71.5t58 -16.5q66 0 122 27v120h167v-280h-167v56q-90 -68 -178 -68z" />
<glyph unicode="&#x574;&#x56b;" horiz-adv-x="1312" d="M244 -12q-50 0 -84.5 11.5t-53.5 29t-29.5 48.5t-13 58.5t-2.5 71.5v315h166v-301q0 -55 15 -71.5t58 -16.5q66 0 122 27v415q0 194 192 194q145 0 276 -39v-263q91 69 178 69q50 0 84.5 -11.5t53.5 -28.5t29.5 -48t13 -59t2.5 -71v-318h-166v304q0 55 -15 71.5t-58 16.5 q-62 0 -122 -29v-583h-167v830q-45 16 -81 16q-28 0 -40.5 -16t-12.5 -38v-572h-167v56q-90 -68 -178 -68z" />
<glyph unicode="&#x57e;&#x576;" horiz-adv-x="1319" d="M767 -220h-345v276q-90 -68 -178 -68q-50 0 -84.5 11.5t-53.5 29t-29.5 48.5t-13 58.5t-2.5 71.5v315h166v-301q0 -55 15 -71.5t58 -16.5q66 0 122 27v404h-86q-134 0 -134 130q0 10 2 34l129 28q0 -46 21 -62.5t67 -16.5h1v77h167v-77h300v-456q0 -51 15.5 -69.5 t57.5 -18.5q66 0 122 27v362h167v-522h-167v56q-90 -68 -178 -68q-50 0 -84.5 11.5t-53.5 29t-29.5 48.5t-13 58.5t-2.5 71.5v357h-134v-653h178v-131z" />
<glyph unicode="&#x574;&#x56d;" horiz-adv-x="1619" d="M723 -220v830q-45 16 -81 16q-28 0 -40.5 -16t-12.5 -38v-572h-167v56q-90 -68 -178 -68q-50 0 -84.5 11.5t-53.5 29t-29.5 48.5t-13 58.5t-2.5 71.5v315h166v-301q0 -55 15 -71.5t58 -16.5q66 0 122 27v415q0 194 192 194q145 0 276 -39v-208h299v-301q0 -55 15 -71.5 t58 -16.5q66 0 122 27v362h167v-522h-167v56q-90 -68 -178 -68q-50 0 -84.5 11.5t-53.5 29t-29.5 48.5t-13 58.5t-2.5 71.5v181h-133v-608h-167z" />
<glyph unicode="&#x531;&#x55b;" horiz-adv-x="824" d="M445 725l-73 84l196 181l84 -97zM401 -13q-65 0 -121 15.5t-104 48.5t-76 94t-28 143v419h172v-413q0 -168 157 -168t157 189v392h167v-395q0 -87 -29 -155l143 -91l-76 -105l-142 95q-84 -69 -220 -69z" />
<glyph unicode="&#x535;&#x55b;" horiz-adv-x="760" d="M719 413h-475v-119q0 -168 157 -168q139 0 155 144l163 -33q-11 -68 -42.5 -118t-76 -78t-94 -41t-105.5 -13q-65 0 -121 15.5t-104 48.5t-76 94t-28 143v419h172v-161h475v-133zM512 725l-73 84l196 181l84 -97z" />
<glyph unicode="&#x537;&#x55b;" horiz-adv-x="609" d="M572 413h-323v-279h125q81 0 130 -48.5t57 -121.5l-117 -55q-10 48 -44 69.5t-80 21.5h-238v707h167v-161h323v-133zM365 725l-73 84l196 181l84 -97z" />
<glyph unicode="&#x538;&#x55b;" horiz-adv-x="770" d="M725 0h-653v393q0 89 28 154.5t75.5 101.5t102.5 52.5t118 16.5q65 0 121 -15.5t104 -48.5t76 -94t28 -143l-172 -6q0 168 -157 168t-157 -189v-256h486v-134zM518 725l-73 84l196 181l84 -97z" />
<glyph unicode="&#x53b;&#x55b;" horiz-adv-x="769" d="M254 707v-227q98 78 212 78q134 0 202.5 -69t68.5 -224v-130h-172v124q0 81 -38 120.5t-119 39.5q-93 0 -154 -55v-364h-172v707h172zM530 725l-73 84l196 181l84 -97z" />
<glyph unicode="&#x548;&#x55b;" horiz-adv-x="797" d="M396 718q65 0 121 -15.5t104 -48.5t76 -94t28 -143v-417h-172v411q0 168 -157 168t-157 -189v-390h-167v393q0 89 28 154.5t75.5 101.5t102.5 52.5t118 16.5zM518 725l-73 84l196 181l84 -97z" />
<glyph unicode="&#x552;&#x55b;" horiz-adv-x="672" d="M82 707h172v-169q48 17 95 17q62 0 102.5 -16.5t58.5 -44.5t26.5 -55.5t15.5 -61.5t16 -50q16 -30 44.5 -42.5t76.5 -12.5l-14 -144q-35 -7 -64 -7q-89 0 -135 53q-22 26 -34.5 62.5t-17.5 67t-13 58.5t-28 44t-55 16q-39 0 -74 -10v-412h-172v707zM449 725l-73 84 l196 181l84 -97z" />
<glyph unicode="&#x555;&#x55b;" horiz-adv-x="831" d="M407 -12q-183 0 -276.5 96.5t-93.5 270.5q0 168 104.5 265.5t284.5 97.5q185 0 276.5 -99t91.5 -266q0 -171 -100 -268t-287 -97zM410 122q111 0 161 62.5t50 169.5q0 105 -50.5 167.5t-153.5 62.5q-107 0 -157.5 -62t-50.5 -166t49.5 -169t151.5 -65zM587 725l-73 84 l196 181l84 -97z" />
<glyph unicode="&#x561;&#x55b;" horiz-adv-x="1016" d="M605 -12q-134 0 -166 84q-104 -84 -196 -84q-50 0 -84.5 11.5t-53.5 29t-29.5 48.5t-13 58.5t-2.5 71.5v315h166v-301q0 -55 15 -71.5t58 -16.5q66 0 122 27v362h167v-301q0 -55 15 -71.5t58 -16.5q66 0 122 27v362h167v-522h-167v56q-90 -68 -178 -68zM742 725l-73 84 l196 181l84 -97z" />
<glyph unicode="&#x565;&#x55b;" horiz-adv-x="638" d="M588 388h-362v-167q0 -55 15 -71.5t58 -16.5q66 0 122 27v120h167v-280h-167v56q-90 -68 -178 -68q-50 0 -84.5 11.5t-53.5 29t-29.5 48.5t-13 58.5t-2.5 71.5v547h166v-232h362v-134zM431 725l-73 84l196 181l84 -97z" />
<glyph unicode="&#x567;&#x55b;" horiz-adv-x="577" d="M554 388h-321v-255h129q89 0 128 -38t44 -127l-134 -42q-2 21 -4.5 31.5t-9.5 22t-22 16t-40 4.5h-258v754h167v-232h321v-134zM397 725l-73 84l196 181l84 -97z" />
<glyph unicode="&#x568;&#x55b;" d="M66 -220v742h167v-55q91 69 178 69q50 0 84.5 -11.5t53.5 -28.5t29.5 -48t13 -59t2.5 -71v-318h-166v304q0 55 -15 71.5t-58 16.5q-62 0 -122 -29v-452h362v-131h-529zM447 725l-73 84l196 181l84 -97z" />
<glyph unicode="&#x56b;&#x55b;" d="M66 -220v974h167v-287q91 69 178 69q50 0 84.5 -11.5t53.5 -28.5t29.5 -48t13 -59t2.5 -71v-318h-166v304q0 55 -15 71.5t-58 16.5q-62 0 -122 -29v-583h-167zM446 725l-73 84l196 181l84 -97z" />
<glyph unicode="&#x578;&#x55b;" d="M66 0v522h167v-55q91 69 178 69q50 0 84.5 -11.5t53.5 -28.5t29.5 -48t13 -59t2.5 -71v-318h-166v304q0 55 -15 71.5t-58 16.5q-62 0 -122 -29v-363h-167zM447 725l-73 84l196 181l84 -97z" />
<glyph unicode="&#x582;&#x55b;" horiz-adv-x="354" d="M66 0v522h167v-389h138v-133h-305zM164 725l-73 84l196 181l84 -97z" />
<glyph unicode="&#x585;&#x55b;" horiz-adv-x="630" d="M308 -12q-134 0 -205.5 70.5t-71.5 199.5q0 134 77 208t209 74q281 0 281 -277q0 -135 -79.5 -205t-210.5 -70zM316 121q64 0 88 34t24 108q0 72 -24.5 108.5t-89.5 36.5q-64 0 -89.5 -37t-25.5 -109q0 -73 26 -107t91 -34zM423 725l-73 84l196 181l84 -97z" />
<glyph unicode="&#xfb14;&#x55b;" horiz-adv-x="1303" d="M907 -12q-50 0 -84.5 11.5t-53.5 29t-29.5 48.5t-13 58.5t-2.5 71.5v403q-45 16 -82 16q-28 0 -40.5 -16t-12.5 -38v-572h-167v56q-90 -68 -178 -68q-50 0 -84.5 11.5t-53.5 29t-29.5 48.5t-13 58.5t-2.5 71.5v315h166v-301q0 -55 15 -71.5t58 -16.5q66 0 122 27v415 q0 194 192 194q145 0 276 -39v-208h362v-134h-362v-167q0 -55 15 -71.5t58 -16.5q66 0 122 27v120h167v-280h-167v56q-90 -68 -178 -68zM1093 725l-73 84l196 181l84 -97z" />
<glyph unicode="&#xfb15;&#x55b;" horiz-adv-x="1312" d="M244 -12q-50 0 -84.5 11.5t-53.5 29t-29.5 48.5t-13 58.5t-2.5 71.5v315h166v-301q0 -55 15 -71.5t58 -16.5q66 0 122 27v415q0 194 192 194q145 0 276 -39v-263q91 69 178 69q50 0 84.5 -11.5t53.5 -28.5t29.5 -48t13 -59t2.5 -71v-318h-166v304q0 55 -15 71.5t-58 16.5 q-62 0 -122 -29v-583h-167v830q-45 16 -81 16q-28 0 -40.5 -16t-12.5 -38v-572h-167v56q-90 -68 -178 -68zM1104 725l-73 84l196 181l84 -97z" />
<glyph unicode="&#x531;&#x55c;" horiz-adv-x="824" d="M357 938q19 8 40 8q11 0 33 -3t33 -3q19 0 34 7q28 12 48 62l73 -31q-23 -102 -90 -130q-24 -11 -55 -11q-11 0 -30 2t-27 2q-17 0 -28 -5q-20 -9 -32.5 -22.5t-31.5 -43.5l-65 35q16 100 98 133zM401 -13q-65 0 -121 15.5t-104 48.5t-76 94t-28 143v419h172v-413 q0 -168 157 -168t157 189v392h167v-395q0 -87 -29 -155l143 -91l-76 -105l-142 95q-84 -69 -220 -69z" />
<glyph unicode="&#x535;&#x55c;" horiz-adv-x="760" d="M719 413h-475v-119q0 -168 157 -168q139 0 155 144l163 -33q-11 -68 -42.5 -118t-76 -78t-94 -41t-105.5 -13q-65 0 -121 15.5t-104 48.5t-76 94t-28 143v419h172v-161h475v-133zM344 938q19 8 40 8q11 0 33 -3t33 -3q19 0 34 7q28 12 48 62l73 -31q-23 -102 -90 -130 q-24 -11 -55 -11q-11 0 -30 2t-27 2q-17 0 -28 -5q-20 -9 -32.5 -22.5t-31.5 -43.5l-65 35q16 100 98 133z" />
<glyph unicode="&#x537;&#x55c;" horiz-adv-x="609" d="M572 413h-323v-279h125q81 0 130 -48.5t57 -121.5l-117 -55q-10 48 -44 69.5t-80 21.5h-238v707h167v-161h323v-133zM292 938q19 8 40 8q11 0 33 -3t33 -3q19 0 34 7q28 12 48 62l73 -31q-23 -102 -90 -130q-24 -11 -55 -11q-11 0 -30 2t-27 2q-17 0 -28 -5 q-20 -9 -32.5 -22.5t-31.5 -43.5l-65 35q16 100 98 133z" />
<glyph unicode="&#x538;&#x55c;" horiz-adv-x="770" d="M725 0h-653v393q0 89 28 154.5t75.5 101.5t102.5 52.5t118 16.5q65 0 121 -15.5t104 -48.5t76 -94t28 -143l-172 -6q0 168 -157 168t-157 -189v-256h486v-134zM314 938q19 8 40 8q11 0 33 -3t33 -3q19 0 34 7q28 12 48 62l73 -31q-23 -102 -90 -130q-24 -11 -55 -11 q-11 0 -30 2t-27 2q-17 0 -28 -5q-20 -9 -32.5 -22.5t-31.5 -43.5l-65 35q16 100 98 133z" />
<glyph unicode="&#x53b;&#x55c;" horiz-adv-x="769" d="M254 707v-227q98 78 212 78q134 0 202.5 -69t68.5 -224v-130h-172v124q0 81 -38 120.5t-119 39.5q-93 0 -154 -55v-364h-172v707h172zM368 938q19 8 40 8q11 0 33 -3t33 -3q19 0 34 7q28 12 48 62l73 -31q-23 -102 -90 -130q-24 -11 -55 -11q-11 0 -30 2t-27 2 q-17 0 -28 -5q-20 -9 -32.5 -22.5t-31.5 -43.5l-65 35q16 100 98 133z" />
<glyph unicode="&#x548;&#x55c;" horiz-adv-x="797" d="M396 718q65 0 121 -15.5t104 -48.5t76 -94t28 -143v-417h-172v411q0 168 -157 168t-157 -189v-390h-167v393q0 89 28 154.5t75.5 101.5t102.5 52.5t118 16.5zM330 938q19 8 40 8q11 0 33 -3t33 -3q19 0 34 7q28 12 48 62l73 -31q-23 -102 -90 -130q-24 -11 -55 -11 q-11 0 -30 2t-27 2q-17 0 -28 -5q-20 -9 -32.5 -22.5t-31.5 -43.5l-65 35q16 100 98 133z" />
<glyph unicode="&#x552;&#x55c;" horiz-adv-x="672" d="M82 707h172v-169q48 17 95 17q62 0 102.5 -16.5t58.5 -44.5t26.5 -55.5t15.5 -61.5t16 -50q16 -30 44.5 -42.5t76.5 -12.5l-14 -144q-35 -7 -64 -7q-89 0 -135 53q-22 26 -34.5 62.5t-17.5 67t-13 58.5t-28 44t-55 16q-39 0 -74 -10v-412h-172v707zM319 938q19 8 40 8 q11 0 33 -3t33 -3q19 0 34 7q28 12 48 62l73 -31q-23 -102 -90 -130q-24 -11 -55 -11q-11 0 -30 2t-27 2q-17 0 -28 -5q-20 -9 -32.5 -22.5t-31.5 -43.5l-65 35q16 100 98 133z" />
<glyph unicode="&#x555;&#x55c;" horiz-adv-x="831" d="M407 -12q-183 0 -276.5 96.5t-93.5 270.5q0 168 104.5 265.5t284.5 97.5q185 0 276.5 -99t91.5 -266q0 -171 -100 -268t-287 -97zM410 122q111 0 161 62.5t50 169.5q0 105 -50.5 167.5t-153.5 62.5q-107 0 -157.5 -62t-50.5 -166t49.5 -169t151.5 -65zM333 938q19 8 40 8 q11 0 33 -3t33 -3q19 0 34 7q28 12 48 62l73 -31q-23 -102 -90 -130q-24 -11 -55 -11q-11 0 -30 2t-27 2q-17 0 -28 -5q-20 -9 -32.5 -22.5t-31.5 -43.5l-65 35q16 100 98 133z" />
<glyph unicode="&#x561;&#x55c;" horiz-adv-x="1016" d="M605 -12q-134 0 -166 84q-104 -84 -196 -84q-50 0 -84.5 11.5t-53.5 29t-29.5 48.5t-13 58.5t-2.5 71.5v315h166v-301q0 -55 15 -71.5t58 -16.5q66 0 122 27v362h167v-301q0 -55 15 -71.5t58 -16.5q66 0 122 27v362h167v-522h-167v56q-90 -68 -178 -68zM430 938 q19 8 40 8q11 0 33 -3t33 -3q19 0 34 7q28 12 48 62l73 -31q-23 -102 -90 -130q-24 -11 -55 -11q-11 0 -30 2t-27 2q-17 0 -28 -5q-20 -9 -32.5 -22.5t-31.5 -43.5l-65 35q16 100 98 133z" />
<glyph unicode="&#x565;&#x55c;" horiz-adv-x="638" d="M588 388h-362v-167q0 -55 15 -71.5t58 -16.5q66 0 122 27v120h167v-280h-167v56q-90 -68 -178 -68q-50 0 -84.5 11.5t-53.5 29t-29.5 48.5t-13 58.5t-2.5 71.5v547h166v-232h362v-134zM307 938q19 8 40 8q11 0 33 -3t33 -3q19 0 34 7q28 12 48 62l73 -31 q-23 -102 -90 -130q-24 -11 -55 -11q-11 0 -30 2t-27 2q-17 0 -28 -5q-20 -9 -32.5 -22.5t-31.5 -43.5l-65 35q16 100 98 133z" />
<glyph unicode="&#x567;&#x55c;" horiz-adv-x="577" d="M554 388h-321v-255h129q89 0 128 -38t44 -127l-134 -42q-2 21 -4.5 31.5t-9.5 22t-22 16t-40 4.5h-258v754h167v-232h321v-134zM315 938q19 8 40 8q11 0 33 -3t33 -3q19 0 34 7q28 12 48 62l73 -31q-23 -102 -90 -130q-24 -11 -55 -11q-11 0 -30 2t-27 2q-17 0 -28 -5 q-20 -9 -32.5 -22.5t-31.5 -43.5l-65 35q16 100 98 133z" />
<glyph unicode="&#x568;&#x55c;" d="M66 -220v742h167v-55q91 69 178 69q50 0 84.5 -11.5t53.5 -28.5t29.5 -48t13 -59t2.5 -71v-318h-166v304q0 55 -15 71.5t-58 16.5q-62 0 -122 -29v-452h362v-131h-529zM277 938q19 8 40 8q11 0 33 -3t33 -3q19 0 34 7q28 12 48 62l73 -31q-23 -102 -90 -130 q-24 -11 -55 -11q-11 0 -30 2t-27 2q-17 0 -28 -5q-20 -9 -32.5 -22.5t-31.5 -43.5l-65 35q16 100 98 133z" />
<glyph unicode="&#x56b;&#x55c;" d="M66 -220v974h167v-287q91 69 178 69q50 0 84.5 -11.5t53.5 -28.5t29.5 -48t13 -59t2.5 -71v-318h-166v304q0 55 -15 71.5t-58 16.5q-62 0 -122 -29v-583h-167zM341 938q19 8 40 8q11 0 33 -3t33 -3q19 0 34 7q28 12 48 62l73 -31q-23 -102 -90 -130q-24 -11 -55 -11 q-11 0 -30 2t-27 2q-17 0 -28 -5q-20 -9 -32.5 -22.5t-31.5 -43.5l-65 35q16 100 98 133z" />
<glyph unicode="&#x578;&#x55c;" d="M66 0v522h167v-55q91 69 178 69q50 0 84.5 -11.5t53.5 -28.5t29.5 -48t13 -59t2.5 -71v-318h-166v304q0 55 -15 71.5t-58 16.5q-62 0 -122 -29v-363h-167zM278 938q19 8 40 8q11 0 33 -3t33 -3q19 0 34 7q28 12 48 62l73 -31q-23 -102 -90 -130q-24 -11 -55 -11 q-11 0 -30 2t-27 2q-17 0 -28 -5q-20 -9 -32.5 -22.5t-31.5 -43.5l-65 35q16 100 98 133z" />
<glyph unicode="&#x582;&#x55c;" horiz-adv-x="354" d="M66 0v522h167v-389h138v-133h-305zM166 938q19 8 40 8q11 0 33 -3t33 -3q19 0 34 7q28 12 48 62l73 -31q-23 -102 -90 -130q-24 -11 -55 -11q-11 0 -30 2t-27 2q-17 0 -28 -5q-20 -9 -32.5 -22.5t-31.5 -43.5l-65 35q16 100 98 133z" />
<glyph unicode="&#x585;&#x55c;" horiz-adv-x="630" d="M308 -12q-134 0 -205.5 70.5t-71.5 199.5q0 134 77 208t209 74q281 0 281 -277q0 -135 -79.5 -205t-210.5 -70zM316 121q64 0 88 34t24 108q0 72 -24.5 108.5t-89.5 36.5q-64 0 -89.5 -37t-25.5 -109q0 -73 26 -107t91 -34zM235 938q19 8 40 8q11 0 33 -3t33 -3 q19 0 34 7q28 12 48 62l73 -31q-23 -102 -90 -130q-24 -11 -55 -11q-11 0 -30 2t-27 2q-17 0 -28 -5q-20 -9 -32.5 -22.5t-31.5 -43.5l-65 35q16 100 98 133z" />
<glyph unicode="&#xfb14;&#x55c;" horiz-adv-x="1303" d="M907 -12q-50 0 -84.5 11.5t-53.5 29t-29.5 48.5t-13 58.5t-2.5 71.5v403q-45 16 -82 16q-28 0 -40.5 -16t-12.5 -38v-572h-167v56q-90 -68 -178 -68q-50 0 -84.5 11.5t-53.5 29t-29.5 48.5t-13 58.5t-2.5 71.5v315h166v-301q0 -55 15 -71.5t58 -16.5q66 0 122 27v415 q0 194 192 194q145 0 276 -39v-208h362v-134h-362v-167q0 -55 15 -71.5t58 -16.5q66 0 122 27v120h167v-280h-167v56q-90 -68 -178 -68zM1004 938q19 8 40 8q11 0 33 -3t33 -3q19 0 34 7q28 12 48 62l73 -31q-23 -102 -90 -130q-24 -11 -55 -11q-11 0 -30 2t-27 2 q-17 0 -28 -5q-20 -9 -32.5 -22.5t-31.5 -43.5l-65 35q16 100 98 133z" />
<glyph unicode="&#xfb15;&#x55c;" horiz-adv-x="1312" d="M244 -12q-50 0 -84.5 11.5t-53.5 29t-29.5 48.5t-13 58.5t-2.5 71.5v315h166v-301q0 -55 15 -71.5t58 -16.5q66 0 122 27v415q0 194 192 194q145 0 276 -39v-263q91 69 178 69q50 0 84.5 -11.5t53.5 -28.5t29.5 -48t13 -59t2.5 -71v-318h-166v304q0 55 -15 71.5t-58 16.5 q-62 0 -122 -29v-583h-167v830q-45 16 -81 16q-28 0 -40.5 -16t-12.5 -38v-572h-167v56q-90 -68 -178 -68zM998 938q19 8 40 8q11 0 33 -3t33 -3q19 0 34 7q28 12 48 62l73 -31q-23 -102 -90 -130q-24 -11 -55 -11q-11 0 -30 2t-27 2q-17 0 -28 -5q-20 -9 -32.5 -22.5 t-31.5 -43.5l-65 35q16 100 98 133z" />
<glyph unicode="&#x531;&#x55e;" horiz-adv-x="824" d="M582 865q-83 0 -146 -117l-65 56q83 156 217 156q69 0 103 -32.5t34 -79.5q0 -42 -34 -71t-87 -30l-11 52q35 4 35 30q0 16 -12 26t-34 10zM401 -13q-65 0 -121 15.5t-104 48.5t-76 94t-28 143v419h172v-413q0 -168 157 -168t157 189v392h167v-395q0 -87 -29 -155 l143 -91l-76 -105l-142 95q-84 -69 -220 -69z" />
<glyph unicode="&#x535;&#x55e;" horiz-adv-x="760" d="M719 413h-475v-119q0 -168 157 -168q139 0 155 144l163 -33q-11 -68 -42.5 -118t-76 -78t-94 -41t-105.5 -13q-65 0 -121 15.5t-104 48.5t-76 94t-28 143v419h172v-161h475v-133zM671 865q-83 0 -146 -117l-65 56q83 156 217 156q69 0 103 -32.5t34 -79.5q0 -42 -34 -71 t-87 -30l-11 52q35 4 35 30q0 16 -12 26t-34 10z" />
<glyph unicode="&#x537;&#x55e;" horiz-adv-x="609" d="M572 413h-323v-279h125q81 0 130 -48.5t57 -121.5l-117 -55q-10 48 -44 69.5t-80 21.5h-238v707h167v-161h323v-133zM559 865q-83 0 -146 -117l-65 56q83 156 217 156q69 0 103 -32.5t34 -79.5q0 -42 -34 -71t-87 -30l-11 52q35 4 35 30q0 16 -12 26t-34 10z" />
<glyph unicode="&#x538;&#x55e;" horiz-adv-x="770" d="M725 0h-653v393q0 89 28 154.5t75.5 101.5t102.5 52.5t118 16.5q65 0 121 -15.5t104 -48.5t76 -94t28 -143l-172 -6q0 168 -157 168t-157 -189v-256h486v-134zM722 865q-83 0 -146 -117l-65 56q83 156 217 156q69 0 103 -32.5t34 -79.5q0 -42 -34 -71t-87 -30l-11 52 q35 4 35 30q0 16 -12 26t-34 10z" />
<glyph unicode="&#x53b;&#x55e;" horiz-adv-x="769" d="M254 707v-227q98 78 212 78q134 0 202.5 -69t68.5 -224v-130h-172v124q0 81 -38 120.5t-119 39.5q-93 0 -154 -55v-364h-172v707h172zM724 865q-83 0 -146 -117l-65 56q83 156 217 156q69 0 103 -32.5t34 -79.5q0 -42 -34 -71t-87 -30l-11 52q35 4 35 30q0 16 -12 26 t-34 10z" />
<glyph unicode="&#x548;&#x55e;" horiz-adv-x="797" d="M396 718q65 0 121 -15.5t104 -48.5t76 -94t28 -143v-417h-172v411q0 168 -157 168t-157 -189v-390h-167v393q0 89 28 154.5t75.5 101.5t102.5 52.5t118 16.5zM742 865q-83 0 -146 -117l-65 56q83 156 217 156q69 0 103 -32.5t34 -79.5q0 -42 -34 -71t-87 -30l-11 52 q35 4 35 30q0 16 -12 26t-34 10z" />
<glyph unicode="&#x552;&#x55e;" horiz-adv-x="672" d="M82 707h172v-169q48 17 95 17q62 0 102.5 -16.5t58.5 -44.5t26.5 -55.5t15.5 -61.5t16 -50q16 -30 44.5 -42.5t76.5 -12.5l-14 -144q-35 -7 -64 -7q-89 0 -135 53q-22 26 -34.5 62.5t-17.5 67t-13 58.5t-28 44t-55 16q-39 0 -74 -10v-412h-172v707zM634 865 q-83 0 -146 -117l-65 56q83 156 217 156q69 0 103 -32.5t34 -79.5q0 -42 -34 -71t-87 -30l-11 52q35 4 35 30q0 16 -12 26t-34 10z" />
<glyph unicode="&#x555;&#x55e;" horiz-adv-x="831" d="M407 -12q-183 0 -276.5 96.5t-93.5 270.5q0 168 104.5 265.5t284.5 97.5q185 0 276.5 -99t91.5 -266q0 -171 -100 -268t-287 -97zM410 122q111 0 161 62.5t50 169.5q0 105 -50.5 167.5t-153.5 62.5q-107 0 -157.5 -62t-50.5 -166t49.5 -169t151.5 -65zM651 865 q-83 0 -146 -117l-65 56q83 156 217 156q69 0 103 -32.5t34 -79.5q0 -42 -34 -71t-87 -30l-11 52q35 4 35 30q0 16 -12 26t-34 10z" />
<glyph unicode="&#x561;&#x55e;" horiz-adv-x="1016" d="M605 -12q-134 0 -166 84q-104 -84 -196 -84q-50 0 -84.5 11.5t-53.5 29t-29.5 48.5t-13 58.5t-2.5 71.5v315h166v-301q0 -55 15 -71.5t58 -16.5q66 0 122 27v362h167v-301q0 -55 15 -71.5t58 -16.5q66 0 122 27v362h167v-522h-167v56q-90 -68 -178 -68zM807 865 q-83 0 -146 -117l-65 56q83 156 217 156q69 0 103 -32.5t34 -79.5q0 -42 -34 -71t-87 -30l-11 52q35 4 35 30q0 16 -12 26t-34 10z" />
<glyph unicode="&#x565;&#x55e;" horiz-adv-x="638" d="M588 388h-362v-167q0 -55 15 -71.5t58 -16.5q66 0 122 27v120h167v-280h-167v56q-90 -68 -178 -68q-50 0 -84.5 11.5t-53.5 29t-29.5 48.5t-13 58.5t-2.5 71.5v547h166v-232h362v-134zM495 865q-83 0 -146 -117l-65 56q83 156 217 156q69 0 103 -32.5t34 -79.5 q0 -42 -34 -71t-87 -30l-11 52q35 4 35 30q0 16 -12 26t-34 10z" />
<glyph unicode="&#x567;&#x55e;" horiz-adv-x="577" d="M554 388h-321v-255h129q89 0 128 -38t44 -127l-134 -42q-2 21 -4.5 31.5t-9.5 22t-22 16t-40 4.5h-258v754h167v-232h321v-134zM491 865q-83 0 -146 -117l-65 56q83 156 217 156q69 0 103 -32.5t34 -79.5q0 -42 -34 -71t-87 -30l-11 52q35 4 35 30q0 16 -12 26t-34 10z " />
<glyph unicode="&#x568;&#x55e;" d="M66 -220v742h167v-55q91 69 178 69q50 0 84.5 -11.5t53.5 -28.5t29.5 -48t13 -59t2.5 -71v-318h-166v304q0 55 -15 71.5t-58 16.5q-62 0 -122 -29v-452h362v-131h-529zM511 865q-83 0 -146 -117l-65 56q83 156 217 156q69 0 103 -32.5t34 -79.5q0 -42 -34 -71t-87 -30 l-11 52q35 4 35 30q0 16 -12 26t-34 10z" />
<glyph unicode="&#x56b;&#x55e;" d="M66 -220v974h167v-287q91 69 178 69q50 0 84.5 -11.5t53.5 -28.5t29.5 -48t13 -59t2.5 -71v-318h-166v304q0 55 -15 71.5t-58 16.5q-62 0 -122 -29v-583h-167zM511 865q-83 0 -146 -117l-65 56q83 156 217 156q69 0 103 -32.5t34 -79.5q0 -42 -34 -71t-87 -30l-11 52 q35 4 35 30q0 16 -12 26t-34 10z" />
<glyph unicode="&#x578;&#x55e;" d="M66 0v522h167v-55q91 69 178 69q50 0 84.5 -11.5t53.5 -28.5t29.5 -48t13 -59t2.5 -71v-318h-166v304q0 55 -15 71.5t-58 16.5q-62 0 -122 -29v-363h-167zM511 865q-83 0 -146 -117l-65 56q83 156 217 156q69 0 103 -32.5t34 -79.5q0 -42 -34 -71t-87 -30l-11 52 q35 4 35 30q0 16 -12 26t-34 10z" />
<glyph unicode="&#x582;&#x55e;" horiz-adv-x="354" d="M66 0v522h167v-389h138v-133h-305zM268 865q-83 0 -146 -117l-65 56q83 156 217 156q69 0 103 -32.5t34 -79.5q0 -42 -34 -71t-87 -30l-11 52q35 4 35 30q0 16 -12 26t-34 10z" />
<glyph unicode="&#x585;&#x55e;" horiz-adv-x="630" d="M308 -12q-134 0 -205.5 70.5t-71.5 199.5q0 134 77 208t209 74q281 0 281 -277q0 -135 -79.5 -205t-210.5 -70zM316 121q64 0 88 34t24 108q0 72 -24.5 108.5t-89.5 36.5q-64 0 -89.5 -37t-25.5 -109q0 -73 26 -107t91 -34zM485 865q-83 0 -146 -117l-65 56 q83 156 217 156q69 0 103 -32.5t34 -79.5q0 -42 -34 -71t-87 -30l-11 52q35 4 35 30q0 16 -12 26t-34 10z" />
<glyph unicode="&#xfb14;&#x55e;" horiz-adv-x="1303" d="M907 -12q-50 0 -84.5 11.5t-53.5 29t-29.5 48.5t-13 58.5t-2.5 71.5v403q-45 16 -82 16q-28 0 -40.5 -16t-12.5 -38v-572h-167v56q-90 -68 -178 -68q-50 0 -84.5 11.5t-53.5 29t-29.5 48.5t-13 58.5t-2.5 71.5v315h166v-301q0 -55 15 -71.5t58 -16.5q66 0 122 27v415 q0 194 192 194q145 0 276 -39v-208h362v-134h-362v-167q0 -55 15 -71.5t58 -16.5q66 0 122 27v120h167v-280h-167v56q-90 -68 -178 -68zM1159 865q-83 0 -146 -117l-65 56q83 156 217 156q69 0 103 -32.5t34 -79.5q0 -42 -34 -71t-87 -30l-11 52q35 4 35 30q0 16 -12 26 t-34 10z" />
<glyph unicode="&#xfb15;&#x55e;" horiz-adv-x="1312" d="M244 -12q-50 0 -84.5 11.5t-53.5 29t-29.5 48.5t-13 58.5t-2.5 71.5v315h166v-301q0 -55 15 -71.5t58 -16.5q66 0 122 27v415q0 194 192 194q145 0 276 -39v-263q91 69 178 69q50 0 84.5 -11.5t53.5 -28.5t29.5 -48t13 -59t2.5 -71v-318h-166v304q0 55 -15 71.5t-58 16.5 q-62 0 -122 -29v-583h-167v830q-45 16 -81 16q-28 0 -40.5 -16t-12.5 -38v-572h-167v56q-90 -68 -178 -68zM1168 865q-83 0 -146 -117l-65 56q83 156 217 156q69 0 103 -32.5t34 -79.5q0 -42 -34 -71t-87 -30l-11 52q35 4 35 30q0 16 -12 26t-34 10z" />
<glyph unicode=" "  horiz-adv-x="233" />
<glyph unicode="&#x09;" horiz-adv-x="233" />
<glyph unicode="&#xa0;" horiz-adv-x="233" />
<glyph unicode="!" horiz-adv-x="324" d="M89 220l-10 193v294h167v-294l-10 -193h-147zM78 0v147h168v-147h-168z" />
<glyph unicode="&#x22;" horiz-adv-x="425" d="M53 515l-11 240h140l-11 -240h-118zM254 515l-11 239h140l-11 -239h-118z" />
<glyph unicode="#" horiz-adv-x="709" d="M126 0l6 103h-85v128h94l5 88h-99v129h110l6 112h155l-7 -112h115l6 112h155l-7 -112h82v-129h-91l-6 -88h97v-128h-105l-6 -103h-155l6 103h-115l-6 -103h-155zM295 231h116l5 88h-115z" />
<glyph unicode="$" horiz-adv-x="559" d="M219 -99l2 91q-110 1 -182 34l43 118q87 -26 170 -26q95 0 95 39q0 7 -3.5 13t-10.5 11t-15 9t-21 9t-23 8t-27 8t-28 9q-75 25 -120 63.5t-45 109.5q0 62 47 98.5t120 48.5l-2 116h116l-2 -111q73 -3 154 -32l-35 -113q-86 21 -159 21q-67 0 -67 -28q0 -12 14.5 -23 t33.5 -19t50 -19q8 -3 12 -4q41 -14 66.5 -26t57.5 -32t48 -48t16 -64q0 -70 -53.5 -111t-137.5 -54l3 -96h-117z" />
<glyph unicode="%" horiz-adv-x="873" d="M223 352q-81 0 -134 43t-53 133q0 85 55.5 135.5t134.5 50.5q82 0 136.5 -43t54.5 -136q0 -86 -56 -134.5t-138 -48.5zM223 466q24 0 39.5 17t15.5 52q0 65 -52 65q-51 0 -51 -72q0 -35 12 -48.5t36 -13.5zM643 -11q-81 0 -134 42.5t-53 132.5q0 85 55.5 135.5 t134.5 50.5q82 0 136.5 -43t54.5 -136q0 -85 -56 -133.5t-138 -48.5zM643 103q24 0 39.5 16.5t15.5 51.5q0 65 -52 65q-51 0 -51 -72q0 -35 12 -48t36 -13zM184 37l-87 90l582 531l87 -90z" />
<glyph unicode="&#x26;" horiz-adv-x="724" d="M248 -13q-98 0 -160 46.5t-62 140.5q0 57 41.5 109.5t102.5 83.5q-54 89 -54 156q0 29 13.5 61.5t39 63t69.5 50t99 19.5q100 0 149.5 -51t49.5 -122q0 -68 -50 -117t-146 -86q61 -85 165 -143t216 -76l-18 -129q-139 6 -264 72q-83 -78 -191 -78zM260 109q49 0 83 26 q-64 49 -117 126q-20 -12 -31.5 -34t-11.5 -44q0 -32 21 -53t56 -21zM288 430q47 19 76.5 47t29.5 54q0 29 -18 47t-48 18q-28 0 -49 -18t-21 -51q0 -48 30 -97z" />
<glyph unicode="'" horiz-adv-x="234" d="M53 515l-11 240h150l-11 -240h-128z" />
<glyph unicode="(" horiz-adv-x="356" d="M355 -136l-77 -84q-115 78 -182.5 206t-67.5 288q0 151 66.5 278.5t182.5 201.5l83 -79q-183 -152 -183 -401q0 -113 46 -222.5t132 -187.5z" />
<glyph unicode=")" horiz-adv-x="356" d="M78 -220l-77 84q86 78 132 187.5t46 222.5q0 249 -183 401l83 79q116 -74 182.5 -201.5t66.5 -278.5q0 -160 -67.5 -288t-182.5 -206z" />
<glyph unicode="*" horiz-adv-x="451" d="M93 445l-54 98l131 34l21 -38zM171 587l-132 39l55 98l98 -98zM166 403l38 128h41l34 -128h-113zM201 633l-32 128h113l-35 -128h-46zM357 440l-99 98l22 39l132 -39zM279 587l-21 38l97 95l54 -98z" />
<glyph unicode="+" horiz-adv-x="602" d="M237 45l1 199l-199 -2v126l199 -4l-1 201h126l-6 -204l206 7v-126l-203 2l3 -199h-126z" />
<glyph unicode="," horiz-adv-x="290" d="M29 -134q30 61 30 177v120h174v-78q0 -132 -59 -219h-145z" />
<glyph unicode="-" horiz-adv-x="398" d="M50 220v133h298v-133h-298z" />
<glyph unicode="." horiz-adv-x="301" d="M58 0v162h185v-162h-185z" />
<glyph unicode="/" horiz-adv-x="438" d="M29 -62l233 831h147l-233 -831h-147z" />
<glyph unicode="0" horiz-adv-x="670" d="M329 -12q-149 0 -220.5 69t-71.5 209q0 139 77.5 216.5t231.5 77.5q149 0 218 -73.5t69 -200.5q0 -149 -79.5 -223.5t-224.5 -74.5zM334 125q59 0 94.5 39.5t35.5 116.5q0 142 -124 142q-66 0 -100 -40t-34 -114t35.5 -109t92.5 -35z" />
<glyph unicode="1" horiz-adv-x="414" d="M167 0v418h-142v131l309 9v-558h-167z" />
<glyph unicode="2" horiz-adv-x="541" d="M37 0v137q6 4 93.5 58.5t137 97t49.5 72.5q0 60 -99 60q-65 0 -134 -26l-38 120q27 15 79.5 28t99.5 13q74 0 127 -16.5t79.5 -46t37.5 -60.5t11 -69q0 -43 -24.5 -82t-64.5 -69t-74.5 -49t-72.5 -35h264v-133h-471z" />
<glyph unicode="3" horiz-adv-x="495" d="M190 -170q-57 0 -105 7t-67 14l-19 7l30 134q86 -22 151 -22q61 0 89 18.5t28 60.5q0 51 -29 72t-105 28q-13 1 -43 1v113l35 2q62 5 86.5 24t24.5 64q0 36 -30 52t-76 16q-60 0 -102 -19l-38 117q81 39 175 39q100 0 167.5 -46.5t67.5 -135.5q0 -65 -26 -99t-67 -55 q129 -52 129 -175q0 -59 -23 -102.5t-63.5 -67.5t-87.5 -35.5t-102 -11.5z" />
<glyph unicode="4" horiz-adv-x="623" d="M337 -163v193h-314v107l230 408h250v-383h94v-132h-94v-193h-166zM177 162h160v293z" />
<glyph unicode="5" horiz-adv-x="535" d="M229 -174q-131 0 -204 26l40 133q84 -20 163 -20q53 0 83.5 25t30.5 64q0 96 -115 96q-78 0 -177 -9v403h421v-132h-260v-135q18 1 47 1q117 0 184 -55.5t67 -158.5q0 -111 -78.5 -174.5t-201.5 -63.5z" />
<glyph unicode="6" horiz-adv-x="613" d="M382 576q-119 0 -157 -124q54 13 106 13q257 0 257 -226q0 -116 -77.5 -183.5t-189.5 -67.5q-281 0 -281 319q0 200 91.5 303.5t252.5 103.5q90 0 154 -24l-37 -128q-54 14 -119 14zM316 339q-53 0 -109 -15v-23q0 -102 26.5 -140.5t94.5 -38.5q42 0 67.5 29.5t25.5 77.5 q0 110 -105 110z" />
<glyph unicode="7" horiz-adv-x="516" d="M184 -191l-146 47l292 540h-308v148h477v-109z" />
<glyph unicode="8" horiz-adv-x="611" d="M302 -12q-119 0 -192 46t-73 144q0 121 130 192q-105 69 -105 162q0 94 68.5 138t181.5 44q108 0 175 -48.5t67 -122.5q0 -99 -126 -171q68 -36 107 -78t39 -103q0 -102 -74.5 -152.5t-197.5 -50.5zM308 111q55 0 77.5 26.5t22.5 63.5q0 28 -28.5 51.5t-86.5 53.5 q-95 -51 -95 -105q0 -36 24 -63t86 -27zM302 429q42 20 63.5 40.5t21.5 48.5q0 74 -77 74q-86 0 -86 -75q0 -46 78 -88z" />
<glyph unicode="9" horiz-adv-x="601" d="M226 -27q118 0 156 124q-47 -13 -105 -13q-257 0 -257 226q0 116 77.5 183.5t189.5 67.5q281 0 281 -319q0 -200 -91.5 -303.5t-252.5 -103.5q-90 0 -154 24l37 128q54 -14 119 -14zM292 210q57 0 109 15v23q0 102 -26.5 140.5t-94.5 38.5q-42 0 -67.5 -29.5t-25.5 -77.5 q0 -110 105 -110z" />
<glyph unicode=":" horiz-adv-x="331" d="M73 0v162h185v-162h-185zM73 384v162h185v-162h-185z" />
<glyph unicode=";" horiz-adv-x="330" d="M38 -134q35 64 35 147v150h184v-108q0 -107 -69 -189h-150zM73 384v162h185v-162h-185z" />
<glyph unicode="&#x3c;" horiz-adv-x="521" d="M461 47l-424 191v131l424 201v-139l-285 -128l285 -117v-139z" />
<glyph unicode="=" horiz-adv-x="584" d="M66 113l-2 126h454l2 -126h-454zM66 364l-2 126h454l2 -126h-454z" />
<glyph unicode="&#x3e;" horiz-adv-x="521" d="M60 47v139l285 117l-285 128v139l424 -201v-131z" />
<glyph unicode="?" horiz-adv-x="441" d="M93 185q-20 44 -20 89q0 42 25 81t55 62t55 46t25 36q0 33 -41.5 52t-143.5 27l30 137q68 -5 121 -16t103 -33.5t77.5 -63.5t27.5 -98q0 -43 -29.5 -83t-65 -64.5t-65 -50.5t-29.5 -44q0 -32 9 -55zM90 0v147h167v-147h-167z" />
<glyph unicode="@" horiz-adv-x="833" d="M398 -74q-79 0 -141.5 18.5t-111.5 57.5t-75.5 106.5t-26.5 159.5q0 112 36.5 199.5t100 141t144.5 81t175 27.5q141 0 219.5 -74.5t78.5 -225.5q0 -129 -70 -208t-182 -79q-43 0 -71.5 19.5t-32.5 42.5q-13 -20 -38 -35.5t-46 -15.5q-60 0 -91 31t-31 111 q0 88 57.5 148.5t153.5 60.5q75 0 145 -26l-22 -186q-6 -36 21 -36q23 0 53.5 51.5t30.5 122.5q0 95 -49 144.5t-134 49.5q-143 0 -233 -86t-90 -254q0 -117 65.5 -176t173.5 -59q82 0 172 18l14 -102q-101 -27 -195 -27zM398 256q12 0 18 1t11.5 4t8.5 4l18 132h-5 q-30 0 -51 -27.5t-21 -73.5q0 -40 21 -40z" />
<glyph unicode="A" horiz-adv-x="718" d="M-14 0l272 707h219l238 -707h-176l-67 207h-239l-77 -207h-170zM278 330h154l-71 272z" />
<glyph unicode="B" horiz-adv-x="677" d="M82 0v707h248q263 0 263 -195q0 -41 -22.5 -75t-53.5 -51v-2q46 -13 86.5 -57t40.5 -109q0 -218 -284 -218h-278zM253 133h96q67 0 96 19t29 62q0 48 -31.5 67.5t-105.5 19.5h-84v-168zM253 417h61q58 0 84.5 17.5t26.5 63.5q0 44 -29 61.5t-91 17.5h-52v-160z" />
<glyph unicode="C" horiz-adv-x="666" d="M428 -12q-193 0 -292.5 93t-99.5 268q0 172 103.5 270.5t284.5 98.5q123 0 220 -44l-45 -123q-56 15 -87 20t-86 6q-99 2 -158 -54t-59 -164q0 -109 64 -168t173 -59q87 0 164 20l36 -128q-98 -36 -218 -36z" />
<glyph unicode="D" horiz-adv-x="785" d="M82 0v707h253q192 0 302.5 -86.5t110.5 -264.5q0 -180 -105.5 -268t-301.5 -88h-259zM251 133h101q119 0 172.5 53t53.5 160q0 115 -60 171.5t-186 56.5h-81v-441z" />
<glyph unicode="E" horiz-adv-x="605" d="M82 0v707h464v-133h-294v-157h272v-124h-272v-160h317v-133h-487z" />
<glyph unicode="F" horiz-adv-x="610" d="M82 0v707h494v-133h-324v-175h302v-123h-302v-276h-170z" />
<glyph unicode="G" horiz-adv-x="706" d="M426 -10q-182 0 -285 90t-103 269q0 189 100 278.5t296 89.5q107 0 212 -43l-45 -123q-45 11 -60.5 15t-45.5 7.5t-64 3.5q-101 0 -160.5 -53t-59.5 -165t65 -169.5t168 -57.5q8 0 23 0.5t22 0.5v217h170v-319q-106 -41 -233 -41z" />
<glyph unicode="H" horiz-adv-x="804" d="M82 0v707h170v-287h300v287h170v-707h-170v291h-300v-291h-170z" />
<glyph unicode="I" horiz-adv-x="334" d="M82 0v707h170v-707h-170z" />
<glyph unicode="J" horiz-adv-x="338" d="M2 -198l-61 122q89 49 117 93.5t28 133.5v556h171v-554q0 -49 -4 -84.5t-18.5 -78t-41.5 -74t-75 -62t-116 -52.5z" />
<glyph unicode="K" horiz-adv-x="712" d="M252 707v-304l242 304h217l-286 -331l302 -376h-217l-258 357v-357h-170v707h170z" />
<glyph unicode="L" horiz-adv-x="568" d="M82 0v707h170v-573h307v-134h-477z" />
<glyph unicode="M" horiz-adv-x="991" d="M82 0v707h207l197 -555l226 555h197v-707h-170v263l7 166h-4l-166 -429h-190l-140 430h-4l10 -167v-263h-170z" />
<glyph unicode="N" horiz-adv-x="804" d="M82 0v707h197l275 -485h3l-5 79v406h170v-707h-203l-267 473h-4l4 -94v-379h-170z" />
<glyph unicode="O" horiz-adv-x="831" d="M407 -12q-183 0 -276.5 96.5t-93.5 270.5q0 168 104.5 265.5t284.5 97.5q185 0 276.5 -99t91.5 -266q0 -171 -100 -268t-287 -97zM410 122q111 0 161 62.5t50 169.5q0 105 -50.5 167.5t-153.5 62.5q-107 0 -157.5 -62t-50.5 -166t49.5 -169t151.5 -65z" />
<glyph unicode="P" horiz-adv-x="648" d="M305 200h-52v-200h-171v707h275q122 0 197.5 -67.5t75.5 -183.5q0 -109 -86.5 -182.5t-238.5 -73.5zM253 574v-243h58q75 0 109.5 33.5t34.5 87.5q0 122 -120 122h-82z" />
<glyph unicode="Q" horiz-adv-x="831" d="M783 -192q-149 0 -196 12q-98 21 -106 23q-38 7 -82 7v117q53 0 104 -7q29 -4 70 -13t52 -11q55 -10 158 -10v-118zM407 -12q-183 0 -276.5 96.5t-93.5 270.5q0 168 104.5 265.5t284.5 97.5q185 0 276.5 -99t91.5 -266q0 -171 -100 -268t-287 -97zM410 122 q111 0 161 62.5t50 169.5q0 105 -50.5 167.5t-153.5 62.5q-107 0 -157.5 -62t-50.5 -166t49.5 -169t151.5 -65z" />
<glyph unicode="R" horiz-adv-x="740" d="M710 -13q-94 5 -157 46t-130 119l-80 93q-12 -1 -38 -1h-52v-244h-171v707h275q125 0 199 -58.5t74 -172.5q0 -126 -114 -191l72 -78q59 -64 160 -90zM253 363h58q144 0 144 109q0 54 -26.5 77.5t-93.5 23.5h-82v-210z" />
<glyph unicode="S" horiz-adv-x="581" d="M261 -12q-133 0 -237 57l49 126q39 -16 60 -23t55 -13.5t71 -6.5q61 0 92.5 21t31.5 55q0 31 -34.5 52.5t-84 38t-99 39t-84 68t-34.5 112.5q0 96 76 150t178 54q132 0 221 -54l-49 -125q-86 38 -167 38q-41 0 -67 -18.5t-26 -47.5q0 -25 35 -45.5t85.5 -39t101 -43 t85.5 -69t35 -104.5q0 -74 -44 -125.5t-108.5 -74t-141.5 -22.5z" />
<glyph unicode="T" horiz-adv-x="634" d="M232 0v574h-222v133h614v-133h-222v-574h-170z" />
<glyph unicode="U" horiz-adv-x="796" d="M401 -13q-65 0 -121 15.5t-104 48.5t-76 94t-28 143v419h172v-413q0 -168 157 -168t157 189v392h167v-395q0 -89 -28 -154.5t-75.5 -101.5t-102.5 -52.5t-118 -16.5z" />
<glyph unicode="V" horiz-adv-x="722" d="M243 0l-241 707h179l175 -580l208 580h173l-275 -707h-219z" />
<glyph unicode="W" horiz-adv-x="1068" d="M180 0l-152 707h165l110 -599l164 427l-60 172h169l185 -593l138 593h162l-194 -707h-214l-122 362l-132 -362h-219z" />
<glyph unicode="X" horiz-adv-x="673" d="M-9 0l253 362l-225 345h195l128 -217l138 217h190l-238 -342l238 -365h-196l-141 238l-152 -238h-190z" />
<glyph unicode="Y" horiz-adv-x="673" d="M249 0v227l-261 480h196l156 -337l166 337h191l-278 -474v-233h-170z" />
<glyph unicode="Z" horiz-adv-x="619" d="M31 0v114l325 452h-299v141h508v-108l-329 -458h350v-141h-555z" />
<glyph unicode="[" horiz-adv-x="369" d="M74 -220v974h267v-128h-110v-718h110v-128h-267z" />
<glyph unicode="\" horiz-adv-x="438" d="M262 -62l-233 831h147l233 -831h-147z" />
<glyph unicode="]" horiz-adv-x="369" d="M28 -220v128h110v718h-110v128h267v-974h-267z" />
<glyph unicode="^" horiz-adv-x="558" d="M23 294l172 413h182l161 -413h-158l-96 286l-106 -286h-155z" />
<glyph unicode="_" horiz-adv-x="516" d="M0 -199v133h516v-133h-516z" />
<glyph unicode="`" horiz-adv-x="584" d="M397 601l-244 104l54 117l238 -121z" />
<glyph unicode="a" horiz-adv-x="595" d="M212 -9q-91 0 -139.5 42t-48.5 123q0 166 234 166h95v34q0 35 -23 48.5t-76 13.5q-76 0 -163 -24l-33 121q114 44 221 44q127 0 182 -39.5t55 -131.5v-243q0 -13 12 -17.5t37 -5.5l-6 -126q-13 -1 -39 -1q-132 0 -151 58q-80 -62 -157 -62zM247 120q49 0 106 19v86 l-82 -2q-85 -2 -85 -57q0 -22 18 -34t43 -12z" />
<glyph unicode="b" horiz-adv-x="637" d="M231 754v-215q62 20 111 20q129 0 195.5 -59.5t66.5 -197.5q0 -85 -25 -148t-69 -97.5t-97 -51t-115 -16.5q-123 0 -233 36v729h166zM312 435q-36 0 -81 -13v-292q52 -11 70 -11q62 0 97.5 51.5t35.5 130.5q0 76 -27 105t-95 29z" />
<glyph unicode="c" horiz-adv-x="520" d="M350 -11q-172 0 -245 67.5t-73 221.5q0 128 80.5 205t218.5 77q103 0 174 -38l-43 -121q-60 23 -124 23q-135 0 -135 -148q0 -84 31 -119t125 -35q37 0 116 14l23 -127q-91 -20 -148 -20z" />
<glyph unicode="d" horiz-adv-x="635" d="M277 -8q-36 0 -68 7t-65.5 27t-57.5 51.5t-39 84t-15 120.5q0 135 83 206.5t214 71.5q21 0 72 -6v200h167v-754h-167v39q-20 -15 -29 -21.5t-36 -16t-59 -9.5zM310 130q46 0 91 18v273q-40 7 -69 7q-134 0 -134 -149t112 -149z" />
<glyph unicode="e" horiz-adv-x="586" d="M330 -12q-146 0 -221 61t-75 216q0 158 73.5 226t206.5 68q124 0 182 -73.5t58 -203.5v-60h-354q-1 -59 39 -80.5t115 -21.5q60 0 156 22l25 -123q-95 -31 -205 -31zM205 329h178q2 51 -19.5 81.5t-61.5 30.5q-43 0 -69 -29.5t-28 -82.5z" />
<glyph unicode="f" horiz-adv-x="400" d="M101 -150v581h-80v115h80v20q0 49 12 86t31.5 59t48.5 35.5t58.5 18.5t66.5 5q48 0 98 -15l-26 -124q-32 8 -66 8q-56 0 -56 -74v-19h117v-115h-117v-581h-167z" />
<glyph unicode="g" horiz-adv-x="634" d="M296 -230q-136 0 -226 33l26 140q94 -28 178 -28q65 0 96.5 20t31.5 76v7q-42 -23 -92 -23q-64 0 -110.5 11t-86.5 40t-60.5 85t-20.5 139q0 135 87 212.5t216 77.5q114 0 233 -28v-537q0 -57 -25 -102t-66 -71t-87.5 -39t-93.5 -13zM322 118q49 0 79 9v286 q-36 10 -67 10q-136 0 -136 -153q0 -84 32 -118t92 -34z" />
<glyph unicode="h" horiz-adv-x="656" d="M67 0v754h167v-266q88 71 178 71q50 0 84.5 -11.5t53.5 -29t29.5 -48.5t13 -58.5t2.5 -71.5v-340h-166v326q0 55 -15 71.5t-58 16.5q-60 0 -122 -30v-384h-167z" />
<glyph unicode="i" horiz-adv-x="301" d="M67 0v546h167v-546h-167zM149 604l-111 112l111 111l112 -111z" />
<glyph unicode="j" horiz-adv-x="300" d="M12 -225q-67 0 -128 28l31 129q45 -16 91 -16q33 0 47 18.5t14 68.5v543h166v-544q0 -68 -17.5 -115t-50.5 -70.5t-69 -32.5t-84 -9zM148 604l-111 112l111 111l112 -111z" />
<glyph unicode="k" horiz-adv-x="592" d="M234 754v-417l151 209h179l-199 -252l78 -89q33 -37 62 -58t77 -33l-19 -126q-80 4 -132.5 23.5t-99.5 83.5l-97 130v-225h-167v754h167z" />
<glyph unicode="l" horiz-adv-x="301" d="M67 0v754h167v-754h-167z" />
<glyph unicode="m" horiz-adv-x="988" d="M67 0v546h167v-55q92 70 177 70q117 0 153 -83q37 33 88 58t100 25q37 0 65.5 -8t47 -18.5t31 -31.5t18.5 -35.5t9 -42.5t3.5 -41t0.5 -42v-342h-167v328q0 50 -15 69t-54 19q-53 0 -113 -31q2 -14 2 -42v-343h-166v328q0 54 -14 70t-54 16q-61 0 -112 -27v-387h-167z " />
<glyph unicode="n" horiz-adv-x="656" d="M67 0v546h167v-55q91 69 178 69q50 0 84.5 -11.5t53.5 -28.5t29.5 -48t13 -59t2.5 -71v-342h-166v328q0 55 -15 71.5t-58 16.5q-62 0 -122 -29v-387h-167z" />
<glyph unicode="o" horiz-adv-x="630" d="M308 -12q-133 0 -205 75t-72 205q0 135 77.5 213.5t208.5 78.5q142 0 211.5 -75t69.5 -212q0 -136 -80 -210.5t-210 -74.5zM316 121q64 0 88 38t24 114q0 74 -25 114.5t-89 40.5q-115 0 -115 -156q0 -75 26.5 -113t90.5 -38z" />
<glyph unicode="p" horiz-adv-x="639" d="M67 -220v766h166v-39q21 18 59.5 35.5t72.5 17.5q118 0 179.5 -61.5t61.5 -200.5q0 -82 -25 -143.5t-69 -96.5t-97 -51.5t-115 -16.5q-15 0 -39 2t-28 2v-214h-166zM304 117q62 0 98 49t36 127q0 71 -29 99t-94 28q-37 0 -82 -15v-282q48 -6 71 -6z" />
<glyph unicode="q" horiz-adv-x="634" d="M401 -220v240q-46 -28 -105 -28q-264 0 -264 288q0 135 83 207.5t214 72.5q81 0 128 -6t111 -23v-751h-167zM310 131q43 0 91 13v277q-40 7 -69 7q-134 0 -134 -151q0 -146 112 -146z" />
<glyph unicode="r" horiz-adv-x="452" d="M67 0v546h167v-73q65 84 141 84q45 0 75 -9l-22 -137q-32 6 -73 6q-35 0 -69.5 -14t-51.5 -33v-370h-167z" />
<glyph unicode="s" horiz-adv-x="500" d="M233 -12q-118 0 -199 23l18 126q107 -15 165 -15q94 0 94 38q0 16 -28.5 27t-68.5 22.5t-80.5 29t-69 55.5t-28.5 93q0 84 67 128.5t163 44.5t184 -31l-28 -121q-88 20 -151 20q-68 0 -68 -33q0 -14 20 -26t50.5 -20t66 -22.5t66 -32.5t50.5 -51t20 -76q0 -51 -24.5 -88 t-63.5 -56t-77.5 -27t-77.5 -8z" />
<glyph unicode="t" horiz-adv-x="472" d="M303 -13q-103 0 -154 41.5t-51 141.5v253h-80v123h80v112h166v-112h169v-123h-169v-243q0 -30 13 -41.5t47 -11.5q47 0 118 16l16 -131q-70 -25 -155 -25z" />
<glyph unicode="u" horiz-adv-x="656" d="M244 -12q-50 0 -84.5 11.5t-53.5 29t-29.5 48.5t-13 58.5t-2.5 71.5v339h166v-325q0 -55 15 -71.5t58 -16.5q66 0 122 27v386h167v-546h-167v56q-90 -68 -178 -68z" />
<glyph unicode="v" horiz-adv-x="601" d="M195 0l-197 546h179l92 -296l28 -109l31 109l102 296h175l-212 -546h-198z" />
<glyph unicode="w" horiz-adv-x="911" d="M155 0l-140 546h175l70 -410l100 410h197l85 -410l90 410h171l-162 -546h-205l-64 298l-18 91l-21 -91l-71 -298h-207z" />
<glyph unicode="x" horiz-adv-x="589" d="M-2 0l202 279l-187 267h192l89 -166l92 166h189l-187 -267l204 -279h-199l-99 178l-100 -178h-196z" />
<glyph unicode="y" horiz-adv-x="598" d="M173 -220l74 220h-60l-188 546h179l94 -324l23 -89l27 89l109 324h168l-267 -766h-159z" />
<glyph unicode="z" horiz-adv-x="526" d="M32 0v109l256 303h-240v134h436v-106l-250 -308h254v-132h-456z" />
<glyph unicode="{" horiz-adv-x="390" d="M297 -223q-106 0 -160.5 38t-54.5 124q0 9 2 29l20 189q2 20 -15 36t-61 16v127q43 0 60.5 16.5t15.5 35.5l-20 189q-2 20 -2 29q0 87 54 124.5t161 37.5h59v-139h-50q-34 0 -49.5 -20t-12.5 -46l21 -173q10 -81 -59 -116v-2q69 -35 59 -117l-21 -172q-3 -27 11.5 -46.5 t50.5 -19.5h50v-140h-59z" />
<glyph unicode="|" horiz-adv-x="295" d="M74 -220v974h147v-974h-147z" />
<glyph unicode="}" horiz-adv-x="390" d="M93 -223h-59v140h50q36 0 50.5 19.5t11.5 46.5l-21 172q-10 82 59 117v2q-69 35 -59 116l21 173q3 26 -12.5 46t-49.5 20h-50v139h59q107 0 161 -37.5t54 -124.5q0 -9 -2 -29l-20 -189q-2 -19 15.5 -35.5t60.5 -16.5v-127q-44 0 -61 -16t-15 -36l20 -189q2 -20 2 -29 q0 -86 -54.5 -124t-160.5 -38z" />
<glyph unicode="~" horiz-adv-x="556" d="M363 240q-49 0 -105.5 30t-77.5 30q-39 0 -75 -33l-77 102q79 97 157 97q49 0 101.5 -30.5t77.5 -30.5q1 0 10.5 -0.5t14.5 0t15.5 3.5t22 10.5t25.5 19.5l76 -94q-23 -40 -73 -72t-92 -32z" />
<glyph unicode="&#xa1;" horiz-adv-x="330" d="M82 -161v294l10 193h147l10 -193v-294h-167zM82 399v147h168v-147h-168z" />
<glyph unicode="&#xa2;" horiz-adv-x="536" d="M242 -62l2 90q-115 18 -161 71.5t-46 177.5q0 103 52 161.5t155 81.5l-3 84h149l-3 -78q54 -6 105 -29l-43 -120q-40 11 -55.5 13.5t-55.5 2.5q-130 0 -130 -118q0 -68 29.5 -95t122.5 -27q33 0 108 10l25 -125q-69 -15 -105 -17l2 -83h-148z" />
<glyph unicode="&#xa3;" horiz-adv-x="534" d="M60 0v115q64 38 64 95h-76v124h81q-1 21 -2.5 30t-1.5 24q0 39 9.5 70t24.5 52t40 35.5t49.5 23t60 13t64 5.5t69.5 1l6 -136q-106 -9 -126 -18q-28 -13 -28 -52q0 -9 0.5 -14t0.5 -6v-4.5v-9.5v-14h148v-124h-165q-3 -22 -9 -37t-12 -22t-18 -19h252v-132h-431z" />
<glyph unicode="&#xa5;" horiz-adv-x="689" d="M259 0v28h-208v133h209v15l-25 44h-184v133h109l-109 193h179l113 -235l120 235h175l-118 -193h118v-133h-199l-24 -40v-19h223v-133h-220v-28h-159z" />
<glyph unicode="&#xa7;" horiz-adv-x="711" d="M151 -101q-34 0 -70 11t-56 29l41 118q45 -32 81 -32q34 0 34 72q0 33 -13 109l-12 59q-10 53 -10 97q0 122 108 203t250 81q108 0 173 -62q-58 -88 -70 -100q-41 39 -96 39q-44 0 -44 -51q0 -38 12 -80l10 -38q21 -95 21 -178q0 -118 -107.5 -197.5t-251.5 -79.5z M308 33l7 7q7 8 9 10.5t8.5 10.5t9.5 13t8.5 14.5t8.5 17.5t6 18t4.5 21t1.5 22q0 38 -11 97l-16 80q-7 42 -7 83q0 29 7 78q-30 -23 -43 -61t-13 -71q-1 -43 8 -88l17 -84q7 -29 7 -73q0 -30 -12 -95z" />
<glyph unicode="&#xa8;" horiz-adv-x="432" d="M99 622l-93 94l93 94l94 -94zM343 622l-94 94l94 94l93 -94z" />
<glyph unicode="&#xa9;" horiz-adv-x="791" d="M411 74q-91 0 -145.5 56t-54.5 141q0 90 53 145t145 55q83 0 129 -29l-28 -80q-44 15 -99 15q-44 0 -71 -25t-27 -77q0 -51 29 -77t77 -26q56 0 93 13l27 -87q-58 -24 -128 -24zM387 -82q-162 0 -253.5 96.5t-91.5 260.5q0 165 99.5 259t264.5 94t254 -97.5t89 -257.5 q0 -164 -96.5 -259.5t-265.5 -95.5zM391 -12q131 0 201.5 79t70.5 207q0 127 -71 205.5t-195 78.5q-128 0 -199 -78t-71 -204q0 -124 69.5 -206t194.5 -82z" />
<glyph unicode="&#xaa;" horiz-adv-x="423" d="M163 389q-112 0 -112 95q0 94 139 94h49v21q0 16 -10.5 21t-41.5 5q-38 0 -96 -14l-22 76q71 26 133 26q24 0 39.5 -1t37 -6t33.5 -15t21 -28.5t9 -45.5v-138q0 -7 28 -8l-4 -79q-97 -5 -115 28q-45 -31 -88 -31zM175 471q24 0 64 8v35l-44 -1q-41 0 -41 -22 q0 -20 21 -20zM59 283v78h310v-78h-310z" />
<glyph unicode="&#xab;" horiz-adv-x="521" d="M159 43l-128 229l127 227l103 -42l-91 -185l90 -179zM379 43l-128 229l127 227l103 -42l-91 -185l90 -179z" />
<glyph unicode="&#xae;" horiz-adv-x="574" d="M534 531q0 -107 -69.5 -168t-175.5 -61q-44 0 -85.5 12t-79.5 37.5t-61 72t-23 107.5q0 108 70.5 170.5t177.5 62.5q46 0 88.5 -13t78.5 -39.5t57.5 -73t21.5 -107.5zM478 531q0 90 -55.5 137t-133.5 47q-84 0 -139 -45t-55 -135q0 -45 15 -79.5t36.5 -53.5t50 -31.5 t51.5 -16t46 -3.5q81 0 132.5 47.5t51.5 132.5zM419 449l-8 -45q-51 2 -80 26q-7 6 -13 14t-9.5 14t-10.5 21t-11 22h-29v-91h-71v258l105 1q46 0 74.5 -22t28.5 -63q0 -46 -41 -70q16 -29 30 -43q11 -11 35 -22zM328 584q0 21 -7.5 31t-29.5 10h-34v-86h31q40 0 40 45z" />
<glyph unicode="&#xb0;" horiz-adv-x="390" d="M194 402q-76 0 -118.5 41.5t-42.5 116.5q0 71 47.5 114t115.5 43q72 0 117 -42.5t45 -114.5t-47 -115t-117 -43zM195 504q21 0 31.5 12.5t10.5 43.5q0 54 -42 54q-43 0 -43 -54q0 -56 43 -56z" />
<glyph unicode="&#xb1;" horiz-adv-x="540" d="M47 126h159l2 158l-161 -2v126l161 -4l-1 161h126l-6 -164l166 7v-126l-163 2l2 -158h161v-126h-446v126z" />
<glyph unicode="&#xb4;" horiz-adv-x="584" d="M202 601l-47 100l238 121l54 -117z" />
<glyph unicode="&#xb6;" horiz-adv-x="649" d="M347 -226q-62 0 -122 21l29 138q54 -15 95 -15q34 0 47 16.5t13 66.5v706h166v-707q0 -119 -62.5 -172.5t-165.5 -53.5zM226 227q-97 0 -144.5 64t-47.5 179q0 62 16 106.5t39.5 69t63 38.5t75 18t85.5 5h50v-480h-137z" />
<glyph unicode="&#xb7;" horiz-adv-x="259" d="M130 285l-104 104l104 103l103 -103z" />
<glyph unicode="&#xb8;" horiz-adv-x="469" d="M189 -283l-57 100q4 2 17 9t21 12t18 13t15 17t5 19q0 14 -12 62h129q22 -50 22 -81q0 -29 -14.5 -53.5t-42 -43.5t-49.5 -30t-52 -24z" />
<glyph unicode="&#xba;" horiz-adv-x="434" d="M214 383q-80 0 -123 43.5t-43 119.5q0 78 46.5 124t124.5 46q85 0 126.5 -43.5t41.5 -123.5q0 -79 -48 -122.5t-125 -43.5zM218 468q34 0 47 19.5t13 61.5q0 40 -13 61t-48 21q-62 0 -62 -83q0 -41 14.5 -60.5t48.5 -19.5zM61 283v78h310v-78h-310z" />
<glyph unicode="&#xbb;" horiz-adv-x="520" d="M142 43l-101 50l89 179l-91 185l103 42l127 -227zM362 43l-101 50l89 179l-91 185l103 42l127 -227z" />
<glyph unicode="&#xbf;" horiz-adv-x="439" d="M362 -164q-68 5 -121 16t-103 33.5t-77.5 63.5t-27.5 98q0 43 29.5 82t65 63t65 49t29.5 43q0 32 -9 55l134 22q20 -44 20 -89q0 -35 -16.5 -66t-40 -53t-47 -40t-40 -34t-16.5 -27q0 -33 41.5 -52t143.5 -27zM183 399v147h167v-147h-167z" />
<glyph unicode="&#xc0;" horiz-adv-x="718" d="M473 744l-275 49l27 131l271 -67zM-14 0l272 707h219l238 -707h-176l-67 207h-239l-77 -207h-170zM278 330h154l-71 272z" />
<glyph unicode="&#xc3;" horiz-adv-x="718" d="M-14 0l272 707h219l238 -707h-176l-67 207h-239l-77 -207h-170zM278 330h154l-71 272zM425 755q-27 0 -68.5 19t-59.5 19q-38 0 -70 -28l-63 74q68 82 144 82q35 0 72.5 -19t50.5 -19q38 0 87 26l55 -74q-74 -80 -148 -80z" />
<glyph unicode="&#xc4;" horiz-adv-x="718" d="M240 737l-99 100l99 100l100 -100zM484 737l-100 100l100 100l99 -100zM-14 0l272 707h219l238 -707h-176l-67 207h-239l-77 -207h-170zM278 330h154l-71 272z" />
<glyph unicode="&#xc5;" horiz-adv-x="718" d="M-14 0l272 707h219l238 -707h-176l-67 207h-239l-77 -207h-170zM278 330h154l-71 272zM368 744q-56 0 -95.5 26t-39.5 87q0 59 39 90t93 31q50 0 92 -28t42 -91q0 -57 -37.5 -86t-93.5 -29zM366 808q50 0 55 50q0 23 -15.5 37t-39.5 14q-55 0 -55 -49q0 -24 14.5 -38 t40.5 -14z" />
<glyph unicode="&#xc6;" horiz-adv-x="983" d="M-13 0l332 707h605v-133h-294v-157h272v-124h-272v-160h317v-133h-487v244h-179l-102 -244h-192zM332 368h128v206h-42z" />
<glyph unicode="&#xc7;" horiz-adv-x="666" d="M332 -283l-57 100q4 2 17 9t21 12t18 13t15 17t5 19q0 14 -12 62h129q22 -50 22 -81q0 -29 -14.5 -53.5t-42 -43.5t-49.5 -30t-52 -24zM428 -12q-193 0 -292.5 93t-99.5 268q0 172 103.5 270.5t284.5 98.5q123 0 220 -44l-45 -123q-56 15 -87 20t-86 6q-99 2 -158 -54 t-59 -164q0 -109 64 -168t173 -59q87 0 164 20l36 -128q-98 -36 -218 -36z" />
<glyph unicode="&#xc9;" horiz-adv-x="605" d="M229 744l-23 113l271 67l27 -131zM82 0v707h464v-133h-294v-157h272v-124h-272v-160h317v-133h-487z" />
<glyph unicode="&#xd1;" horiz-adv-x="804" d="M467 755q-27 0 -68.5 19t-59.5 19q-38 0 -70 -28l-63 74q68 82 144 82q35 0 72.5 -19t50.5 -19q38 0 87 26l55 -74q-74 -80 -148 -80zM82 0v707h197l275 -485h3l-5 79v406h170v-707h-203l-267 473h-4l4 -94v-379h-170z" />
<glyph unicode="&#xd5;" horiz-adv-x="831" d="M479 755q-27 0 -68.5 19t-59.5 19q-38 0 -70 -28l-63 74q68 82 144 82q35 0 72.5 -19t50.5 -19q38 0 87 26l55 -74q-74 -80 -148 -80zM407 -12q-183 0 -276.5 96.5t-93.5 270.5q0 168 104.5 265.5t284.5 97.5q185 0 276.5 -99t91.5 -266q0 -171 -100 -268t-287 -97z M410 122q111 0 161 62.5t50 169.5q0 105 -50.5 167.5t-153.5 62.5q-107 0 -157.5 -62t-50.5 -166t49.5 -169t151.5 -65z" />
<glyph unicode="&#xd6;" horiz-adv-x="831" d="M287 737l-99 100l99 100l100 -100zM531 737l-100 100l100 100l99 -100zM407 -12q-183 0 -276.5 96.5t-93.5 270.5q0 168 104.5 265.5t284.5 97.5q185 0 276.5 -99t91.5 -266q0 -171 -100 -268t-287 -97zM410 122q111 0 161 62.5t50 169.5q0 105 -50.5 167.5t-153.5 62.5 q-107 0 -157.5 -62t-50.5 -166t49.5 -169t151.5 -65z" />
<glyph unicode="&#xd7;" horiz-adv-x="570" d="M441 60l-157 159l-152 -157l-90 90l156 154l-156 153l87 91l154 -159l155 157l90 -90l-163 -154l163 -153z" />
<glyph unicode="&#xd8;" horiz-adv-x="831" d="M90 -45l-70 70l86 89q-69 92 -69 241q0 168 104.5 265.5t284.5 97.5q129 0 214 -51l84 87l73 -68l-81 -84q78 -94 78 -249q0 -171 -100 -268t-287 -97q-138 0 -229 58zM410 122q111 0 161 62.5t50 169.5q0 71 -24 125l-310 -320q46 -37 123 -37zM209 356q0 -66 19 -116 l303 314q-47 30 -114 30q-107 0 -157.5 -62t-50.5 -166z" />
<glyph unicode="&#xdc;" horiz-adv-x="796" d="M279 737l-99 100l99 100l100 -100zM523 737l-100 100l100 100l99 -100zM401 -13q-65 0 -121 15.5t-104 48.5t-76 94t-28 143v419h172v-413q0 -168 157 -168t157 189v392h167v-395q0 -89 -28 -154.5t-75.5 -101.5t-102.5 -52.5t-118 -16.5z" />
<glyph unicode="&#xdf;" horiz-adv-x="666" d="M67 -150v688q0 232 264 232q25 0 52 -4t61.5 -16.5t61 -31.5t44.5 -53.5t18 -78.5t-27 -82t-53.5 -67.5t-26.5 -52.5q0 -19 19.5 -35.5t47.5 -31t56 -32t47.5 -48.5t19.5 -72q0 -49 -21 -85.5t-55 -55.5t-69.5 -28t-71.5 -9q-109 0 -166 20l20 128q72 -16 113 -16 q86 0 86 36q0 13 -14 25.5t-35.5 21.5t-46 24t-46 33t-35.5 49t-14 70q0 37 24 74t47.5 68.5t23.5 54.5q0 25 -23 42.5t-51 17.5q-84 0 -84 -98v-687h-166z" />
<glyph unicode="&#xe0;" horiz-adv-x="595" d="M358 602l-244 104l54 117l238 -121zM212 -9q-91 0 -139.5 42t-48.5 123q0 166 234 166h95v34q0 35 -23 48.5t-76 13.5q-76 0 -163 -24l-33 121q114 44 221 44q127 0 182 -39.5t55 -131.5v-243q0 -13 12 -17.5t37 -5.5l-6 -126q-13 -1 -39 -1q-132 0 -151 58 q-80 -62 -157 -62zM247 120q49 0 106 19v86l-82 -2q-85 -2 -85 -57q0 -22 18 -34t43 -12z" />
<glyph unicode="&#xe1;" horiz-adv-x="595" d="M210 602l-47 100l238 121l54 -117zM212 -9q-91 0 -139.5 42t-48.5 123q0 166 234 166h95v34q0 35 -23 48.5t-76 13.5q-76 0 -163 -24l-33 121q114 44 221 44q127 0 182 -39.5t55 -131.5v-243q0 -13 12 -17.5t37 -5.5l-6 -126q-13 -1 -39 -1q-132 0 -151 58 q-80 -62 -157 -62zM247 120q49 0 106 19v86l-82 -2q-85 -2 -85 -57q0 -22 18 -34t43 -12z" />
<glyph unicode="&#xe2;" horiz-adv-x="595" d="M412 606l-129 90l-128 -89l-73 92l202 130l196 -131zM212 -9q-91 0 -139.5 42t-48.5 123q0 166 234 166h95v34q0 35 -23 48.5t-76 13.5q-76 0 -163 -24l-33 121q114 44 221 44q127 0 182 -39.5t55 -131.5v-243q0 -13 12 -17.5t37 -5.5l-6 -126q-13 -1 -39 -1 q-132 0 -151 58q-80 -62 -157 -62zM247 120q49 0 106 19v86l-82 -2q-85 -2 -85 -57q0 -22 18 -34t43 -12z" />
<glyph unicode="&#xe3;" horiz-adv-x="595" d="M335 634q-27 0 -68.5 19t-59.5 19q-38 0 -70 -28l-63 74q68 82 144 82q35 0 72.5 -19t50.5 -19q38 0 87 26l55 -74q-74 -80 -148 -80zM212 -9q-91 0 -139.5 42t-48.5 123q0 166 234 166h95v34q0 35 -23 48.5t-76 13.5q-76 0 -163 -24l-33 121q114 44 221 44 q127 0 182 -39.5t55 -131.5v-243q0 -13 12 -17.5t37 -5.5l-6 -126q-13 -1 -39 -1q-132 0 -151 58q-80 -62 -157 -62zM247 120q49 0 106 19v86l-82 -2q-85 -2 -85 -57q0 -22 18 -34t43 -12z" />
<glyph unicode="&#xe4;" horiz-adv-x="595" d="M166 622l-93 94l93 94l94 -94zM410 622l-94 94l94 94l93 -94zM212 -9q-91 0 -139.5 42t-48.5 123q0 166 234 166h95v34q0 35 -23 48.5t-76 13.5q-76 0 -163 -24l-33 121q114 44 221 44q127 0 182 -39.5t55 -131.5v-243q0 -13 12 -17.5t37 -5.5l-6 -126q-13 -1 -39 -1 q-132 0 -151 58q-80 -62 -157 -62zM247 120q49 0 106 19v86l-82 -2q-85 -2 -85 -57q0 -22 18 -34t43 -12z" />
<glyph unicode="&#xe5;" horiz-adv-x="595" d="M291 586q-62 0 -106 29t-44 97q0 65 43.5 99.5t103.5 34.5q24 0 48 -6.5t48 -20.5t38.5 -41t14.5 -64q0 -64 -42 -96t-104 -32zM289 657q56 0 61 56q0 25 -17 40.5t-44 15.5q-61 0 -61 -54q0 -27 16 -42.5t45 -15.5zM212 -9q-91 0 -139.5 42t-48.5 123q0 166 234 166h95 v34q0 35 -23 48.5t-76 13.5q-76 0 -163 -24l-33 121q114 44 221 44q127 0 182 -39.5t55 -131.5v-243q0 -13 12 -17.5t37 -5.5l-6 -126q-13 -1 -39 -1q-132 0 -151 58q-80 -62 -157 -62zM247 120q49 0 106 19v86l-82 -2q-85 -2 -85 -57q0 -22 18 -34t43 -12z" />
<glyph unicode="&#xe6;" horiz-adv-x="904" d="M649 -9q-177 0 -244 83q-92 -82 -193 -82q-91 0 -139.5 40.5t-48.5 121.5q0 41 14.5 71t36 46.5t55 26.5t62 13t66.5 4q65 3 95 3v44q0 34 -22 45t-77 11q-61 0 -163 -24l-33 121q117 44 221 44q136 0 187 -39q64 39 169 39q238 0 238 -277v-53l-354 -8 q-1 -59 38.5 -79.5t114.5 -20.5q49 0 157 19l23 -121q-95 -28 -203 -28zM239 119q67 0 131 23q-11 34 -15 74l-84 -2q-50 -1 -67 -15t-17 -36q0 -21 14 -32.5t38 -11.5zM524 329l178 7q1 47 -22.5 75t-56.5 28q-42 0 -70.5 -27.5t-28.5 -82.5z" />
<glyph unicode="&#xe7;" horiz-adv-x="520" d="M350 -11q-172 0 -245 67.5t-73 221.5q0 128 80.5 205t218.5 77q103 0 174 -38l-43 -121q-60 23 -124 23q-135 0 -135 -148q0 -84 31 -119t125 -35q37 0 116 14l23 -127q-91 -20 -148 -20zM242 -283l-57 100q4 2 17 9t21 12t18 13t15 17t5 19q0 14 -12 62h129 q22 -50 22 -81q0 -29 -14.5 -53.5t-42 -43.5t-49.5 -30t-52 -24z" />
<glyph unicode="&#xe8;" horiz-adv-x="586" d="M370 602l-244 104l54 117l238 -121zM330 -12q-146 0 -221 61t-75 216q0 158 73.5 226t206.5 68q124 0 182 -73.5t58 -203.5v-60h-354q-1 -59 39 -80.5t115 -21.5q60 0 156 22l25 -123q-95 -31 -205 -31zM205 329h178q2 51 -19.5 81.5t-61.5 30.5q-43 0 -69 -29.5 t-28 -82.5z" />
<glyph unicode="&#xe9;" horiz-adv-x="586" d="M224 602l-47 100l238 121l54 -117zM330 -12q-146 0 -221 61t-75 216q0 158 73.5 226t206.5 68q124 0 182 -73.5t58 -203.5v-60h-354q-1 -59 39 -80.5t115 -21.5q60 0 156 22l25 -123q-95 -31 -205 -31zM205 329h178q2 51 -19.5 81.5t-61.5 30.5q-43 0 -69 -29.5 t-28 -82.5z" />
<glyph unicode="&#xea;" horiz-adv-x="586" d="M424 606l-129 90l-128 -89l-73 92l202 130l196 -131zM330 -12q-146 0 -221 61t-75 216q0 158 73.5 226t206.5 68q124 0 182 -73.5t58 -203.5v-60h-354q-1 -59 39 -80.5t115 -21.5q60 0 156 22l25 -123q-95 -31 -205 -31zM205 329h178q2 51 -19.5 81.5t-61.5 30.5 q-43 0 -69 -29.5t-28 -82.5z" />
<glyph unicode="&#xeb;" horiz-adv-x="586" d="M177 622l-93 94l93 94l94 -94zM421 622l-94 94l94 94l93 -94zM330 -12q-146 0 -221 61t-75 216q0 158 73.5 226t206.5 68q124 0 182 -73.5t58 -203.5v-60h-354q-1 -59 39 -80.5t115 -21.5q60 0 156 22l25 -123q-95 -31 -205 -31zM205 329h178q2 51 -19.5 81.5t-61.5 30.5 q-43 0 -69 -29.5t-28 -82.5z" />
<glyph unicode="&#xec;" horiz-adv-x="301" d="M216 602l-244 104l54 117l238 -121zM67 0v546h167v-546h-167z" />
<glyph unicode="&#xed;" horiz-adv-x="301" d="M75 602l-47 100l238 121l54 -117zM67 0v546h167v-546h-167z" />
<glyph unicode="&#xee;" horiz-adv-x="301" d="M280 606l-129 90l-128 -89l-73 92l202 130l196 -131zM67 0v546h167v-546h-167z" />
<glyph unicode="&#xef;" horiz-adv-x="301" d="M33 622l-93 94l93 94l94 -94zM277 622l-94 94l94 94l93 -94zM67 0v546h167v-546h-167z" />
<glyph unicode="&#xf1;" horiz-adv-x="656" d="M385 634q-27 0 -68.5 19t-59.5 19q-38 0 -70 -28l-63 74q68 82 144 82q35 0 72.5 -19t50.5 -19q38 0 87 26l55 -74q-74 -80 -148 -80zM67 0v546h167v-55q91 69 178 69q50 0 84.5 -11.5t53.5 -28.5t29.5 -48t13 -59t2.5 -71v-342h-166v328q0 55 -15 71.5t-58 16.5 q-62 0 -122 -29v-387h-167z" />
<glyph unicode="&#xf2;" horiz-adv-x="630" d="M395 602l-244 104l54 117l238 -121zM308 -12q-133 0 -205 75t-72 205q0 135 77.5 213.5t208.5 78.5q142 0 211.5 -75t69.5 -212q0 -136 -80 -210.5t-210 -74.5zM316 121q64 0 88 38t24 114q0 74 -25 114.5t-89 40.5q-115 0 -115 -156q0 -75 26.5 -113t90.5 -38z" />
<glyph unicode="&#xf3;" horiz-adv-x="630" d="M225 602l-47 100l238 121l54 -117zM308 -12q-133 0 -205 75t-72 205q0 135 77.5 213.5t208.5 78.5q142 0 211.5 -75t69.5 -212q0 -136 -80 -210.5t-210 -74.5zM316 121q64 0 88 38t24 114q0 74 -25 114.5t-89 40.5q-115 0 -115 -156q0 -75 26.5 -113t90.5 -38z" />
<glyph unicode="&#xf4;" horiz-adv-x="630" d="M444 606l-129 90l-128 -89l-73 92l202 130l196 -131zM308 -12q-133 0 -205 75t-72 205q0 135 77.5 213.5t208.5 78.5q142 0 211.5 -75t69.5 -212q0 -136 -80 -210.5t-210 -74.5zM316 121q64 0 88 38t24 114q0 74 -25 114.5t-89 40.5q-115 0 -115 -156q0 -75 26.5 -113 t90.5 -38z" />
<glyph unicode="&#xf5;" horiz-adv-x="630" d="M368 634q-27 0 -68.5 19t-59.5 19q-38 0 -70 -28l-63 74q68 82 144 82q35 0 72.5 -19t50.5 -19q38 0 87 26l55 -74q-74 -80 -148 -80zM308 -12q-133 0 -205 75t-72 205q0 135 77.5 213.5t208.5 78.5q142 0 211.5 -75t69.5 -212q0 -136 -80 -210.5t-210 -74.5zM316 121 q64 0 88 38t24 114q0 74 -25 114.5t-89 40.5q-115 0 -115 -156q0 -75 26.5 -113t90.5 -38z" />
<glyph unicode="&#xf6;" horiz-adv-x="630" d="M197 622l-93 94l93 94l94 -94zM441 622l-94 94l94 94l93 -94zM308 -12q-133 0 -205 75t-72 205q0 135 77.5 213.5t208.5 78.5q142 0 211.5 -75t69.5 -212q0 -136 -80 -210.5t-210 -74.5zM316 121q64 0 88 38t24 114q0 74 -25 114.5t-89 40.5q-115 0 -115 -156 q0 -75 26.5 -113t90.5 -38z" />
<glyph unicode="&#xf8;" horiz-adv-x="629" d="M308 -12q-108 0 -178 51l-61 -61l-50 49l62 62q-50 71 -50 179q0 135 77.5 213.5t208.5 78.5q114 0 181 -49l59 59l49 -49l-59 -59q51 -72 51 -189q0 -136 -80 -210.5t-210 -74.5zM316 121q64 0 88 38t24 114q0 30 -5 62l-187 -188q28 -26 80 -26zM199 272q0 -35 4 -59 l187 189q-28 26 -76 26q-115 0 -115 -156z" />
<glyph unicode="&#xf9;" horiz-adv-x="656" d="M387 602l-244 104l54 117l238 -121zM244 -12q-50 0 -84.5 11.5t-53.5 29t-29.5 48.5t-13 58.5t-2.5 71.5v339h166v-325q0 -55 15 -71.5t58 -16.5q66 0 122 27v386h167v-546h-167v56q-90 -68 -178 -68z" />
<glyph unicode="&#xfa;" horiz-adv-x="656" d="M266 607l-47 100l238 121l54 -117zM244 -12q-50 0 -84.5 11.5t-53.5 29t-29.5 48.5t-13 58.5t-2.5 71.5v339h166v-325q0 -55 15 -71.5t58 -16.5q66 0 122 27v386h167v-546h-167v56q-90 -68 -178 -68z" />
<glyph unicode="&#xfb;" horiz-adv-x="656" d="M455 606l-129 90l-128 -89l-73 92l202 130l196 -131zM244 -12q-50 0 -84.5 11.5t-53.5 29t-29.5 48.5t-13 58.5t-2.5 71.5v339h166v-325q0 -55 15 -71.5t58 -16.5q66 0 122 27v386h167v-546h-167v56q-90 -68 -178 -68z" />
<glyph unicode="&#xfc;" horiz-adv-x="656" d="M208 622l-93 94l93 94l94 -94zM452 622l-94 94l94 94l93 -94zM244 -12q-50 0 -84.5 11.5t-53.5 29t-29.5 48.5t-13 58.5t-2.5 71.5v339h166v-325q0 -55 15 -71.5t58 -16.5q66 0 122 27v386h167v-546h-167v56q-90 -68 -178 -68z" />
<glyph unicode="&#xff;" horiz-adv-x="598" d="M182 622l-93 94l93 94l94 -94zM426 622l-94 94l94 94l93 -94zM173 -220l74 220h-60l-188 546h179l94 -324l23 -89l27 89l109 324h168l-267 -766h-159z" />
<glyph unicode="&#x131;" horiz-adv-x="301" d="M67 0v546h167v-546h-167z" />
<glyph unicode="&#x152;" horiz-adv-x="1101" d="M407 -12q-183 0 -276.5 96.5t-93.5 270.5q0 177 102.5 270t286.5 93q96 0 152 -27v16h464v-133h-294v-157h272v-124h-272v-160h317v-133h-487v21q-62 -33 -171 -33zM410 122q115 0 168 72v318q-53 72 -161 72q-107 0 -157.5 -62t-50.5 -166t49.5 -169t151.5 -65z" />
<glyph unicode="&#x153;" horiz-adv-x="980" d="M308 -12q-133 0 -205 75t-72 205q0 135 77.5 213.5t208.5 78.5q126 0 195 -60q70 59 198 59q238 0 238 -277v-60h-354q0 -54 35.5 -78t110.5 -24q70 0 163 22l26 -129q-75 -22 -205 -22q-150 0 -220 59q-77 -62 -196 -62zM316 121q64 0 88 38t24 114q0 74 -25 114.5 t-89 40.5q-115 0 -115 -156q0 -75 26.5 -113t90.5 -38zM599 330h178q-1 51 -23.5 81.5t-59.5 30.5q-41 0 -67 -29.5t-28 -82.5z" />
<glyph unicode="&#x178;" horiz-adv-x="673" d="M215 737l-99 100l99 100l100 -100zM459 737l-100 100l100 100l99 -100zM249 0v227l-261 480h196l156 -337l166 337h191l-278 -474v-233h-170z" />
<glyph unicode="&#x192;" horiz-adv-x="481" d="M24 -64l-5 137q5 0 28 1.5t30.5 2.5t25.5 4t25 8t17 13t14 20t4 28v70h-103v134h103v60q0 111 73.5 159.5t209.5 48.5l11 -142q-81 -6 -102 -17q-29 -15 -29 -52v-57h118v-134h-118v-72q0 -48 -13 -84t-45 -66.5t-93.5 -46t-150.5 -15.5z" />
<glyph unicode="&#x237;" horiz-adv-x="300" d="M12 -225q-67 0 -128 28l31 129q45 -16 91 -16q33 0 47 18.5t14 68.5v543h166v-544q0 -68 -17.5 -115t-50.5 -70.5t-69 -32.5t-84 -9z" />
<glyph unicode="&#x2c6;" horiz-adv-x="556" d="M407 605l-129 90l-128 -89l-73 92l202 130l196 -131z" />
<glyph unicode="&#x2d9;" horiz-adv-x="293" d="M146 604l-111 112l111 111l112 -111z" />
<glyph unicode="&#x2da;" horiz-adv-x="552" d="M278 586q-62 0 -106 29t-44 97q0 65 43.5 99.5t103.5 34.5q24 0 48 -6.5t48 -20.5t38.5 -41t14.5 -64q0 -64 -42 -96t-104 -32zM276 657q56 0 61 56q0 25 -17 40.5t-44 15.5q-61 0 -61 -54q0 -27 16 -42.5t45 -15.5z" />
<glyph unicode="&#x2dc;" horiz-adv-x="556" d="M331 633q-27 0 -68.5 19t-59.5 19q-38 0 -70 -28l-63 74q68 82 144 82q35 0 72.5 -19t50.5 -19q38 0 87 26l55 -74q-74 -80 -148 -80z" />
<glyph unicode="&#x531;" horiz-adv-x="824" d="M401 -13q-65 0 -121 15.5t-104 48.5t-76 94t-28 143v419h172v-413q0 -168 157 -168t157 189v392h167v-395q0 -87 -29 -155l143 -91l-76 -105l-142 95q-84 -69 -220 -69z" />
<glyph unicode="&#x532;" horiz-adv-x="766" d="M725 164h-486v-164h-167v393q0 89 28 154.5t75.5 101.5t102.5 52.5t118 16.5q65 0 121 -15.5t104 -48.5t76 -94t28 -143l-172 -6q0 168 -157 168t-157 -189v-92h486v-134z" />
<glyph unicode="&#x533;" horiz-adv-x="784" d="M331 718q155 0 242 -77.5t87 -234.5v-108h135v-133h-135v-165h-172v165h-170q-153 0 -224.5 72t-71.5 196q0 133 83 209t226 76zM189 450q0 -77 32.5 -114.5t110.5 -37.5h156v105q0 36 -5 62.5t-20 54.5t-48 43t-84 15q-72 1 -107 -38t-35 -90z" />
<glyph unicode="&#x534;" horiz-adv-x="802" d="M813 209h-143v-209h-172v411q0 168 -157 168t-157 -189v-29h-167v32q0 89 28 154.5t75.5 101.5t102.5 52.5t118 16.5q65 0 121 -15.5t104 -48.5t76 -94t28 -143v-73h143v-135z" />
<glyph unicode="&#x535;" horiz-adv-x="760" d="M719 413h-475v-119q0 -168 157 -168q139 0 155 144l163 -33q-11 -68 -42.5 -118t-76 -78t-94 -41t-105.5 -13q-65 0 -121 15.5t-104 48.5t-76 94t-28 143v419h172v-161h475v-133z" />
<glyph unicode="&#x536;" horiz-adv-x="765" d="M175 -51h-138v272h138v-79l11 1q149 29 229 91q-27 -7 -58 -7q-133 0 -200 60t-67 164q0 119 78.5 193t212.5 74q138 0 216.5 -73t78.5 -186q0 -130 -71.5 -212t-203.5 -113l3 -5l155 12q84 7 141.5 -30t70.5 -107l-117 -56q-12 32 -34.5 48.5t-43 20t-53.5 3.5h-348v-71 zM401 326q47 0 95 14q19 48 19 110q0 58 -34.5 98t-97.5 40q-65 0 -98.5 -35.5t-33.5 -87.5q0 -66 37.5 -102.5t112.5 -36.5z" />
<glyph unicode="&#x537;" horiz-adv-x="609" d="M572 413h-323v-279h125q81 0 130 -48.5t57 -121.5l-117 -55q-10 48 -44 69.5t-80 21.5h-238v707h167v-161h323v-133z" />
<glyph unicode="&#x538;" horiz-adv-x="770" d="M725 0h-653v393q0 89 28 154.5t75.5 101.5t102.5 52.5t118 16.5q65 0 121 -15.5t104 -48.5t76 -94t28 -143l-172 -6q0 168 -157 168t-157 -189v-256h486v-134z" />
<glyph unicode="&#x539;" horiz-adv-x="989" d="M472 718q66 0 129 -14t123 -44t102 -84.5t53 -127.5h124v-120h-119v-42q0 -81 -23 -140.5t-64 -93t-90.5 -49.5t-108.5 -16q-117 0 -191.5 59t-74.5 168q0 102 66.5 168t222.5 66h84q-36 131 -233 131q-114 0 -177 -48t-63 -141v-390h-167v393q0 72 23.5 128.5t62 93 t92 60t110 33.5t119.5 10zM592 126q53 0 86.5 29t33.5 89v84h-91q-127 0 -127 -94q0 -108 98 -108z" />
<glyph unicode="&#x53a;" horiz-adv-x="777" d="M328 -12q-130 0 -219 65t-89 188q0 128 83 204.5t252 76.5h120v185h172v-185h125v-135h-125v-99q0 -83 -26.5 -143t-72.5 -93.5t-100.5 -48.5t-119.5 -15zM185 258q0 -132 150 -132q78 0 109 41.5t31 126.5v93h-119q-94 0 -132.5 -32.5t-38.5 -96.5z" />
<glyph unicode="&#x53b;" horiz-adv-x="769" d="M254 707v-227q98 78 212 78q134 0 202.5 -69t68.5 -224v-130h-172v124q0 81 -38 120.5t-119 39.5q-93 0 -154 -55v-364h-172v707h172z" />
<glyph unicode="&#x53c;" horiz-adv-x="568" d="M82 0v707h170v-573h307v-134h-477z" />
<glyph unicode="&#x53d;" horiz-adv-x="1085" d="M82 707h172v-161h354v-274q0 -73 33 -108.5t102 -35.5q77 0 107 41t30 127v250h162v-256q0 -83 -23.5 -143t-65.5 -93.5t-94 -49t-116 -15.5q-45 0 -85.5 7.5t-80 26t-68.5 46t-46.5 71.5t-17.5 99v172h-191v-411h-172v707z" />
<glyph unicode="&#x53e;" horiz-adv-x="948" d="M711 545h-16q104 -78 104 -212q0 -68 -21 -128t-62.5 -109.5t-112 -78.5t-161.5 -29q-93 0 -161 26.5t-106 74t-55.5 103.5t-17.5 122q0 155 101 227q-24 -3 -44 -3q-125 0 -178 135l112 85q32 -51 83.5 -72t139.5 -21h356q86 0 142 -9t89.5 -30t49.5 -43.5t33 -62.5 l-110 -82q-23 43 -53 68t-55 32t-57 7zM626 334q0 98 -43.5 154.5t-119.5 56.5h-10q-90 0 -134.5 -54.5t-44.5 -154.5q0 -45 7 -80t24.5 -67t52.5 -49.5t87 -17.5q45 0 78.5 14.5t52.5 36t31 51.5t15.5 56t3.5 54z" />
<glyph unicode="&#x53f;" horiz-adv-x="741" d="M334 160q-295 0 -295 250v297h163v-264q0 -148 156 -148q98 0 156 46v204h172v-545h-172v212q-81 -52 -180 -52z" />
<glyph unicode="&#x540;" horiz-adv-x="578" d="M563 0h-505l-33 75l244 380l-109 73q-61 38 -61 111q0 68 50 124l116 -60q-16 -23 -16 -43q0 -30 36 -57l195 -107l-237 -362h320v-134z" />
<glyph unicode="&#x541;" horiz-adv-x="772" d="M365 718q65 0 121 -16t104 -49.5t76 -94t28 -141.5q0 -143 -61 -247q70 -35 134 -35l-22 -135q-102 0 -213 60q-102 -72 -255 -72q-112 0 -175.5 45.5t-63.5 127.5q0 76 58.5 128.5t162.5 52.5q62 0 117 -23t122 -66q23 64 23 158q0 89 -46 132.5t-110 43.5 q-82 0 -121.5 -40.5t-39.5 -133.5l-163 11q0 143 89.5 218.5t234.5 75.5zM275 101q83 0 138 36q-90 62 -122 73q-17 6 -31 6q-24 0 -42 -15.5t-18 -40.5q0 -28 21.5 -43.5t53.5 -15.5z" />
<glyph unicode="&#x542;" horiz-adv-x="811" d="M834 0h-336v411q0 168 -157 168t-157 -189v-29h-167v32q0 89 28 154.5t75.5 101.5t102.5 52.5t118 16.5q65 0 121 -15.5t104 -48.5t76 -94t28 -143v-283h164v-134z" />
<glyph unicode="&#x543;" horiz-adv-x="745" d="M755 0h-170l-40 81q-49 -41 -129.5 -67t-158.5 -26q-98 0 -160.5 64t-62.5 157q0 200 192 346q-63 36 -145 55l77 108q109 -18 201 -82q104 51 233 82l66 -123q-116 -23 -195 -53q62 -70 106 -158zM297 129q115 0 200 50l-69 142q-52 98 -100 152q-131 -92 -131 -236 q0 -45 25 -76.5t75 -31.5z" />
<glyph unicode="&#x544;" horiz-adv-x="863" d="M888 574h-163v-262q0 -89 -28 -154.5t-75.5 -101.5t-102.5 -52.5t-118 -16.5q-65 0 -121 15.5t-104 48.5t-76 94t-28 143v419h172v-413q0 -168 157 -168t157 189v392h330v-133z" />
<glyph unicode="&#x545;" horiz-adv-x="733" d="M377 -12q-135 0 -218.5 38t-116.5 141l149 49q18 -45 69.5 -67.5t116.5 -22.5q68 0 108 24.5t40 68.5q0 45 -30 64.5t-98 19.5h-356v129h357q65 1 86.5 17.5t21.5 56.5q0 38 -34 59t-94 21q-80 0 -113.5 -16.5t-57.5 -57.5l-153 28q15 54 48.5 91.5t80.5 55t92.5 24.5 t102.5 7q80 0 141.5 -18.5t102.5 -65t41 -118.5q0 -91 -78 -137q114 -39 114 -138q0 -68 -28.5 -119t-76.5 -79t-102.5 -41.5t-114.5 -13.5z" />
<glyph unicode="&#x546;" horiz-adv-x="786" d="M449 -13q-65 0 -121 15.5t-104 48.5t-76 94t-28 143v286h-142v133h314v-413q0 -168 157 -168q72 0 113.5 36.5t41.5 107.5v48h163v-81q0 -55 -19.5 -99t-51.5 -71.5t-74.5 -46t-85 -26t-87.5 -7.5z" />
<glyph unicode="&#x547;" horiz-adv-x="737" d="M682 469l-248 47q-43 -4 -81.5 -18.5t-72.5 -39.5t-54 -67.5t-20 -95.5q0 -80 45.5 -123.5t112.5 -43.5q78 0 124 43t58 118l154 -35q-8 -72 -39 -125t-78.5 -82.5t-102 -43.5t-116.5 -14q-46 0 -87.5 7t-86.5 28t-78 53.5t-54 88.5t-21 129q0 186 203 258l-160 31 l22 134l598 -122z" />
<glyph unicode="&#x548;" horiz-adv-x="797" d="M396 718q65 0 121 -15.5t104 -48.5t76 -94t28 -143v-417h-172v411q0 168 -157 168t-157 -189v-390h-167v393q0 89 28 154.5t75.5 101.5t102.5 52.5t118 16.5z" />
<glyph unicode="&#x549;" horiz-adv-x="724" d="M583 -43l-560 193l49 129l228 -82q28 7 53.5 16.5t57.5 27.5t54.5 40t38 56t15.5 75q0 80 -44.5 123.5t-111.5 43.5q-81 0 -118.5 -44t-38.5 -142l-167 33q3 144 98 218t226 74q46 0 87.5 -6.5t87.5 -27t78.5 -52.5t54 -89t21.5 -131q0 -106 -67 -167.5t-186 -97.5 l189 -68z" />
<glyph unicode="&#x54a;" horiz-adv-x="905" d="M350 153v418q-157 -31 -157 -180v-91h-168v93q0 88 38 154t100.5 101.5t130 52.5t139.5 17q63 0 119.5 -10t110 -33.5t92 -60t62 -93t23.5 -128.5v-393h-167v390q0 148 -156 181v-418h-167z" />
<glyph unicode="&#x54b;" horiz-adv-x="761" d="M173 -51h-138v272h138v-78q68 12 121 30q8 37 -10.5 62.5t-51 43t-65.5 37.5t-57.5 59t-24.5 95q0 108 80 178t214 70q138 0 214 -73t76 -186q0 -111 -72.5 -198t-199.5 -124l5 -8l155 12q84 7 141.5 -30t70.5 -107l-117 -56q-12 32 -34.5 48.5t-43 20t-53.5 3.5h-348 v-71zM405 234l6 -2q102 77 102 218q0 57 -36.5 95.5t-100.5 38.5q-66 0 -97 -29.5t-31 -79.5q0 -31 19 -57t44.5 -43.5t50.5 -36t38 -45t5 -59.5z" />
<glyph unicode="&#x54c;" horiz-adv-x="856" d="M396 718q65 0 121 -15.5t104 -48.5t76 -94t28 -143v-73h143v-121h-143v-223h-172v411q0 168 -157 168t-157 -189v-390h-167v393q0 89 28 154.5t75.5 101.5t102.5 52.5t118 16.5z" />
<glyph unicode="&#x54d;" horiz-adv-x="796" d="M401 -13q-65 0 -121 15.5t-104 48.5t-76 94t-28 143v419h172v-413q0 -168 157 -168t157 189v392h167v-395q0 -89 -28 -154.5t-75.5 -101.5t-102.5 -52.5t-118 -16.5z" />
<glyph unicode="&#x54e;" horiz-adv-x="815" d="M336 160q-66 0 -119 12.5t-96.5 40.5t-67.5 78t-24 119v136h163v-103q0 -79 40 -111.5t115 -32.5q51 0 94.5 16t62.5 48v344h172v-573h154v-134h-326v211q-76 -51 -168 -51z" />
<glyph unicode="&#x54f;" horiz-adv-x="655" d="M331 718q81 0 153 -33.5t106 -91.5l-99 -85q-64 73 -160 73q-54 0 -84 -16t-30 -46q0 -29 31 -48.5t77 -29.5t100 -26.5t100 -37t77 -64t31 -105.5q0 -91 -91 -155.5t-221 -64.5q-215 0 -304 129l95 104q71 -92 205 -92q68 0 106 21t38 58q0 33 -30 54t-75 29.5t-98 23.5 t-98 34t-75 62.5t-30 107.5q0 80 74 139.5t202 59.5z" />
<glyph unicode="&#x550;" horiz-adv-x="742" d="M401 718q63 0 118 -16.5t102.5 -52.5t75.5 -101.5t28 -154.5v-32h-167v29q0 189 -157 189t-157 -168v-411h-172v417q0 82 28 143t76 94t104 48.5t121 15.5z" />
<glyph unicode="&#x551;" horiz-adv-x="693" d="M88 518q0 103 66.5 152t178.5 49t178.5 -49t66.5 -153q0 -63 -51 -109q137 -40 137 -182q0 -68 -30 -117t-81 -74t-105 -36t-116 -11q-245 0 -319 135l129 85q57 -81 190 -81q71 0 114.5 25.5t43.5 73.5q0 91 -158 91q-120 0 -183 -57l-104 94q37 35 96 52 q-53 48 -53 112zM241 517q0 -87 92 -87h2q90 2 90 87q0 45 -25.5 69t-66.5 24q-42 0 -67 -23.5t-25 -69.5z" />
<glyph unicode="&#x552;" horiz-adv-x="672" d="M82 707h172v-169q48 17 95 17q62 0 102.5 -16.5t58.5 -44.5t26.5 -55.5t15.5 -61.5t16 -50q16 -30 44.5 -42.5t76.5 -12.5l-14 -144q-35 -7 -64 -7q-89 0 -135 53q-22 26 -34.5 62.5t-17.5 67t-13 58.5t-28 44t-55 16q-39 0 -74 -10v-412h-172v707z" />
<glyph unicode="&#x553;" horiz-adv-x="843" d="M338 0v65q-139 0 -227.5 74t-88.5 214t88.5 214t227.5 74v66h167v-66q139 0 227.5 -74t88.5 -214t-88.5 -214t-227.5 -74v-65h-167zM505 187q67 0 106.5 44t39.5 122q0 81 -39 123.5t-107 42.5v-332zM338 187v332q-68 0 -107 -42.5t-39 -123.5q0 -78 39.5 -122t106.5 -44 z" />
<glyph unicode="&#x554;" horiz-adv-x="752" d="M703 84h-422v-84h-165v84h-125v114h125l1 279q1 102 79.5 171.5t215.5 69.5q138 0 218.5 -64.5t80.5 -180.5q0 -110 -87 -163.5t-223 -53.5q-52 0 -120 11v-69h422v-114zM281 470v-85q64 -10 116 -10q73 0 110 28t37 77q0 45 -34.5 77.5t-97.5 31.5q-59 -1 -95 -32.5 t-36 -86.5z" />
<glyph unicode="&#x555;" horiz-adv-x="831" d="M407 -12q-183 0 -276.5 96.5t-93.5 270.5q0 168 104.5 265.5t284.5 97.5q185 0 276.5 -99t91.5 -266q0 -171 -100 -268t-287 -97zM410 122q111 0 161 62.5t50 169.5q0 105 -50.5 167.5t-153.5 62.5q-107 0 -157.5 -62t-50.5 -166t49.5 -169t151.5 -65z" />
<glyph unicode="&#x556;" horiz-adv-x="808" d="M493 690v-251q51 -3 93 -10.5t82 -23t66.5 -39t43 -60.5t16.5 -85q0 -64 -30 -111t-84 -72.5t-120 -37.5t-147 -12q-267 0 -399 134l89 113q82 -82 223 -105v185q-129 10 -197.5 59.5t-68.5 153.5q0 52 23 90.5t62 59.5t82.5 30.5t93.5 9.5q96 0 172 -28zM626 216 q0 45 -34 66t-99 27v-184q62 6 97.5 26.5t35.5 64.5zM219 528q0 -39 27 -58t80 -25v155h-14q-93 0 -93 -72z" />
<glyph unicode="&#x559;" horiz-adv-x="231" d="M197 483h-100q-63 76 -63 172v98h131v-136q0 -75 32 -134z" />
<glyph unicode="&#x55a;" horiz-adv-x="231" d="M34 483q32 59 32 134v136h131v-98q0 -96 -63 -172h-100z" />
<glyph unicode="&#x55b;" horiz-adv-x="0" d="M-274 725l-73 84l196 181l84 -97z" />
<glyph unicode="&#x55c;" horiz-adv-x="0" d="M-267 938q19 8 40 8q11 0 33 -3t33 -3q19 0 34 7q28 12 48 62l73 -31q-23 -102 -90 -130q-24 -11 -55 -11q-11 0 -30 2t-27 2q-17 0 -28 -5q-20 -9 -32.5 -22.5t-31.5 -43.5l-65 35q16 100 98 133z" />
<glyph unicode="&#x55d;" horiz-adv-x="251" d="M230 600l-90 -64l-167 208l104 76z" />
<glyph unicode="&#x55e;" horiz-adv-x="0" d="M-216 865q-83 0 -146 -117l-65 56q83 156 217 156q69 0 103 -32.5t34 -79.5q0 -42 -34 -71t-87 -30l-11 52q35 4 35 30q0 16 -12 26t-34 10z" />
<glyph unicode="&#x55f;" horiz-adv-x="407" d="M362 532h-175q-50 0 -84.5 14.5t-49 38t-19.5 42t-5 38.5q0 23 7 43.5t25 43t59 36t101 13.5v-85l-25 -2q-62 -5 -62 -44q0 -51 65 -51h163v-87z" />
<glyph unicode="&#x561;" horiz-adv-x="1016" d="M605 -12q-134 0 -166 84q-104 -84 -196 -84q-50 0 -84.5 11.5t-53.5 29t-29.5 48.5t-13 58.5t-2.5 71.5v315h166v-301q0 -55 15 -71.5t58 -16.5q66 0 122 27v362h167v-301q0 -55 15 -71.5t58 -16.5q66 0 122 27v362h167v-522h-167v56q-90 -68 -178 -68z" />
<glyph unicode="&#x562;" horiz-adv-x="638" d="M594 0h-361v-220h-167v742h167v-55q91 69 178 69q50 0 84.5 -11.5t53.5 -28.5t29.5 -48t13 -59t2.5 -71v-78h-166v64q0 55 -15 71.5t-58 16.5q-62 0 -122 -29v-230h361v-133z" />
<glyph unicode="&#x563;" horiz-adv-x="681" d="M697 0h-129v-220h-167v262q-16 -19 -52.5 -34.5t-71.5 -15.5q-37 0 -70.5 7t-66 26t-56 47.5t-38 76t-14.5 107.5q0 135 83 207.5t214 72.5q81 0 128 -6t111 -23v-375h129v-132zM310 131q48 0 91 32v234q-40 7 -69 7q-134 0 -134 -151q0 -122 112 -122z" />
<glyph unicode="&#x564;" horiz-adv-x="713" d="M732 0h-138v-220h-166v524q0 55 -15 71.5t-58 16.5q-62 0 -122 -29v-363h-167v522h167v-55q91 69 178 69q50 0 84.5 -11.5t53.5 -28.5t29.5 -48t13 -59t2.5 -71v-186h138v-132z" />
<glyph unicode="&#x565;" horiz-adv-x="638" d="M588 388h-362v-167q0 -55 15 -71.5t58 -16.5q66 0 122 27v120h167v-280h-167v56q-90 -68 -178 -68q-50 0 -84.5 11.5t-53.5 29t-29.5 48.5t-13 58.5t-2.5 71.5v547h166v-232h362v-134z" />
<glyph unicode="&#x566;" horiz-adv-x="632" d="M707 -220h-306v262q-16 -19 -52.5 -34.5t-71.5 -15.5q-37 0 -70.5 7t-66 26t-56 47.5t-38 76t-14.5 107.5q0 135 83 207.5t214 72.5q81 0 128 -6t111 -23v-596h139v-131zM310 131q48 0 91 32v234q-40 7 -69 7q-134 0 -134 -151q0 -122 112 -122z" />
<glyph unicode="&#x567;" horiz-adv-x="577" d="M554 388h-321v-255h129q89 0 128 -38t44 -127l-134 -42q-2 21 -4.5 31.5t-9.5 22t-22 16t-40 4.5h-258v754h167v-232h321v-134z" />
<glyph unicode="&#x568;" d="M66 -220v742h167v-55q91 69 178 69q50 0 84.5 -11.5t53.5 -28.5t29.5 -48t13 -59t2.5 -71v-318h-166v304q0 55 -15 71.5t-58 16.5q-62 0 -122 -29v-452h362v-131h-529z" />
<glyph unicode="&#x569;" horiz-adv-x="756" d="M415 536q258 0 277 -225h78v-108h-81q-12 -76 -50 -126.5t-83.5 -70t-95.5 -19.5q-88 0 -136 44.5t-48 115.5q0 80 52 122t130 42h82q-15 49 -56.5 70.5t-113.5 21.5q-69 0 -138 -30v-593h-166v742h166v-47q86 61 183 61zM460 95q41 0 61.5 28t25.5 88h-75 q-34 0 -52 -17.5t-18 -45.5q0 -23 16.5 -38t41.5 -15z" />
<glyph unicode="&#x56a;" horiz-adv-x="680" d="M591 522h107v-134h-107v-115q0 -44 -5.5 -80t-23 -76t-47 -67t-81 -45t-120.5 -18q-71 0 -124 17t-82 43t-47 63.5t-23 70t-5 71.5q0 62 18.5 110t49 77.5t73 48.5t87 26.5t95.5 7.5h65v232h170v-232zM202 264q0 -69 24 -107.5t88 -38.5q66 0 86.5 33.5t20.5 121.5v115 h-48q-97 0 -134 -24.5t-37 -99.5z" />
<glyph unicode="&#x56b;" d="M66 -220v974h167v-287q91 69 178 69q50 0 84.5 -11.5t53.5 -28.5t29.5 -48t13 -59t2.5 -71v-318h-166v304q0 55 -15 71.5t-58 16.5q-62 0 -122 -29v-583h-167z" />
<glyph unicode="&#x56c;" horiz-adv-x="339" d="M66 -220v742h167v-611h139v-131h-306z" />
<glyph unicode="&#x56d;" horiz-adv-x="960" d="M66 -220v974h167v-232h299v-301q0 -55 15 -71.5t58 -16.5q66 0 122 27v362h167v-522h-167v56q-90 -68 -178 -68q-50 0 -84.5 11.5t-53.5 29t-29.5 48.5t-13 58.5t-2.5 71.5v181h-133v-608h-167z" />
<glyph unicode="&#x56e;" horiz-adv-x="692" d="M154 590l1 2l95 188l130 -62l-42 -85q88 -53 144 -111h193v-128h-105q25 -61 26 -121q0 -35 -6 -70t-25.5 -75t-49.5 -69.5t-83 -49.5t-122 -20q-281 0 -281 270q0 113 78 175t185 71q-31 24 -65.5 45.5t-53.5 30.5zM198 263q0 -68 24 -105.5t88 -37.5q66 0 90.5 37 t24.5 116q0 60 -34 121h-17q-88 0 -132 -30.5t-44 -100.5z" />
<glyph unicode="&#x56f;" d="M243 -12q-50 0 -84.5 11.5t-53.5 29t-29.5 48.5t-13 58.5t-2.5 71.5v547h166v-533q0 -55 15 -71.5t58 -16.5q66 0 122 27v362h167v-742h-167v276q-90 -68 -178 -68z" />
<glyph unicode="&#x570;" d="M66 0v754h167v-287q91 69 178 69q50 0 84.5 -11.5t53.5 -28.5t29.5 -48t13 -59t2.5 -71v-318h-166v304q0 55 -15 71.5t-58 16.5q-62 0 -122 -29v-363h-167z" />
<glyph unicode="&#x571;" horiz-adv-x="612" d="M645 0h-170l-29 49q-97 -61 -216 -61q-90 0 -149.5 55.5t-59.5 140.5q0 78 53 149t161 161l-17 12q-61 51 -61 120q0 58 48 112l36 39l114 -93l-18 -21q-13 -14 -13 -37q0 -3 0.5 -6.5t1.5 -6.5t2 -5.5t3.5 -5.5t3.5 -5t4.5 -6t5.5 -6l6.5 -6.5l6.5 -6.5l68 -71 q-12 -10 -31 -27.5t-23 -20.5zM265 129q62 0 121 24l-115 198q-71 -82 -71 -144q0 -38 19.5 -58t45.5 -20z" />
<glyph unicode="&#x572;" d="M711 -220h-283v524q0 55 -15 71.5t-58 16.5q-62 0 -122 -29v-363h-167v522h167v-55q91 69 178 69q50 0 84.5 -11.5t53.5 -28.5t29.5 -48t13 -59t2.5 -71v-407h117v-131z" />
<glyph unicode="&#x573;" horiz-adv-x="676" d="M683 0h-170l-34 70q-102 -82 -244 -82q-89 0 -141 52.5t-52 138.5q0 107 50 238q-14 2 -42 4l34 126q66 -3 69 -3q21 35 47 71q54 71 124.5 110t176.5 39q38 0 73 -4l-8 -145q-33 4 -69 4q-120 0 -171 -70q-16 -22 -23 -33q145 -47 202 -167zM275 129q86 0 157 41l-27 57 q-29 67 -67.5 105.5t-97.5 57.5q-35 -94 -35 -183q0 -78 70 -78z" />
<glyph unicode="&#x574;" horiz-adv-x="736" d="M243 -12q-50 0 -84.5 11.5t-53.5 29t-29.5 48.5t-13 58.5t-2.5 71.5v315h166v-301q0 -55 15 -71.5t58 -16.5q66 0 122 27v409q0 194 192 194q89 0 153 -31l-47 -128q-45 16 -78 16q-28 0 -40.5 -16t-12.5 -38v-566h-167v56q-90 -68 -178 -68z" />
<glyph unicode="&#x575;" horiz-adv-x="335" d="M269 522v-520q0 -68 -17.5 -114t-50.5 -68.5t-68.5 -31t-84.5 -8.5q-65 0 -128 23l31 129q61 -11 92 -11q34 0 47 16.5t13 65.5v519h166z" />
<glyph unicode="&#x576;" horiz-adv-x="712" d="M479 522h167v-522h-167v56q-90 -68 -178 -68q-50 0 -84.5 11.5t-53.5 29t-29.5 48.5t-13 58.5t-2.5 71.5v355h-34q-134 0 -134 130q0 10 2 34l129 28q0 -46 21 -62.5t67 -16.5h115v-454q0 -51 15.5 -69.5t57.5 -18.5q66 0 122 27v362z" />
<glyph unicode="&#x577;" horiz-adv-x="509" d="M273 -89h209v-131h-238q-112 0 -162 37t-50 117q0 42 19 75t61 81l100 117q44 51 60 76.5t16 49.5q0 26 -20.5 43.5t-60.5 17.5q-61 0 -128 -38l-63 105q57 43 113 59t131 16q102 0 160.5 -55t58.5 -132q0 -78 -101 -188l-107 -117q-24 -27 -33 -38t-16.5 -25.5 t-7.5 -29.5q0 -40 59 -40z" />
<glyph unicode="&#x578;" d="M66 0v522h167v-55q91 69 178 69q50 0 84.5 -11.5t53.5 -28.5t29.5 -48t13 -59t2.5 -71v-318h-166v304q0 55 -15 71.5t-58 16.5q-62 0 -122 -29v-363h-167z" />
<glyph unicode="&#x579;" horiz-adv-x="444" d="M240 -89h181v-131h-228q-84 0 -128.5 46.5t-44.5 112.5q0 61 36 108l145 189l-22 13q-43 25 -66 62t-23 78q0 58 48 112l48 54l114 -93l-30 -36q-13 -14 -13 -37q0 -36 33 -63l110 -89l-183 -233q-23 -29 -23 -56q0 -37 46 -37z" />
<glyph unicode="&#x57a;" horiz-adv-x="1016" d="M950 -220h-167v276q-90 -68 -178 -68q-132 0 -166 82q-100 -82 -196 -82q-50 0 -84.5 11.5t-53.5 29t-29.5 48.5t-13 58.5t-2.5 71.5v315h166v-301q0 -55 15 -71.5t58 -16.5q66 0 122 27v362h167v-301q0 -55 15 -71.5t58 -16.5q66 0 122 27v362h167v-742z" />
<glyph unicode="&#x57b;" horiz-adv-x="570" d="M158 138q-8 14 -30.5 32t-43.5 33.5t-37.5 45t-16.5 66.5q0 93 72 157.5t185 64.5q115 0 185 -54.5t69 -144.5q-1 -96 -63 -169q-23 -27 -57.5 -54t-55 -40t-62.5 -37q-36 -20 -53.5 -31t-33 -27t-15.5 -31q0 -13 8 -21t24.5 -11.5t32.5 -4.5t40 -1h230v-131h-328 q-170 0 -170 144q0 57 48 108q27 28 72 60q11 26 0 46zM333 218q45 47 45 94q0 89 -100 89q-39 0 -65.5 -20.5t-26.5 -63.5q0 -31 35 -68t41 -54q4 -15 3 -32q46 33 68 55z" />
<glyph unicode="&#x57c;" horiz-adv-x="653" d="M614 0h-284v107q31 38 48 61.5t35.5 62.5t18.5 71q0 53 -20.5 72.5t-60.5 19.5q-54 0 -118 -31v-363h-167v522h167v-55q32 28 80 48.5t98 20.5q103 0 147 -45.5t44 -141.5q0 -58 -28.5 -116t-67.5 -100h108v-133z" />
<glyph unicode="&#x57d;" d="M243 -12q-50 0 -84.5 11.5t-53.5 29t-29.5 48.5t-13 58.5t-2.5 71.5v315h166v-301q0 -55 15 -71.5t58 -16.5q66 0 122 27v362h167v-522h-167v56q-90 -68 -178 -68z" />
<glyph unicode="&#x57e;" horiz-adv-x="674" d="M727 -220h-306v276q-90 -68 -178 -68q-50 0 -84.5 11.5t-53.5 29t-29.5 48.5t-13 58.5t-2.5 71.5v315h166v-301q0 -55 15 -71.5t58 -16.5q66 0 122 27v594h167v-843h139v-131z" />
<glyph unicode="&#x57f;" horiz-adv-x="1009" d="M949 0h-166v304q0 55 -15 71.5t-58 16.5q-62 0 -122 -29v-363h-167v56q-90 -68 -178 -68q-50 0 -84.5 11.5t-53.5 29t-29.5 48.5t-13 58.5t-2.5 71.5v315h166v-301q0 -55 15 -71.5t58 -16.5q66 0 122 27v362h167v-55q91 69 178 69q50 0 84.5 -11.5t53.5 -28.5t29.5 -48 t13 -59t2.5 -71v-318z" />
<glyph unicode="&#x580;" d="M66 -220v742h167v-55q91 69 178 69q50 0 84.5 -11.5t53.5 -28.5t29.5 -48t13 -59t2.5 -71v-318h-166v304q0 55 -15 71.5t-58 16.5q-62 0 -122 -29v-583h-167z" />
<glyph unicode="&#x581;" horiz-adv-x="630" d="M296 -249q-110 0 -227 36l26 131q115 -24 178 -24q68 0 98 17t30 72v32q-16 -11 -47.5 -19.5t-51.5 -8.5q-271 0 -271 258q0 135 87 212.5t216 77.5q95 0 233 -28v-537q0 -57 -24.5 -101t-65 -69t-86.5 -37t-95 -12zM321 114q49 0 79 9v265q-36 10 -67 10 q-136 0 -136 -153q0 -72 32 -101.5t92 -29.5z" />
<glyph unicode="&#x582;" horiz-adv-x="371" d="M66 0v522h167v-389h138v-133h-305z" />
<glyph unicode="&#x583;" horiz-adv-x="1009" d="M949 0h-166v304q0 55 -15 71.5t-58 16.5q-62 0 -122 -29v-583h-167v276q-90 -68 -178 -68q-50 0 -84.5 11.5t-53.5 29t-29.5 48.5t-13 58.5t-2.5 71.5v315h166v-301q0 -55 15 -71.5t58 -16.5q66 0 122 27v594h167v-287q91 69 178 69q50 0 84.5 -11.5t53.5 -28.5t29.5 -48 t13 -59t2.5 -71v-318z" />
<glyph unicode="&#x584;" horiz-adv-x="639" d="M597 -165h-365v-78h-166v78h-79v102h79v585h166v-39q18 19 57.5 36.5t74.5 17.5q118 0 179.5 -61.5t61.5 -200.5q0 -66 -17 -116t-44.5 -80.5t-68.5 -49t-83 -25.5t-93 -7q-15 0 -39 2t-28 2v-64h365v-102zM303 118q65 0 99.5 38.5t34.5 113.5q0 71 -29 99t-94 28 q-34 0 -82 -16v-257q48 -6 71 -6z" />
<glyph unicode="&#x585;" horiz-adv-x="630" d="M308 -12q-134 0 -205.5 70.5t-71.5 199.5q0 134 77 208t209 74q281 0 281 -277q0 -135 -79.5 -205t-210.5 -70zM316 121q64 0 88 34t24 108q0 72 -24.5 108.5t-89.5 36.5q-64 0 -89.5 -37t-25.5 -109q0 -73 26 -107t91 -34z" />
<glyph unicode="&#x586;" horiz-adv-x="747" d="M444 733v-259q280 -23 280 -243q0 -219 -280 -247v-204h-167v205q-186 18 -269 103l73 122q68 -61 196 -79v221q-122 13 -188 66.5t-66 145.5q0 96 74 147.5t176 51.5q89 0 171 -30zM560 226q0 55 -28.5 81.5t-87.5 35.5v-215q116 15 116 98zM171 564q0 -39 26 -58 t80 -25v162h-13q-40 0 -66.5 -21t-26.5 -58z" />
<glyph unicode="&#x587;" horiz-adv-x="725" d="M707 0h-286v71q-86 -83 -178 -83q-50 0 -84.5 11.5t-53.5 29t-29.5 48.5t-13 58.5t-2.5 71.5v547h166v-533q0 -55 15 -71.5t58 -16.5q59 0 122 42v347h167v-389h119v-133z" />
<glyph unicode="&#x589;" horiz-adv-x="329" d="M72 0v162h185v-162h-185zM72 360v162h185v-162h-185z" />
<glyph unicode="&#x58a;" horiz-adv-x="640" d="M70 230v113h500v-113h-500z" />
<glyph unicode="&#x58c;" horiz-adv-x="849" d="M815 133h-143v-133h-172v133h-98v103h98v72h-98v103h98v11q-6 157 -157 157q-157 0 -157 -189v-29l-167 7v25q0 89 28 154.5t75.5 101.5t102.5 52.5t118 16.5q65 0 121 -15.5t104 -48.5t76 -94t28 -143v-6h143v-103h-143v-72h143v-103z" />
<glyph unicode="&#x58d;" horiz-adv-x="639" d="M538 476q-24 6 -45 6q-53 0 -98 -34.5t-64 -119.5q77 97 159 97q67 0 107 -54q22 -31 22 -68q0 -42 -29 -80q-14 39 -49.5 71.5t-93.5 32.5q-45 0 -95 -21q59 0 101.5 -14t63 -37.5t29 -47t8.5 -48.5q0 -15 -4 -33q-11 -40 -43 -63t-76 -24q24 38 24 85q0 92 -110 152 q64 -79 64 -146q0 -45 -25 -76.5t-55 -44.5q-23 -10 -47 -10q-56 0 -95 48q49 6 92.5 44t43.5 115q0 24 -6 54q-20 -92 -62 -130t-92 -38q-35 0 -63 15q-63 33 -63 104q0 15 3 30q47 -45 107 -45q74 0 139 77q-68 -34 -121 -34q-59 0 -92 34.5t-41 72.5q-9 40 9 75.5 t57 55.5q-2 -25 4.5 -50.5t23.5 -54t56 -47t96 -20.5q-133 61 -133 158q0 51 30 87q35 43 89 43q27 0 54 -12q-68 -47 -68 -125q0 -61 49 -125q-11 44 -11 83q0 44 14.5 76t37.5 47.5t44 22.5t40 7q41 0 72 -25t42 -66z" />
<glyph unicode="&#x58e;" horiz-adv-x="961" d="M539 0h-505l-33 75l244 380l-109 73q-61 38 -61 111q0 68 50 124l116 -60q-16 -23 -16 -43q0 -30 36 -57l195 -107l-237 -362h320v-134zM672 328q-64 0 -87 35t-23 95v172h100v-164q0 -30 10 -40t34 -10q31 0 63 16v224q0 49 29.5 78t86.5 29q48 0 84 -17l-26 -70 q-23 9 -43 9q-29 0 -29 -30v-320h-102v30q-48 -37 -97 -37zM563 209v80h323v-80h-323z" />
<glyph unicode="&#x58f;" horiz-adv-x="568" d="M284 -12l-20 3q-1 0 -28.5 6.5t-51.5 6.5q-51 0 -100.5 45.5t-49.5 114.5v130q0 68 46.5 111t114.5 61q-1 1 -1 3q-21 56 -101 60q35 35 100 35q22 0 43 -13q6 21 13 38q5 15 13.5 31.5t13.5 25.5l6 9q25 -33 37 -66l13 -38q20 13 43 13q65 0 100 -35q-80 -4 -101 -60 l-1 -2q69 -19 115 -61.5t46 -111.5v-130q0 -69 -49.5 -114.5t-100.5 -45.5q-24 0 -51.5 -6.5t-28.5 -6.5z" />
<glyph unicode="&#x2013;" horiz-adv-x="562" d="M51 230v113h460v-113h-460z" />
<glyph unicode="&#x2014;" horiz-adv-x="911" d="M51 230v113h809v-113h-809z" />
<glyph unicode="&#x2018;" horiz-adv-x="233" d="M48 485v98q0 96 63 172h100q-32 -59 -32 -134v-136h-131z" />
<glyph unicode="&#x2019;" horiz-adv-x="234" d="M36 485q32 59 32 134v136h131v-98q0 -96 -63 -172h-100z" />
<glyph unicode="&#x201c;" horiz-adv-x="434" d="M48 485v98q0 96 63 172h101q-32 -59 -32 -134v-136h-132zM248 485v98q0 96 63 172h101q-32 -59 -32 -134v-136h-132z" />
<glyph unicode="&#x201d;" horiz-adv-x="435" d="M36 485q32 59 32 134v136h132v-98q0 -96 -63 -172h-101zM236 485q32 59 32 134v136h132v-98q0 -96 -63 -172h-101z" />
<glyph unicode="&#x2020;" horiz-adv-x="562" d="M195 0l10 462l-170 -9v150l168 -9l-10 160h176l-10 -160l168 9v-150l-170 9l10 -462h-172z" />
<glyph unicode="&#x2021;" horiz-adv-x="586" d="M207 0l10 160l-170 -9v150l170 -8v169l-170 -9v150l168 -9l-10 160h176l-10 -160l168 9v-150l-169 9v-169l169 8v-150l-169 9l10 -160h-173z" />
<glyph unicode="&#x2022;" horiz-adv-x="364" d="M182 208q-60 0 -102.5 42t-42.5 102t42.5 102.5t102.5 42.5t102.5 -42.5t42.5 -102.5t-42.5 -102t-102.5 -42z" />
<glyph unicode="&#x2026;" horiz-adv-x="907" d="M58 0v147h168v-147h-168zM370 0v147h168v-147h-168zM681 0v147h168v-147h-168z" />
<glyph unicode="&#x2039;" horiz-adv-x="301" d="M159 43l-128 229l127 227l103 -42l-91 -185l90 -179z" />
<glyph unicode="&#x203a;" horiz-adv-x="300" d="M142 43l-101 50l89 179l-91 185l103 42l127 -227z" />
<glyph unicode="&#x20ac;" horiz-adv-x="622" d="M399 -8q-124 0 -200.5 47t-101.5 137h-56v70h45q0 3 -0.5 11t-0.5 12q0 6 0.5 16.5t0.5 15.5h-45v70h57q51 180 298 180q102 0 185 -36l-43 -111q-72 19 -141 20q-90 2 -128 -53h189v-70h-214q-1 -8 -1 -25q0 -21 2 -30h213v-70h-185q44 -56 140 -56q67 0 135 17l34 -115 q-85 -30 -183 -30z" />
<glyph unicode="&#x2122;" horiz-adv-x="881" d="M383 353v355h121l98 -234l98 234h116v-355h-109l4 150l-60 -150h-107l-54 145l2 -145h-109zM144 353v259h-108v96h325v-96h-108v-259h-109z" />
<glyph unicode="&#x2212;" horiz-adv-x="652" d="M64 242v126h524v-126h-524z" />
<glyph unicode="&#x221e;" horiz-adv-x="939" d="M234 115q-92 0 -138.5 47t-46.5 137q0 87 51.5 138t137.5 51q18 0 36.5 -4.5t31.5 -9.5t37 -20t35.5 -22t44.5 -30.5t47 -33.5q22 14 57.5 38.5t52 35t40.5 23.5t43 18t40 5q90 0 138.5 -48.5t48.5 -134.5q0 -89 -51 -139.5t-141 -50.5q-26 0 -55 11t-48.5 23.5t-61.5 41 t-68 45.5q-21 -14 -55.5 -38.5t-51 -35t-40 -24t-43.5 -18.5t-41 -5zM239 237q9 0 18.5 2.5t17.5 5.5t21 10.5t20.5 12.5t24.5 16t26 17q-8 5 -23 15t-21.5 14.5t-18.5 12t-19 11t-16.5 7.5t-17 5.5t-15.5 1.5q-30 0 -47 -20t-17 -45q0 -28 17.5 -47t49.5 -19zM702 237 q30 0 47 19.5t17 45.5q0 28 -18 47t-49 19q-28 0 -117 -56q-9 -6 -14 -9q15 -9 40 -24.5t37 -22.5t28 -13t29 -6z" />
<glyph unicode="&#x2260;" horiz-adv-x="594" d="M41 11l74 102h-47l-2 126h140l91 125h-229l-2 126h322l68 93h103l-68 -93h39v-126h-130l-91 -125h221v-126h-312l-74 -102h-103z" />
<glyph unicode="&#x2264;" horiz-adv-x="558" d="M502 0h-453v133h408l-408 145v151l453 161v-139l-275 -98l275 -97v-256z" />
<glyph unicode="&#x2265;" horiz-adv-x="558" d="M510 278l-408 -145h408v-133h-453v256l275 97l-275 98v139l453 -161v-151z" />
<glyph unicode="&#xe000;" horiz-adv-x="545" d="M0 545h545v-545h-545v545z" />
<glyph unicode="&#xf8ff;" horiz-adv-x="1241" d="M1141 357h-10v-10h-11v10h-10v11h10v10h11v-10h10v-11zM1081 377h-11v11h11v-11zM1081 338h-11v10h11v-10zM1041 377h-11v11h11v-11zM1071 357h-10v-10h-11v10h-10v11h10v10h11v-10h10v-11zM1041 338h-11v10h11v-10zM1001 387h-10v-10h-11v11h10v10h11v-11zM1001 328h-11 v10h-10v10h11v-10h10v-10zM951 377h-11v10h-10v11h11v-10h10v-11zM981 357h-10v-10h-11v10h-10v11h10v10h11v-10h10v-11zM951 338h-10v-10h-11v10h10v10h11v-10zM911 338h-31v9h-10v31h10v10h21v-10h10v-21h-30v-9h30v-10zM900 368v9h-19v-9h19zM851 338h-31v9h-10v41h11 v-40h19v40h11v-50zM791 318h-11v20h-20v9h-10v31h10v10h31v-70zM780 348v29h-19v-29h19zM731 338h-31v9h-10v31h10v10h21v-10h10v-21h-30v-9h30v-10zM720 368v9h-19v-9h19zM671 338h-11v39h-19v-39h-11v70h11v-20h20v-10h10v-40zM611 338h-21v9h-10v30h-10v11h10v10h11v-10 h20v-11h-20v-29h20v-10zM551 347h-10v-9h-21v9h-10v31h10v10h21v-10h10v-31zM540 348v29h-19v-29h19zM491 347h-10v-9h-20v-20h-11v70h31v-10h10v-31zM480 348v29h-19v-29h19zM431 347h-10v-9h-10v-10h-10v-10h-11v11h10v18h-10v41h11v-40h19v40h11v-41zM371 338h-21v9h-10 v30h-10v11h10v10h11v-10h20v-11h-20v-29h20v-10zM311 387h-10v-10h-11v11h10v10h11v-11zM311 328h-11v10h-10v10h11v-10h10v-10zM261 377h-11v10h-10v11h11v-10h10v-11zM291 357h-10v-10h-11v10h-10v11h10v10h11v-10h10v-11zM261 338h-10v-10h-11v10h10v10h11v-10zM211 377 h-11v11h11v-11zM211 338h-11v10h11v-10zM171 377h-11v11h11v-11zM201 357h-10v-10h-11v10h-10v11h10v10h11v-10h10v-11zM171 338h-11v10h11v-10zM131 357h-10v-10h-11v10h-10v11h10v10h11v-10h10v-11z" />
<glyph horiz-adv-x="250" />
<glyph horiz-adv-x="326" d="M42 737l-99 100l99 100l100 -100zM286 737l-100 100l100 100l99 -100z" />
<glyph horiz-adv-x="799" d="M403 714q-56 0 -95.5 26t-39.5 87q0 59 39 90t93 31q50 0 92 -28t42 -91q0 -57 -37.5 -86t-93.5 -29zM401 778q50 0 55 50q0 23 -15.5 37t-39.5 14q-55 0 -55 -49q0 -24 14.5 -38t40.5 -14z" />
<glyph horiz-adv-x="750" d="M501 744l-275 49l27 131l271 -67z" />
<glyph horiz-adv-x="785" d="M450 755q-27 0 -68.5 19t-59.5 19q-38 0 -70 -28l-63 74q68 82 144 82q35 0 72.5 -19t50.5 -19q38 0 87 26l55 -74q-74 -80 -148 -80z" />
<glyph horiz-adv-x="750" d="M249 744l-23 113l271 67l27 -131z" />
</font>
</defs>
</svg>
